<svg width="64" height="64" viewBox="0 0 64 64" fill="none" xmlns="http://www.w3.org/2000/svg">
<circle cx="32" cy="32" r="32" fill="#00020E"/>
<mask id="mask0" mask-type="alpha" maskUnits="userSpaceOnUse" x="0" y="0" width="64" height="64">
<circle cx="32" cy="32" r="32" fill="#00020E"/>
</mask>
<g mask="url(#mask0)">
<path fill-rule="evenodd" clip-rule="evenodd" d="M86.8411 49.7473C79.2792 45.7059 71.2853 42.5133 63.08 40.2573C58.3725 38.9636 53.5319 37.9619 48.6907 37.2799L48.6352 29.2349C48.3661 25.918 47.0113 21.255 44.6719 18.8552L44.5655 18.7466L44.4595 18.8552C42.0583 21.3192 40.7138 26.0721 40.4805 29.4482C40.3598 31.5594 40.4006 33.9104 40.4403 36.1855L40.4407 36.2138L40.4439 36.4201C38.2107 36.2693 35.9561 36.1806 33.7394 36.1573L33.588 36.1552V41.8829L33.6 41.9432C35.4117 46.3363 35.4963 48.25 32.4999 52.199C29.5043 48.2512 29.5886 46.3363 31.4006 41.9432L31.4126 36.1552L31.2606 36.1573C29.0444 36.1806 26.7898 36.2693 24.5565 36.4201L24.5596 36.2302C24.5997 33.9408 24.6408 31.5732 24.5197 29.4467C24.2865 26.0727 22.9424 21.3192 20.5406 18.8552L20.4342 18.7466L20.3282 18.8552C17.9887 21.255 16.6336 25.918 16.3644 29.2467L16.3101 37.2799C11.4688 37.9619 6.62784 38.9636 1.92034 40.2573C-6.28442 42.5133 -14.2787 45.7059 -21.8408 49.7473L-22 49.8321L-20.0747 52.4207L-19.9629 52.3612C-12.7419 48.5458 -5.10725 45.5193 2.7277 43.3652C8.03038 41.9083 13.5771 40.8267 19.2146 40.1505L19.3474 40.1348V31.0394C19.3474 29.274 19.7224 27.2358 20.4342 25.1201C21.146 27.2372 21.5214 29.2755 21.5214 31.0394V39.8999L21.6844 39.8856C24.2374 39.659 26.3684 39.5195 28.3746 39.4467V41.8965C25.6728 47.9563 27.9091 52.1258 32.3918 56.8845L32.4999 57L32.6079 56.8845C37.0909 52.1258 39.3272 47.9563 36.6259 41.8965V39.4467C38.6322 39.5195 40.7632 39.659 43.3153 39.8856L43.4786 39.8999V31.0394C43.4786 29.2755 43.854 27.2372 44.5655 25.1201C45.2777 27.2361 45.6531 29.2749 45.6531 31.0394V40.1348L45.786 40.1505C51.4232 40.8267 56.9693 41.9083 62.2723 43.3652C70.1068 45.5193 77.7411 48.5458 84.9634 52.3612L85.0745 52.4207L87 49.8321L86.8411 49.7473ZM24.1419 41.798L24.4753 41.7777L24.5119 42.119C24.907 45.899 22.4918 48.4738 20.7282 50.3536L20.476 50.623L20.2247 50.3524C18.343 48.3382 16.3976 46.2555 16.3398 42.9731L16.3344 42.6579L16.6365 42.6099C17.3684 42.4947 18.1251 42.3857 18.9502 42.2753L19.354 42.2205V42.6422C19.3025 43.9606 19.7425 44.7307 20.4763 45.7958C21.1842 44.7485 21.5018 43.953 21.5018 42.3573V41.9992L21.8466 41.9698C22.6117 41.9036 23.3759 41.8479 24.1419 41.798ZM46.0567 42.2753L45.6532 42.2205V42.6482C45.7047 43.9606 45.2647 44.7307 44.5306 45.7958C43.8231 44.7485 43.5054 43.953 43.5054 42.3573V41.9992L43.1612 41.9698C42.3955 41.9036 41.6313 41.8479 40.8646 41.798L40.5319 41.7777L40.4956 42.119C40.0999 45.8989 42.5154 48.4735 44.2789 50.3533L44.5312 50.623L44.7825 50.3524C46.6641 48.3382 48.6096 46.2555 48.6677 42.9731L48.6728 42.6579L48.3709 42.6099C47.6388 42.4947 46.8823 42.3857 46.0567 42.2753ZM31.2641 33.5553L31.4131 33.5539V19.0477C31.4131 17.3023 31.7794 15.2906 32.4752 13.202L32.526 13.2029C33.2218 15.2906 33.5884 17.3023 33.5884 19.0477V33.5539L33.7374 33.5553C34.6333 33.5645 35.553 33.5851 36.4713 33.6155L36.6262 33.6209V19.0477C36.6262 12.4313 32.6332 7.06445 32.5928 7.03237L32.552 7H32.5002C32.2004 7 28.3749 12.6679 28.3749 19.0477V33.6209L28.5301 33.6155C29.4484 33.5851 30.3679 33.5645 31.2641 33.5553Z" fill="white"/>
</g>
</svg>
