<svg width="149" height="91" viewBox="0 0 149 91" fill="none" xmlns="http://www.w3.org/2000/svg">
<path d="M0.0999985 42.5996C2.7 36.2996 7.7 32.0996 13 28.2996C17.6 24.8996 22.6 22.1996 27.7 19.6996C38.6 14.2996 49.9 10.2996 61.5 6.99961C66.6 5.59961 71.7 4.49961 76.8 3.29961C77.3 3.19961 77.8 3.19961 78.4 3.29961C75.3 3.99961 72.2 4.79961 69 5.49961C58.1 8.19961 47.5 11.7996 37.2 16.2996C30 19.3996 23 23.0996 16.4 27.3996C11.2 30.6996 6.4 34.4996 2.5 39.3996C1.8 40.2996 1.2 41.3996 0.599998 42.3996C0.399998 42.6996 0.3 42.8996 0 42.8996C0.1 42.7996 0.0999985 42.6996 0.0999985 42.5996Z" fill="#F4F5FF"/>
<path d="M79.6991 3.6C78.3991 2.6 77.1991 2.1 75.6991 1.3C82.0991 0.9 88.1991 0.4 94.1991 0C94.1991 0.1 94.2991 0.2 94.2991 0.3C89.4991 3.7 84.6991 7.1 79.5991 10.7C79.5991 8.9 79.6991 4.3 79.6991 4.3L78.0991 4.7C71.2991 6.7 64.4991 8.9 57.7991 11.5C52.5991 13.5 47.4991 15.7 42.4991 18.3C34.6991 22.3 27.2991 26.9 21.2991 33.3C17.4991 37.3 14.3991 41.7 13.4991 47.4C12.5991 54 13.9991 60 18.3991 65.2L18.7991 65.6V65.8C17.7991 65.9 16.8991 65.3 16.0991 64.9C12.0991 63.2 8.29913 61.1 5.29913 57.9C3.19913 55.6 1.69913 53.1 1.39913 50C1.19913 47.8 1.99913 45.7 2.89913 43.8C4.99913 39.6 8.19913 36.3 11.5991 33.3C15.9991 29.5 20.6991 26.3 25.6991 23.4C31.2991 20.2 37.0991 17.4 43.0991 14.9C53.6991 10.4 64.5991 7.1 75.7991 4.5C76.9991 4.3 78.1991 4.1 79.6991 3.6V3.6ZM115.299 51.5C117.399 49.8 119.699 49.4 122.099 50C123.999 50.5 125.299 51.6 125.899 53.5C126.399 55.2 126.499 56.9 126.499 58.6V64.8C126.499 65.7 126.199 66.1 125.299 66C124.399 66 124.399 65.4 124.399 64.8C124.399 62.2 124.499 59.2 124.399 57.1C124.299 56 124.199 55.1 123.899 54.2C123.299 52.4 121.799 51.7 119.199 51.8C117.499 51.9 115.899 53 115.399 54.6C114.899 56.3 115.099 58 115.099 59.7V64.7C115.099 65.5 114.999 66 113.999 66C113.099 66 112.999 65.5 112.999 64.8V51.5C112.999 50.9 112.999 50.1 113.699 50C114.899 49.9 115.399 50.3 115.299 51.5ZM69.8991 77.6C71.1991 76.6 72.4991 76.4 73.9991 76.7C75.1991 77 75.8991 77.6 76.2991 78.8C76.5991 79.8 76.6991 80.8 76.6991 81.9V85.6C76.6991 86.1 76.4991 86.4 75.9991 86.3C75.4991 86.3 75.4991 85.9 75.4991 85.6C75.4991 84.1 75.5991 82.3 75.4991 81C75.4991 80.3 75.3991 79.8 75.1991 79.3C74.7991 78.2 73.9991 77.8 72.3991 77.8C71.3991 77.8 70.3991 78.5 70.0991 79.5C69.7991 80.5 69.9991 81.5 69.8991 82.6V85.6C69.8991 86.1 69.7991 86.4 69.1991 86.4C68.5991 86.4 68.5991 86.1 68.5991 85.7V77.7C68.5991 77.4 68.5991 76.9 68.9991 76.8C69.6991 76.7 69.8991 77 69.8991 77.6V77.6ZM35.0991 77.6C36.3991 76.6 37.6991 76.4 39.1991 76.7C40.3991 77 41.0991 77.6 41.4991 78.8C41.7991 79.8 41.8991 80.8 41.8991 81.9V85.6C41.8991 86.1 41.6991 86.4 41.1991 86.3C40.6991 86.3 40.6991 85.9 40.6991 85.6C40.6991 84.1 40.7991 82.3 40.6991 81C40.6991 80.3 40.5991 79.8 40.3991 79.3C39.9991 78.2 39.1991 77.8 37.5991 77.8C36.5991 77.8 35.5991 78.5 35.2991 79.5C34.9991 80.5 35.1991 81.5 35.0991 82.6V85.6C35.0991 86.1 34.9991 86.4 34.3991 86.4C33.7991 86.4 33.7991 86.1 33.7991 85.7V77.7C33.7991 77.4 33.7991 76.9 34.1991 76.8C34.8991 76.7 35.0991 77 35.0991 77.6V77.6ZM51.9991 51.7C52.9991 50.8 53.5991 50.3 54.3991 50C54.8991 49.8 55.4991 49.6 55.5991 50.4C55.6991 51 56.0991 51.9 55.0991 52.1C52.2991 52.8 52.0991 55 52.0991 57.3C51.9991 59.8 52.0991 62.3 52.0991 64.8C52.0991 65.5 52.0991 66 51.0991 66C50.0991 66 49.9991 65.6 49.9991 64.7V51.4C49.9991 50.8 49.9991 49.9 50.6991 49.9C51.7991 50 52.0991 50.1 51.9991 51.7V51.7ZM104.699 51.7C105.699 50.9 106.199 50.4 107.099 50.1C107.599 49.9 108.199 49.4 108.299 50.2C108.399 50.8 108.799 51.9 107.899 52.1C104.799 52.8 104.799 55.1 104.799 57.5V64.9C104.799 65.7 104.699 66.1 103.699 66.1C102.799 66.1 102.699 65.7 102.699 64.9V51.5C102.699 50.8 102.599 50.2 103.699 50.1C104.899 49.9 104.699 50.6 104.699 51.7ZM111.599 77.7C112.199 77.2 112.499 76.9 112.999 76.7C113.299 76.6 113.599 76.3 113.699 76.8C113.799 77.2 113.999 77.8 113.499 78C111.699 78.4 111.699 79.8 111.699 81.3V85.7C111.699 86.2 111.599 86.4 111.099 86.4C110.599 86.4 110.499 86.1 110.499 85.7V77.6C110.499 77.2 110.399 76.8 111.099 76.8C111.799 76.7 111.599 77.1 111.599 77.7V77.7ZM41.7991 58V51.2C41.7991 50.5 41.7991 50 42.7991 50C43.6991 50 44.1991 50.2 44.1991 51.2V64.8C44.1991 65.6 43.8991 66 43.0991 66C42.1991 66 41.7991 65.7 41.7991 64.8V58V58ZM125.199 81.5V77.5C125.199 77.2 125.199 76.9 125.499 76.8C125.799 76.7 126.299 76.8 126.299 77.1V77.6C128.799 76.1 132.499 76.7 132.899 79.4C133.099 80.2 133.099 82 133.099 82V85.2C133.099 85.7 133.099 86.3 132.599 86.4C131.899 86.5 131.799 86 131.799 85.4V80.5C131.799 78.7 130.899 77.9 129.199 77.9C127.299 77.9 126.499 78.7 126.499 80.6V85.3C126.499 85.9 126.499 86.4 125.799 86.4C125.299 86.4 125.299 85.7 125.299 85.3C125.299 84 125.199 81.5 125.199 81.5V81.5ZM118.499 81.5V77.7C118.499 77.3 118.399 76.8 119.099 76.8C119.699 76.8 119.699 77.3 119.699 77.7V85.6C119.699 86 119.699 86.4 119.099 86.5C118.399 86.5 118.499 86 118.499 85.6V81.5V81.5ZM63.0991 81.5V85.2C63.0991 85.7 63.0991 86.3 62.3991 86.3C61.6991 86.3 61.8991 85.7 61.8991 85.3V77.8C61.8991 77.4 61.6991 76.7 62.4991 76.7C63.2991 76.7 62.9991 77.4 63.0991 77.8C63.1991 79.1 63.0991 80.3 63.0991 81.5V81.5Z" fill="#F4F5FF"/>
<path d="M44.1998 46.2004C44.1998 47.4004 44.3998 48.2004 42.9998 48.2004C41.4998 48.2004 41.7998 47.3004 41.7998 46.5004C41.7998 45.6004 41.6998 44.9004 42.9998 44.9004C44.3998 45.0004 44.1998 45.8004 44.1998 46.2004V46.2004ZM61.8998 74.8004C61.9998 74.4004 61.7998 73.8004 62.3998 73.8004C63.1998 73.8004 62.9998 74.4004 63.0998 74.8004C63.0998 75.2004 63.1998 75.7004 62.4998 75.7004C61.8998 75.7004 61.9998 75.2004 61.8998 74.8004V74.8004ZM119.7 74.8004C119.7 75.1004 119.8 75.7004 119.1 75.8004C118.4 75.8004 118.5 75.3004 118.5 74.9004C118.5 74.4004 118.4 73.8004 119.2 73.9004C119.8 73.8004 119.7 74.4004 119.7 74.8004ZM135.4 58.6004H148.1C148.1 57.8004 148 56.3004 147.8 55.6004C145.9 49.3004 139.2 48.3004 135.1 51.1004C131.2 53.7004 130.6 59.8004 133.6 63.4004C135.7 65.9004 138.4 66.7004 141.4 66.2004C144.3 65.8004 146.3 63.9004 147.4 61.0004C146.2 60.8004 145.3 60.7004 144.5 61.9004C143.1 64.1004 140.8 64.5004 138.5 64.1004C136.3 63.7004 135 62.3004 134.2 60.2004C133.9 59.5004 133.9 58.5004 133.9 58.5004C133.9 58.5004 134.5 58.6004 135.4 58.6004V58.6004ZM134.1 55.9004C134.6 53.6004 136.5 51.8004 139.2 51.5004C141.7 51.2004 144.2 52.6004 145.2 54.8004C145.3 55.1004 145.5 55.4004 145.6 55.8004C145.8 56.5004 145.8 56.9004 145.8 56.9004H134C134 56.9004 134 56.7004 134.1 55.9004V55.9004ZM97.9998 81.9004H105.6C105.6 81.4004 105.5 80.6004 105.4 80.1004C104.3 76.3004 100.3 75.7004 97.7998 77.4004C95.4998 79.0004 95.0998 82.6004 96.8998 84.7004C98.0998 86.2004 99.6998 86.7004 101.6 86.4004C103.3 86.1004 104.5 85.0004 105.2 83.3004C104.5 83.2004 103.9 83.1004 103.5 83.8004C102.7 85.1004 101.3 85.3004 99.8998 85.1004C98.5998 84.9004 97.7998 84.0004 97.3998 82.8004C97.1998 82.4004 97.1998 81.8004 97.1998 81.8004C97.1998 81.8004 97.4998 81.9004 97.9998 81.9004V81.9004ZM97.1998 80.3004C97.4998 78.9004 98.6998 77.9004 100.3 77.7004C101.8 77.5004 103.3 78.4004 103.9 79.7004C104 79.9004 104.1 80.1004 104.1 80.3004C104.2 80.7004 104.2 81.0004 104.2 81.0004H97.1998C97.1998 81.0004 97.0998 80.7004 97.1998 80.3004V80.3004ZM83.6998 81.9004H91.2998C91.2998 81.4004 91.1998 80.6004 91.0998 80.1004C89.9998 76.3004 85.9998 75.7004 83.4998 77.4004C81.1998 79.0004 80.7998 82.6004 82.5998 84.7004C83.7998 86.2004 85.3998 86.7004 87.2998 86.4004C88.9998 86.1004 90.1998 85.0004 90.8998 83.3004C90.1998 83.2004 89.5998 83.1004 89.1998 83.8004C88.3998 85.1004 86.9998 85.3004 85.5998 85.1004C84.2998 84.9004 83.4998 84.0004 83.0998 82.8004C82.8998 82.4004 82.8998 81.8004 82.8998 81.8004C82.8998 81.8004 83.0998 81.9004 83.6998 81.9004V81.9004ZM82.8998 80.3004C83.1998 78.9004 84.3998 77.9004 85.9998 77.7004C87.4998 77.5004 88.9998 78.4004 89.5998 79.7004C89.6998 79.9004 89.7998 80.1004 89.7998 80.3004C89.8998 80.7004 89.8998 81.0004 89.8998 81.0004H82.8998C82.8998 81.0004 82.7998 80.7004 82.8998 80.3004V80.3004ZM21.3998 81.9004H28.9998C28.9998 81.4004 28.8998 80.6004 28.7998 80.1004C27.6998 76.3004 23.6998 75.7004 21.1998 77.4004C18.8998 79.0004 18.4998 82.6004 20.2998 84.7004C21.4998 86.2004 23.0998 86.7004 24.9998 86.4004C26.6998 86.1004 27.8998 85.0004 28.5998 83.3004C27.8998 83.2004 27.2998 83.1004 26.8998 83.8004C26.0998 85.1004 24.6998 85.3004 23.2998 85.1004C21.9998 84.9004 21.1998 84.0004 20.7998 82.8004C20.5998 82.4004 20.5998 81.8004 20.5998 81.8004C20.5998 81.8004 20.8998 81.9004 21.3998 81.9004V81.9004ZM20.6998 80.3004C20.9998 78.9004 22.1998 77.9004 23.7998 77.7004C25.2998 77.5004 26.7998 78.4004 27.3998 79.7004C27.4998 79.9004 27.5998 80.1004 27.5998 80.3004C27.6998 80.7004 27.6998 81.0004 27.6998 81.0004H20.6998C20.6998 81.0004 20.5998 80.7004 20.6998 80.3004ZM147.8 77.3004C147.8 77.0004 147.7 76.7004 147.3 76.7004C146.9 76.6004 146.7 76.8004 146.6 77.3004C146.6 77.5004 146.6 77.8004 146.5 78.0004C144 76.1004 141.3 76.0004 139.4 78.0004C137.6 79.7004 137.5 82.7004 139.1 84.7004C140 85.9004 141.3 86.5004 142.8 86.5004C144.4 86.5004 145.6 85.8004 146.6 84.8004C146.4 86.9004 145.9 88.2004 144.2 88.8004C142.9 89.2004 141.3 88.8004 140.3 87.5004C139.9 87.0004 139.4 86.9004 139 87.3004C138.5 87.7004 138.9 88.1004 139.2 88.4004C141 90.3004 143.2 90.2004 144.2 90.0004C145.6 89.6004 147 88.6004 147.3 87.0004C148.2 83.7004 147.7 80.5004 147.8 77.3004V77.3004ZM142.8 85.2004C140.7 85.1004 139.2 83.9004 139.3 81.4004C139.3 79.6004 140.7 77.6004 143 77.6004C145 77.6004 146.7 79.8004 146.6 81.7004C146.5 83.6004 144.8 85.3004 142.8 85.2004V85.2004ZM56.3998 77.3004C56.3998 77.0004 56.2998 76.7004 55.8998 76.7004C55.4998 76.6004 55.2998 76.8004 55.1998 77.3004C55.1998 77.5004 55.1998 77.8004 55.0998 78.0004C52.5998 76.1004 49.8998 76.0004 47.9998 78.0004C46.1998 79.7004 46.0998 82.7004 47.6998 84.7004C48.5998 85.9004 49.8998 86.5004 51.3998 86.5004C52.9998 86.5004 54.1998 85.8004 55.1998 84.8004C54.9998 86.9004 54.4998 88.2004 52.7998 88.8004C51.4998 89.2004 49.8998 88.8004 48.8998 87.5004C48.4998 87.0004 47.9998 86.9004 47.5998 87.3004C47.0998 87.7004 47.4998 88.1004 47.7998 88.4004C49.5998 90.3004 51.7998 90.2004 52.7998 90.0004C54.1998 89.6004 55.5998 88.6004 55.8998 87.0004C56.7998 83.7004 56.2998 80.5004 56.3998 77.3004V77.3004ZM51.4998 85.2004C49.3998 85.1004 47.8998 83.9004 47.9998 81.4004C47.9998 79.6004 49.3998 77.6004 51.6998 77.6004C53.6998 77.6004 55.3998 79.8004 55.2998 81.7004C55.1998 83.6004 53.3998 85.3004 51.4998 85.2004ZM74.3998 52.1004C71.7998 49.2004 66.7998 48.4004 62.5998 52.4004V46.3004C62.5998 45.5004 62.4998 45.0004 61.4998 45.0004C60.5998 45.0004 60.4998 45.5004 60.4998 46.2004V64.8004C60.4998 65.5004 60.5998 66.0004 61.4998 66.0004C62.3998 66.0004 62.5998 65.6004 62.5998 64.8004V63.8004C66.1998 67.2004 71.3998 67.2004 74.5998 63.6004C77.3998 60.4004 77.4998 55.5004 74.3998 52.1004V52.1004ZM68.4998 64.4004C65.0998 64.4004 62.4998 61.7004 62.5998 58.1004C62.6998 54.2004 64.8998 51.7004 68.4998 51.6004C71.7998 51.5004 74.3998 54.3004 74.3998 57.8004C74.5998 61.6004 71.8998 64.4004 68.4998 64.4004ZM35.8998 64.7004V61.4004V51.0004C35.8998 50.3004 35.7998 49.9004 34.8998 49.9004C34.0998 49.9004 33.6998 50.2004 33.7998 51.0004V52.3004C29.5998 48.2004 24.6998 49.3004 21.9998 51.9004C19.0998 54.8004 18.3998 59.4004 21.3998 63.3004C22.4998 64.8004 24.1998 65.7004 25.9998 66.1004C28.8998 66.6004 31.4998 65.9004 33.7998 63.5004V64.7004C33.7998 65.4004 33.7998 65.9004 34.7998 65.9004C35.7998 66.1004 35.8998 65.5004 35.8998 64.7004V64.7004ZM27.6998 64.5004C24.5998 64.6004 21.6998 61.4004 21.6998 58.2004C21.6998 54.7004 24.0998 51.7004 27.7998 51.8004C31.3998 51.6004 33.9998 54.9004 33.8998 58.0004C33.6998 61.5004 30.7998 64.4004 27.6998 64.5004V64.5004ZM97.4998 57.9004C97.4998 53.4004 94.1998 49.6004 89.2998 49.5004C84.8998 49.5004 81.1998 52.9004 81.1998 57.9004C81.1998 62.3004 84.1998 66.3004 89.2998 66.3004C93.5998 66.4004 97.4998 62.4004 97.4998 57.9004ZM89.2998 64.2004C85.5998 64.1004 83.0998 61.6004 83.0998 57.8004C83.0998 54.3004 85.8998 51.5004 89.2998 51.4004C92.5998 51.4004 95.3998 54.3004 95.3998 57.9004C95.3998 60.9004 93.1998 64.2004 89.2998 64.2004V64.2004Z" fill="#F4F5FF"/>
</svg>
