<svg width="128" height="90" viewBox="0 0 128 90" fill="none" xmlns="http://www.w3.org/2000/svg">
<path d="M116.5 0H85.0999L75.3999 28.8L100.8 46.9L126.1 28.7L116.5 0ZM98.0999 42.2L80.6999 29.9C78.9999 28.7 78.2999 26.6 78.9999 24.6L85.5999 5.2C86.1999 3.3 87.9999 2 89.9999 2H111.6C113.6 2 115.4 3.3 116 5.2L122.5 24.5C123.1 26.5 122.5 28.6 120.8 29.8L103.5 42.2C102.721 42.7842 101.774 43.1 100.8 43.1C99.8262 43.1 98.8788 42.7842 98.0999 42.2Z" fill="#F4F5FF"/>
<path d="M118.8 15.6999L117.9 13.3999H114.3L100.6 22.9999L87.5999 13.6999H83.4999L82.8999 15.9999L96.8999 25.5999L86.2999 33.1999L89.6999 35.6999L100.6 28.1999L111.5 35.6999L114.9 33.1999L104.3 25.5999L118.8 15.6999Z" fill="#F4F5FF"/>
<path d="M88.0999 25.2999C88.2999 24.9999 88.5999 25.0999 89.0999 25.4999C89.6999 25.9999 91.0999 24.8999 90.9999 23.8999C90.8999 22.8999 89.5999 21.8999 88.9999 22.0999C88.1999 22.3999 88.1999 24.0999 87.4999 23.5999C87.1999 23.2999 86.8999 23.0999 86.4999 22.9999C86.0999 22.6999 86.4999 22.4999 87.1999 22.0999C87.8999 21.6999 87.1999 19.9999 86.1999 19.7999C85.1999 19.5999 83.8999 20.4999 83.8999 21.0999C83.8999 21.9999 85.4999 22.5999 84.7999 23.0999C84.5999 23.1999 84.3999 23.2999 84.1999 23.4999C83.5999 23.5999 83.4999 23.2999 83.2999 22.5999C83.0999 21.8999 81.2999 22.1999 80.7999 23.0999C80.3999 23.9999 80.9999 25.4999 81.5999 25.5999C82.4999 25.7999 83.0999 24.1999 83.5999 25.0999C83.5999 25.4999 83.7999 25.7999 83.8999 26.0999C84.0999 26.6999 83.5999 26.6999 82.7999 26.5999C81.9999 26.4999 81.4999 28.1999 82.0999 28.9999C82.6999 29.7999 84.2999 29.7999 84.6999 29.3999C85.7999 28.3999 83.9999 27.1999 85.1999 27.0999C85.3999 27.0999 85.4999 27.1999 85.6999 27.1999C85.8999 27.1999 85.9999 27.1999 86.1999 27.0999C86.7999 27.3999 86.6999 27.6999 86.3999 28.4999C86.0999 29.1999 87.5999 30.1999 88.4999 29.8999C89.3999 29.5999 89.8999 28.0999 89.5999 27.4999C88.9999 26.2999 87.2999 27.2999 87.4999 26.2999C87.8999 25.8999 87.9999 25.5999 88.0999 25.2999ZM89.2999 24.2999H89.5999C89.6999 24.2999 89.7999 24.1999 89.8999 24.0999C89.8999 24.1999 89.7999 24.3999 89.6999 24.4999C89.5999 24.5999 89.3999 24.5999 89.2999 24.5999C88.9999 24.4999 88.7999 24.2999 88.6999 23.9999C88.8999 24.1999 89.0999 24.2999 89.2999 24.2999ZM82.6999 24.1999C82.5999 24.2999 82.3999 24.2999 82.2999 24.2999C81.9999 24.1999 81.7999 23.9999 81.6999 23.6999C81.8999 23.7999 82.0999 23.9999 82.3999 23.9999H82.6999C82.7999 23.9999 82.8999 23.8999 82.9999 23.7999C82.8999 23.9999 82.7999 24.1999 82.6999 24.1999ZM84.0999 28.5999C83.9999 28.6999 83.7999 28.6999 83.6999 28.6999C83.3999 28.5999 83.1999 28.3999 83.0999 28.0999C83.2999 28.1999 83.4999 28.3999 83.7999 28.3999H84.0999C84.1999 28.3999 84.2999 28.2999 84.3999 28.1999C84.2999 28.3999 84.1999 28.4999 84.0999 28.5999ZM84.9999 21.2999C85.1999 21.3999 85.3999 21.5999 85.6999 21.5999H85.9999C86.0999 21.5999 86.1999 21.4999 86.2999 21.3999C86.2999 21.4999 86.1999 21.6999 86.0999 21.7999C85.9999 21.8999 85.7999 21.8999 85.6999 21.8999C85.2999 21.7999 85.0999 21.4999 84.9999 21.2999ZM86.5999 25.6999C86.3999 25.7999 86.0999 25.8999 85.8999 25.8999C85.6999 25.8999 85.4999 25.6999 85.2999 25.5999C85.0999 25.3999 84.9999 25.2999 84.8999 25.0999C85.0999 25.1999 85.2999 25.2999 85.3999 25.3999C85.4999 25.4999 85.6999 25.5999 85.8999 25.5999C86.0999 25.5999 86.1999 25.5999 86.3999 25.4999C86.5999 25.3999 86.6999 25.2999 86.8999 25.1999C86.8999 25.2999 86.7999 25.4999 86.5999 25.6999ZM87.9999 28.4999H88.2999C88.3999 28.4999 88.4999 28.3999 88.5999 28.2999C88.5999 28.3999 88.4999 28.5999 88.3999 28.6999C88.2999 28.7999 88.0999 28.7999 87.9999 28.7999C87.6999 28.6999 87.4999 28.4999 87.3999 28.1999L87.9999 28.4999ZM103.1 35.7999C103.3 35.4999 103.6 35.5999 104.1 35.9999C104.7 36.4999 106.1 35.3999 106 34.3999C105.9 33.3999 104.6 32.3999 104 32.5999C103.2 32.8999 103.2 34.5999 102.5 34.0999C102.2 33.7999 101.9 33.5999 101.5 33.4999C101.1 33.1999 101.5 32.9999 102.2 32.5999C102.9 32.1999 102.2 30.4999 101.2 30.2999C100.2 30.0999 98.8999 30.9999 98.8999 31.5999C98.8999 32.4999 100.5 33.0999 99.7999 33.5999C99.5999 33.6999 99.3999 33.7999 99.1999 33.9999C98.5999 34.0999 98.4999 33.7999 98.2999 33.0999C98.0999 32.3999 96.2999 32.6999 95.7999 33.5999C95.3999 34.4999 95.9999 35.9999 96.5999 36.0999C97.4999 36.2999 98.0999 34.6999 98.5999 35.5999C98.5999 35.9999 98.7999 36.2999 98.8999 36.5999C99.0999 37.1999 98.5999 37.1999 97.7999 37.0999C96.9999 36.9999 96.4999 38.6999 97.0999 39.4999C97.6999 40.2999 99.2999 40.2999 99.6999 39.8999C100.8 38.8999 98.9999 37.6999 100.2 37.5999C100.4 37.5999 100.5 37.6999 100.7 37.6999C100.9 37.6999 101 37.6999 101.2 37.5999C101.8 37.8999 101.7 38.1999 101.4 38.9999C101.1 39.6999 102.6 40.6999 103.5 40.3999C104.4 39.9999 104.9 38.5999 104.6 37.9999C104 36.7999 102.3 37.7999 102.5 36.7999C102.9 36.3999 103 36.0999 103.1 35.7999ZM104.3 34.8999H104.6C104.7 34.8999 104.8 34.7999 104.9 34.6999C104.9 34.7999 104.8 34.9999 104.7 35.0999C104.6 35.1999 104.4 35.1999 104.3 35.1999C104 35.0999 103.8 34.8999 103.7 34.5999L104.3 34.8999ZM97.6999 34.7999C97.5999 34.8999 97.3999 34.8999 97.2999 34.8999C96.9999 34.7999 96.7999 34.5999 96.6999 34.2999C96.8999 34.3999 97.0999 34.5999 97.3999 34.5999H97.6999C97.7999 34.5999 97.8999 34.4999 97.9999 34.3999C97.8999 34.5999 97.7999 34.6999 97.6999 34.7999ZM99.0999 39.0999C98.9999 39.1999 98.7999 39.1999 98.6999 39.1999C98.3999 39.0999 98.1999 38.8999 98.0999 38.5999C98.2999 38.6999 98.4999 38.8999 98.7999 38.8999H99.0999C99.1999 38.8999 99.2999 38.7999 99.3999 38.6999C99.2999 38.8999 99.1999 38.9999 99.0999 39.0999ZM99.9999 31.7999C100.2 31.8999 100.4 32.0999 100.7 32.0999H101C101.1 32.0999 101.2 31.9999 101.3 31.8999C101.3 31.9999 101.2 32.1999 101.1 32.2999C101 32.3999 100.8 32.3999 100.7 32.3999C100.3 32.2999 100.1 32.0999 99.9999 31.7999ZM101.5 36.1999C101.3 36.2999 101 36.3999 100.8 36.3999C100.6 36.3999 100.4 36.1999 100.2 36.0999C99.9999 35.8999 99.8999 35.7999 99.7999 35.5999C99.9999 35.6999 100.2 35.7999 100.3 35.8999C100.4 35.9999 100.6 36.0999 100.8 36.0999C101 36.0999 101.1 36.0999 101.3 35.9999C101.5 35.8999 101.6 35.7999 101.8 35.6999C101.8 35.8999 101.7 36.0999 101.5 36.1999ZM103 38.9999H103.3C103.4 38.9999 103.5 38.8999 103.6 38.7999C103.6 38.8999 103.5 39.0999 103.4 39.1999C103.3 39.2999 103.1 39.2999 103 39.2999C102.7 39.1999 102.5 38.9999 102.4 38.6999C102.6 38.7999 102.8 38.9999 103 38.9999ZM117.5 25.8999C117.7 25.5999 118 25.6999 118.5 26.0999C119.1 26.5999 120.5 25.4999 120.4 24.4999C120.3 23.4999 119 22.4999 118.4 22.6999C117.6 22.9999 117.6 24.6999 116.9 24.1999C116.6 23.8999 116.3 23.6999 115.9 23.5999C115.5 23.2999 115.9 23.0999 116.6 22.6999C117.3 22.2999 116.6 20.5999 115.6 20.3999C114.6 20.1999 113.3 21.0999 113.3 21.6999C113.3 22.5999 114.9 23.1999 114.2 23.6999C114 23.7999 113.8 23.8999 113.6 24.0999C113 24.1999 112.9 23.8999 112.7 23.1999C112.5 22.4999 110.7 22.7999 110.2 23.6999C109.8 24.5999 110.4 26.0999 111 26.1999C111.9 26.3999 112.5 24.7999 113 25.6999C113 26.0999 113.2 26.3999 113.3 26.6999C113.5 27.2999 113 27.2999 112.2 27.1999C111.4 27.0999 110.9 28.7999 111.5 29.5999C112.1 30.3999 113.7 30.3999 114.1 29.9999C115.2 28.9999 113.4 27.7999 114.6 27.6999C114.8 27.6999 114.9 27.7999 115.1 27.7999C115.3 27.7999 115.4 27.7999 115.6 27.6999C116.2 27.9999 116.1 28.2999 115.8 29.0999C115.5 29.8999 117 30.7999 117.9 30.4999C118.8 30.1999 119.3 28.6999 119 28.0999C118.4 26.8999 116.7 27.8999 116.9 26.8999C117.3 26.4999 117.5 26.1999 117.5 25.8999ZM118.8 24.8999H119.1C119.2 24.8999 119.3 24.7999 119.4 24.6999C119.4 24.7999 119.3 24.9999 119.2 25.0999C119.1 25.1999 118.9 25.1999 118.8 25.1999C118.5 25.0999 118.3 24.8999 118.2 24.5999C118.3 24.7999 118.5 24.8999 118.8 24.8999ZM112.1 24.8999C112 24.9999 111.8 24.9999 111.7 24.9999C111.4 24.8999 111.2 24.6999 111.1 24.3999C111.3 24.4999 111.5 24.6999 111.8 24.6999H112.1C112.2 24.6999 112.3 24.5999 112.4 24.4999C112.3 24.5999 112.3 24.7999 112.1 24.8999ZM113.6 29.1999C113.5 29.2999 113.3 29.2999 113.2 29.2999C112.9 29.1999 112.7 28.9999 112.6 28.6999C112.8 28.7999 113 28.9999 113.3 28.9999H113.6C113.7 28.9999 113.8 28.8999 113.9 28.7999C113.8 28.9999 113.7 29.0999 113.6 29.1999ZM114.5 21.8999C114.7 21.9999 114.9 22.1999 115.2 22.1999H115.5C115.6 22.1999 115.7 22.0999 115.8 21.9999C115.8 22.0999 115.7 22.2999 115.6 22.3999C115.5 22.4999 115.3 22.4999 115.2 22.4999C114.8 22.3999 114.6 22.1999 114.5 21.8999ZM116 26.2999C115.8 26.3999 115.5 26.4999 115.3 26.4999C115.1 26.4999 114.9 26.2999 114.7 26.1999C114.5 25.9999 114.4 25.8999 114.3 25.6999C114.5 25.7999 114.7 25.8999 114.8 25.9999C114.9 26.0999 115.1 26.1999 115.3 26.1999C115.5 26.1999 115.6 26.1999 115.8 26.0999C116 25.9999 116.1 25.8999 116.3 25.7999C116.3 25.9999 116.2 26.1999 116 26.2999ZM117.4 29.0999H117.7C117.8 29.0999 117.9 28.9999 118 28.8999C118 28.9999 117.9 29.1999 117.8 29.2999C117.7 29.3999 117.5 29.3999 117.4 29.3999C117.1 29.2999 116.9 29.0999 116.8 28.7999L117.4 29.0999Z" fill="#F4F5FF"/>
<path d="M100.8 20.0999C102.346 20.0999 103.6 19.8313 103.6 19.4999C103.6 19.1685 102.346 18.8999 100.8 18.8999C99.2536 18.8999 98 19.1685 98 19.4999C98 19.8313 99.2536 20.0999 100.8 20.0999Z" fill="#F4F5FF"/>
<path d="M103.7 19.0001C103.6 18.9001 102.3 18.5001 100.7 18.5001C99.0998 18.5001 97.8999 18.8001 97.7999 18.9001L97.5999 18.2001C98.2999 17.7001 99.8998 17.6001 100.7 17.6001C101.5 17.6001 103.3 17.8001 103.8 18.2001L103.7 19.0001Z" fill="#F4F5FF"/>
<path d="M104 17.8002C104 17.8002 102.5 17.3002 100.7 17.3002C98.8998 17.3002 97.4998 17.6002 97.3998 17.8002C97.0998 16.9002 95.6998 14.8002 95.1998 14.5002C95.9998 14.3002 97.5998 15.2002 98.0998 16.4002C98.0998 16.2002 97.9998 14.3002 97.7998 13.5002C98.4998 13.6002 99.3998 14.6002 99.6998 16.2002C99.7998 15.1002 100.9 13.4002 100.9 13.4002C100.9 13.4002 101.8 14.7002 101.9 16.1002C102.1 15.3002 102.9 13.8002 103.7 13.6002C103.6 14.3002 103.6 15.2002 103.3 16.5002C103.8 15.9002 105.1 14.4002 106.2 14.5002C105.9 14.9002 104.7 16.9002 104.4 17.3002C104.1 17.6002 104 17.8002 104 17.8002ZM115 7.9002H116L115.2 5.4002C115.1 5.3002 115.1 5.1002 115 5.0002V7.9002ZM87.9998 4.1002C88.7998 3.8002 89.5998 3.6002 90.1998 3.9002C90.3998 3.9002 90.5998 4.0002 90.6998 4.2002C90.7998 4.0002 90.9998 3.9002 91.0998 3.9002C91.7998 3.5002 92.6998 3.8002 93.4998 4.1002C93.9998 4.3002 94.3998 4.4002 94.7998 4.4002H94.9998V7.8002H95.9998L96.3998 7.2002C96.4998 7.1002 96.5998 7.0002 96.6998 7.10019C96.7998 7.10019 96.8998 7.2002 96.9998 7.3002L97.0998 7.60019H97.1998C97.1998 7.60019 97.2998 7.6002 97.2998 7.5002L97.3998 6.5002C97.4998 6.3002 97.5998 6.2002 97.7998 6.2002C97.9998 6.2002 98.0998 6.4002 98.0998 6.5002V10.1002C98.0998 10.1002 98.0998 10.2002 98.1998 10.2002H98.5998C98.5998 10.2002 98.6998 10.2002 98.6998 10.1002V4.2002C98.6998 4.0002 98.7998 3.9002 98.9998 3.9002H99.2998C99.4998 3.9002 99.5998 4.0002 99.5998 4.2002V10.7002C99.5998 10.7002 99.5998 10.8002 99.6998 10.8002H99.7998C99.7998 10.8002 99.8998 10.8002 99.8998 10.7002V3.9002C99.8998 3.7002 99.9998 3.6002 100.2 3.6002H100.5C100.7 3.6002 100.8 3.7002 100.8 3.9002V11.5002C100.8 11.5002 100.8 11.6002 100.9 11.6002H101.2C101.2 11.6002 101.3 11.6002 101.3 11.5002V3.9002C101.3 3.7002 101.4 3.6002 101.6 3.6002H101.9C102.1 3.6002 102.2 3.7002 102.2 3.9002V10.8002C102.2 10.8002 102.2 10.9002 102.3 10.9002H102.7V4.3002C102.7 4.1002 102.8 4.0002 103 4.0002H103.1C103.3 4.0002 103.4 4.1002 103.4 4.3002V10.3002C103.4 10.3002 103.4 10.4002 103.5 10.4002H103.7C103.7 10.4002 103.8 10.4002 103.8 10.3002V6.6002C103.8 6.4002 103.9 6.3002 104.1 6.3002C104.3 6.3002 104.4 6.4002 104.5 6.5002L104.6 7.5002H104.7C104.7 7.5002 104.8 7.5002 104.8 7.4002C104.8 7.3002 105 7.2002 105.1 7.2002C105.2 7.2002 105.4 7.3002 105.4 7.4002L105.6 7.9002H106.5V4.5002H106.6C107.1 4.4002 107.6 4.2002 108.1 4.1002C108.9 3.8002 109.7 3.6002 110.3 3.9002C110.5 3.9002 110.7 4.0002 110.8 4.2002C110.9 4.0002 111.1 3.9002 111.2 3.9002C111.9 3.5002 112.8 3.8002 113.6 4.1002C114 4.2002 114.4 4.4002 114.7 4.4002C113.9 3.3002 112.6 2.7002 111.3 2.7002H90.5998C89.2998 2.7002 88.0998 3.3002 87.2998 4.3002C87.4998 4.3002 87.6998 4.2002 87.9998 4.1002Z" fill="#F4F5FF"/>
<path d="M107.3 5.1001C107.9 5.0001 108.3 4.7001 108.8 4.4001C109 4.3001 109.2 4.2001 109.3 4.1001C108.9 4.1001 108.5 4.2001 107.9 4.4001C107.5 4.5001 107.1 4.7001 106.5 4.8001V12.1001C106.7 12.0001 107.2 11.8001 107.6 11.6001C108.6 11.1001 109.7 10.5001 110.3 10.7001C110.2 10.4001 110 10.3001 109.8 10.2001C109.3 10.1001 108.5 10.7001 108 11.1001C107.6 11.4001 107.4 11.5001 107.3 11.5001C107.2 11.5001 107.2 11.4001 107.1 11.4001V5.1001H107.3Z" fill="#F4F5FF"/>
<path d="M110.5 4.7001C110.3 4.5001 110.2 4.3001 110 4.2001C109.7 4.2001 109.4 4.3001 109 4.6001C108.6 4.9001 108.1 5.1001 107.6 5.3001V11.0001C107.7 10.9001 107.9 10.8001 108 10.7001C108.6 10.2001 109.4 9.6001 110.1 9.8001C110.3 9.8001 110.4 9.9001 110.5 10.0001V4.7001ZM110.9 10.7001C111.5 10.5001 112.6 11.0001 113.5 11.5001C113.9 11.7001 114.4 12.0001 114.7 12.0001V4.8001L113.5 4.5001C113 4.3001 112.5 4.2001 112.1 4.1001C112.3 4.2001 112.6 4.4001 112.8 4.5001C113.2 4.8001 113.7 5.0001 114 5.1001H114.2V11.4001H114.1C113.9 11.6001 113.6 11.4001 113.2 11.0001C112.7 10.6001 112 10.0001 111.5 10.1001C111.2 10.2001 111 10.3001 110.9 10.7001C110.9 10.7001 110.8 10.7001 110.9 10.7001Z" fill="#F4F5FF"/>
<path d="M113.3 10.7002C113.4 10.8002 113.6 11.0002 113.7 11.0002V5.4002C113.3 5.3002 112.9 5.1002 112.5 4.8002C112 4.5002 111.5 4.2002 111.2 4.3002C111 4.4002 110.9 4.5002 110.8 4.7002V10.1002C110.9 10.0002 111.1 9.9002 111.3 9.8002C112 9.7002 112.7 10.3002 113.3 10.7002ZM90.6 4.7002C90.4 4.5002 90.3 4.3002 90.1 4.2002C89.8 4.2002 89.5 4.3002 89.1 4.6002C88.7 4.9002 88.2 5.1002 87.7 5.3002V11.0002C87.8 10.9002 88 10.8002 88.1 10.7002C88.7 10.2002 89.5 9.6002 90.2 9.8002C90.4 9.8002 90.5 9.9002 90.6 10.0002V4.7002ZM86.4 7.9002V5.7002L85.5 8.2002L85.6 7.9002H86.4Z" fill="#F4F5FF"/>
<path d="M116.2 8.1998H115V12.2998H114.9C114.7 12.4998 114.2 12.2998 113.3 11.7998C112.5 11.3998 111.4 10.7998 110.9 10.9998C110.8 10.9998 110.8 11.0998 110.7 11.1998L110.5 11.6998L110.4 11.1998C110.4 11.0998 110.3 10.9998 110.2 10.9998C109.8 10.7998 108.6 11.3998 107.8 11.8998C107.1 12.2998 106.7 12.4998 106.4 12.4998C106.3 12.4998 106.2 12.4998 106.2 12.3998V8.1998H105.4C105.3 8.1998 105.1 8.0998 105.1 7.9998L104.9 7.4998C104.9 7.4998 104.9 7.3998 104.8 7.4998C104.8 7.4998 104.7 7.4998 104.7 7.5998C104.7 7.6998 104.5 7.7998 104.4 7.7998C104.3 7.7998 104.1 7.6998 104.1 7.5998L104 6.5998H103.9C103.9 6.5998 103.8 6.5998 103.8 6.6998V10.3998C103.8 10.5998 103.7 10.6998 103.5 10.6998H103.3C103.1 10.6998 103 10.5998 103 10.3998V4.2998C103 4.2998 103 4.1998 102.9 4.1998H102.8C102.8 4.1998 102.7 4.1998 102.7 4.2998V10.7998C102.7 10.8998 102.7 10.9998 102.6 10.9998C102.5 11.0998 102.4 11.0998 102.4 11.0998H102.1C101.9 11.0998 101.8 10.8998 101.8 10.7998V3.8998C101.8 3.8998 101.8 3.7998 101.7 3.7998H101.4C101.4 3.7998 101.3 3.7998 101.3 3.8998V11.4998C101.3 11.6998 101.2 11.7998 101 11.7998H100.7C100.5 11.7998 100.4 11.6998 100.4 11.4998V3.8998C100.4 3.8998 100.4 3.7998 100.3 3.7998H100C100 3.7998 99.9 3.7998 99.9 3.8998V10.7998C99.9 10.9998 99.8 11.0998 99.6 11.0998H99.5C99.3 11.0998 99.2 10.9998 99.2 10.7998V4.2998C99.2 4.2998 99.2 4.1998 99.1 4.1998H98.8C98.8 4.1998 98.7 4.1998 98.7 4.2998V10.3998C98.7 10.5998 98.6 10.6998 98.4 10.6998H98C97.8 10.6998 97.7 10.5998 97.7 10.3998V6.7998C97.7 6.69981 97.7 6.6998 97.6 6.6998C97.6 6.6998 97.5 6.69981 97.5 6.7998L97.4 7.7998C97.4 7.9998 97.2 7.9998 97.1 8.0998C97 8.0998 96.8 7.9998 96.8 7.89981V7.4998H96.7H96.6L96.2 8.0998C96.1 8.1998 96 8.1998 95.9 8.1998H95V12.2998H94.9C94.7 12.4998 94.2 12.2998 93.3 11.7998C92.5 11.3998 91.4 10.7998 90.9 10.9998C90.8 10.9998 90.8 11.0998 90.7 11.1998L90.5 11.6998L90.4 11.1998C90.4 11.0998 90.3 10.9998 90.2 10.9998C89.8 10.7998 88.6 11.3998 87.8 11.8998C87.1 12.2998 86.7 12.4998 86.4 12.4998C86.3 12.4998 86.2 12.4998 86.2 12.3998V8.1998H85.3L83.7 12.4998H117.4L116.2 8.1998Z" fill="#F4F5FF"/>
<path d="M93.3998 10.7001C93.4998 10.8001 93.6998 11.0001 93.7998 11.0001V5.4001C93.3998 5.3001 92.9998 5.1001 92.5998 4.8001C92.0998 4.5001 91.5998 4.2001 91.2998 4.3001C91.0998 4.4001 90.9998 4.5001 90.8998 4.7001V10.1001C90.9998 10.0001 91.1998 9.9001 91.3998 9.8001C92.0998 9.7001 92.8998 10.3001 93.3998 10.7001ZM90.5998 10.6001C90.4998 10.3001 90.2998 10.2001 90.0998 10.1001C89.5998 10.0001 88.7998 10.6001 88.2998 11.0001C87.8998 11.3001 87.6998 11.4001 87.5998 11.4001C87.4998 11.4001 87.4998 11.3001 87.3998 11.3001V5.1001H87.4998C88.0998 5.0001 88.4998 4.7001 88.9998 4.4001C89.1998 4.3001 89.3998 4.2001 89.4998 4.1001C89.0998 4.1001 88.6998 4.2001 88.0998 4.4001C87.6998 4.5001 87.2998 4.7001 86.8998 4.8001C86.8998 4.9001 86.7998 4.9001 86.7998 5.0001V12.1001C86.9998 12.0001 87.4998 11.8001 87.8998 11.6001C88.7998 11.0001 89.9998 10.4001 90.5998 10.6001Z" fill="#F4F5FF"/>
<path d="M90.9998 10.7001C91.5998 10.5001 92.6998 11.0001 93.5998 11.5001C93.9998 11.7001 94.4998 12.0001 94.7998 12.0001V4.8001L93.5998 4.5001C93.0998 4.3001 92.5998 4.2001 92.1998 4.1001C92.3998 4.2001 92.6998 4.4001 92.8998 4.5001C93.2998 4.8001 93.7998 5.0001 94.0998 5.1001H94.2998V11.4001H94.1998C93.9998 11.6001 93.6998 11.4001 93.2998 11.0001C92.7998 10.6001 92.0998 10.0001 91.5998 10.1001C91.2998 10.2001 91.0998 10.3001 90.9998 10.7001C90.8998 10.7001 90.8998 10.7001 90.9998 10.7001Z" fill="#F4F5FF"/>
<path d="M8.1 39.9998C8.1 41.7998 7 43.0998 4.8 43.0998C2.6 43.0998 1.5 41.7998 1.5 39.9998V33.9998H3.2V39.8998C3.2 41.0998 3.7 41.7998 4.8 41.7998C5.9 41.7998 6.4 41.1998 6.4 39.8998V33.9998H8.1V39.9998ZM15.4 37.9998V42.9998H13.8V38.2998C13.8 37.4998 13.5 37.1998 13 37.1998C12.4 37.1998 12 37.5998 11.5 38.1998V42.9998H9.8V36.0998H11.3L11.4 36.9998C11.9 36.2998 12.6 35.8998 13.5 35.8998C14.7 35.8998 15.4 36.6998 15.4 37.9998ZM19.1 33.6998C19.1 34.1998 18.7 34.6998 18.1 34.6998C17.5 34.6998 17.1 34.2998 17.1 33.6998C17.1 33.0998 17.5 32.6998 18.1 32.6998C18.7 32.5998 19.1 33.0998 19.1 33.6998ZM18.9 42.8998H17.2V35.9998H18.9V42.8998ZM24 42.8998H22L19.7 35.9998H21.5L23 41.4998L24.5 35.9998H26.2L24 42.8998ZM32.6 39.9998H28.3C28.4 41.3998 29.1 41.8998 30 41.8998C30.6 41.8998 31.1 41.6998 31.7 41.2998L32.4 42.1998C31.7 42.6998 30.9 43.0998 29.9 43.0998C27.8 43.0998 26.6 41.6998 26.6 39.4998C26.6 37.3998 27.7 35.8998 29.6 35.8998C31.5 35.8998 32.6 37.1998 32.6 39.2998C32.7 39.5998 32.6 39.8998 32.6 39.9998ZM31 38.8998C31 37.7998 30.6 37.0998 29.7 37.0998C28.9 37.0998 28.4 37.5998 28.3 38.9998H31V38.8998ZM38.1 35.9998L37.8 37.5998C37.6 37.4998 37.4 37.4998 37.2 37.4998C36.4 37.4998 36 38.0998 35.7 39.2998V42.9998H34V36.0998H35.5L35.7 37.4998C36 36.4998 36.7 35.9998 37.5 35.9998C37.6 35.8998 37.9 35.9998 38.1 35.9998ZM43.4 36.6998L42.8 37.6998C42.2 37.2998 41.7 37.1998 41.1 37.1998C40.4 37.1998 40.1 37.4998 40.1 37.8998C40.1 38.2998 40.4 38.5998 41.6 38.8998C43 39.2998 43.8 39.7998 43.8 41.0998C43.8 42.4998 42.5 43.2998 40.9 43.2998C39.7 43.2998 38.8 42.8998 38.2 42.2998L39 41.3998C39.5 41.7998 40.1 42.0998 40.9 42.0998C41.6 42.0998 42.1 41.7998 42.1 41.2998C42.1 40.6998 41.8 40.5998 40.5 40.1998C39.1 39.7998 38.5 39.1998 38.5 38.0998C38.5 36.9998 39.5 36.0998 41.1 36.0998C42 35.8998 42.8 36.1998 43.4 36.6998ZM46.7 33.6998C46.7 34.1998 46.3 34.6998 45.7 34.6998C45.1 34.6998 44.7 34.2998 44.7 33.6998C44.7 33.0998 45.1 32.6998 45.7 32.6998C46.3 32.5998 46.7 33.0998 46.7 33.6998ZM46.5 42.8998H44.8V35.9998H46.5V42.8998ZM52.3 42.5998C51.8 42.8998 51.2 43.0998 50.6 43.0998C49.2 43.0998 48.5 42.2998 48.5 40.8998V37.2998H47.4V36.0998H48.5V34.5998L50.2 34.3998V36.0998H51.8L51.6 37.2998H50.2V40.7998C50.2 41.4998 50.4 41.6998 50.9 41.6998C51.2 41.6998 51.4 41.5998 51.7 41.4998L52.3 42.5998ZM56.3 42.9998C55.8 44.5998 54.8 45.5998 52.8 45.7998L52.6 44.5998C54 44.3998 54.4 43.9998 54.8 42.9998H54.2L52 36.0998H53.8L55.3 41.7998L56.9 36.0998H58.6L56.3 42.9998ZM68.6 39.4998C68.6 41.6998 67.4 43.0998 65.4 43.0998C63.4 43.0998 62.2 41.6998 62.2 39.4998C62.2 37.2998 63.4 35.8998 65.4 35.8998C67.4 35.8998 68.6 37.2998 68.6 39.4998ZM63.9 39.4998C63.9 41.1998 64.4 41.8998 65.4 41.8998C66.4 41.8998 66.9 41.1998 66.9 39.4998C66.9 37.8998 66.4 37.0998 65.4 37.0998C64.4 37.1998 63.9 37.8998 63.9 39.4998ZM71.8 35.3998V36.0998H73.5L73.3 37.2998H71.8V42.8998H70.1V37.2998H69V36.0998H70.1V35.3998C70.1 34.1998 70.9 33.1998 72.5 33.1998C73.2 33.1998 73.7 33.3998 74.3 33.5998L73.8 34.6998C73.4 34.4998 73 34.3998 72.7 34.3998C72.1 34.3998 71.8 34.6998 71.8 35.3998Z" fill="#F4F5FF"/>
<path d="M13 50.4L11.1 52.6C9.9 51.6 8.7 51.1 7.3 51.1C5.9 51.1 5 51.7 5 52.8C5 53.9 5.6 54.4 8.3 55.2C11.5 56.2 13.4 57.6 13.4 60.8C13.4 64 10.9 66.2 6.5 66.2C3.5 66.2 1.4 65.1 0 63.7L2.1 61.4C3.4 62.5 4.7 63.1 6.5 63.1C8.2 63.1 9.2 62.3 9.2 61C9.2 59.7 8.6 59.2 6 58.4C2.2 57.2 0.700001 55.6 0.700001 53.1C0.700001 50.1 3.3 48.1 6.9 48.1C9.6 48.2 11.4 49 13 50.4ZM23.6 65.3C22.6 66 21.2 66.3 20 66.3C17.1 66.3 15.7 64.6 15.7 61.5V55.4H13.8V52.6H15.7V49.7L19.6 49.3V52.6H22.6L22.2 55.3H19.6V61.4C19.6 62.7 20 63.1 20.8 63.1C21.2 63.1 21.7 63 22.2 62.7L23.6 65.3ZM33.1 52.5L32.5 56.3C32.1 56.2 31.8 56.1 31.3 56.1C29.6 56.1 29 57.3 28.6 59.3V65.8H24.7V52.7H28.1L28.4 55.3C29 53.5 30.3 52.4 31.8 52.4C32.3 52.3 32.7 52.4 33.1 52.5ZM44.9 63.7L44.1 66.3C42.5 66.2 41.5 65.7 40.9 64.4C40 65.9 38.5 66.4 36.9 66.4C34.3 66.4 32.6 64.7 32.6 62.3C32.6 59.4 34.8 57.8 38.8 57.8H40.2V57.2C40.2 55.6 39.6 55.2 38 55.2C37.2 55.2 35.9 55.4 34.6 55.9L33.7 53.3C35.4 52.7 37.2 52.3 38.7 52.3C42.5 52.3 44.2 53.9 44.2 57V62C44 63.1 44.3 63.4 44.9 63.7ZM40.2 62.2V59.9H39.2C37.4 59.9 36.5 60.5 36.5 61.8C36.5 62.8 37.1 63.5 38.1 63.5C39 63.5 39.7 63 40.2 62.2ZM55.2 65.3C54.2 66 52.8 66.3 51.6 66.3C48.7 66.3 47.3 64.6 47.3 61.5V55.4H45.4V52.6H47.3V49.7L51.2 49.3V52.6H54.2L53.8 55.3H51.2V61.4C51.2 62.7 51.6 63.1 52.4 63.1C52.8 63.1 53.3 63 53.8 62.7L55.2 65.3ZM67.6 56.2V65.9H63.7V56.9C63.7 55.5 63.2 55.1 62.5 55.1C61.6 55.1 60.9 55.7 60.2 56.8V65.8H56.3V47.5L60.2 47.1V54.2C61.3 53 62.5 52.4 64 52.4C66.3 52.3 67.6 53.7 67.6 56.2ZM80.6 53.9L78.9 56.2C78.1 55.6 77.3 55.3 76.4 55.3C74.7 55.3 73.7 56.4 73.7 59.4C73.7 62.3 74.7 63.2 76.3 63.2C77.2 63.2 77.9 62.9 78.8 62.3L80.5 64.7C79.3 65.7 77.9 66.3 76 66.3C71.9 66.3 69.5 63.6 69.5 59.4C69.5 55.2 72 52.3 75.9 52.3C77.9 52.3 79.3 52.8 80.6 53.9ZM81.9 62.5V47.4L85.8 47V62.4C85.8 62.9 86 63.2 86.5 63.2C86.8 63.2 87 63.2 87.1 63.1L87.9 65.9C87.3 66.1 86.4 66.3 85.5 66.3C83.2 66.3 81.9 64.9 81.9 62.5ZM96.2 65.9C95.2 69.2 92.9 71.2 88.8 71.4L88.4 68.6C91 68.3 91.9 67.5 92.7 65.8H91.3L87.3 52.6H91.5L93.9 63.3L96.5 52.6H100.6L96.2 65.9ZM113.2 47.4V65.8H109.7L109.5 64.2C108.7 65.3 107.5 66.2 105.8 66.2C102.5 66.2 100.8 63.4 100.8 59.1C100.8 55 102.9 52.1 106.2 52.1C107.5 52.1 108.6 52.6 109.3 53.3V47L113.2 47.4ZM109.2 61.9V56.2C108.6 55.5 108 55.1 107.1 55.1C105.7 55.1 104.7 56.3 104.7 59.3C104.7 62.6 105.6 63.5 106.9 63.5C107.9 63.4 108.6 62.9 109.2 61.9ZM127.4 60.4H119.2C119.5 62.8 120.6 63.4 122.2 63.4C123.3 63.4 124.2 63 125.4 62.2L127 64.4C125.7 65.4 124 66.2 121.9 66.2C117.5 66.2 115.2 63.4 115.2 59.2C115.2 55.3 117.4 52.1 121.4 52.1C125.2 52.1 127.5 54.6 127.5 58.9C127.5 59.4 127.5 60 127.4 60.4ZM123.7 57.9C123.7 56.1 123.1 54.9 121.6 54.9C120.3 54.9 119.5 55.7 119.3 58.1H123.7V57.9Z" fill="#F4F5FF"/>
<path d="M10.8999 73.6997L9.29995 75.3997C8.39995 74.6997 7.69995 74.3997 6.59995 74.3997C4.69995 74.3997 3.39995 75.7997 3.39995 79.0997C3.39995 82.5997 4.29995 83.7997 6.19995 83.7997C6.79995 83.7997 7.39995 83.6997 7.99995 83.3997V80.3997H6.29995L5.99995 78.1997H11.0999V84.7997C9.69995 85.6997 7.99995 86.1997 6.29995 86.1997C2.19995 86.1997 0.199951 83.7997 0.199951 79.1997C0.199951 74.6997 2.99995 72.1997 6.59995 72.1997C8.39995 72.0997 9.79995 72.6997 10.8999 73.6997ZM12.7 83.0997V71.4997L15.7 71.1997V82.9997C15.7 83.3997 15.9 83.5997 16.2 83.5997C16.4 83.5997 16.6 83.5997 16.7 83.4997L17.2999 85.6997C16.7999 85.8997 16.1999 85.9997 15.3999 85.9997C13.7999 86.0997 12.7 84.9997 12.7 83.0997ZM27.1 83.9997L26.4999 85.9997C25.2999 85.8997 24.4999 85.4997 23.9999 84.4997C23.2999 85.5997 22.0999 86.0997 20.8999 86.0997C18.8999 86.0997 17.6 84.7997 17.6 82.8997C17.6 80.6997 19.2999 79.4997 22.3999 79.4997H23.3999V78.9997C23.3999 77.7997 22.9 77.3997 21.7 77.3997C21.1 77.3997 19.9999 77.5997 18.9999 77.8997L18.2999 75.8997C19.5999 75.3997 21 75.1997 22.1 75.1997C25.1 75.1997 26.2999 76.3997 26.2999 78.7997V82.6997C26.4 83.5997 26.6 83.8997 27.1 83.9997ZM23.3999 82.8997V81.0997H22.7C21.3 81.0997 20.6 81.5997 20.6 82.5997C20.6 83.3997 21 83.8997 21.7999 83.8997C22.5 83.8997 22.9999 83.4997 23.3999 82.8997ZM35.7 76.3997L34.6 78.0997C33.8 77.5997 33 77.2997 32.1 77.2997C31.3 77.2997 30.8999 77.5997 30.8999 78.0997C30.8999 78.5997 31.1999 78.8997 32.9999 79.3997C34.9999 79.9997 36.1 80.7997 36.1 82.5997C36.1 84.6997 34.1 85.9997 31.6 85.9997C29.8 85.9997 28.2999 85.3997 27.2999 84.4997L28.7999 82.7997C29.5999 83.3997 30.4999 83.7997 31.4999 83.7997C32.3999 83.7997 32.9999 83.4997 32.9999 82.8997C32.9999 82.1997 32.7 81.9997 30.7999 81.4997C28.7999 80.8997 27.7999 79.8997 27.7999 78.2997C27.7999 76.4997 29.3999 75.1997 31.9999 75.1997C33.4999 75.1997 34.7999 75.6997 35.7 76.3997ZM46.8999 76.0997C46.1999 76.3997 45.1999 76.4997 43.9999 76.4997C45.2999 77.0997 45.8999 77.7997 45.8999 79.0997C45.8999 81.0997 44.3 82.4997 41.6 82.4997C41.2 82.4997 40.7999 82.4997 40.3999 82.3997C40.1999 82.4997 40.1 82.6997 40.1 82.9997C40.1 83.2997 40.2 83.5997 41.2 83.5997H42.7999C45.2 83.5997 46.7 84.7997 46.7 86.5997C46.7 88.6997 44.7999 89.9997 41.3999 89.9997C37.4999 89.9997 36.4999 88.6997 36.4999 86.6997H39.2C39.2 87.5997 39.5999 87.9997 41.3999 87.9997C43.1999 87.9997 43.6 87.4997 43.6 86.8997C43.6 86.2997 43.2 85.8997 42.1 85.8997H40.6C38.4 85.8997 37.4999 84.9997 37.4999 83.8997C37.4999 83.1997 38 82.3997 38.7 81.8997C37.4 81.1997 36.8999 80.2997 36.8999 78.9997C36.8999 76.6997 38.6999 75.2997 41.3999 75.2997C43.6999 75.3997 45 74.6997 46.2 73.9997L46.8999 76.0997ZM39.8999 78.8997C39.8999 79.9997 40.4999 80.5997 41.4999 80.5997C42.4999 80.5997 43.1 79.9997 43.1 78.7997C43.1 77.5997 42.5999 77.0997 41.4999 77.0997C40.4999 77.1997 39.8999 77.7997 39.8999 78.8997ZM56.8999 80.5997C56.8999 83.8997 54.9999 85.9997 51.8999 85.9997C48.7999 85.9997 46.8999 83.9997 46.8999 80.5997C46.8999 77.2997 48.7999 75.1997 51.8999 75.1997C54.9999 75.1997 56.8999 77.1997 56.8999 80.5997ZM50.1 80.5997C50.1 82.8997 50.6999 83.7997 51.9999 83.7997C53.2999 83.7997 53.8999 82.7997 53.8999 80.5997C53.8999 78.2997 53.2999 77.3997 51.9999 77.3997C50.6999 77.3997 50.1 78.3997 50.1 80.5997ZM69.4999 85.6997H65.8999L64.4999 78.1997L63.1 85.6997H59.4999L57.2999 75.4997H60.3999L61.3999 83.3997L62.9999 75.4997H65.9999L67.3999 83.3997L68.6 75.4997H71.4999L69.4999 85.6997Z" fill="#F4F5FF"/>
</svg>
