<svg width="224" height="61" viewBox="0 0 224 61" fill="none" xmlns="http://www.w3.org/2000/svg">
<path d="M29.4 8.1V51.2H19.6L13.7 31.5V51.2H4.4V8.1H13.8L20 27.5V8.1H29.4ZM59 21.1H48.6V17.9C48.6 16.4 48.4 15.4 48.2 15C48 14.6 47.5 14.4 46.9 14.4C46.2 14.4 45.7 14.6 45.4 15.2C45.1 15.8 44.8 16.5 44.8 17.7C44.8 19.1 45 20.2 45.4 20.9C45.8 21.6 46.8 22.5 48.6 23.5C53.6 26.4 56.8 28.9 58 30.8C59.3 32.7 60 35.8 60 40C60 43.1 59.6 45.3 58.9 46.8C58.2 48.2 56.8 49.5 54.7 50.4C52.6 51.4 50.3 51.9 47.5 51.9C44.5 51.9 42 51.3 39.8 50.2C37.7 49.1 36.3 47.6 35.6 45.8C35 44.1 34.6 41.5 34.6 38.3V35.4H45V40.6C45 42.2 45.2 43.3 45.5 43.7C45.8 44.2 46.3 44.4 47.1 44.4C47.9 44.4 48.4 44.1 48.8 43.5C49.2 42.9 49.4 42.1 49.4 40.9C49.4 38.4 49.1 36.7 48.4 35.9C47.7 35.1 45.9 33.8 43.2 32C40.5 30.2 38.5 28.8 37.7 28C36.9 27.2 36 26 35.5 24.5C34.9 23 34.6 21.2 34.6 18.9C34.6 15.6 35 13.2 35.9 11.7C36.8 10.2 38.1 9 40 8.1C41.9 7.2 44.1 6.8 46.8 6.8C49.7 6.8 52.2 7.3 54.3 8.2C56.4 9.2 57.7 10.3 58.3 11.8C58.9 13.2 59.3 15.7 59.3 19.1L59 21.1ZM93.1 34.8V42.1L90.1 44L93.8 51.2H83.8L82.5 48.8C79.2 51 76 52.1 73 52.1C69.9 52.1 67.5 51.1 65.8 49C64.1 46.9 63.3 44.4 63.3 41.5C63.3 39.1 63.8 37.3 64.8 36C65.8 34.7 67.3 33.6 69.2 32.8C66.3 30.7 64.9 28 64.9 24.5C64.9 21.5 65.9 19.1 67.9 17.3C69.9 15.5 72.7 14.5 76.3 14.5C79.5 14.5 82 15.4 83.8 17.2C85.6 19 86.6 21.2 86.6 24C86.6 26.9 85.5 29.5 83.3 31.8L87.1 38.7L93.1 34.8ZM78.9 43.9L75.4 38.1C74.1 39.3 73.4 40.6 73.4 42C73.4 43 73.6 43.7 74 44.3C74.4 44.8 75 45.1 75.8 45.1C76.8 45.1 77.8 44.7 78.9 43.9ZM76.5 27.3C77.7 25.7 78.3 24.2 78.3 22.8C78.3 22.2 78.1 21.6 77.7 21.1C77.4 20.5 76.8 20.3 76.2 20.3C75.6 20.3 75.2 20.5 74.9 20.9C74.6 21.3 74.4 21.9 74.4 22.7C74.5 24.3 75.1 25.9 76.5 27.3ZM97.3 8.1H105.2C110.5 8.1 114.1 8.3 116 8.7C117.9 9.1 119.4 10.1 120.6 11.9C121.8 13.6 122.3 16.3 122.3 19.9C122.3 23.2 121.9 25.5 121 26.6C120.1 27.8 118.5 28.4 116.1 28.7C118.3 29.3 119.8 30 120.5 30.9C121.3 31.9 121.8 32.6 121.9 33.4C122.1 34.2 122.2 36.3 122.2 39.8V51.3H112V37C112 34.7 111.8 33.3 111.4 32.7C111 32.1 110.1 31.9 108.5 31.9V51.3H97.3V8.1ZM108.6 15.5V25.1C109.9 25.1 110.7 24.9 111.2 24.5C111.7 24.2 112 23 112 21.1V18.7C112 17.4 111.8 16.4 111.3 16C110.8 15.6 109.9 15.5 108.6 15.5ZM154.2 26.9H143V19.4C143 17.2 142.8 15.8 142.6 15.3C142.4 14.7 141.8 14.5 141 14.5C140 14.5 139.5 14.8 139.3 15.5C139.1 16.1 138.9 17.6 138.9 19.8V39.9C138.9 42 139.1 43.4 139.3 44C139.5 44.6 140.1 45 141 45C141.9 45 142.3 44.7 142.7 44C142.9 43.4 143.1 41.9 143.1 39.5V34.1H154.4V35.8C154.4 40.2 154.1 43.4 153.4 45.3C152.7 47.2 151.3 48.8 149.2 50.2C147.1 51.6 144.4 52.3 141.2 52.3C138 52.3 135.2 51.7 133 50.5C130.9 49.3 129.4 47.6 128.8 45.6C128.1 43.5 127.8 40.3 127.8 36.1V23.3C127.8 20.2 127.9 17.8 128.1 16.3C128.3 14.7 129 13.2 130 11.8C131 10.4 132.5 9.3 134.4 8.4C136.2 7.5 138.4 7.1 140.9 7.1C144.2 7.1 146.9 7.7 149.1 9C151.2 10.3 152.7 11.9 153.3 13.8C154 15.7 154.3 18.7 154.3 22.7L154.2 26.9ZM0 57.8H157.8V60.3H0V57.8ZM195.8 0L194.8 3.3L197.6 5.2L194.3 5.3L193.4 8.5L192.2 5.4L188.8 5.5L191.5 3.4L190.3 0.3L193.1 2.2L195.8 0ZM171.8 25.5L171 28.7L173.7 30.6L170.4 30.8L169.5 33.9L168.4 30.9H164.9L167.6 28.9L166.5 25.7L169.2 27.6L171.8 25.5ZM174.9 13.2L173.9 16.4L176.8 18.3L173.4 18.4L172.5 21.7L171.3 18.5L168 18.6L170.6 16.6L169.4 13.4L172.2 15.3L174.9 13.2ZM174.9 37.8L173.9 41.1L176.8 42.9L173.4 43.1L172.5 46.3L171.3 43.1L168 43.3L170.6 41.2L169.4 38.1L172.2 39.9L174.9 37.8ZM183.7 47.9L182.7 51.1L185.6 53L182.1 53.1L181.3 56.4L180.1 53.2L176.8 53.4L179.4 51.3L178.2 48.1L181 50L183.7 47.9ZM183.7 3.8L182.7 7.1L185.6 8.9L182.1 9.1L181.3 12.3L180.1 9.1L176.8 9.3L179.4 7.2L178.2 4.1L181 5.9L183.7 3.8ZM195.8 52.1L194.8 55.3L197.6 57.2L194.3 57.3L193.4 60.6L192.2 57.5L188.8 57.6L191.5 55.5L190.3 52.3L193.1 54.2L195.8 52.1ZM222.1 25.1L221.2 28.3L224 30.1L220.7 30.3L219.7 33.5L218.6 30.4L215.2 30.5L217.9 28.4L216.7 25.3L219.5 27.1L222.1 25.1ZM219.2 39.6L218.3 42.8L221.1 44.6L217.7 44.8L216.8 48.1L215.6 44.9L212.3 45L214.9 43L213.8 39.8L216.5 41.6L219.2 39.6ZM219.2 10.2L218.3 13.4L221.1 15.3L217.7 15.5L216.8 18.6L215.6 15.6H212.3L214.9 13.6L213.8 10.4L216.5 12.3L219.2 10.2ZM209.4 2.5L208.5 5.7L211.2 7.6L207.9 7.8L207 11L205.8 7.9H202.5L205.1 5.9L203.9 2.7L206.7 4.6L209.4 2.5ZM209.4 48.5L208.5 51.8L211.2 53.7L207.9 53.8L207 57L205.8 53.8L202.5 54L205.1 51.9L203.9 48.8L206.7 50.7L209.4 48.5Z" fill="#F4F5FF"/>
</svg>
