<svg width="90" height="90" viewBox="0 0 90 90" fill="none" xmlns="http://www.w3.org/2000/svg">
<path d="M45 0C20.1 0 0 20.2 0 45C0 69.9 20.1 90 45 90C69.8 90 90 69.9 90 45C90 20.2 69.8 0 45 0ZM59.9 45C62.8 45 65.1 45.5 66.9 46.5C68.2 47.2 69.1 48.2 69.8 49.4C70.5 50.6 70.8 51.8 70.8 53.2C70.8 55.7 69.8 57.7 67.7 59.2C65.8 60.6 63.2 61.3 59.9 61.3H56.1V72.4H51.2V45H49.1L35 72.6L21 45H6.3C6.3 23.7 23.6 6.3 45 6.3C66.3 6.3 83.7 23.6 83.7 45H59.9Z" fill="#F4F5FF"/>
<path d="M54.0001 36.6002L45.4001 13.2002L36.6001 36.6002L28.0001 14.7002H22.6001L34.7001 45.0002H26.2001L35.1001 62.5002L44.0001 45.0002H38.2001L45.1001 26.4002L52.0001 45.0002H55.6001L68.3001 14.7002H62.9001L54.0001 36.6002Z" fill="#F4F5FF"/>
<path d="M56.2 48.8999V57.4999H60C62 57.4999 63.6 57.0999 64.6 56.2999C65.6 55.4999 66.2 54.4999 66.2 53.1999C66.2 52.6999 66.1 52.2999 66 51.8999C65.9 51.4999 65.6 50.9999 65.2 50.5999C64.8 50.0999 64.2 49.6999 63.3 49.3999C62.4 49.0999 61.3 48.9999 60 48.9999H56.2V48.8999Z" fill="#F4F5FF"/>
</svg>
