<svg width="90" height="90" viewBox="0 0 90 90" fill="none" xmlns="http://www.w3.org/2000/svg">
<path d="M45.0001 86.4001C22.2001 86.4001 3.6001 67.9001 3.6001 45.0001C3.6001 22.2001 22.1001 3.6001 45.0001 3.6001C67.9001 3.6001 86.4001 22.1001 86.4001 45.0001C86.4001 67.9001 67.8001 86.4001 45.0001 86.4001ZM45.0001 5.6001C23.3001 5.6001 5.6001 23.3001 5.6001 45.0001C5.6001 66.7001 23.3001 84.4001 45.0001 84.4001C66.7001 84.4001 84.4001 66.8001 84.4001 45.0001C84.4001 23.2001 66.7001 5.6001 45.0001 5.6001Z" fill="#F4F5FF"/>
<path d="M45 90C20.2 90 0 69.8 0 45C0 20.2 20.2 0 45 0C69.8 0 90 20.2 90 45C90 69.8 69.8 90 45 90ZM45 1C20.7 1 1 20.7 1 45C1 69.3 20.7 89 45 89C69.3 89 89 69.3 89 45C89 20.7 69.3 1 45 1Z" fill="#F4F5FF"/>
<path d="M55.4 47.2998C55.2 46.5998 54.9 45.9998 54.6 45.4998C53.7 44.1998 51.6 42.4998 48.1 40.4998C46.9 39.7998 46.2 39.1998 45.9 38.6998C45.7 38.1998 45.5 37.4998 45.5 36.4998C45.5 35.7998 45.6 35.1998 45.8 34.7998C46 34.3998 46.4 34.2998 46.8 34.2998C47.2 34.2998 47.5 34.3998 47.7 34.6998C47.9 34.9998 47.9 35.5998 47.9 36.5998V38.7998H55V37.6998C55 35.3998 54.8 33.6998 54.3 32.6998C53.9 31.6998 52.9 30.8998 51.5 30.2998C50.1 29.6998 48.4 29.3998 46.4 29.3998C45.5 29.3998 44.6 29.4998 43.8 29.5998H37.1V33.1998C37.1 34.6998 37 35.6998 36.9 36.1998C36.8 36.6998 36.4 36.7998 35.8 36.7998C35.2 36.7998 34.9 36.5998 34.7 36.1998C34.6 35.7998 34.5 34.8998 34.5 33.4998V19.9998C34.5 18.5998 34.6 17.5998 34.7 17.1998C34.8 16.7998 35.2 16.5998 35.8 16.5998C36.3 16.5998 36.7 16.7998 36.8 17.0998C36.9 17.3998 37 18.2998 37 19.7998V24.6998H44.4V21.9998C44.4 19.3998 44.2 17.3998 43.8 16.0998C43.4 14.8998 42.4 13.7998 41 12.9998C39.6 12.1998 37.8 11.7998 35.6 11.7998C34 11.7998 32.6 11.9998 31.3 12.5998C30 13.1998 29.1 13.8998 28.4 14.7998C27.7 15.6998 27.3 16.6998 27.2 17.7998C27.1 18.8998 27 20.3998 27 22.3998V30.6998C27 33.4998 27.2 35.5998 27.7 36.9998C28.1 38.3998 29.1 39.4998 30.5 40.2998C31.9 41.0998 33.7 41.4998 35.9 41.4998C36.9 41.4998 37.8 41.3998 38.7 41.1998C38.7 41.2998 38.7 41.3998 38.8 41.3998C39.2 42.3998 39.7 43.1998 40.3 43.7998C40.9 44.2998 42.2 45.2998 44.1 46.4998C46 47.6998 47.2 48.5998 47.7 49.1998C48.2 49.7998 48.4 50.8998 48.4 52.5998C48.4 53.3998 48.3 53.9998 48 54.3998C47.8 54.7998 47.4 54.9998 46.9 54.9998C46.4 54.9998 46.1 54.8998 45.9 54.4998C45.7 54.1998 45.6 53.4998 45.6 52.3998V48.7998H38.4V50.6998C38.4 52.8998 38.6 54.5998 39.1 55.7998C39.5 56.9998 40.5 57.9998 41.9 58.7998C43.3 59.5998 45.1 59.8998 47.2 59.8998C49.1 59.8998 50.7 59.5998 52.1 58.8998C53.5 58.1998 54.5 57.3998 54.9 56.3998C55.1 55.9998 55.2 55.4998 55.3 54.9998V76.4998H62.9V53.2998H67.4V47.3998H55.4V47.2998Z" fill="#F4F5FF"/>
</svg>
