<svg width="225" height="86" viewBox="0 0 225 86" fill="none" xmlns="http://www.w3.org/2000/svg">
<path d="M15.2 6.8999V19.0999C15.6 17.2999 16.2 15.6999 17.2 14.1999C18.1 12.6999 19.3 11.3999 20.6 10.2999C21.9 9.1999 23.4 8.3999 25.1 7.7999C26.8 7.1999 28.5 6.8999 30.3 6.8999H30.9C31.1 6.8999 31.2 6.8999 31.5 6.9999V21.6999H24.2V23.0999H31.5V37.7999H30.3C28.5 37.7999 26.7 37.4999 25.1 36.8999C23.4 36.2999 21.9 35.4999 20.6 34.3999C19.3 33.2999 18.1 31.9999 17.2 30.4999C16.2 28.9999 15.6 27.3999 15.2 25.5999V37.7999H0V6.8999H15.2ZM62.3 17.7999H48.3V19.2999H62.4V25.5999H48.3V27.0999H62.4V37.8999H48C46.6 37.8999 45.2 37.6999 43.9 37.2999C42.6 36.9999 41.4 36.3999 40.2 35.6999C39 34.9999 38 34.1999 37.1 33.2999C36.1 32.3999 35.3 31.2999 34.7 30.1999C34 28.9999 33.5 27.7999 33.1 26.4999C32.7 25.1999 32.5 23.7999 32.5 22.3999C32.5 20.9999 32.7 19.5999 33.1 18.2999C33.4 16.9999 34 15.7999 34.7 14.5999C35.4 13.3999 36.2 12.3999 37.1 11.4999C38 10.5999 39.1 9.7999 40.2 9.0999C41.4 8.3999 42.6 7.8999 43.9 7.4999C45.2 7.1999 46.6 6.8999 48 6.8999H62.3V17.7999ZM79.1 6.8999V37.8999H64.1V6.8999H79.1ZM86.6 6.8999C87.7 6.8999 88.8 7.0999 89.8 7.4999C90.8 7.9999 91.6 8.4999 92.4 9.2999C93.1 9.9999 93.7 10.8999 94.2 11.8999C94.6 12.8999 94.8 13.9999 94.8 15.0999C94.8 16.2999 94.6 17.2999 94.2 18.2999C93.7 19.2999 93.2 20.0999 92.4 20.8999C91.7 21.5999 90.8 22.1999 89.8 22.5999C88.8 23.0999 87.7 23.1999 86.6 23.1999H80V6.8999H86.6ZM159.5 6.8999V17.9999H151.5V37.8999H136.3V17.9999H129V6.8999H159.5ZM193.3 6.8999H209C210.4 6.8999 211.7 7.0999 213 7.3999C214.3 7.6999 215.5 8.2999 216.6 8.8999C217.7 9.5999 218.7 10.2999 219.7 11.2999C220.6 12.1999 221.4 13.1999 222.1 14.3999C222.7 15.4999 223.3 16.6999 223.6 17.9999C223.9 19.2999 224.1 20.6999 224.1 21.9999V37.8999H209.5V18.5999H208V37.8999H193.4L193.3 6.8999ZM128 22.3999C128 30.8999 120.9 37.8999 112 37.8999C104.9 37.8999 98.8 33.2999 96.8 26.9999H111.8V24.8999H96.2C96.1 24.0999 96 23.1999 96 22.3999C96 13.8999 103.1 6.8999 112 6.8999C119 6.8999 125 11.2999 127.1 17.3999H111.7V19.4999H127.7C127.9 20.4999 128 21.4999 128 22.3999Z" fill="#F4F5FF"/>
<path d="M176 39.6999C185.058 39.6999 192.4 32.3574 192.4 23.2999C192.4 14.2424 185.058 6.8999 176 6.8999C166.943 6.8999 159.6 14.2424 159.6 23.2999C159.6 32.3574 166.943 39.6999 176 39.6999Z" fill="#F4F5FF"/>
<path d="M0 0H224V2.5H0V0ZM0 42.7H224V44.4H0V42.7ZM0 73.8H224V75.5H0V73.8ZM0 78.2H80.8V83.3H0V78.2ZM143.2 78.2H224V83.3H143.2V78.2ZM0.1 49.9H2.8V66.3H13.5V68.4H0.1V49.9ZM34.1 49.9H36.8V68.5H34.1V49.9ZM62.3 51.9L62.2 68.6H59.5V49.9H63.8L72 66.2L80.2 49.9H84.5V68.5H81.8V51.9H81.7L73.4 68.6H70.6L62.3 51.9ZM107.2 49.9H109.9V68.5H107.2V49.9ZM138.1 52.3H130.3V50.1H148.7V52.3H140.9V68.6H138.2L138.1 52.3ZM169.2 49.9H183.1V52H171.9V57.9H182.4V60H171.9V66.4H183.4V68.5H169.2V49.9ZM205.6 49.9H212.8C221 49.9 223.9 53.4 223.9 59.4C223.9 65.1 220.4 68.5 213.2 68.5H205.6V49.9ZM208.3 66.4H213.3C219.4 66.4 221 62.8 221 59.3C221 54.5 218.9 52.2 212.6 52.2H208.2V66.4H208.3Z" fill="#F4F5FF"/>
<path d="M83.5 85.3998V76.9998H90.5V77.9998H84.8V80.4998H90.2V81.4998H84.8V84.2998H90.7V85.2998L83.5 85.3998ZM92.1 83.5998L93.3 83.3998C93.4 83.7998 93.5 84.0998 93.9 84.2998C94.2 84.4998 94.6 84.5998 95.2 84.5998C95.7 84.5998 96.1 84.4998 96.4 84.2998C96.7 84.0998 96.8 83.8998 96.8 83.5998C96.8 83.3998 96.7 83.1998 96.5 83.0998C96.3 82.9998 95.9 82.8998 95.3 82.7998C94.4 82.5998 93.9 82.4998 93.5 82.2998C93.2 82.1998 92.9 81.9998 92.8 81.6998C92.7 81.3998 92.5 81.1998 92.5 80.8998C92.5 80.5998 92.6 80.3998 92.7 80.1998C92.8 79.9998 93 79.7998 93.3 79.5998C93.5 79.4998 93.8 79.3998 94 79.2998C94.3 79.1998 94.6 79.1998 95 79.1998C95.6 79.1998 96 79.2998 96.4 79.3998C96.8 79.4998 97.1 79.6998 97.3 79.9998C97.5 80.2998 97.6 80.4998 97.7 80.8998L96.5 80.9998C96.4 80.6998 96.3 80.3998 96 80.2998C95.8 80.0998 95.4 79.9998 94.9 79.9998C94.4 79.9998 94 80.0998 93.7 80.1998C93.5 80.3998 93.4 80.4998 93.4 80.6998C93.4 80.7998 93.5 80.8998 93.6 80.9998C93.7 81.0998 93.8 81.1998 94.1 81.2998C94.2 81.3998 94.6 81.3998 95.1 81.5998C96 81.7998 96.5 81.8998 96.8 82.0998C97.1 82.1998 97.4 82.3998 97.6 82.5998C97.8 82.7998 97.9 83.0998 97.9 83.4998C97.9 83.7998 97.8 84.0998 97.6 84.4998C97.4 84.7998 97 84.9998 96.6 85.1998C96.2 85.3998 95.7 85.3998 95.1 85.3998C94.2 85.3998 93.5 85.1998 93 84.8998C92.6 84.6998 92.2 84.2998 92.1 83.5998ZM102.1 84.4998L102.3 85.3998C102 85.4998 101.7 85.4998 101.4 85.4998C101 85.4998 100.7 85.3998 100.4 85.2998C100.2 85.1998 100 84.9998 99.9 84.7998C99.8 84.5998 99.7 84.1998 99.7 83.5998V80.0998H98.8V79.2998H99.7V77.7998L100.9 77.1998V79.2998H102.1V80.0998H101V83.5998C101 83.8998 101 84.0998 101.1 84.1998C101.2 84.2998 101.2 84.3998 101.3 84.3998C101.4 84.4998 101.5 84.4998 101.7 84.4998H102.1ZM103.8 85.3998V84.1998H105.1V85.3998H103.8ZM115.5 85.3998H114.3V78.8998C114 79.0998 113.7 79.3998 113.2 79.5998C112.7 79.7998 112.3 79.9998 111.9 80.0998V79.0998C112.5 78.7998 113.2 78.4998 113.6 78.0998C114.1 77.6998 114.5 77.3998 114.6 76.9998H115.3L115.5 85.3998ZM118.9 83.4998L120.1 83.3998C120.2 83.8998 120.4 84.1998 120.7 84.3998C121 84.5998 121.3 84.6998 121.7 84.6998C122 84.6998 122.4 84.5998 122.7 84.4998C123 84.3998 123.2 84.1998 123.4 83.8998C123.6 83.6998 123.7 83.2998 123.9 82.8998C124 82.4998 124.1 82.0998 124.1 81.5998V81.3998C123.9 81.6998 123.5 81.9998 123.1 82.1998C122.7 82.3998 122.2 82.4998 121.8 82.4998C121 82.4998 120.3 82.2998 119.8 81.7998C119.2 81.2998 119 80.5998 119 79.7998C119 78.8998 119.3 78.2998 119.9 77.7998C120.5 77.2998 121.2 77.0998 122.1 77.0998C122.7 77.0998 123.3 77.2998 123.8 77.5998C124.3 77.8998 124.7 78.2998 125 78.8998C125.3 79.4998 125.4 80.1998 125.4 81.2998C125.4 82.2998 125.3 83.1998 125 83.7998C124.7 84.3998 124.3 84.8998 123.8 85.1998C123.3 85.4998 122.6 85.6998 122 85.6998C121.3 85.6998 120.6 85.4998 120.2 85.1998C119.5 84.6998 119 84.0998 118.9 83.4998ZM123.8 79.7998C123.8 79.1998 123.6 78.7998 123.3 78.3998C123 78.0998 122.5 77.8998 122 77.8998C121.5 77.8998 121 78.0998 120.6 78.4998C120.2 78.8998 120 79.3998 120 79.8998C120 80.3998 120.2 80.8998 120.6 81.1998C120.9 81.4998 121.4 81.6998 122 81.6998C122.6 81.6998 123 81.4998 123.3 81.1998C123.6 80.8998 123.8 80.3998 123.8 79.7998ZM130.9 85.3998H129.7V78.8998C129.4 79.0998 129.1 79.3998 128.6 79.5998C128.1 79.7998 127.7 79.9998 127.3 80.0998V79.0998C127.9 78.7998 128.6 78.4998 129 78.0998C129.5 77.6998 129.9 77.3998 130 76.9998H130.7L130.9 85.3998ZM140.3 79.0998L139.1 79.1998C139 78.7998 138.9 78.4998 138.6 78.2998C138.3 77.9998 137.9 77.7998 137.4 77.7998C137 77.7998 136.7 77.8998 136.4 78.0998C136.1 78.2998 135.7 78.6998 135.5 79.0998C135.3 79.5998 135.2 80.1998 135.2 80.9998C135.5 80.5998 135.8 80.3998 136.2 80.1998C136.6 79.9998 137.1 79.8998 137.5 79.8998C138.3 79.8998 138.9 80.0998 139.5 80.5998C140.1 81.0998 140.3 81.7998 140.3 82.5998C140.3 83.0998 140.2 83.5998 139.9 83.9998C139.6 84.4998 139.3 84.7998 138.8 84.9998C138.3 85.1998 137.8 85.2998 137.2 85.2998C136.2 85.2998 135.4 84.9998 134.8 84.3998C134.2 83.7998 133.9 82.6998 133.9 81.2998C133.9 79.6998 134.2 78.4998 134.9 77.7998C135.5 77.1998 136.3 76.7998 137.3 76.7998C138 76.7998 138.7 76.9998 139.1 77.3998C139.9 77.9998 140.2 78.4998 140.3 79.0998ZM135.5 82.6998C135.5 82.9998 135.6 83.3998 135.8 83.6998C136 83.9998 136.2 84.2998 136.5 84.3998C136.8 84.5998 137.1 84.5998 137.5 84.5998C138 84.5998 138.4 84.3998 138.8 84.0998C139.1 83.7998 139.3 83.2998 139.3 82.6998C139.3 82.0998 139.1 81.6998 138.8 81.2998C138.5 80.9998 138 80.7998 137.5 80.7998C137 80.7998 136.5 80.9998 136.1 81.2998C135.7 81.6998 135.5 82.1998 135.5 82.6998Z" fill="#F4F5FF"/>
</svg>
