<svg width="224" height="47" viewBox="0 0 224 47" fill="none" xmlns="http://www.w3.org/2000/svg">
<path d="M51.5 7.6H56.4V46.6H51.5V7.6ZM62.8 7.6H67.7L92.6 38.5V7.6H97.5V46.6H92.8L67.7 15.4V46.6H62.8V7.6ZM102.3 7.6H126.7V12.5H107.2V22.3H119.1V27.2H107.2V41.8H126.7V46.7H102.3V7.6ZM132.1 7.6H161.4V12.5H148.4V46.6H143.5V12.5H132.1V7.6ZM165.7 7.6H170.6V46.6H165.7V7.6ZM46.7 23.3C46.7 10.4 36.2 0 23.4 0C10.5 0 0 10.4 0 23.3C0 36.2 10.5 46.6 23.3 46.6C26.2 46.6 29 46.1 31.5 45.1L27.5 40.3C26.2 40.6 24.8 40.8 23.4 40.8C13.7 40.8 5.9 33 5.9 23.3C5.9 13.6 13.7 5.8 23.4 5.8C33.1 5.8 40.8 13.6 40.8 23.3C40.8 27.9 39.1 32 36.2 35.2L33.7 32.3H26.5L38.8 46.6H46.7L40.2 39.4C44.3 35.3 46.7 29.6 46.7 23.3ZM224 23.3C224 10.4 213.5 0 200.7 0C187.8 0 177.4 10.5 177.4 23.3C177.4 36.1 187.9 46.6 200.7 46.6C203.6 46.6 206.4 46.1 208.9 45.1L204.8 40.3C203.5 40.6 202.1 40.8 200.7 40.8C191 40.8 183.2 33 183.2 23.3C183.2 13.6 191 5.8 200.7 5.8C210.4 5.8 218.2 13.6 218.2 23.3C218.2 27.9 216.5 32 213.6 35.2L211 32.3H203.8L216.1 46.6H224L217.5 39.4C221.6 35.3 224 29.6 224 23.3Z" fill="#F4F5FF"/>
</svg>
