<svg width="205" height="90" viewBox="0 0 205 90" fill="none" xmlns="http://www.w3.org/2000/svg">
<path d="M84.4 43.6V50.4H91.6V43.6H94.7V60.6H91.6V53.1H84.4V60.6H81.3V43.6H84.4ZM106.4 43.6V60.6H103.3V43.6H106.4ZM124.6 53H118.2V58H125.4V60.5H115.1V43.5H125V46H118.2V50.4H124.6V53ZM7.9 75.2H6V70.6H2V75.2H0.1V65.7H2V69.3H6V65.7H7.9V75.2ZM9.7 66.4C9.7 65.9 10.1 65.4 10.7 65.4C11.3 65.4 11.8 65.9 11.8 66.4C11.8 67 11.4 67.5 10.7 67.5C10.1 67.6 9.7 67 9.7 66.4ZM11.7 68.5V75.3H9.9V68.5H11.7ZM20.1 74.6C20.1 77.6 18.3 78.6 16.3 78.6C15.3 78.6 14.2 78.4 13.5 78L13.8 76.9C14.5 77.3 15.2 77.5 16.2 77.5C17.4 77.5 18.3 76.8 18.3 75.2V74.3C17.8 74.9 17.2 75.4 16.1 75.4C14.3 75.4 13.1 73.9 13.1 71.8C13.1 70 14.4 68.3 16.2 68.3C17 68.3 17.8 68.7 18.2 69.3V68.5H20L20.1 74.6ZM15 71.7C15 73 15.5 74.3 16.6 74.3C17.8 74.3 18.3 73 18.3 71.7C18.3 70.5 17.7 69.4 16.7 69.4C15.5 69.4 15 70.4 15 71.7ZM23.7 69.3C24.3 68.6 25.2 68.3 26 68.3C27.6 68.3 28.4 69.2 28.4 70.9V75.3H26.6V71.1C26.6 70.2 26.2 69.5 25.2 69.5C24.3 69.5 23.6 70.1 23.6 71.2V75.2H21.8V65.2H23.6V69.3H23.7ZM30.2 75.2V65.2H32V75.2H30.2ZM37.1 74.6C36.6 75 36 75.4 35.4 75.4C34.4 75.4 33.5 74.6 33.5 73.3C33.5 72 34.4 71.3 36 70.8L37.6 70.3C37.5 69.7 36.9 69.3 36.4 69.3C35.6 69.3 35.1 69.6 34.6 70L34 69.1C34.8 68.4 35.7 68.2 36.6 68.2C37.9 68.2 39.4 68.6 39.4 70.7V73.5C39.4 74.1 39.5 74.7 39.7 75.2H37.8C37.7 75 37.6 74.6 37.6 74.2L37.1 74.6ZM36.5 71.6C35.6 71.9 35.2 72.4 35.2 73.2C35.2 73.8 35.6 74.2 36 74.2C36.7 74.2 37.7 73.3 37.5 71.3L36.5 71.6ZM42.8 69.3C43.4 68.6 44.3 68.3 45.1 68.3C46.7 68.3 47.5 69.2 47.5 70.9V75.3H45.7V71.1C45.7 70.2 45.3 69.5 44.3 69.5C43.4 69.5 42.7 70.1 42.7 71.2V75.2H40.9V68.4H42.7L42.8 69.3ZM54.1 74.3C53.6 74.9 52.9 75.4 51.9 75.4C50.1 75.4 48.9 73.9 48.9 71.8C48.9 70 50.2 68.3 52 68.3C52.9 68.3 53.7 68.6 54.1 69.2V65.2H55.9V75.2H54.1V74.3ZM50.9 71.7C50.9 73 51.4 74.3 52.5 74.3C53.7 74.3 54.2 73 54.2 71.7C54.2 70.5 53.6 69.4 52.6 69.4C51.3 69.4 50.9 70.4 50.9 71.7ZM61.4 69.7C61 69.4 60.6 69.3 60.3 69.3C59.9 69.3 59.5 69.5 59.5 70C59.5 70.6 60.2 70.9 60.9 71.4C61.9 72.1 62.2 72.8 62.2 73.5C62.2 74.4 61.2 75.4 59.7 75.4C58.8 75.4 58.1 75.1 57.4 74.6L58 73.7C58.4 74 59 74.4 59.5 74.4C60 74.4 60.5 74.1 60.5 73.6C60.5 73 59.8 72.6 59.1 72.1C58.3 71.6 57.8 71.1 57.8 70.2C57.8 69.1 58.8 68.3 60.2 68.3C60.9 68.3 61.7 68.5 62.2 68.9L61.4 69.7ZM70.6 74.6C70.1 75 69.5 75.4 68.9 75.4C67.9 75.4 67 74.6 67 73.3C67 72 67.9 71.3 69.5 70.8L71.1 70.3C71 69.7 70.4 69.3 69.9 69.3C69.1 69.3 68.6 69.6 68.1 70L67.5 69.1C68.3 68.4 69.2 68.2 70.1 68.2C71.4 68.2 72.9 68.6 72.9 70.7V73.5C72.9 74.1 73 74.7 73.2 75.2H71.3C71.2 75 71.1 74.6 71.1 74.2L70.6 74.6ZM70 71.6C69.1 71.9 68.7 72.4 68.7 73.2C68.7 73.8 69.1 74.2 69.5 74.2C70.2 74.2 71.2 73.3 71 71.3L70 71.6ZM76.3 69.3C76.9 68.6 77.8 68.3 78.6 68.3C80.2 68.3 81 69.2 81 70.9V75.3H79.3V71.1C79.3 70.2 78.9 69.5 77.9 69.5C77 69.5 76.3 70.1 76.3 71.2V75.2H74.5V68.4H76.3V69.3ZM87.7 74.3C87.2 74.9 86.5 75.4 85.5 75.4C83.7 75.4 82.5 73.9 82.5 71.8C82.5 70 83.8 68.3 85.6 68.3C86.5 68.3 87.3 68.6 87.7 69.2V65.2H89.5V75.2H87.7V74.3ZM84.4 71.7C84.4 73 84.9 74.3 86 74.3C87.2 74.3 87.7 73 87.7 71.7C87.7 70.5 87.1 69.4 86.1 69.4C84.8 69.4 84.4 70.4 84.4 71.7ZM95.3 75.2V65.7H97.2V75.2H95.3ZM102.8 69.7C102.4 69.4 102 69.3 101.7 69.3C101.3 69.3 100.9 69.5 100.9 70C100.9 70.6 101.6 70.9 102.3 71.4C103.3 72.1 103.6 72.8 103.6 73.5C103.6 74.4 102.6 75.4 101.1 75.4C100.2 75.4 99.5 75.1 98.8 74.6L99.4 73.7C99.8 74 100.4 74.4 100.9 74.4C101.4 74.4 101.9 74.1 101.9 73.6C101.9 73 101.2 72.6 100.5 72.1C99.7 71.6 99.2 71.1 99.2 70.2C99.2 69.1 100.2 68.3 101.6 68.3C102.3 68.3 103.1 68.5 103.6 68.9L102.8 69.7ZM104.9 75.2V65.2H106.7V75.2H104.9ZM111.8 74.6C111.3 75 110.7 75.4 110.1 75.4C109.1 75.4 108.2 74.6 108.2 73.3C108.2 72 109.1 71.3 110.7 70.8L112.3 70.3C112.2 69.7 111.6 69.3 111.1 69.3C110.3 69.3 109.8 69.6 109.3 70L108.7 69.1C109.5 68.4 110.4 68.2 111.3 68.2C112.6 68.2 114.1 68.6 114.1 70.7V73.5C114.1 74.1 114.2 74.7 114.4 75.2H112.5C112.4 75 112.3 74.6 112.3 74.2L111.8 74.6ZM111.3 71.6C110.4 71.9 110 72.4 110 73.2C110 73.8 110.4 74.2 110.8 74.2C111.5 74.2 112.5 73.3 112.3 71.3L111.3 71.6ZM117.5 69.3C118.1 68.6 119 68.3 119.8 68.3C121.4 68.3 122.2 69.2 122.2 70.9V75.3H120.4V71.1C120.4 70.2 120 69.5 119 69.5C118.1 69.5 117.4 70.1 117.4 71.2V75.2H115.6V68.4H117.4V69.3H117.5ZM128.9 74.3C128.4 74.9 127.7 75.4 126.7 75.4C124.9 75.4 123.7 73.9 123.7 71.8C123.7 70 125 68.3 126.8 68.3C127.7 68.3 128.5 68.6 128.9 69.2V65.2H130.7V75.2H128.9V74.3ZM125.6 71.7C125.6 73 126.1 74.3 127.2 74.3C128.4 74.3 128.9 73 128.9 71.7C128.9 70.5 128.3 69.4 127.3 69.4C126.1 69.4 125.6 70.4 125.6 71.7ZM136.1 69.7C135.7 69.4 135.3 69.3 135 69.3C134.6 69.3 134.2 69.5 134.2 70C134.2 70.6 134.9 70.9 135.6 71.4C136.6 72.1 136.9 72.8 136.9 73.5C136.9 74.4 135.9 75.4 134.4 75.4C133.5 75.4 132.8 75.1 132.1 74.6L132.7 73.7C133.1 74 133.7 74.4 134.2 74.4C134.7 74.4 135.2 74.1 135.2 73.6C135.2 73 134.5 72.6 133.8 72.1C133 71.6 132.5 71.1 132.5 70.2C132.5 69.1 133.5 68.3 134.9 68.3C135.6 68.3 136.4 68.5 136.9 68.9L136.1 69.7ZM147.3 67H144.1V69.6H147.2V70.9H144.1V74H147.9V75.3H142.2V65.8H147.3V67ZM151.1 69.3C151.7 68.6 152.6 68.3 153.4 68.3C155 68.3 155.8 69.2 155.8 70.9V75.3H154V71.1C154 70.2 153.6 69.5 152.6 69.5C151.7 69.5 151 70.1 151 71.2V75.2H149.3V68.4H151.1V69.3ZM159.7 68.5H161.5V69.4H159.7V72.7C159.7 73.8 160 74.3 160.6 74.3C161 74.3 161.2 74.2 161.5 74.1L161.8 75C161.3 75.3 160.6 75.4 160 75.4C158.5 75.4 157.8 74.6 157.8 73.2V69.3H156.9V68.4H157.8V66.8L159.6 66.4V68.5H159.7ZM164.4 72C164.4 73.3 165.3 74.2 166.4 74.2C167.1 74.2 167.8 74 168.2 73.6L168.7 74.5C167.8 75.1 166.8 75.3 166.1 75.3C164 75.3 162.5 73.8 162.5 71.6C162.5 69.5 164 68.2 165.9 68.2C168 68.2 168.9 69.9 168.7 71.9L164.4 72ZM167.1 71C167.2 70 166.8 69.3 165.9 69.3C164.9 69.3 164.4 70.1 164.4 71H167.1ZM172 69.6L172.4 69.1C172.6 68.8 173 68.3 173.6 68.3C174 68.3 174.4 68.5 174.8 68.9L174.1 70.2C173.8 70.1 173.6 70 173.2 70C172.6 70 172 70.5 172 72V75.3H170.2V68.5H172V69.6ZM177.4 69.4C177.9 68.7 178.8 68.3 179.6 68.3C181.7 68.3 182.6 70.2 182.6 71.7C182.6 73.5 181.4 75.4 179.4 75.4C178.6 75.4 177.9 75 177.3 74.4V78.6H175.5V68.4H177.3L177.4 69.4ZM177.4 71.9C177.4 73.3 178.1 74.3 179.1 74.3C180.3 74.3 180.7 72.9 180.7 71.7C180.7 70.5 180.2 69.4 179.2 69.4C178 69.4 177.4 70.4 177.4 71.9ZM185.8 69.6L186.2 69.1C186.4 68.8 186.8 68.3 187.4 68.3C187.8 68.3 188.2 68.5 188.6 68.9L187.9 70.2C187.6 70.1 187.4 70 187 70C186.4 70 185.8 70.5 185.8 72V75.3H184V68.5H185.8V69.6ZM189.2 66.4C189.2 65.9 189.6 65.4 190.2 65.4C190.8 65.4 191.3 65.9 191.3 66.4C191.3 67 190.9 67.5 190.2 67.5C189.6 67.6 189.2 67 189.2 66.4ZM191.1 68.5V75.3H189.3V68.5H191.1ZM196.6 69.7C196.2 69.4 195.8 69.3 195.5 69.3C195.1 69.3 194.7 69.5 194.7 70C194.7 70.6 195.4 70.9 196.1 71.4C197.1 72.1 197.4 72.8 197.4 73.5C197.4 74.4 196.4 75.4 194.9 75.4C194 75.4 193.3 75.1 192.6 74.6L193.2 73.7C193.6 74 194.2 74.4 194.7 74.4C195.2 74.4 195.7 74.1 195.7 73.6C195.7 73 195 72.6 194.3 72.1C193.5 71.6 193 71.1 193 70.2C193 69.1 194 68.3 195.4 68.3C196.1 68.3 196.9 68.5 197.4 68.9L196.6 69.7ZM200.2 72C200.2 73.3 201.1 74.2 202.2 74.2C202.9 74.2 203.6 74 204 73.6L204.5 74.5C203.6 75.1 202.6 75.3 201.9 75.3C199.8 75.3 198.3 73.8 198.3 71.6C198.3 69.5 199.8 68.2 201.7 68.2C203.8 68.2 204.7 69.9 204.5 71.9L200.2 72ZM202.9 71C203 70 202.6 69.3 201.7 69.3C200.7 69.3 200.2 70.1 200.2 71H202.9ZM0 89.8V81H1.8V89.8H0ZM2.8 86.6C2.8 84.6 4.4 83.4 6.1 83.4C7.8 83.4 9.4 84.6 9.4 86.6C9.4 88.5 8.1 89.9 6.1 89.9C4.1 90 2.8 88.5 2.8 86.6ZM7.6 86.6C7.6 85.6 7.3 84.3 6.1 84.3C5 84.3 4.6 85.6 4.6 86.6C4.6 87.7 4.9 89 6.1 89C7.3 89 7.6 87.7 7.6 86.6ZM11.8 84.3C12.3 83.7 13.1 83.4 13.8 83.4C14.6 83.4 15.3 83.7 15.6 84.3C16.1 83.8 17 83.4 17.7 83.4C19.1 83.4 19.9 84.2 19.9 85.7V89.8H18.3V86C18.3 85.3 18.1 84.5 17.2 84.5C16.4 84.5 15.9 85 15.9 86.1V89.8H14.2V86C14.2 85.1 13.8 84.5 13.1 84.5C12.3 84.5 11.8 85 11.8 86.1V89.8H10.1V83.5H11.8V84.3ZM24.2 89.2C23.7 89.5 23.2 90 22.6 90C21.6 90 20.8 89.2 20.8 88.1C20.8 86.9 21.7 86.2 23.1 85.8L24.6 85.3C24.5 84.7 24 84.4 23.5 84.4C22.8 84.4 22.3 84.7 21.8 85L21.3 84.2C22.1 83.6 22.8 83.4 23.7 83.4C24.8 83.4 26.3 83.8 26.3 85.7V88.2C26.3 88.7 26.4 89.3 26.6 89.7H24.8C24.7 89.5 24.6 89.1 24.6 88.8L24.2 89.2ZM23.7 86.5C22.9 86.7 22.5 87.2 22.5 87.9C22.5 88.5 22.8 88.8 23.3 88.8C24 88.8 24.8 88 24.7 86.1L23.7 86.5ZM27.2 81.7C27.2 81.2 27.6 80.7 28.2 80.7C28.8 80.7 29.2 81.2 29.2 81.7C29.2 82.2 28.8 82.7 28.2 82.7C27.6 82.7 27.2 82.2 27.2 81.7ZM29 83.6V89.9H27.3V83.6H29ZM31.9 84.6L32.2 84.1C32.4 83.8 32.8 83.3 33.3 83.3C33.7 83.3 34.1 83.5 34.4 83.9L33.8 85C33.5 84.9 33.3 84.8 33 84.8C32.4 84.8 31.9 85.3 31.9 86.6V89.7H30.2V83.4H31.9V84.6Z" fill="#F4F5FF"/>
<path d="M36.7 83.6001H38.2999V84.4001H36.7V87.5001C36.7 88.5001 36.9999 89.0001 37.5999 89.0001C37.8999 89.0001 38.1999 88.9001 38.3999 88.8001L38.7 89.6001C38.2 89.9001 37.5999 90.0001 37.0999 90.0001C35.6999 90.0001 35.0999 89.3001 35.0999 88.0001V84.5001H34.2V83.7001H35.0999V82.0001L36.7999 81.6001L36.7 83.6001ZM50 89.8001H48.7C47 87.8001 45.4 85.8001 43.7 83.5001V89.8001H42.2999V81.0001H43.5999C45.2999 83.0001 46.8999 85.0001 48.5999 87.3001V81.0001H50V89.8001ZM54.4999 89.2001C53.9999 89.5001 53.4999 90.0001 52.8999 90.0001C51.8999 90.0001 51.0999 89.2001 51.0999 88.1001C51.0999 86.9001 51.9999 86.2001 53.3999 85.8001L54.8999 85.3001C54.7999 84.7001 54.2999 84.4001 53.7999 84.4001C53.0999 84.4001 52.5999 84.7001 52.0999 85.0001L51.5999 84.2001C52.3999 83.6001 53.1 83.4001 54 83.4001C55.1 83.4001 56.6 83.8001 56.6 85.7001V88.2001C56.6 88.7001 56.6999 89.3001 56.8999 89.7001H55.1C55 89.5001 54.8999 89.1001 54.8999 88.8001L54.4999 89.2001ZM54 86.5001C53.2 86.7001 52.7999 87.2001 52.7999 87.9001C52.7999 88.5001 53.0999 88.8001 53.5999 88.8001C54.2999 88.8001 55.0999 88.0001 54.9999 86.1001L54 86.5001ZM68.2999 85.8001V89.4001C67.3999 89.7001 66.3999 89.9001 65.3999 89.9001C62.3999 89.9001 60.4999 87.9001 60.4999 85.3001C60.4999 82.9001 62.3999 80.8001 65.4999 80.8001C66.4999 80.8001 67.3999 81.1001 67.9999 81.5001L67.3999 82.5001C66.8999 82.3001 66.1999 82.0001 65.4999 82.0001C63.5999 82.0001 62.2999 83.3001 62.2999 85.3001C62.2999 87.4001 63.7999 88.6001 65.2999 88.6001C65.7999 88.6001 66.2 88.6001 66.6 88.4001V85.7001H68.2999V85.8001ZM72.7999 89.2001C72.2999 89.5001 71.7999 90.0001 71.2 90.0001C70.2 90.0001 69.3999 89.2001 69.3999 88.1001C69.3999 86.9001 70.2999 86.2001 71.7 85.8001L73.2 85.3001C73.1 84.7001 72.6 84.4001 72.1 84.4001C71.4 84.4001 70.8999 84.7001 70.3999 85.0001L69.8999 84.2001C70.6999 83.6001 71.3999 83.4001 72.2999 83.4001C73.3999 83.4001 74.8999 83.8001 74.8999 85.7001V88.2001C74.8999 88.7001 75 89.3001 75.2 89.7001H73.3999C73.2999 89.5001 73.2 89.1001 73.2 88.8001L72.7999 89.2001ZM72.2999 86.5001C71.5 86.7001 71.1 87.2001 71.1 87.9001C71.1 88.5001 71.3999 88.8001 71.8999 88.8001C72.5999 88.8001 73.3999 88.0001 73.2999 86.1001L72.2999 86.5001ZM75.7999 81.7001C75.7999 81.2001 76.2 80.7001 76.7999 80.7001C77.3999 80.7001 77.7999 81.2001 77.7999 81.7001C77.7999 82.2001 77.3999 82.7001 76.7999 82.7001C76.2 82.7001 75.7999 82.2001 75.7999 81.7001ZM77.6 83.6001V89.9001H75.8999V83.6001H77.6ZM83.2999 88.9001C82.7999 89.4001 82.2 89.9001 81.2 89.9001C79.6 89.9001 78.4999 88.5001 78.4999 86.6001C78.4999 85.0001 79.7 83.4001 81.2999 83.4001C82.0999 83.4001 82.7999 83.7001 83.2 84.3001V80.7001H84.8999V89.9001H83.2999V88.9001ZM80.2 86.6001C80.2 87.8001 80.7 89.0001 81.6 89.0001C82.7 89.0001 83.2 87.8001 83.2 86.5001C83.2 85.4001 82.7 84.4001 81.7 84.4001C80.7 84.4001 80.2 85.4001 80.2 86.6001ZM87.7999 84.3001C88.3999 83.7001 89.1999 83.4001 89.9999 83.4001C91.4999 83.4001 92.2 84.2001 92.2 85.8001V89.8001H90.4999V85.9001C90.4999 85.0001 90.1 84.4001 89.2 84.4001C88.4 84.4001 87.7 84.9001 87.7 86.0001V89.7001H85.9999V80.5001H87.7L87.7999 84.3001ZM94.7999 86.8001C94.7999 88.0001 95.6 88.9001 96.6 88.9001C97.2 88.9001 97.8999 88.7001 98.2999 88.4001L98.7999 89.3001C98 89.8001 97.0999 90.0001 96.2999 90.0001C94.3999 90.0001 92.9999 88.6001 92.9999 86.6001C92.9999 84.7001 94.4 83.4001 96.2 83.4001C98.1 83.4001 98.9999 85.0001 98.7999 86.8001H94.7999ZM97.2999 85.9001C97.3999 85.0001 97 84.3001 96.2 84.3001C95.2999 84.3001 94.7999 85.1001 94.7999 85.9001H97.2999ZM102.7 89.2001C102.2 89.5001 101.7 90.0001 101.1 90.0001C100.1 90.0001 99.2999 89.2001 99.2999 88.1001C99.2999 86.9001 100.2 86.2001 101.6 85.8001L103.1 85.3001C103 84.7001 102.5 84.4001 102 84.4001C101.3 84.4001 100.8 84.7001 100.3 85.0001L99.7999 84.2001C100.6 83.6001 101.3 83.4001 102.2 83.4001C103.3 83.4001 104.8 83.8001 104.8 85.7001V88.2001C104.8 88.7001 104.9 89.3001 105.1 89.7001H103.3C103.2 89.5001 103.1 89.1001 103.1 88.8001L102.7 89.2001ZM102.2 86.5001C101.4 86.7001 101 87.2001 101 87.9001C101 88.5001 101.3 88.8001 101.8 88.8001C102.5 88.8001 103.3 88.0001 103.2 86.1001L102.2 86.5001ZM105.9 89.8001V80.6001H107.6V89.8001H105.9ZM110.7 83.6001H112.3V84.4001H110.7V87.5001C110.7 88.5001 111 89.0001 111.6 89.0001C111.9 89.0001 112.2 88.9001 112.4 88.8001L112.7 89.6001C112.2 89.9001 111.6 90.0001 111.1 90.0001C109.7 90.0001 109.1 89.3001 109.1 88.0001V84.5001H108.2V83.7001H109.1V82.0001L110.8 81.6001L110.7 83.6001ZM116.2 89.2001C115.7 89.5001 115.2 90.0001 114.6 90.0001C113.6 90.0001 112.8 89.2001 112.8 88.1001C112.8 86.9001 113.7 86.2001 115.1 85.8001L116.6 85.3001C116.5 84.7001 116 84.4001 115.5 84.4001C114.8 84.4001 114.3 84.7001 113.8 85.0001L113.3 84.2001C114.1 83.6001 114.8 83.4001 115.7 83.4001C116.8 83.4001 118.3 83.8001 118.3 85.7001V88.2001C118.3 88.7001 118.4 89.3001 118.6 89.7001H116.8C116.7 89.5001 116.6 89.1001 116.6 88.8001L116.2 89.2001ZM115.6 86.5001C114.8 86.7001 114.4 87.2001 114.4 87.9001C114.4 88.5001 114.7 88.8001 115.2 88.8001C115.9 88.8001 116.7 88.0001 116.6 86.1001L115.6 86.5001ZM124.2 89.5001C123.7 89.8001 123 90.0001 122.4 90.0001C119.8 90.0001 119 88.0001 119 86.7001C119 85.0001 120.3 83.4001 122.5 83.4001C123 83.4001 123.6 83.5001 124.1 83.8001L123.7 84.8001C123.5 84.7001 123.4 84.7001 123.1 84.6001C122.9 84.6001 122.7 84.5001 122.5 84.5001C121.6 84.5001 120.6 85.1001 120.6 86.6001C120.6 87.9001 121.3 88.8001 122.5 88.8001C122.9 88.8001 123.3 88.7001 123.7 88.5001L124.2 89.5001ZM126.4 84.3001C127 83.7001 127.8 83.4001 128.6 83.4001C130.1 83.4001 130.8 84.2001 130.8 85.8001V89.8001H129.1V85.9001C129.1 85.0001 128.7 84.4001 127.8 84.4001C127 84.4001 126.3 84.9001 126.3 86.0001V89.7001H124.6V80.5001H126.3V84.3001H126.4ZM136.4 88.9001C135.9 89.4001 135.3 89.9001 134.3 89.9001C132.7 89.9001 131.6 88.5001 131.6 86.6001C131.6 85.0001 132.8 83.4001 134.4 83.4001C135.2 83.4001 135.9 83.7001 136.3 84.3001V80.7001H138V89.9001H136.3L136.4 88.9001ZM133.4 86.6001C133.4 87.8001 133.9 89.0001 134.8 89.0001C135.9 89.0001 136.4 87.8001 136.4 86.5001C136.4 85.4001 135.9 84.4001 134.9 84.4001C133.8 84.4001 133.4 85.4001 133.4 86.6001ZM140.7 84.0001L141.4 81.9001C141.7 81.1001 141.9 80.6001 142.5 80.6001C143 80.6001 143.2 81.2001 142.7 82.1001L141.4 84.3001L140.7 84.0001ZM72.2999 82.8001L70.9999 80.6001C70.4999 79.7001 70.7999 79.1001 71.2 79.1001C71.7999 79.1001 72 79.6001 72.2999 80.4001L72.9999 82.5001L72.2999 82.8001ZM145.6 84.8001C145.2 84.5001 144.8 84.4001 144.5 84.4001C144.1 84.4001 143.7 84.6001 143.7 85.0001C143.7 85.5001 144.3 85.8001 145 86.3001C145.9 87.0001 146.1 87.6001 146.1 88.2001C146.1 89.1001 145.1 90.0001 143.8 90.0001C142.9 90.0001 142.3 89.7001 141.7 89.3001L142.2 88.4001C142.6 88.7001 143.1 89.0001 143.6 89.0001C144.1 89.0001 144.5 88.8001 144.5 88.2001C144.5 87.6001 143.8 87.3001 143.2 86.8001C142.5 86.3001 142 85.8001 142 85.1001C142 84.1001 142.9 83.4001 144.2 83.4001C144.9 83.4001 145.6 83.6001 146 84.0001L145.6 84.8001ZM151.8 84.3001C152.4 83.7001 153.2 83.4001 154 83.4001C155.5 83.4001 156.2 84.2001 156.2 85.8001V89.8001H154.5V85.9001C154.5 85.0001 154.1 84.4001 153.2 84.4001C152.4 84.4001 151.7 84.9001 151.7 86.0001V89.7001H150V83.4001H151.7V84.3001H151.8ZM160.4 89.2001C159.9 89.5001 159.4 90.0001 158.8 90.0001C157.8 90.0001 157 89.2001 157 88.1001C157 86.9001 157.9 86.2001 159.3 85.8001L160.8 85.3001C160.7 84.7001 160.2 84.4001 159.7 84.4001C159 84.4001 158.5 84.7001 158 85.0001L157.5 84.2001C158.3 83.6001 159 83.4001 159.9 83.4001C161 83.4001 162.5 83.8001 162.5 85.7001V88.2001C162.5 88.7001 162.6 89.3001 162.8 89.7001H161C160.9 89.5001 160.8 89.1001 160.8 88.8001L160.4 89.2001ZM159.9 86.5001C159.1 86.7001 158.7 87.2001 158.7 87.9001C158.7 88.5001 159 88.8001 159.5 88.8001C160.2 88.8001 161 88.0001 160.9 86.1001L159.9 86.5001ZM165.2 84.3001C165.8 83.7001 166.6 83.4001 167.4 83.4001C168.9 83.4001 169.6 84.2001 169.6 85.8001V89.8001H167.9V85.9001C167.9 85.0001 167.5 84.4001 166.6 84.4001C165.8 84.4001 165.1 84.9001 165.1 86.0001V89.7001H163.4V83.4001H165.1V84.3001H165.2ZM178.7 82.3001H175.8V84.7001H178.7V85.9001H175.8V88.7001H179.3V89.9001H174.1V81.1001H178.8V82.3001H178.7ZM180 81.7001C180 81.2001 180.4 80.7001 181 80.7001C181.6 80.7001 182 81.2001 182 81.7001C182 82.2001 181.6 82.7001 181 82.7001C180.4 82.7001 180 82.2001 180 81.7001ZM181.8 83.6001V89.9001H180.1V83.6001H181.8ZM183 89.8001V80.6001H184.7V89.8001H183ZM187.3 86.8001C187.3 88.0001 188.1 88.9001 189.1 88.9001C189.7 88.9001 190.4 88.7001 190.8 88.4001L191.3 89.3001C190.5 89.8001 189.6 90.0001 188.8 90.0001C186.9 90.0001 185.5 88.6001 185.5 86.6001C185.5 84.7001 186.9 83.4001 188.7 83.4001C190.6 83.4001 191.5 85.0001 191.3 86.8001H187.3ZM189.8 85.9001C189.9 85.0001 189.5 84.3001 188.7 84.3001C187.8 84.3001 187.3 85.1001 187.3 85.9001H189.8ZM195.2 89.2001C194.7 89.5001 194.2 90.0001 193.6 90.0001C192.6 90.0001 191.8 89.2001 191.8 88.1001C191.8 86.9001 192.7 86.2001 194.1 85.8001L195.6 85.3001C195.5 84.7001 195 84.4001 194.5 84.4001C193.8 84.4001 193.3 84.7001 192.8 85.0001L192.3 84.2001C193.1 83.6001 193.8 83.4001 194.7 83.4001C195.8 83.4001 197.3 83.8001 197.3 85.7001V88.2001C197.3 88.7001 197.4 89.3001 197.6 89.7001H195.8C195.7 89.5001 195.6 89.1001 195.6 88.8001L195.2 89.2001ZM194.7 86.5001C193.9 86.7001 193.5 87.2001 193.5 87.9001C193.5 88.5001 193.8 88.8001 194.3 88.8001C195 88.8001 195.8 88.0001 195.7 86.1001L194.7 86.5001ZM200 84.3001C200.6 83.7001 201.4 83.4001 202.2 83.4001C203.7 83.4001 204.4 84.2001 204.4 85.8001V89.8001H202.7V85.9001C202.7 85.0001 202.3 84.4001 201.4 84.4001C200.6 84.4001 199.9 84.9001 199.9 86.0001V89.7001H198.2V83.4001H199.9L200 84.3001Z" fill="#F4F5FF"/>
<path d="M100.7 29.3L80.9999 40.3H80.3999V14.7C82.5999 14.9 86.3999 17.3 88.7999 19.9C92.5999 24 98.6999 25 98.6999 25C98.6999 25 95.6999 25.9 95.9999 27.3C95.9999 28.4 99.3999 29.1 100.7 29.3ZM125 12.5V12.8C124.1 12.8 122.3 12.8 120.3 13C115.5 13.5 109.4 21.6 102.4 21.5C97.0999 21.4 91.6999 15.8 88.2999 14.1C84.7999 12.4 80.4999 12.5 80.4999 12.5L102.7 0L125 12.5ZM120.3 16.6C121.4 15.5 123.5 15.1 125 15V40.3H124.4L104.8 29.3C105.4 28.5 106.2 27.5 106.6 27.2C107.4 26.6 109.6 26.7 109.6 26.7C109.6 26.7 110.5 26.4 108.6 24.2C113.3 23.6 118.5 18.4 120.3 16.6Z" fill="#F4F5FF"/>
</svg>
