<svg width="189" height="90" viewBox="0 0 189 90" fill="none" xmlns="http://www.w3.org/2000/svg">
<path d="M107.4 39.5001C108.4 39.5001 109.3 39.3001 110.1 39.0001C110.9 38.6001 111.5 38.2001 112.1 37.6001C112.6 37.0001 113 36.3001 113.3 35.5001C113.6 34.7001 113.7 33.7001 113.7 32.7001V18.0001H117V32.6001C117 34.0001 116.8 35.3001 116.3 36.5001C115.9 37.7001 115.2 38.7001 114.4 39.6001C113.6 40.5001 112.6 41.1001 111.4 41.6001C110.2 42.1001 108.9 42.3001 107.4 42.3001C105.9 42.3001 104.6 42.1001 103.4 41.6001C102.2 41.1001 101.2 40.4001 100.4 39.6001C99.6001 38.7001 98.9001 37.7001 98.5001 36.5001C98.1001 35.3001 97.8001 34.0001 97.8001 32.6001V18.0001H101.1V32.6001C101.1 33.6001 101.2 34.6001 101.5 35.4001C101.8 36.2001 102.2 36.9001 102.7 37.5001C103.2 38.1001 103.9 38.6001 104.7 38.9001C105.6 39.3001 106.5 39.5001 107.4 39.5001ZM125.3 28.5001L134.9 17.9001H138.9L128.5 29.4001L139.5 42.0001H135.5L125.4 31.0001V42.0001H122.1V18.0001H125.4L125.3 28.5001ZM109.2 50.8001C108.4 50.2001 107.4 50.0001 106.2 49.7001C105.7 49.5001 105 49.4001 104.3 49.4001C103.6 49.4001 103 49.5001 102.4 49.7001C101.8 49.9001 101.4 50.2001 101 50.5001C100.6 50.8001 100.3 51.2001 100.2 51.6001C100 52.0001 99.9001 52.5001 99.9001 53.0001C99.9001 53.7001 100.1 54.2001 100.4 54.6001C100.7 55.0001 101.2 55.4001 101.6 55.7001C102.1 56.1001 102.7 56.3001 103.4 56.5001C104.1 56.7001 104.8 57.0001 105.5 57.2001C106.2 57.4001 106.9 57.7001 107.6 58.0001C108.3 58.3001 108.8 58.7001 109.4 59.1001C109.9 59.6001 110.3 60.1001 110.6 60.8001C110.9 61.5001 111.1 62.3001 111.1 63.2001C111.1 64.2001 110.9 65.2001 110.6 66.0001C110.2 66.9001 109.8 67.7001 109.1 68.3001C108.4 69.0001 107.6 69.5001 106.7 69.8001C105.8 70.2001 104.6 70.3001 103.4 70.4001C101 70.4001 99.1001 69.7001 97.0001 68.8001L96.9001 65.2001C98.1001 66.0001 99.1001 66.6001 101.2 67.4001C101.9 67.6001 102.6 67.8001 103.5 67.8001C104.3 67.8001 104.9 67.7001 105.5 67.5001C106.1 67.3001 106.6 67.0001 107 66.6001C107.4 66.2001 107.7 65.8001 107.9 65.2001C108.1 64.7001 108.3 64.1001 108.3 63.5001C108.3 62.8001 108.1 62.2001 107.8 61.8001C107.5 61.3001 107 61.0001 106.6 60.7001C106.1 60.4001 105.5 60.2001 104.8 59.9001C104.1 59.7001 103.4 59.5001 102.7 59.2001C102 59.0001 101.3 58.7001 100.6 58.4001C99.9001 58.1001 99.4001 57.7001 98.8001 57.3001C98.3001 56.8001 97.9001 56.2001 97.6001 55.5001C97.3001 54.8001 97.1001 54.0001 97.1001 52.9001C97.1001 52.1001 97.3001 51.3001 97.6001 50.5001C97.9001 49.7001 98.4001 49.0001 99.0001 48.4001C99.6001 47.8001 100.4 47.3001 101.3 47.0001C102.2 46.6001 103.2 46.5001 104.4 46.5001C105.7 46.5001 108.3 46.9001 109.5 47.4001L109.2 50.8001ZM118.3 61.0001V70.3001H115.2V47.0001H122.1C123.6 47.0001 124.9 47.2001 126 47.5001C127.1 47.9001 128 48.3001 128.7 49.0001C129.4 49.7001 129.9 50.4001 130.3 51.3001C130.7 52.2001 130.8 52.6001 130.8 53.7001C130.8 54.8001 130.6 55.8001 130.2 56.7001C129.8 57.6001 129.3 58.4001 128.5 59.0001C127.8 59.7001 126.8 60.2001 125.8 60.5001C124.7 60.9001 123.5 61.0001 122.1 61.0001H118.3ZM118.3 58.6001H122C122.9 58.6001 123.7 58.5001 124.4 58.2001C125.1 58.0001 125.6 57.6001 126.1 57.2001C126.6 56.8001 126.9 56.3001 127.2 55.7001C127.4 55.1001 127.6 54.5001 127.6 53.7001C127.6 52.2001 127.1 51.6001 126.2 50.8001C125.3 50.0001 123.9 49.6001 122 49.6001H118.3V58.6001ZM150.4 70.4001H147.4L144.1 64.0001H134.8L132.1 70.4001H128.5L139.5 46.4001L150.4 70.4001ZM135.7 61.7001H143.2L139.4 52.4001L135.7 61.7001ZM169 65.1001C169.2 65.1001 169.4 65.2001 169.5 65.3001L170.7 66.7001C169.8 67.8001 168.6 68.7001 167.2 69.3001C165.8 69.9001 164.2 70.2001 162.3 70.2001C160.6 70.2001 159.1 69.9001 157.7 69.3001C156.3 68.7001 155.1 67.9001 154.2 66.9001C153.3 65.8001 152.5 64.6001 151.9 63.1001C151.4 61.6001 151.1 60.0001 151.1 58.2001C151.1 56.4001 151.4 54.8001 151.9 53.3001C152.5 51.8001 153.3 50.6001 154.3 49.5001C155.3 48.4001 156.6 47.6001 158 47.1001C159.4 46.5001 161 46.2001 162.7 46.2001C164.4 46.2001 165.9 46.4001 167.1 47.0001C168.3 47.6001 169.5 48.2001 170.4 49.2001L169.4 50.6001C169.3 50.7001 169.2 50.8001 169.2 50.9001C169.1 51.0001 169 51.0001 168.8 51.0001C168.7 51.0001 168.5 50.9001 168.3 50.8001C168.1 50.7001 167.9 50.6001 167.8 50.4001C167.6 50.2001 167.3 50.1001 167 49.9001C166.7 49.7001 166.3 49.5001 165.9 49.4001C165.5 49.2001 165 49.1001 164.5 49.0001C164 48.9001 163.4 48.8001 162.7 48.8001C161.5 48.8001 160.3 49.0001 159.3 49.5001C158.2 49.9001 157.3 50.6001 156.6 51.3001C155.8 52.1001 155.3 53.1001 154.8 54.2001C154.4 55.3001 154.1 56.6001 154.1 58.1001C154.1 59.6001 154.3 60.8001 154.8 62.0001C155.2 63.2001 155.8 64.1001 156.5 64.9001C157.2 65.7001 158.1 66.3001 159.1 66.7001C160.1 67.1001 161.2 67.3001 162.3 67.3001C163 67.3001 163.6 67.2001 164.2 67.2001C164.7 67.1001 165.3 67.0001 165.7 66.8001C166.2 66.7001 166.6 66.4001 167 66.1001C167.4 65.9001 167.8 65.5001 168.2 65.2001C168.6 65.2001 168.8 65.1001 169 65.1001ZM188.4 46.6001V49.2001H178.4V57.0001H186.3V60.0001H178.4V67.4001H189V70.0001H175.2V46.6001H188.4ZM105.3 84.8001H104.4C104.3 84.8001 104.2 84.8001 104.1 84.7001L103.9 84.5001L103 82.2001H98.8001L97.9001 84.5001L97.7001 84.7001C97.6001 84.8001 97.5001 84.8001 97.4001 84.8001H96.5001L100.2 75.5001H101.5L105.3 84.8001ZM99.2001 81.3001H102.7L101.2 77.5001C101.1 77.3001 101 77.0001 100.9 76.6001C100.8 76.8001 100.8 77.0001 100.8 77.1001C100.7 77.3001 100.7 77.4001 100.7 77.5001L99.2001 81.3001ZM110.5 83.9001C110.7 83.9001 111 83.9001 111.2 83.8001C111.4 83.7001 111.6 83.7001 111.8 83.7001C112 83.6001 112.2 83.6001 112.3 83.5001C112.5 83.4001 112.7 83.4001 112.8 83.3001V81.2001H111.3C111.2 81.2001 111.1 81.2001 111.1 81.1001C111 81.0001 111 81.0001 111 80.9001V80.2001H113.8V83.8001C113.6 84.0001 113.3 84.1001 113.1 84.2001C112.9 84.3001 112.6 84.4001 112.3 84.5001C112 84.6001 111.7 84.6001 111.4 84.7001C111 84.8001 110.7 84.8001 110.3 84.8001C109.6 84.8001 109 84.7001 108.5 84.4001C108 84.2001 107.4 83.9001 107 83.5001C106.6 83.1001 106.3 82.6001 106.1 82.0001C105.9 81.5001 105.7 80.8001 105.7 80.0001C105.7 79.2001 105.8 78.6001 106.1 78.0001C106.3 77.4001 106.6 76.9001 107 76.5001C107.4 76.1001 107.9 75.7001 108.5 75.6001C109.1 75.4001 109.7 75.2001 110.5 75.2001C110.9 75.2001 111.2 75.2001 111.5 75.3001C111.8 75.4001 112.1 75.4001 112.4 75.5001C112.7 75.6001 112.9 75.7001 113.2 75.9001C113.4 76.0001 113.6 76.2001 113.9 76.4001L113.5 77.0001C113.4 77.1001 113.3 77.2001 113.2 77.2001C113.1 77.2001 113.1 77.2001 113 77.1001C112.9 77.0001 112.8 77.0001 112.6 76.9001C112.5 76.8001 112.3 76.7001 112.1 76.7001C111.9 76.6001 111.7 76.6001 111.4 76.5001C111.2 76.4001 110.8 76.4001 110.5 76.4001C110 76.4001 109.5 76.5001 109.1 76.6001C108.7 76.8001 108.3 77.0001 108 77.3001C107.7 77.6001 107.5 78.0001 107.3 78.5001C107.1 79.0001 107.1 79.4001 107.1 80.0001C107.1 80.6001 107.2 81.1001 107.3 81.6001C107.4 82.1001 107.7 82.4001 108 82.8001C108.3 83.1001 108.7 83.4001 109.1 83.5001C109.4 83.7001 109.9 83.9001 110.5 83.9001ZM121.7 75.5001V76.5001H117.3V79.6001H120.9V80.6001H117.3V83.8001H121.7V84.8001H115.9V75.5001H121.7ZM124.1 75.5001C124.2 75.5001 124.2 75.6001 124.3 75.7001L129.9 82.7001V82.3001V75.4001H131V84.7001H130.3C130.2 84.7001 130.1 84.7001 130.1 84.6001L129.9 84.4001L124.3 77.4001V84.6001H123.1V75.3001H123.8C123.9 75.5001 124 75.5001 124.1 75.5001ZM139.7 82.9001C139.8 82.9001 139.8 82.9001 139.9 83.0001L140.4 83.5001C140 83.9001 139.6 84.3001 139 84.5001C138.5 84.7001 137.8 84.9001 137 84.9001C136.3 84.9001 135.7 84.8001 135.2 84.5001C134.7 84.3001 134.2 84.0001 133.8 83.6001C133.4 83.2001 133.1 82.7001 132.9 82.1001C132.7 81.5001 132.6 80.9001 132.6 80.1001C132.6 79.3001 132.7 78.7001 133 78.1001C133.2 77.5001 133.5 77.0001 133.9 76.6001C134.3 76.2001 134.8 75.8001 135.4 75.7001C136 75.5001 136.6 75.3001 137.3 75.3001C138 75.3001 138.6 75.4001 139.1 75.6001C139.6 75.8001 140 76.1001 140.4 76.5001L140 77.1001L139.9 77.2001C139.8 77.2001 139.8 77.3001 139.7 77.3001C139.6 77.3001 139.6 77.3001 139.5 77.2001L139.3 77.0001C139.2 76.9001 139.1 76.9001 139 76.8001C138.9 76.7001 138.8 76.7001 138.6 76.6001C138.4 76.5001 138.2 76.5001 138.1 76.4001C137.9 76.3001 137.6 76.3001 137.4 76.3001C136.9 76.3001 136.5 76.4001 136 76.5001C135.6 76.7001 135.2 76.9001 134.9 77.2001C134.6 77.5001 134.4 77.9001 134.2 78.4001C134 78.9001 134 79.3001 134 79.9001C134 80.5001 134.1 81.0001 134.2 81.4001C134.4 81.9001 134.6 82.2001 134.9 82.5001C135.2 82.8001 135.6 83.0001 135.9 83.2001C136.3 83.4001 136.7 83.4001 137.1 83.4001C137.4 83.4001 137.6 83.4001 137.9 83.3001C138.1 83.2001 138.3 83.2001 138.5 83.1001C138.7 83.0001 138.9 82.9001 139 82.9001C139.2 82.8001 139.3 82.7001 139.5 82.5001C139.6 82.9001 139.6 82.9001 139.7 82.9001ZM146.2 81.1001V84.8001H145V81.1001L141.6 75.5001H142.7C142.8 75.5001 142.9 75.5001 142.9 75.6001L143.1 75.8001L145.2 79.4001C145.3 79.6001 145.4 79.7001 145.4 79.8001C145.5 79.9001 145.5 80.0001 145.6 80.2001C145.7 80.1001 145.7 79.9001 145.8 79.8001C145.9 79.7001 145.9 79.5001 146 79.4001L148.1 75.8001L148.3 75.6001C148.4 75.5001 148.5 75.5001 148.5 75.5001H149.6L146.2 81.1001ZM37.0001 8.0001L5.6001 11.1001V4.6001L37.0001 8.0001ZM43.5001 23.1001L5.6001 62.9001V41.2001L43.5001 23.1001ZM52.1001 12.2001L5.6001 29.2001V20.9001L52.1001 12.2001ZM62.8001 49.5001L41.0001 84.9001H27.6001L62.8001 49.5001ZM86.2001 84.9001H54.7001L78.1001 37.2001L86.2001 84.9001Z" fill="#F4F5FF"/>
<path d="M89.9 0V49.5L80.9 22L5.6 85.3L0 90V89.2L3.7 84.8L5.6 82.6L67.8 8.8L40.2 0H89.9Z" fill="#F4F5FF"/>
<path d="M5.6 82.6002V85.3002L0 90.0002V89.2002L3.7 84.8002L5.6 82.6002ZM62.8 49.5002L41 84.9002H27.6L62.8 49.5002ZM86.2 84.9002H54.7L78.1 37.2002L86.2 84.9002Z" fill="#F4F5FF"/>
<path d="M62.8001 49.5002L41.0001 84.9002H27.6001L62.8001 49.5002ZM86.2001 84.9002H54.7001L78.1001 37.2002L86.2001 84.9002Z" fill="#F4F5FF"/>
</svg>
