<svg width="181" height="90" viewBox="0 0 181 90" fill="none" xmlns="http://www.w3.org/2000/svg">
<path d="M53.6256 41.2002C52.9256 41.2002 52.3256 41.5002 51.8256 42.2002C51.3256 42.8002 50.9256 43.7002 50.7256 44.8002H55.8256V44.6002C55.8256 43.4002 55.6256 42.5002 55.2256 42.0002C54.7256 41.4002 54.2256 41.2002 53.6256 41.2002Z" fill="#F4F5FF"/>
<path d="M180.125 43.7L129.425 0L125.025 23.4L85.7254 0L5.02537 36.9C-1.27463 39.8 -1.77463 48.6 4.22537 52.1L67.7254 90L115.825 67.6L110.625 90L180.125 43.7ZM43.7254 54.8H38.8254L34.3254 44.2L31.0254 47.7L29.8254 54.8H25.4254L29.4254 31.7H33.7254L32.2254 40.7L40.2254 31.7H46.0254L37.4254 40.9L43.7254 54.8ZM59.3254 47.8V48H50.2254V48.2C50.2254 49.2 50.4254 50.1 50.9254 50.7C51.4254 51.3 51.9254 51.6 52.5254 51.6C53.6254 51.6 54.5254 50.9 55.1254 49.5L55.2254 49.3L59.0254 50L58.9254 50.3C58.3254 51.9 57.4254 53.2 56.3254 54C55.2254 54.8 54.0254 55.2 52.6254 55.2C50.8254 55.2 49.3254 54.5 48.0254 53.1C46.8254 51.7 46.2254 49.8 46.2254 47.4C46.2254 44.8 46.9254 42.5 48.2254 40.6C49.6254 38.6 51.5254 37.6 53.9254 37.6C55.6254 37.6 56.9254 38.2 58.0254 39.5C59.0254 40.8 59.5254 42.6 59.5254 44.9C59.6254 45.9 59.5254 46.9 59.3254 47.8ZM76.2254 45.3L74.6254 54.8H70.4254L72.0254 45.2C72.3254 43.5 72.4254 42.9 72.4254 42.7C72.4254 42.2 72.3254 41.8 72.0254 41.5C71.8254 41.2 71.5254 41.1 71.1254 41.1C70.7254 41.1 70.2254 41.3 69.7254 41.6C69.0254 42.1 68.5254 42.8 68.1254 43.5C67.7254 44.2 67.4254 45.7 67.0254 47.7L65.8254 54.6H61.7254L64.6254 37.7H68.6254L68.3254 39.3C69.0254 38.6 69.7254 38.2 70.3254 37.9C71.1254 37.5 71.9254 37.3 72.7254 37.3C73.9254 37.3 74.8254 37.7 75.5254 38.5C76.2254 39.3 76.5254 40.4 76.5254 41.8C76.5254 42.6 76.4254 43.6 76.2254 45.3ZM92.5254 43.8C92.4254 44.3 92.1254 45.8 91.6254 48.2C91.2254 50.1 90.9254 51.5 90.9254 52.2C90.9254 52.9 91.0254 53.7 91.3254 54.5L91.4254 54.8H87.2254L87.1254 54.6C87.0254 54.2 86.9254 53.8 86.9254 53.3C86.5254 53.8 86.0254 54.2 85.5254 54.5C84.8254 54.9 84.1254 55.1 83.4254 55.1C82.3254 55.1 81.3254 54.6 80.5254 53.7C79.8254 52.8 79.4254 51.6 79.4254 50.1C79.4254 48.4 79.8254 47 80.7254 46.1C81.6254 45.2 83.0254 44.6 85.1254 44.4C86.7254 44.2 87.8254 44 88.4254 43.8C88.6254 43.3 88.6254 42.8 88.6254 42.5C88.6254 42.1 88.5254 41.8 88.2254 41.5C87.9254 41.2 87.5254 41.1 87.0254 41.1C85.8254 41.1 85.2254 41.6 84.9254 42.8L84.8254 43L80.7254 42.6L80.8254 42.3C81.2254 40.7 82.0254 39.5 83.1254 38.7C84.2254 37.9 85.6254 37.5 87.2254 37.5C88.9254 37.5 90.2254 37.9 91.2254 38.8C92.1254 39.6 92.6254 40.8 92.6254 42.2C92.6254 42.7 92.6254 43.2 92.5254 43.8ZM105.525 42.2L105.225 42.1C104.925 42 104.625 41.9 104.225 41.9C103.725 41.9 103.225 42.1 102.725 42.4C102.025 43 101.425 43.7 101.025 44.6C100.625 45.5 100.225 47.1 99.8254 49.4L98.9254 54.7H94.8254L97.7254 37.8H101.625L101.225 39.9C102.325 38.2 103.625 37.4 104.925 37.4C105.525 37.4 106.125 37.6 106.725 37.9L106.925 38L105.525 42.2ZM115.625 54.8L115.825 53.6C115.325 54.1 114.925 54.4 114.425 54.7C113.725 55 113.025 55.2 112.225 55.2C110.825 55.2 109.625 54.6 108.725 53.4C107.825 52.2 107.425 50.4 107.425 48.1C107.425 45.3 108.025 42.9 109.325 40.8C110.625 38.7 112.225 37.6 114.225 37.6C115.825 37.6 117.225 38.3 118.125 39.7L119.525 31.7H123.725L119.525 54.8H115.625Z" fill="#F4F5FF"/>
<path d="M84.0252 48.2998C83.5252 48.6998 83.3252 49.0998 83.3252 49.7998C83.3252 50.2998 83.4252 50.5998 83.7252 50.9998C84.0252 51.2998 84.3252 51.3998 84.7252 51.3998C85.1252 51.3998 85.5252 51.2998 85.9252 50.9998C86.3252 50.6998 86.6252 50.3998 86.9252 49.8998C87.2252 49.3998 87.4252 48.5998 87.6252 47.4998L87.7252 47.2998C87.5252 47.2998 87.4252 47.3998 87.2252 47.3998C85.5252 47.5998 84.5252 47.8998 84.0252 48.2998ZM114.825 41.2998C114.425 41.2998 113.925 41.4998 113.425 41.8998C112.925 42.2998 112.525 43.0998 112.125 44.1998C111.725 45.2998 111.525 46.4998 111.525 47.7998C111.525 48.8998 111.725 49.7998 112.225 50.3998C112.625 50.9998 113.125 51.2998 113.725 51.2998C114.225 51.2998 114.725 51.0998 115.225 50.6998C115.725 50.2998 116.125 49.4998 116.525 48.3998C116.925 47.2998 117.125 46.1998 117.125 44.9998C117.125 43.7998 116.925 42.8998 116.425 42.1998C115.925 41.5998 115.325 41.2998 114.825 41.2998Z" fill="#F4F5FF"/>
</svg>
