<svg width="224" height="73" viewBox="0 0 224 73" fill="none" xmlns="http://www.w3.org/2000/svg">
<path d="M17.6 45.1C17.2 45.1 16.7 45.2 14.9 45.9C13.8 46.3 13 46.5 12.3 46.5C10.7 46.5 9.4 45.9 8.4 44.7C7.5 43.5 7 42.1 7 40.2C7 38.4 7.4 36.8 8.3 35.6C9.3 34.3 10.6 33.6 12.2 33.6C12.9 33.6 13.8 33.8 14.8 34.1C16.4 34.6 17 34.7 17.3 34.7C18.2 34.7 18.9 34.3 19.5 33.7C20 33.1 20.3 32.3 20.3 31.5C20.3 30.5 19.9 29.6 19.2 29C17.6 27.6 15.3 26.9 12.2 26.9C8.6 26.9 5.6 28.2 3.3 30.7C1.2 33.2 0 36.4 0 40.1C0 43.7 1.1 46.8 3.3 49.3C5.6 52 8.7 53.3 12.4 53.3C14.2 53.3 15.9 53 17.4 52.5C20.2 51.4 20.8 49.7 20.8 48.4C20.8 48 20.7 47.7 20.6 47.4C20.1 45.9 19 45.1 17.6 45.1ZM66.2 27.6C66.9 26.9 67.3 25.9 67.3 24.7C67.3 23.6 66.9 22.6 66.2 21.9C65.5 21.1 64.5 20.7 63.4 20.7H47C45.9 20.7 44.9 21.1 44.2 21.9C43.5 22.7 43 23.6 43 24.7C43 25.9 43.4 26.8 44.1 27.6C44.8 28.3 45.8 28.7 47 28.7H50.8V48.8C50.8 50.1 51.2 51.1 52 52C52.8 52.8 53.8 53.2 55.1 53.2C56.4 53.2 57.4 52.8 58.2 52C59 51.2 59.4 50.1 59.4 48.8V28.7H63.2C64.4 28.7 65.4 28.4 66.2 27.6ZM85.6 19.2C84.2 15.2 81.4 14.4 79.3 14.4C77.2 14.4 74.5 15.2 73 19.2L62.8 46.7V46.8C62.4 48.2 62.4 48.5 62.4 48.7C62.4 50 62.9 51.1 63.8 51.9C64.7 52.7 65.8 53.1 67.1 53.1C69.4 53.1 71 51.9 71.7 49.7L73 45.7H85.6L86.9 49.8C87.6 51.9 89.2 53.1 91.5 53.1C92.7 53.1 93.7 52.7 94.6 51.9C95.5 51.1 96 50 96 48.8C96 48.1 95.8 47.4 95.5 46.6L85.6 19.2ZM82.7 36.9H75.8L79.3 26.3L82.7 36.9ZM40.2 26.5C39 23.3 36.8 22.6 35.1 22.6C33.4 22.6 31.2 23.3 30 26.5L22.1 47.8V47.9C21.8 49 21.8 49.3 21.8 49.4C21.8 50.5 22.2 51.4 23 52.1C23.7 52.8 24.7 53.1 25.7 53.1C27.6 53.1 28.9 52.2 29.4 50.4L30.4 47.4H39.9L40.9 50.4C41.4 52.2 42.8 53.1 44.7 53.1C45.7 53.1 46.5 52.8 47.2 52.1C47.9 51.4 48.3 50.5 48.3 49.5C48.3 49 48.2 48.4 47.9 47.7L40.2 26.5ZM37.5 40.2H32.7L35.1 32.7L37.5 40.2ZM123.2 15.2C120.4 12.7 116.8 11.4 112.5 11.4H102.7C99.3 11.4 97.4 13.3 97.4 16.7V47.9C97.4 49.4 97.9 50.7 98.8 51.7C99.7 52.7 101 53.2 102.5 53.2C104 53.2 105.3 52.7 106.2 51.7C107.1 50.7 107.6 49.4 107.6 47.9V39.8H112.8C114.8 39.8 116.7 39.4 118.5 38.8C121.3 37.7 123.6 36.1 125.2 33.7C126.8 31.4 127.6 28.7 127.6 25.6C127.7 21.3 126.2 17.8 123.2 15.2ZM117 25.6C117 27.1 116.6 28.3 115.7 29.2C114.8 30.1 113.7 30.5 112.3 30.5H107.6V20.7H112.3C113.7 20.7 114.9 21.1 115.7 22C116.6 22.9 117 24.1 117 25.6ZM160.1 4.2C156.6 4.2 154.6 6.3 154.6 10.1V34.3C154.6 36.6 153.9 38.6 152.6 40.2C151.2 41.8 149.5 42.6 147.4 42.6C145.2 42.6 143.5 41.9 142.1 40.3C140.8 38.8 140.1 36.8 140.1 34.4V12.8C140.1 9.1 138.1 6.9 134.6 6.9C131.1 6.9 129.1 9 129.1 12.8V34.7C129.1 40 130.9 44.5 134.4 48C137.9 51.5 142.2 53.3 147.4 53.3C152.4 53.3 156.8 51.5 160.3 48C163.8 44.4 165.6 40 165.6 34.8V10.1C165.7 6.3 163.7 4.2 160.1 4.2ZM190.7 41.7H182.1V8.1C182.1 4 179.9 1.8 176 1.8C172 1.8 169.8 4.1 169.8 8.1V46.6C169.8 50.9 172 53.2 176.2 53.2H190.7C192.3 53.2 193.6 52.7 194.8 51.6C196 50.5 196.6 49.2 196.6 47.6V47.4C196.6 45.7 196 44.3 194.9 43.2C193.8 42.3 192.4 41.7 190.7 41.7ZM222.4 1.7C221.3 0.6 219.9 0 218.1 0H191.4C189.8 0 188.3 0.6 187.2 1.8C186.1 3 185.5 4.4 185.5 6C185.5 7.8 186 9.2 187.1 10.3C188.2 11.4 189.6 11.9 191.4 11.9H198.3V46.6C198.3 48.5 198.9 50.1 200 51.4C201.2 52.6 202.7 53.3 204.7 53.3C206.6 53.3 208.2 52.7 209.3 51.4C210.5 50.2 211 48.6 211 46.6V11.9H217.9C219.7 11.9 221.1 11.4 222.2 10.3C223.3 9.2 223.8 7.8 223.8 5.9C224.1 4.2 223.5 2.8 222.4 1.7Z" fill="#F4F5FF"/>
<path d="M99.2001 68.3002V60.8002H97.6001C97.3001 60.8002 97.1001 60.7002 96.9001 60.5002C96.7001 60.3002 96.6001 60.1002 96.6001 59.8002C96.6001 59.5002 96.7001 59.3002 96.9001 59.1002C97.1001 58.9002 97.3001 58.8002 97.6001 58.8002H103.1C103.4 58.8002 103.6 58.9002 103.8 59.1002C104 59.3002 104.1 59.5002 104.1 59.8002C104.1 60.1002 104 60.4002 103.8 60.5002C103.6 60.7002 103.4 60.8002 103.1 60.8002H101.5V68.3002C101.5 68.7002 101.4 68.9002 101.2 69.1002C101 69.3002 100.7 69.4002 100.4 69.4002C100 69.4002 99.8001 69.3002 99.6001 69.1002C99.3001 68.9002 99.2001 68.7002 99.2001 68.3002ZM104.1 68.3002V62.5002C104.1 62.2002 104.2 61.9002 104.4 61.7002C104.6 61.5002 104.9 61.4002 105.2 61.4002C105.9 61.4002 106.3 61.7002 106.3 62.3002C106.7 61.7002 107.2 61.4002 107.8 61.4002C108.1 61.4002 108.4 61.5002 108.6 61.8002C108.8 62.0002 108.9 62.3002 108.9 62.6002C108.9 62.9002 108.7 63.1002 108.5 63.3002C108.3 63.4002 108 63.5002 107.7 63.7002C107.3 63.9002 107 64.1002 106.8 64.2002C106.5 64.4002 106.4 64.7002 106.4 65.1002V68.3002C106.4 68.7002 106.3 68.9002 106.1 69.2002C105.9 69.4002 105.6 69.6002 105.3 69.6002C105 69.6002 104.7 69.5002 104.5 69.2002C104.2 68.9002 104.1 68.6002 104.1 68.3002ZM116 62.8002V68.1002C116 68.7002 115.8 69.2002 115.6 69.3002C115.4 69.4002 115.2 69.5002 115 69.5002C114.5 69.5002 114.1 69.2002 114 68.6002C113.5 69.3002 112.8 69.6002 112 69.6002C111.2 69.6002 110.6 69.4002 110 68.9002C109.5 68.5002 109 67.9002 108.8 67.1002C108.6 66.6002 108.5 66.0002 108.5 65.4002C108.5 64.3002 108.8 63.4002 109.4 62.6002C110.1 61.7002 110.9 61.3002 112 61.3002C112.9 61.3002 113.6 61.6002 114 62.3002C114 62.0002 114.2 61.8002 114.4 61.7002C114.6 61.5002 114.8 61.5002 115.1 61.5002C115.6 61.5002 115.8 61.7002 116 62.0002C115.9 62.1002 116 62.4002 116 62.8002ZM110.5 65.5002C110.5 66.1002 110.7 66.6002 110.9 67.0002C111.2 67.5002 111.6 67.7002 112.2 67.7002C112.7 67.7002 113.1 67.5002 113.4 67.0002C113.7 66.6002 113.8 66.1002 113.8 65.6002C113.8 64.7002 113.5 64.0002 112.9 63.6002C112.7 63.5002 112.5 63.4002 112.2 63.4002C111.7 63.4002 111.2 63.6002 110.9 64.1002C110.6 64.4002 110.5 64.9002 110.5 65.5002ZM116.8 68.3002V62.6002C116.8 62.3002 116.9 62.0002 117.1 61.7002C117.3 61.5002 117.6 61.3002 117.9 61.3002C118.5 61.3002 118.8 61.6002 118.9 62.1002C119.3 61.5002 120 61.2002 121 61.2002C121.9 61.2002 122.6 61.5002 123.1 62.0002C123.6 62.5002 123.9 63.2002 123.9 64.1002V68.3002C123.9 68.7002 123.8 68.9002 123.6 69.2002C123.4 69.4002 123.1 69.6002 122.8 69.6002C122.5 69.6002 122.2 69.5002 122 69.2002C121.8 69.0002 121.7 68.7002 121.7 68.3002V64.6002C121.7 64.2002 121.6 63.8002 121.3 63.5002C121.1 63.2002 120.7 63.1002 120.3 63.1002C119.9 63.1002 119.5 63.2002 119.3 63.5002C119.1 63.8002 118.9 64.1002 118.9 64.6002V68.3002C118.9 68.7002 118.8 68.9002 118.6 69.2002C118.4 69.4002 118.1 69.6002 117.8 69.6002C117.5 69.6002 117.2 69.5002 117 69.2002C116.9 68.9002 116.8 68.6002 116.8 68.3002ZM130 62.9002C130 63.2002 129.9 63.4002 129.8 63.6002C129.6 63.8002 129.4 63.9002 129.2 63.9002C129.1 63.9002 128.8 63.8002 128.3 63.6002C127.8 63.4002 127.5 63.3002 127.2 63.3002C126.7 63.3002 126.5 63.5002 126.5 63.9002C126.5 64.2002 126.8 64.4002 127.5 64.6002L128.4 65.0002C129.6 65.5002 130.3 66.2002 130.3 67.2002C130.3 68.0002 130 68.6002 129.4 69.1002C128.9 69.5002 128.2 69.7002 127.3 69.7002C126.6 69.7002 126 69.5002 125.3 69.2002C124.6 68.8002 124.2 68.5002 124.2 68.0002C124.2 67.8002 124.3 67.5002 124.5 67.3002C124.7 67.1002 124.9 67.0002 125.2 67.0002C125.4 67.0002 125.7 67.1002 126 67.2002C126.3 67.4002 126.5 67.5002 126.7 67.6002C126.9 67.7002 127.1 67.7002 127.4 67.7002C127.9 67.7002 128.3 67.5002 128.3 67.1002C128.3 66.9002 128 66.6002 127.3 66.4002L126.4 66.0002C125.2 65.5002 124.5 64.8002 124.5 63.8002C124.5 63.0002 124.8 62.4002 125.4 61.9002C125.9 61.5002 126.6 61.3002 127.4 61.3002C128 61.3002 128.6 61.4002 129.1 61.7002C129.8 62.0002 130 62.4002 130 62.9002ZM130.6 71.4002V62.5002C130.6 62.2002 130.7 61.9002 130.9 61.6002C131.1 61.4002 131.4 61.2002 131.7 61.2002C132.3 61.2002 132.6 61.5002 132.8 62.1002C133.2 61.4002 133.9 61.1002 134.8 61.1002C135.9 61.1002 136.8 61.6002 137.4 62.5002C137.9 63.3002 138.3 64.3002 138.3 65.4002C138.3 66.5002 138 67.4002 137.4 68.2002C136.7 69.0002 135.9 69.4002 134.8 69.4002C134.1 69.4002 133.4 69.2002 132.8 68.7002V71.3002C132.8 71.7002 132.7 71.9002 132.5 72.1002C132.3 72.3002 132 72.5002 131.7 72.5002C131.4 72.5002 131.1 72.4002 130.9 72.1002C130.7 72.1002 130.6 71.8002 130.6 71.4002ZM132.8 65.4002C132.8 66.0002 132.9 66.5002 133.2 66.9002C133.5 67.4002 133.9 67.6002 134.5 67.6002C135 67.6002 135.4 67.4002 135.7 66.9002C136 66.5002 136.1 66.0002 136.1 65.5002C136.1 65.0002 135.9 64.5002 135.7 64.1002C135.4 63.6002 135 63.4002 134.5 63.4002C134 63.4002 133.5 63.6002 133.2 64.1002C132.9 64.4002 132.8 64.8002 132.8 65.4002ZM142.3 61.3002C143.4 61.3002 144.3 61.7002 145.1 62.5002C145.8 63.3002 146.2 64.3002 146.2 65.4002C146.2 66.5002 145.8 67.5002 145.1 68.3002C144.4 69.1002 143.5 69.5002 142.3 69.5002C141.2 69.5002 140.2 69.1002 139.5 68.3002C138.8 67.5002 138.4 66.5002 138.4 65.4002C138.4 64.3002 138.8 63.3002 139.5 62.5002C140.3 61.8002 141.2 61.3002 142.3 61.3002ZM142.3 63.3002C141.8 63.3002 141.3 63.5002 141 64.0002C140.7 64.4002 140.6 64.9002 140.6 65.4002C140.6 66.0002 140.8 66.5002 141 66.9002C141.3 67.4002 141.7 67.6002 142.3 67.6002C142.8 67.6002 143.3 67.4002 143.6 66.9002C143.9 66.5002 144 66.0002 144 65.5002C144 64.6002 143.7 63.9002 143.1 63.5002C142.9 63.4002 142.6 63.3002 142.3 63.3002ZM146.6 68.3002V62.5002C146.6 62.2002 146.7 61.9002 146.9 61.7002C147.1 61.5002 147.4 61.4002 147.7 61.4002C148.4 61.4002 148.8 61.7002 148.8 62.3002C149.2 61.7002 149.7 61.4002 150.3 61.4002C150.6 61.4002 150.9 61.5002 151.1 61.8002C151.3 62.0002 151.4 62.3002 151.4 62.6002C151.4 62.9002 151.2 63.1002 151 63.3002C150.8 63.4002 150.5 63.5002 150.2 63.7002C149.8 63.9002 149.5 64.1002 149.3 64.2002C149 64.4002 148.9 64.7002 148.9 65.1002V68.3002C148.9 68.7002 148.8 68.9002 148.6 69.2002C148.4 69.4002 148.1 69.6002 147.8 69.6002C147.5 69.6002 147.2 69.5002 147 69.2002C146.7 68.9002 146.6 68.6002 146.6 68.3002ZM153.2 68.3002V63.4002H152.7C152.1 63.4002 151.8 63.1002 151.8 62.5002C151.8 62.2002 151.9 62.0002 152.1 61.8002C152.3 61.6002 152.5 61.5002 152.8 61.5002H153.3V60.2002C153.3 59.8002 153.4 59.6002 153.6 59.4002C153.8 59.2002 154.1 59.0002 154.4 59.0002C154.8 59.0002 155 59.1002 155.2 59.4002C155.4 59.6002 155.5 59.9002 155.5 60.3002V61.6002H156.1C156.8 61.6002 157.1 61.9002 157.1 62.5002C157.1 63.1002 156.7 63.4002 156.1 63.4002H155.5V68.3002C155.5 68.7002 155.4 68.9002 155.2 69.2002C155 69.4002 154.7 69.6002 154.4 69.6002C154 69.6002 153.8 69.5002 153.6 69.2002C153.3 68.9002 153.2 68.6002 153.2 68.3002ZM164.8 58.7002C165.9 58.7002 166.8 58.9002 167.4 59.4002C167.6 59.6002 167.8 59.8002 167.8 60.1002C167.8 60.4002 167.7 60.7002 167.5 60.9002C167.3 61.1002 167.1 61.2002 166.8 61.2002C166.6 61.2002 166.4 61.2002 166.1 61.0002L165.4 60.8002H164.8C164.5 60.8002 164.2 60.9002 164 61.0002C163.7 61.2002 163.6 61.4002 163.6 61.7002C163.6 62.1002 164 62.4002 164.9 62.7002C165.4 62.9002 165.8 63.0002 166.1 63.1002C166.6 63.3002 167 63.5002 167.3 63.6002C168.2 64.1002 168.6 65.0002 168.6 66.1002C168.6 67.2002 168.2 68.0002 167.5 68.6002C166.8 69.2002 165.9 69.5002 164.8 69.5002C163.3 69.5002 162.3 69.2002 161.6 68.7002C161.3 68.5002 161.2 68.2002 161.2 67.8002C161.2 67.5002 161.3 67.3002 161.5 67.1002C161.7 66.9002 161.9 66.8002 162.2 66.8002C162.4 66.8002 162.8 66.9002 163.3 67.1002C163.8 67.3002 164.3 67.4002 164.7 67.4002C165.1 67.4002 165.5 67.3002 165.8 67.1002C166.1 66.9002 166.3 66.6002 166.3 66.1002C166.3 65.6002 165.9 65.2002 165 65.0002C164.7 64.9002 164.3 64.8002 163.8 64.6002C163.4 64.5002 163 64.3002 162.6 64.1002C161.7 63.6002 161.3 62.9002 161.3 61.9002C161.3 60.9002 161.7 60.1002 162.4 59.4002C162.9 59.0002 163.8 58.7002 164.8 58.7002ZM170.8 68.8002L168.5 62.9002C168.4 62.7002 168.4 62.5002 168.4 62.4002C168.4 62.2002 168.5 61.9002 168.7 61.7002C168.9 61.5002 169.1 61.4002 169.4 61.4002C169.9 61.4002 170.3 61.6002 170.5 62.1002L171.9 66.1002L173.5 62.1002C173.7 61.6002 174 61.4002 174.6 61.4002C174.9 61.4002 175.1 61.5002 175.3 61.7002C175.5 61.9002 175.6 62.1002 175.6 62.4002C175.6 62.6002 175.6 62.8002 175.5 62.9002L171.9 71.8002C171.7 72.3002 171.4 72.7002 170.9 72.7002C170.6 72.7002 170.4 72.6002 170.2 72.5002C170 72.3002 169.8 72.1002 169.8 71.8002C169.8 71.6002 169.8 71.4002 170 71.2002L170.8 68.8002ZM181.1 62.9002C181.1 63.2002 181 63.4002 180.9 63.6002C180.7 63.8002 180.5 63.9002 180.3 63.9002C180.2 63.9002 179.9 63.8002 179.4 63.6002C178.9 63.4002 178.6 63.3002 178.3 63.3002C177.8 63.3002 177.6 63.5002 177.6 63.9002C177.6 64.2002 177.9 64.4002 178.6 64.6002L179.5 65.0002C180.7 65.5002 181.4 66.2002 181.4 67.2002C181.4 68.0002 181.1 68.6002 180.5 69.1002C180 69.5002 179.3 69.7002 178.4 69.7002C177.7 69.7002 177.1 69.5002 176.4 69.2002C175.7 68.8002 175.3 68.5002 175.3 68.0002C175.3 67.8002 175.4 67.5002 175.6 67.3002C175.8 67.1002 176 67.0002 176.3 67.0002C176.5 67.0002 176.8 67.1002 177.1 67.2002C177.4 67.4002 177.6 67.5002 177.8 67.6002C178 67.7002 178.2 67.7002 178.5 67.7002C179 67.7002 179.4 67.5002 179.4 67.1002C179.4 66.9002 179.1 66.6002 178.4 66.4002L177.5 66.0002C176.3 65.5002 175.6 64.8002 175.6 63.8002C175.6 63.0002 175.9 62.4002 176.5 61.9002C177 61.5002 177.7 61.3002 178.5 61.3002C179.1 61.3002 179.7 61.4002 180.2 61.7002C180.8 62.0002 181.1 62.4002 181.1 62.9002Z" fill="#F4F5FF"/>
<path d="M182.2 68.3V63.4H181.7C181.1 63.4 180.8 63.1 180.8 62.5C180.8 62.2 180.9 62 181.1 61.8C181.3 61.6 181.5 61.5 181.8 61.5H182.3V60.2C182.3 59.8 182.4 59.6 182.6 59.4C182.8 59.2 183.1 59 183.4 59C183.8 59 184 59.1 184.2 59.4C184.4 59.6 184.5 59.9 184.5 60.3V61.6H185.1C185.8 61.6 186.1 61.9 186.1 62.5C186.1 63.1 185.7 63.4 185.1 63.4H184.5V68.3C184.5 68.7 184.4 68.9 184.2 69.2C184 69.4 183.7 69.6 183.4 69.6C183 69.6 182.8 69.5 182.6 69.2C182.3 68.9 182.2 68.6 182.2 68.3Z" fill="#F4F5FF"/>
<path d="M192 66.2002H187.4C187.5 66.7002 187.7 67.1002 188.1 67.3002C188.5 67.6002 188.9 67.7002 189.4 67.7002C189.7 67.7002 190.1 67.6002 190.4 67.5002C190.5 67.4002 190.8 67.3002 191.3 67.0002C191.5 66.9002 191.6 66.9002 191.8 66.9002C192 66.9002 192.2 67.0002 192.4 67.2002C192.6 67.4002 192.7 67.6002 192.7 67.8002C192.7 68.3002 192.2 68.8002 191.3 69.2002C190.6 69.5002 189.9 69.6002 189.2 69.6002C188 69.6002 187.1 69.2002 186.3 68.4002C185.6 67.6002 185.2 66.6002 185.2 65.4002C185.2 64.3002 185.6 63.3002 186.3 62.5002C187 61.7002 187.9 61.3002 189.1 61.3002C189.9 61.3002 190.6 61.5002 191.3 62.0002C191.9 62.5002 192.4 63.1002 192.7 63.8002C192.9 64.3002 193 64.7002 193 65.2002C193 65.9002 192.6 66.2002 192 66.2002ZM187.4 64.7002H190.8C190.8 64.2002 190.6 63.8002 190.3 63.5002C190 63.2002 189.6 63.1002 189.1 63.1002C188.6 63.1002 188.2 63.3002 187.9 63.6002C187.6 63.9002 187.5 64.3002 187.4 64.7002ZM193.3 68.3002V62.6002C193.3 62.3002 193.4 62.0002 193.6 61.7002C193.8 61.5002 194.1 61.3002 194.4 61.3002C195 61.3002 195.3 61.6002 195.4 62.1002C195.9 61.5002 196.6 61.2002 197.4 61.2002C198.3 61.2002 199 61.6002 199.6 62.3002C200.2 61.6002 201 61.2002 201.9 61.2002C202.8 61.2002 203.5 61.4002 204 61.9002C204.5 62.4002 204.8 63.1002 204.8 64.0002V68.3002C204.8 68.7002 204.7 68.9002 204.5 69.2002C204.3 69.5002 204 69.6002 203.7 69.6002C203.4 69.6002 203.1 69.5002 202.9 69.2002C202.7 69.0002 202.6 68.7002 202.6 68.3002V64.6002C202.6 64.2002 202.5 63.9002 202.3 63.6002C202.1 63.3002 201.8 63.2002 201.4 63.2002C201 63.2002 200.7 63.4002 200.5 63.6002C200.3 63.9002 200.2 64.2002 200.2 64.6002V68.3002C200.2 68.7002 200.1 68.9002 199.9 69.2002C199.7 69.4002 199.4 69.6002 199.1 69.6002C198.7 69.6002 198.5 69.5002 198.3 69.2002C198.1 68.9002 198 68.7002 198 68.3002V64.6002C198 64.2002 197.9 63.9002 197.7 63.6002C197.5 63.3002 197.2 63.2002 196.8 63.2002C195.9 63.2002 195.6 63.7002 195.6 64.6002V68.3002C195.6 68.7002 195.5 68.9002 195.3 69.2002C195.1 69.5002 194.8 69.6002 194.5 69.6002C194.2 69.6002 193.9 69.5002 193.7 69.2002C193.4 68.9002 193.3 68.6002 193.3 68.3002ZM210.9 62.9002C210.9 63.2002 210.8 63.4002 210.7 63.6002C210.5 63.8002 210.3 63.9002 210.1 63.9002C210 63.9002 209.7 63.8002 209.2 63.6002C208.7 63.4002 208.4 63.3002 208.1 63.3002C207.6 63.3002 207.4 63.5002 207.4 63.9002C207.4 64.2002 207.7 64.4002 208.4 64.6002L209.3 65.0002C210.5 65.5002 211.2 66.2002 211.2 67.2002C211.2 68.0002 210.9 68.6002 210.3 69.1002C209.8 69.5002 209.1 69.7002 208.2 69.7002C207.5 69.7002 206.9 69.5002 206.2 69.2002C205.5 68.8002 205.1 68.5002 205.1 68.0002C205.1 67.8002 205.2 67.5002 205.4 67.3002C205.6 67.1002 205.8 67.0002 206.1 67.0002C206.3 67.0002 206.6 67.1002 206.9 67.2002C207.2 67.4002 207.4 67.5002 207.6 67.6002C207.8 67.7002 208 67.7002 208.3 67.7002C208.8 67.7002 209.2 67.5002 209.2 67.1002C209.2 66.9002 208.9 66.6002 208.2 66.4002L207.3 66.0002C206.1 65.5002 205.4 64.8002 205.4 63.8002C205.4 63.0002 205.7 62.4002 206.3 61.9002C206.8 61.5002 207.5 61.3002 208.3 61.3002C208.9 61.3002 209.5 61.4002 210 61.7002C210.6 62.0002 210.9 62.4002 210.9 62.9002Z" fill="#F4F5FF"/>
</svg>
