<svg width="224" height="86" viewBox="0 0 224 86" fill="none" xmlns="http://www.w3.org/2000/svg">
<path d="M13 70H9.4C8.6 68.8 7.9 67.7 7.2 66.8C6.6 65.9 5.9 65 5.1 64H3.8V68.2C3.8 68.4 3.8 68.6 3.9 68.8C4 68.9 4.1 69 4.3 69.1C4.4 69.1 4.6 69.2 4.9 69.2C5.2 69.2 5.4 69.3 5.6 69.3V70H0V69.3C0.2 69.3 0.4 69.3 0.7 69.2C1 69.2 1.2 69.1 1.3 69.1C1.5 69 1.6 68.9 1.7 68.7C1.8 68.5 1.8 68.3 1.8 68.1V58.5C1.8 58.3 1.8 58.1 1.7 57.9C1.6 57.7 1.5 57.6 1.3 57.5C1.1 57.4 0.9 57.4 0.7 57.3C0.4 57.3 0.2 57.2 0.1 57.2V56.5H6.3C6.9 56.5 7.4 56.6 7.9 56.7C8.4 56.8 8.8 57 9.2 57.3C9.6 57.6 9.9 57.9 10.1 58.3C10.3 58.7 10.4 59.2 10.4 59.8C10.4 60.3 10.3 60.8 10.2 61.2C10 61.6 9.8 61.9 9.5 62.2C9.2 62.5 8.9 62.7 8.5 62.9C8.1 63.1 7.7 63.3 7.2 63.4C7.9 64.3 8.4 65 8.8 65.6C9.2 66.2 9.8 66.9 10.4 67.8C10.7 68.2 10.9 68.5 11.1 68.6C11.3 68.8 11.5 68.9 11.8 69C12 69.1 12.2 69.1 12.4 69.2C12.6 69.2 12.8 69.3 13 69.3V70ZM8 60C8 59.2 7.8 58.6 7.3 58.1C6.8 57.6 6.2 57.4 5.3 57.4H3.8V63.1H5C5.9 63.1 6.6 62.8 7.2 62.3C7.8 61.7 8 61 8 60Z" fill="#F4F5FF"/>
<path d="M22.8999 70.0001H16.8999V69.3001C17.0999 69.3001 17.2999 69.3001 17.5999 69.2001C17.8999 69.2001 18.0999 69.1001 18.2999 69.1001C18.4999 69.0001 18.6999 68.9001 18.7999 68.8001C18.8999 68.7001 18.8999 68.5001 18.8999 68.2001V58.5001C18.8999 58.3001 18.8999 58.1001 18.7999 58.0001C18.6999 57.9001 18.5999 57.7001 18.2999 57.6001C18.0999 57.5001 17.8999 57.5001 17.5999 57.4001C17.2999 57.3001 17.0999 57.3001 16.8999 57.3001V56.6001H22.8999V57.3001C22.6999 57.3001 22.4999 57.3001 22.1999 57.4001C21.8999 57.4001 21.6999 57.5001 21.4999 57.6001C21.2999 57.7001 21.0999 57.8001 20.9999 58.0001C20.8999 58.2001 20.8999 58.4001 20.8999 58.6001V68.2001C20.8999 68.4001 20.8999 68.6001 20.9999 68.7001C21.0999 68.9001 21.1999 69.0001 21.4999 69.1001C21.5999 69.2001 21.7999 69.2001 22.0999 69.3001C22.3999 69.4001 22.5999 69.4001 22.8999 69.4001V70.0001Z" fill="#F4F5FF"/>
<path d="M34.1001 70.3003C33.3001 70.3003 32.5001 70.1003 31.8001 69.8003C31.1001 69.5003 30.4001 69.0003 29.9001 68.4003C29.3001 67.8003 28.9001 67.1003 28.6001 66.2003C28.3001 65.4003 28.1001 64.4003 28.1001 63.3003C28.1001 62.2003 28.3001 61.3003 28.6001 60.4003C28.9001 59.5003 29.4001 58.8003 30.0001 58.2003C30.6001 57.6003 31.2001 57.1003 32.0001 56.8003C32.8001 56.5003 33.6001 56.3003 34.5001 56.3003C35.2001 56.3003 35.8001 56.4003 36.3001 56.5003C36.8001 56.7003 37.3001 56.9003 37.8001 57.2003L38.2001 56.6003H39.0001L39.1001 61.4003H38.3001C38.2001 60.9003 38.0001 60.4003 37.8001 59.9003C37.6001 59.4003 37.4001 58.9003 37.1001 58.5003C36.8001 58.1003 36.4001 57.7003 36.0001 57.5003C35.6001 57.3003 35.1001 57.1003 34.6001 57.1003C34.0001 57.1003 33.4001 57.2003 32.9001 57.5003C32.4001 57.8003 31.9001 58.2003 31.5001 58.7003C31.1001 59.2003 30.9001 59.9003 30.6001 60.6003C30.4001 61.4003 30.3001 62.3003 30.3001 63.2003C30.3001 64.1003 30.4001 64.8003 30.6001 65.5003C30.8001 66.2003 31.1001 66.8003 31.5001 67.4003C31.9001 67.9003 32.4001 68.3003 32.9001 68.7003C33.4001 69.0003 34.1001 69.2003 34.7001 69.2003C35.2001 69.2003 35.7001 69.1003 36.1001 69.0003C36.5001 68.8003 36.9001 68.6003 37.2001 68.4003C37.5001 68.1003 37.8001 67.8003 38.0001 67.5003C38.2001 67.1003 38.4001 66.8003 38.6001 66.4003L39.3001 66.7003C38.8001 68.0003 38.0001 69.0003 37.2001 69.5003C36.4001 70.0003 35.3001 70.3003 34.1001 70.3003Z" fill="#F4F5FF"/>
<path d="M58 70.0002H52.5V69.3002C52.7 69.3002 52.9 69.3002 53.2 69.2002C53.5 69.2002 53.6999 69.1002 53.7999 69.1002C53.9999 69.0002 54.1 68.9002 54.2 68.8002C54.3 68.6002 54.2999 68.4002 54.2999 68.2002V63.5002H48V68.1002C48 68.3002 47.9999 68.5002 48.0999 68.7002C48.1999 68.9002 48.3 69.0002 48.5 69.1002C48.6 69.2002 48.7999 69.2002 49.0999 69.3002C49.3999 69.4002 49.6 69.4002 49.7 69.4002V70.0002H44.2V69.3002C44.4 69.3002 44.6 69.3002 44.9 69.2002C45.2 69.2002 45.4 69.1002 45.5 69.1002C45.7 69.0002 45.8 68.9002 45.9 68.8002C46 68.6002 46 68.4002 46 68.2002V58.6002C46 58.4002 46 58.2002 45.9 58.1002C45.8 57.9002 45.7 57.8002 45.5 57.7002C45.3 57.6002 45.1 57.5002 44.9 57.5002C44.7 57.4002 44.4999 57.4002 44.2999 57.4002V56.7002H49.7999V57.4002C49.5999 57.4002 49.4 57.4002 49.2 57.5002C48.9 57.6002 48.7999 57.6002 48.5999 57.6002C48.3999 57.7002 48.2 57.8002 48.2 58.0002C48 58.1002 48 58.3002 48 58.5002V62.6002H54.2999V58.6002C54.2999 58.4002 54.3 58.2002 54.2 58.1002C54.1 57.9002 53.9999 57.8002 53.7999 57.7002C53.5999 57.6002 53.4 57.5002 53.2 57.5002C53 57.4002 52.7999 57.4002 52.5999 57.4002V56.7002H58V57.4002C57.8 57.4002 57.6 57.4002 57.4 57.5002C57.1 57.6002 56.9999 57.6002 56.7999 57.6002C56.5999 57.7002 56.4 57.8002 56.4 58.0002C56.3 58.2002 56.2999 58.4002 56.2999 58.6002V68.2002C56.2999 68.4002 56.3 68.6002 56.4 68.8002C56.5 69.0002 56.5999 69.1002 56.7999 69.2002C56.9 69.3002 57.1 69.3002 57.4 69.4002C57.7 69.5002 57.9 69.5002 58 69.5002V70.0002Z" fill="#F4F5FF"/>
<path d="M75.9 70H70.4V69.3C70.9 69.3 71.2999 69.2 71.5999 69.1C71.8999 69 72.0999 68.9 72.0999 68.8C72.0999 68.7 72.0999 68.7 72.0999 68.6C72.0999 68.5 72.1 68.4 72 68.4L70.9 65.4H66.1999C65.9999 65.8 65.9 66.2 65.8 66.5C65.7 66.8 65.6 67.1 65.5 67.4C65.4 67.7 65.4 67.9 65.3 68.1C65.3 68.3 65.3 68.4 65.3 68.5C65.3 68.8 65.5 68.9 65.9 69.1C66.3 69.2 66.6999 69.3 67.1999 69.3V70H62.2V69.3C62.4 69.3 62.5999 69.3 62.7999 69.2C62.9999 69.1 63.2 69.1 63.4 69C63.7 68.8 63.8 68.7 64 68.5C64.1 68.3 64.3 68.1 64.4 67.7C65.1 66 65.7999 64.1 66.5999 62.1C67.3999 60.1 68.1 58.2 68.8 56.5H69.5999L73.9 68C74 68.2 74.0999 68.4 74.1999 68.6C74.2999 68.8 74.4999 68.9 74.6999 69C74.7999 69.1 75 69.2 75.3 69.2C75.5 69.3 75.7 69.3 75.9 69.3V70ZM70.5 64.5L68.5 59.3L66.5 64.5H70.5Z" fill="#F4F5FF"/>
<path d="M93 70H89.4C88.6 68.8 87.9 67.7 87.2 66.8C86.6 65.9 85.9 65 85.1 64H83.7V68.2C83.7 68.4 83.7 68.6 83.8 68.8C83.9 69 84 69.1 84.2 69.2C84.3 69.2 84.5 69.3 84.8 69.3C85.1 69.3 85.3 69.4 85.5 69.4V70H80V69.3C80.2 69.3 80.4 69.3 80.7 69.2C81 69.2 81.2 69.1 81.3 69.1C81.5 69 81.6 68.9 81.7 68.7C81.8 68.5 81.8 68.3 81.8 68.1V58.5C81.8 58.3 81.8 58.1 81.7 57.9C81.6 57.7 81.5 57.6 81.3 57.5C81.1 57.4 80.9 57.4 80.7 57.3C80.4 57.3 80.2 57.2 80.1 57.2V56.5H86.3C86.9 56.5 87.4 56.6 87.9 56.7C88.4 56.8 88.8 57 89.2 57.3C89.6 57.6 89.9 57.9 90.1 58.3C90.3 58.7 90.4 59.2 90.4 59.8C90.4 60.3 90.3 60.8 90.2 61.2C90 61.6 89.8 61.9 89.5 62.2C89.2 62.5 88.9 62.7 88.5 62.9C88.1 63.1 87.7 63.3 87.2 63.4C87.9 64.3 88.4 65 88.8 65.6C89.2 66.2 89.8 66.9 90.4 67.8C90.7 68.2 90.9 68.5 91.1 68.6C91.3 68.8 91.5 68.9 91.8 69C92 69.1 92.2 69.1 92.4 69.2C92.6 69.2 92.8 69.3 93 69.3V70ZM88 60C88 59.2 87.8 58.6 87.3 58.1C86.8 57.6 86.2 57.4 85.3 57.4H83.7V63.1H85C85.9 63.1 86.6 62.8 87.2 62.3C87.8 61.7 88 61 88 60Z" fill="#F4F5FF"/>
<path d="M109.9 63.4004C109.9 64.5004 109.7 65.5004 109.3 66.3004C108.9 67.1004 108.3 67.8004 107.6 68.3004C106.9 68.8004 106.1 69.2004 105.3 69.5004C104.4 69.8004 103.6 69.9004 102.6 69.9004H97.1001V69.2004C97.3001 69.2004 97.5001 69.2004 97.8001 69.1004C98.1001 69.1004 98.3001 69.0004 98.4001 69.0004C98.6001 68.9004 98.7001 68.8004 98.8001 68.6004C98.9001 68.4004 98.9001 68.2004 98.9001 68.0004V58.4004C98.9001 58.2004 98.9001 58.0004 98.8001 57.8004C98.7001 57.6004 98.6001 57.5004 98.4001 57.4004C98.2001 57.3004 98.0001 57.2004 97.8001 57.2004C97.6001 57.2004 97.4001 57.1004 97.2001 57.1004V56.4004H103C103.8 56.4004 104.6 56.5004 105.4 56.8004C106.2 57.0004 106.9 57.4004 107.4 57.8004C108.2 58.4004 108.8 59.1004 109.2 60.0004C109.7 61.1004 109.9 62.2004 109.9 63.4004ZM107.6 63.4004C107.6 62.5004 107.5 61.7004 107.2 61.0004C107 60.3004 106.6 59.6004 106.2 59.1004C105.8 58.6004 105.2 58.2004 104.6 57.9004C104 57.6004 103.3 57.5004 102.5 57.5004C102.2 57.5004 102 57.5004 101.6 57.5004C101.3 57.5004 101 57.5004 100.9 57.5004V67.7004C100.9 68.3004 101.1 68.7004 101.4 68.9004C101.7 69.1004 102.2 69.2004 102.9 69.2004C103.7 69.2004 104.4 69.1004 105 68.8004C105.6 68.5004 106.1 68.1004 106.4 67.6004C106.8 67.1004 107.1 66.5004 107.2 65.8004C107.5 65.1004 107.6 64.3004 107.6 63.4004Z" fill="#F4F5FF"/>
<path d="M131.7 63.9002C132 64.2002 132.2 64.6002 132.3 64.9002C132.4 65.3002 132.5 65.7002 132.5 66.2002C132.5 67.4002 132.1 68.3002 131.2 69.1002C130.3 69.9002 129.2 70.2002 128 70.2002C127.4 70.2002 126.8 70.1002 126.2 69.9002C125.6 69.7002 125.1 69.5002 124.7 69.2002L124.3 69.9002H123.5L123.4 65.3002H124.2C124.4 65.9002 124.5 66.4002 124.7 66.8002C124.9 67.3002 125.2 67.7002 125.5 68.1002C125.8 68.5002 126.2 68.8002 126.6 69.0002C127 69.2002 127.5 69.3002 128.1 69.3002C128.5 69.3002 128.9 69.2002 129.2 69.1002C129.5 69.0002 129.8 68.8002 130 68.6002C130.2 68.4002 130.3 68.2002 130.4 67.9002C130.5 67.6002 130.5 67.3002 130.5 66.9002C130.5 66.4002 130.3 65.9002 130 65.4002C129.7 64.9002 129.3 64.6002 128.7 64.4002C128.3 64.2002 127.8 64.1002 127.3 63.9002C126.8 63.7002 126.3 63.5002 125.9 63.3002C125.1 63.0002 124.6 62.5002 124.1 62.0002C123.7 61.5002 123.5 60.7002 123.5 59.9002C123.5 59.4002 123.6 58.9002 123.8 58.5002C124 58.1002 124.3 57.7002 124.7 57.3002C125.1 57.0002 125.5 56.7002 126 56.5002C126.5 56.3002 127 56.2002 127.5 56.2002C128.1 56.2002 128.7 56.3002 129.1 56.5002C129.5 56.7002 130 56.9002 130.4 57.2002L130.8 56.6002H131.6L131.7 61.0002H130.9C130.8 60.5002 130.6 60.0002 130.4 59.5002C130.2 59.0002 130 58.6002 129.7 58.2002C129.4 57.8002 129.1 57.5002 128.7 57.3002C128.3 57.1002 127.8 57.0002 127.3 57.0002C126.7 57.0002 126.2 57.2002 125.8 57.6002C125.4 58.0002 125.2 58.4002 125.2 59.0002C125.2 59.6002 125.3 60.1002 125.6 60.4002C125.9 60.8002 126.3 61.1002 126.8 61.3002C127.3 61.5002 127.7 61.7002 128.1 61.9002C128.5 62.1002 129 62.2002 129.4 62.4002C129.8 62.6002 130.1 62.7002 130.5 63.0002C131.1 63.3002 131.4 63.6002 131.7 63.9002Z" fill="#F4F5FF"/>
<path d="M148.5 66.0001L148.2 70.0001H137.8V69.3001C138 69.3001 138.2 69.3001 138.5 69.2001C138.8 69.2001 139 69.1001 139.1 69.1001C139.3 69.0001 139.4 68.9001 139.5 68.7001C139.6 68.5001 139.6 68.3001 139.6 68.1001V58.6001C139.6 58.4001 139.6 58.2001 139.5 58.0001C139.4 57.8001 139.3 57.7001 139.1 57.6001C139 57.5001 138.8 57.5001 138.5 57.4001C138.2 57.3001 138 57.3001 137.9 57.3001V56.6001H143.5V57.3001C143.3 57.3001 143.1 57.3001 142.8 57.4001C142.5 57.5001 142.3 57.5001 142.2 57.6001C142 57.7001 141.8 57.8001 141.8 58.0001C141.7 58.2001 141.7 58.4001 141.7 58.6001V67.6001C141.7 68.0001 141.7 68.3001 141.8 68.6001C141.8 68.8001 141.9 69.0001 142.1 69.1001C142.2 69.2001 142.5 69.3001 142.7 69.3001C143 69.3001 143.4 69.4001 143.9 69.4001C144.1 69.4001 144.4 69.4001 144.6 69.4001C144.9 69.4001 145.1 69.4001 145.3 69.3001C145.5 69.3001 145.7 69.2001 145.9 69.1001C146.1 69.0001 146.2 69.0001 146.3 68.9001C146.6 68.6001 146.9 68.2001 147.2 67.6001C147.5 67.0001 147.8 66.5001 147.9 66.2001H148.5V66.0001Z" fill="#F4F5FF"/>
<path d="M158.9 70.0001H152.9V69.3001C153.1 69.3001 153.3 69.3001 153.6 69.2001C153.9 69.2001 154.1 69.1001 154.3 69.1001C154.5 69.0001 154.7 68.9001 154.8 68.8001C154.9 68.7001 154.9 68.5001 154.9 68.2001V58.5001C154.9 58.3001 154.9 58.1001 154.8 58.0001C154.7 57.9001 154.6 57.7001 154.3 57.6001C154.1 57.5001 153.9 57.5001 153.6 57.4001C153.3 57.3001 153.1 57.3001 152.9 57.3001V56.6001H158.9V57.3001C158.7 57.3001 158.5 57.3001 158.2 57.4001C157.9 57.4001 157.7 57.5001 157.5 57.6001C157.3 57.7001 157.1 57.8001 157 58.0001C156.9 58.2001 156.9 58.4001 156.9 58.6001V68.2001C156.9 68.4001 156.9 68.6001 157 68.7001C157.1 68.9001 157.2 69.0001 157.5 69.1001C157.6 69.2001 157.8 69.2001 158.1 69.3001C158.4 69.4001 158.6 69.4001 158.9 69.4001V70.0001Z" fill="#F4F5FF"/>
<path d="M174.3 59.9C174.3 60.6 174.2 61.2 173.9 61.7C173.6 62.2 173.3 62.7 172.8 63C172.3 63.4 171.8 63.6 171.2 63.8C170.6 64 170 64 169.4 64H167.9V68C167.9 68.2 167.9 68.4 168 68.6C168.1 68.8 168.2 68.9 168.4 69C168.5 69 168.7 69.1 169 69.1C169.3 69.1 169.5 69.2 169.8 69.2V70H164.1V69.3C164.3 69.3 164.5 69.3 164.8 69.2C165.1 69.2 165.3 69.1 165.4 69.1C165.6 69 165.7 68.9 165.8 68.7C165.9 68.5 165.9 68.3 165.9 68.1V58.5C165.9 58.3 165.9 58.1 165.8 57.9C165.7 57.7 165.6 57.6 165.4 57.5C165.2 57.4 164.9 57.4 164.7 57.3C164.5 57.3 164.3 57.2 164.1 57.2V56.5H170.2C171.4 56.5 172.4 56.8 173.2 57.4C174 58.1 174.3 58.9 174.3 59.9ZM171.5 62.2C171.7 61.9 171.9 61.6 171.9 61.3C172 61 172 60.7 172 60.4C172 60 172 59.7 171.9 59.3C171.8 58.9 171.7 58.6 171.5 58.3C171.3 58 171 57.8 170.6 57.6C170.2 57.4 169.8 57.4 169.3 57.4H168V63.3H169C169.7 63.3 170.2 63.2 170.6 63C171 62.8 171.3 62.5 171.5 62.2Z" fill="#F4F5FF"/>
<path d="M189.7 59.9C189.7 60.6 189.6 61.2 189.3 61.7C189 62.2 188.7 62.7 188.2 63C187.7 63.4 187.2 63.6 186.6 63.8C186 64 185.4 64 184.8 64H183.3V68C183.3 68.2 183.3 68.4 183.4 68.6C183.5 68.8 183.6 68.9 183.8 69C183.9 69 184.1 69.1 184.4 69.1C184.7 69.1 184.9 69.2 185.2 69.2V70H179.5V69.3C179.7 69.3 179.9 69.3 180.2 69.2C180.5 69.2 180.7 69.1 180.8 69.1C181 69 181.1 68.9 181.2 68.7C181.3 68.5 181.3 68.3 181.3 68.1V58.5C181.3 58.3 181.3 58.1 181.2 57.9C181.1 57.7 181 57.6 180.8 57.5C180.6 57.4 180.3 57.4 180.1 57.3C179.9 57.3 179.7 57.2 179.5 57.2V56.5H185.6C186.8 56.5 187.8 56.8 188.6 57.4C189.3 58.1 189.7 58.9 189.7 59.9ZM186.8 62.2C187 61.9 187.2 61.6 187.2 61.3C187.3 61 187.3 60.7 187.3 60.4C187.3 60 187.3 59.7 187.2 59.3C187.1 58.9 187 58.6 186.8 58.3C186.6 58 186.3 57.8 185.9 57.6C185.5 57.4 185.1 57.4 184.6 57.4H183.3V63.3H184.3C185 63.3 185.5 63.2 185.9 63C186.3 62.8 186.6 62.5 186.8 62.2Z" fill="#F4F5FF"/>
<path d="M206 66.1001L205.7 70.0001H194.6V69.3001C194.8 69.3001 195 69.3001 195.4 69.2001C195.7 69.2001 195.9 69.1001 196 69.1001C196.2 69.0001 196.3 68.9001 196.4 68.7001C196.5 68.5001 196.5 68.4001 196.5 68.1001V58.5001C196.5 58.3001 196.5 58.1001 196.4 58.0001C196.3 57.8001 196.2 57.7001 196 57.6001C195.8 57.5001 195.6 57.4001 195.3 57.4001C195 57.3001 194.8 57.3001 194.6 57.3001V56.6001H205V59.8001H204.3C204.2 59.3001 203.9 58.8001 203.5 58.3001C203.1 57.8001 202.7 57.5001 202.3 57.4001C202.1 57.4001 201.9 57.4001 201.6 57.3001C201.3 57.3001 201 57.3001 200.7 57.3001H198.6V62.6001H200.1C200.6 62.6001 200.9 62.6001 201.2 62.5001C201.4 62.4001 201.6 62.3001 201.8 62.0001C201.9 61.8001 202.1 61.6001 202.2 61.3001C202.3 61.0001 202.4 60.7001 202.4 60.4001H203.1V65.6001H202.4C202.4 65.3001 202.3 65.0001 202.2 64.6001C202.1 64.3001 202 64.0001 201.9 63.9001C201.7 63.7001 201.5 63.5001 201.2 63.4001C201 63.3001 200.6 63.3001 200.2 63.3001H198.7V67.3001C198.7 67.7001 198.7 68.0001 198.8 68.2001C198.9 68.4001 199 68.6001 199.1 68.7001C199.3 68.8001 199.5 68.9001 199.8 68.9001C200.1 68.9001 200.5 69.0001 201 69.0001C201.2 69.0001 201.5 69.0001 201.8 69.0001C202.1 69.0001 202.4 69.0001 202.7 69.0001C202.9 69.0001 203.2 68.9001 203.4 68.9001C203.7 68.8001 203.8 68.7001 203.9 68.6001C204.2 68.3001 204.5 67.8001 204.8 67.2001C205.1 66.6001 205.3 66.1001 205.4 65.9001H206V66.1001Z" fill="#F4F5FF"/>
<path d="M224 70H220.4C219.6 68.8 218.9 67.7 218.2 66.8C217.6 65.9 216.9 65 216.1 64H214.7V68.2C214.7 68.4 214.7 68.6 214.8 68.8C214.9 69 215 69.1 215.2 69.2C215.3 69.2 215.5 69.3 215.8 69.3C216.1 69.3 216.3 69.4 216.5 69.4V70H211V69.3C211.2 69.3 211.4 69.3 211.7 69.2C212 69.2 212.2 69.1 212.3 69.1C212.5 69 212.6 68.9 212.7 68.7C212.8 68.5 212.8 68.3 212.8 68.1V58.5C212.8 58.3 212.8 58.1 212.7 57.9C212.6 57.7 212.5 57.6 212.3 57.5C212.1 57.4 211.9 57.4 211.7 57.3C211.4 57.3 211.2 57.2 211.1 57.2V56.5H217.3C217.9 56.5 218.4 56.6 218.9 56.7C219.4 56.8 219.8 57 220.2 57.3C220.6 57.6 220.9 57.9 221.1 58.3C221.3 58.7 221.4 59.2 221.4 59.8C221.4 60.3 221.3 60.8 221.2 61.2C221 61.6 220.8 61.9 220.5 62.2C220.2 62.5 219.9 62.7 219.5 62.9C219.1 63.1 218.7 63.3 218.2 63.4C218.9 64.3 219.4 65 219.8 65.6C220.2 66.2 220.8 66.9 221.4 67.8C221.7 68.2 221.9 68.5 222.1 68.6C222.3 68.8 222.5 68.9 222.8 69C223 69.1 223.2 69.1 223.4 69.2C223.6 69.2 223.8 69.3 224 69.3V70ZM219.1 60C219.1 59.2 218.9 58.6 218.4 58.1C217.9 57.6 217.3 57.4 216.4 57.4H214.8V63.1H216C216.9 63.1 217.6 62.8 218.2 62.3C218.8 61.7 219.1 61 219.1 60Z" fill="#F4F5FF"/>
<path d="M44.2 79H45.4C46.2 79 46.6999 79.2 47.0999 79.5C47.4999 79.8 47.7 80.3 47.7 80.9C47.7 81.4 47.5 81.9 47.2 82.2C46.8 82.6 46.2999 82.7 45.5999 82.7H45V85.6H44.2999V79H44.2ZM45 79.7V82.1H45.5999C45.9999 82.1 46.3999 82 46.5999 81.8C46.8999 81.6 47 81.3 47 80.9C47 80.1 46.5 79.7 45.5 79.7H45Z" fill="#F4F5FF"/>
<path d="M49.8 79H50.5V85H52.4001V85.7H49.8V79Z" fill="#F4F5FF"/>
<path d="M59 85.7002L58.2 83.8002H55.2999L54.5 85.7002H53.7L56.7999 78.7002L59.7999 85.7002H59ZM55.5999 83.1002H57.9L56.7999 80.4002L55.5999 83.1002Z" fill="#F4F5FF"/>
<path d="M62.5 85.7002H61.8V78.7002L67 84.2002V79.0002H67.7V86.0002L62.5 80.5002V85.7002Z" fill="#F4F5FF"/>
<path d="M71.2 85.7002H70.5V78.7002L75.7 84.2002V79.0002H76.4V86.0002L71.2 80.5002V85.7002Z" fill="#F4F5FF"/>
<path d="M79.2 79H80V85.7H79.3V79H79.2Z" fill="#F4F5FF"/>
<path d="M83.5 85.7002H82.8V78.7002L88 84.2002V79.0002H88.7V86.0002L83.5 80.5002V85.7002Z" fill="#F4F5FF"/>
<path d="M94.8999 83.1004V82.4004H97.6999V82.6004C97.6999 83.4004 97.4999 84.1004 97.0999 84.7004C96.4999 85.5004 95.6999 85.9004 94.5999 85.9004C93.5999 85.9004 92.7999 85.6004 92.0999 84.9004C91.3999 84.2004 91.0999 83.4004 91.0999 82.4004C91.0999 81.4004 91.3999 80.6004 92.0999 79.9004C92.7999 79.2004 93.5999 78.9004 94.5999 78.9004C95.3999 78.9004 96.0999 79.1004 96.6999 79.6004C96.9999 79.8004 97.2999 80.1004 97.4999 80.4004L96.8999 80.9004C96.6999 80.6004 96.4999 80.4004 96.2999 80.2004C95.7999 79.8004 95.2999 79.6004 94.6999 79.6004C93.8999 79.6004 93.1999 79.9004 92.6999 80.4004C92.1999 80.9004 91.8999 81.6004 91.8999 82.4004C91.8999 83.0004 91.9999 83.5004 92.2999 83.9004C92.5999 84.3004 92.8999 84.6004 93.2999 84.8004C93.6999 85.0004 94.0999 85.1004 94.5999 85.1004C94.9999 85.1004 95.3999 85.0004 95.7999 84.8004C96.1999 84.6004 96.3999 84.3004 96.5999 84.0004C96.7999 83.7004 96.8999 83.4004 96.8999 83.0004H94.8999V83.1004Z" fill="#F4F5FF"/>
<path d="M108.7 79.6003V80.5003C108.4 80.2003 108.1 80.0003 107.8 79.9003C107.4 79.7003 107 79.6003 106.6 79.6003C105.8 79.6003 105.2 79.9003 104.7 80.4003C104.2 80.9003 103.9 81.6003 103.9 82.4003C103.9 83.2003 104.2 83.9003 104.7 84.4003C105.3 84.9003 105.9 85.1003 106.6 85.1003C107 85.1003 107.4 85.0003 107.8 84.8003C108.1 84.7003 108.3 84.5003 108.6 84.2003V85.1003C108 85.5003 107.3 85.8003 106.6 85.8003C105.6 85.8003 104.8 85.5003 104.1 84.8003C103.4 84.1003 103.1 83.3003 103.1 82.3003C103.1 81.3003 103.4 80.5003 104.1 79.8003C104.8 79.1003 105.6 78.8003 106.6 78.8003C107.4 78.9003 108.1 79.1003 108.7 79.6003Z" fill="#F4F5FF"/>
<path d="M116.7 84.9004C116 85.6004 115.2 85.9004 114.2 85.9004C113.2 85.9004 112.4 85.6004 111.7 84.9004C111 84.2004 110.7 83.4004 110.7 82.4004C110.7 81.4004 111 80.6004 111.7 79.9004C112.4 79.2004 113.2 78.9004 114.2 78.9004C115.2 78.9004 116 79.2004 116.7 79.9004C117.4 80.6004 117.7 81.4004 117.7 82.4004C117.7 83.4004 117.3 84.2004 116.7 84.9004ZM116.1 80.4004C115.6 79.9004 114.9 79.6004 114.2 79.6004C113.4 79.6004 112.8 79.9004 112.3 80.4004C111.8 80.9004 111.5 81.6004 111.5 82.4004C111.5 83.2004 111.8 83.8004 112.3 84.4004C112.8 84.9004 113.5 85.2004 114.2 85.2004C115 85.2004 115.6 84.9004 116.1 84.4004C116.6 83.9004 116.9 83.2004 116.9 82.4004C116.9 81.6004 116.6 81.0004 116.1 80.4004Z" fill="#F4F5FF"/>
<path d="M120.8 85.7002H120.1V78.7002L125.3 84.2002V79.0002H126V86.0002L120.8 80.5002V85.7002Z" fill="#F4F5FF"/>
<path d="M132.4 80.0004L131.8 80.4004C131.7 80.2004 131.6 80.0004 131.4 79.9004C131.2 79.7004 130.9 79.7004 130.6 79.7004C130.3 79.7004 130 79.8004 129.8 80.0004C129.6 80.2004 129.5 80.4004 129.5 80.7004C129.5 80.9004 129.6 81.1004 129.8 81.3004C129.9 81.4004 130.2 81.6004 130.5 81.7004L131.1 82.0004C131.6 82.2004 131.9 82.4004 132.1 82.6004C132.4 82.9004 132.6 83.3004 132.6 83.8004C132.6 84.4004 132.4 84.9004 132 85.3004C131.6 85.7004 131.1 85.9004 130.5 85.9004C129.9 85.9004 129.4 85.7004 129 85.4004C128.7 85.1004 128.5 84.7004 128.4 84.2004L129.1 84.0004C129.1 84.3004 129.3 84.6004 129.5 84.9004C129.7 85.1004 130.1 85.3004 130.5 85.3004C130.9 85.3004 131.3 85.2004 131.5 84.9004C131.7 84.6004 131.9 84.3004 131.9 84.0004C131.9 83.7004 131.8 83.4004 131.6 83.2004C131.5 83.1004 131.2 82.9004 130.8 82.7004L130.2 82.4004C129.8 82.2004 129.5 82.0004 129.3 81.8004C129 81.5004 128.8 81.1004 128.8 80.7004C128.8 80.2004 129 79.8004 129.3 79.4004C129.7 79.1004 130.1 78.9004 130.7 78.9004C131.1 78.9004 131.5 79.0004 131.8 79.2004C132 79.4004 132.2 79.6004 132.4 80.0004Z" fill="#F4F5FF"/>
<path d="M135.8 79V83.1C135.8 83.4 135.8 83.6 135.8 83.7C135.8 83.8 135.9 84 135.9 84.2C136 84.4 136.1 84.6 136.3 84.7C136.6 85 137 85.1 137.4 85.1C137.8 85.1 138.2 85 138.5 84.7C138.7 84.6 138.8 84.4 138.9 84.2C139 84 139 83.8 139 83.7C139 83.6 139 83.4 139 83.1V79H139.7V83.3C139.7 84 139.6 84.5 139.3 84.9C139.1 85.2 138.8 85.4 138.5 85.6C138.2 85.8 137.8 85.8 137.4 85.8C137 85.8 136.6 85.7 136.3 85.6C136 85.4 135.7 85.2 135.5 84.9C135.2 84.5 135.1 84 135.1 83.3V79H135.8Z" fill="#F4F5FF"/>
<path d="M142.6 79H143.3V85H145.2V85.7H142.6V79Z" fill="#F4F5FF"/>
<path d="M150.3 79.7H148.7V85.7H148V79.7H146.4V79H150.4V79.7H150.3Z" fill="#F4F5FF"/>
<path d="M156.3 85.7002L155.5 83.8002H152.6L151.8 85.7002H151L154.1 78.7002L157.1 85.7002H156.3ZM153 83.1002H155.3L154.2 80.4002L153 83.1002Z" fill="#F4F5FF"/>
<path d="M159.9 85.7002H159.2V78.7002L164.4 84.2002V79.0002H165.1V86.0002L159.9 80.5002V85.7002Z" fill="#F4F5FF"/>
<path d="M173 79.6003V80.5003C172.7 80.2003 172.4 80.0003 172.1 79.9003C171.7 79.7003 171.3 79.6003 170.9 79.6003C170.1 79.6003 169.5 79.9003 169 80.4003C168.5 80.9003 168.2 81.6003 168.2 82.4003C168.2 83.2003 168.5 83.9003 169 84.4003C169.6 84.9003 170.2 85.1003 170.9 85.1003C171.3 85.1003 171.7 85.0003 172.1 84.8003C172.4 84.7003 172.6 84.5003 172.9 84.2003V85.1003C172.3 85.5003 171.6 85.8003 170.9 85.8003C169.9 85.8003 169.1 85.5003 168.4 84.8003C167.7 84.1003 167.4 83.3003 167.4 82.3003C167.4 81.3003 167.7 80.5003 168.4 79.8003C169.1 79.1003 169.9 78.8003 170.9 78.8003C171.7 78.9003 172.4 79.1003 173 79.6003Z" fill="#F4F5FF"/>
<path d="M176.8 85.7V82.8L174.6 79H175.5L177.2 82L178.9 79H179.8L177.6 82.8V85.7H176.8Z" fill="#F4F5FF"/>
<path opacity="0.6" d="M135.7 29.4999C135.6 29.8999 135.5 30.2999 135.4 30.6999C133.3 38.3999 127.5 44.6999 120 47.2999L101.2 46.0999C94.8999 42.9999 90.1999 37.1999 88.4999 30.1999C88.4999 30.0999 88.4999 29.1999 88.3999 29.0999L93.2999 28.5999V25.3999L118.6 11.8999V18.7999H124.7V15.9999L126 15.1999H131.7V28.3999L135.7 29.4999Z" fill="#F4F5FF"/>
<path d="M112 0C98.5 0 87.5 11 87.5 24.5C87.5 26.4 87.7 28.3 88.1 30.1L88.2 30.3C89.9 37.3 94.6 43.2 101.1 46.4C104.5 48.1 108.2 49 112 49C114.8 49 117.5 48.5 120.1 47.6C127.7 44.9 133.5 38.7 135.6 30.9C135.7 30.5 135.8 30.1 135.9 29.7C136.3 28 136.5 26.3 136.5 24.5C136.5 10.9 125.5 0 112 0ZM135.5 29.5C135.4 29.9 135.3 30.2 135.2 30.7C135.2 30.7 135.2 30.7 135.2 30.8H128.5L127.8 21.1L126 23.3H114.7V19L96.4 28L95.3 30.8L88.7 30.3C88.7 30.3 88.7 30.3 88.7 30.2L88.6 30C88.2 28.2 88 26.4 88 24.5C88 11.3 98.8 0.5 112 0.5C125.2 0.5 136 11.3 136 24.5C136 26.1 135.8 27.8 135.5 29.5Z" fill="#F4F5FF"/>
</svg>
