<svg width="208" height="90" viewBox="0 0 208 90" fill="none" xmlns="http://www.w3.org/2000/svg">
<path d="M26.1 35.9044H13.1L10.9 45.5044H0L13.4 1.00439H26.2L39.6 45.4044H28.5L26.1 35.9044ZM24.4 28.3044L19.7 8.60439L15 28.2044H24.4V28.3044Z" fill="#F4F5FF"/>
<path d="M42.1001 1.00439H68.6001L67.5001 8.5044H52.6001V20.3044H65.6001V27.8044H52.6001V45.4044H42.1001V1.00439Z" fill="#F4F5FF"/>
<path d="M87.2001 28.4044H83.1001V45.4044H72.6001V1.00439H87.2001C99.3001 1.00439 105.5 5.30439 105.5 14.5044C105.5 20.3044 102.7 23.9044 97.0001 26.5044L108.3 45.4044H96.4001L87.2001 28.4044ZM83.1001 21.2044H87.5001C92.1001 21.2044 94.6001 19.2044 94.6001 14.5044C94.6001 10.2044 92.1001 8.30439 86.9001 8.30439H83.1001V21.2044Z" fill="#F4F5FF"/>
<path d="M142.3 4.80417L137.3 10.8042C134.8 8.90417 132.3 7.70417 129.3 7.70417C123.6 7.70417 119.6 12.3042 119.6 23.2042C119.6 33.9042 123.5 38.5042 129.4 38.5042C132.9 38.5042 135.5 36.9042 138.1 34.9042L142.8 40.9042C139.8 43.9042 135 46.6042 128.9 46.6042C116.7 46.6042 108.6 38.4042 108.6 23.2042C108.6 8.30417 117.3 0.00417312 128.8 0.00417312C134.5 -0.0958269 138.5 1.60417 142.3 4.80417Z" fill="#F4F5FF"/>
<path d="M136.4 61.7041H138.2L137.3 58.2041L136.4 61.7041Z" fill="#F4F5FF"/>
<path d="M27.7 61.7041H29.5L28.6 58.2041L27.7 61.7041Z" fill="#F4F5FF"/>
<path d="M70.0999 58.0044C68.9999 58.0044 68.3999 58.8044 68.3999 60.8044C68.3999 62.8044 68.9999 63.6044 70.0999 63.6044C71.1999 63.6044 71.7999 62.8044 71.7999 60.8044C71.7999 58.8044 71.1999 58.0044 70.0999 58.0044Z" fill="#F4F5FF"/>
<path d="M77.0999 58.104H76.3999V60.504H77.2999C78.1999 60.504 78.5999 60.104 78.5999 59.304C78.4999 58.504 77.9999 58.104 77.0999 58.104Z" fill="#F4F5FF"/>
<path d="M112.7 58.104H112V60.504H112.9C113.8 60.504 114.2 60.104 114.2 59.304C114.2 58.504 113.7 58.104 112.7 58.104Z" fill="#F4F5FF"/>
<path d="M143.6 58.104H142.9V60.504H143.8C144.7 60.504 145.1 60.104 145.1 59.304C145.1 58.504 144.6 58.104 143.6 58.104Z" fill="#F4F5FF"/>
<path d="M54.4 58.2041H53.8V63.5041H54.5C55.6 63.5041 56.5 63.0041 56.5 60.8041C56.4 58.6041 55.5 58.2041 54.4 58.2041Z" fill="#F4F5FF"/>
<path d="M8.1001 61.7041H9.9001L9.0001 58.2041L8.1001 61.7041Z" fill="#F4F5FF"/>
<path d="M191.9 58.104H191.2V60.504H192.1C193 60.504 193.4 60.104 193.4 59.304C193.3 58.504 192.9 58.104 191.9 58.104Z" fill="#F4F5FF"/>
<path d="M0 51.8042V69.9042H207.1V51.8042H0ZM10.7 64.7042L10.3 62.9042H7.9L7.5 64.6042H5.8L8.2 56.9042H10.2L12.6 64.6042H10.7V64.7042ZM15.3 64.7042H13.1V56.9042H15.1C17.1 56.9042 19.1 57.5042 19.1 60.7042C19.1 63.9042 17.2 64.7042 15.3 64.7042ZM21.5 64.7042L19.2 56.9042H21L22.6 63.3042L24.1 56.9042H25.8L23.6 64.6042H21.5V64.7042ZM30.3 64.7042L29.9 62.9042H27.5L27.1 64.6042H25.4L27.8 56.9042H29.8L32.2 64.6042H30.3V64.7042ZM38.5 64.7042H36.4L33.9 58.6042C34 59.3042 34.1 60.3042 34.1 61.7042V64.7042H32.6V56.9042H34.7L37.2 63.0042C37.1 62.5042 37 61.4042 37 60.3042V56.9042H38.5V64.7042ZM43.1 64.8042C41 64.8042 39.6 63.4042 39.6 60.7042C39.6 58.1042 41.1 56.7042 43 56.7042C44 56.7042 44.7 57.0042 45.3 57.5042L44.6 58.6042C44.2 58.2042 43.7 58.1042 43.2 58.1042C42.2 58.1042 41.4 58.9042 41.4 60.9042C41.4 62.8042 42.1 63.7042 43.2 63.7042C43.8 63.7042 44.3 63.4042 44.7 63.1042L45.5 64.0042C45 64.4042 44.2 64.8042 43.1 64.8042ZM50.9 64.7042H46.3V56.9042H50.9L50.7 58.1042H47.9V60.1042H50.3V61.3042H47.9V63.4042H50.9V64.7042ZM54.3 64.7042H52.1V56.9042H54.1C56.1 56.9042 58.1 57.5042 58.1 60.7042C58.1 63.9042 56.2 64.7042 54.3 64.7042ZM66.2 58.1042H63.5V60.3042H65.8V61.5042H63.5V64.6042H61.9V56.9042H66.4L66.2 58.1042ZM70.1 64.8042C68 64.8042 66.7 63.3042 66.7 60.8042C66.7 58.3042 68 56.8042 70.1 56.8042C72.2 56.8042 73.5 58.3042 73.5 60.8042C73.5 63.3042 72.2 64.8042 70.1 64.8042ZM78.8 64.7042L77.1 61.7042H76.3V64.7042H74.7V56.9042H77.1C79.2 56.9042 80.2 57.6042 80.2 59.2042C80.2 60.2042 79.7 60.8042 78.7 61.3042L80.7 64.6042H78.8V64.7042ZM87.3 64.7042L87.1 61.6042C87 60.5042 87 59.3042 87 58.5042L85.7 64.0042H84.1L82.7 58.5042C82.8 59.6042 82.8 60.6042 82.7 61.7042L82.5 64.8042H80.9L81.5 57.1042H83.6L84.9 62.4042L86.1 57.1042H88.2L88.8 64.8042H87.3V64.7042ZM91.7 64.7042H90.1V56.9042H91.7V64.7042ZM99.1 64.7042H97L94.5 58.6042C94.6 59.3042 94.7 60.3042 94.7 61.7042V64.7042H93.2V56.9042H95.3L97.8 63.0042C97.7 62.5042 97.6 61.4042 97.6 60.3042V56.9042H99.1V64.7042ZM106.4 64.1042C105.6 64.6042 104.7 64.9042 103.7 64.9042C101.4 64.9042 100.2 63.5042 100.2 60.8042C100.2 58.2042 101.8 56.8042 103.8 56.8042C104.9 56.8042 105.7 57.2042 106.3 57.7042L105.4 58.6042C104.9 58.2042 104.4 58.0042 103.8 58.0042C102.7 58.0042 101.8 58.8042 101.8 60.8042C101.8 62.9042 102.4 63.6042 103.5 63.6042C103.9 63.6042 104.3 63.5042 104.6 63.3042V61.4042H103.5L103.3 60.2042H106.1V64.1042H106.4ZM114.5 64.7042L112.8 61.7042H112V64.7042H110.4V56.9042H112.8C114.9 56.9042 115.9 57.6042 115.9 59.2042C115.9 60.2042 115.4 60.8042 114.4 61.3042L116.4 64.6042H114.5V64.7042ZM121.7 64.7042H117.1V56.9042H121.7L121.5 58.1042H118.7V60.1042H121.1V61.3042H118.7V63.4042H121.7V64.7042ZM125 64.8042C123.7 64.8042 122.8 64.3042 122.1 63.7042L122.9 62.8042C123.5 63.3042 124.1 63.6042 124.9 63.6042C125.7 63.6042 126.2 63.2042 126.2 62.5042C126.2 61.9042 125.9 61.6042 124.7 61.3042C123 60.8042 122.4 60.1042 122.4 58.9042C122.4 57.6042 123.5 56.7042 125.1 56.7042C126.2 56.7042 127 57.0042 127.7 57.7042L126.9 58.6042C126.4 58.2042 125.8 58.0042 125.2 58.0042C124.5 58.0042 124.1 58.3042 124.1 58.8042C124.1 59.3042 124.4 59.6042 125.7 59.9042C127.1 60.3042 128 60.9042 128 62.4042C128 63.9042 126.9 64.8042 125 64.8042ZM133.6 64.7042H129V56.9042H133.6L133.4 58.1042H130.6V60.1042H133V61.3042H130.6V63.4042H133.6V64.7042ZM138.9 64.7042L138.5 63.0042H136.1L135.7 64.7042H134L136.4 57.0042H138.4L140.8 64.7042H138.9ZM145.4 64.7042L143.7 61.7042H142.9V64.7042H141.3V56.9042H143.7C145.8 56.9042 146.8 57.6042 146.8 59.2042C146.8 60.2042 146.3 60.8042 145.3 61.3042L147.3 64.6042H145.4V64.7042ZM151 64.8042C148.9 64.8042 147.5 63.4042 147.5 60.7042C147.5 58.1042 149 56.7042 150.9 56.7042C151.9 56.7042 152.6 57.0042 153.2 57.5042L152.4 58.4042C152 58.0042 151.5 57.9042 151 57.9042C150 57.9042 149.2 58.7042 149.2 60.7042C149.2 62.6042 149.9 63.5042 151 63.5042C151.6 63.5042 152.1 63.2042 152.5 62.9042L153.3 63.8042C152.9 64.4042 152 64.8042 151 64.8042ZM160 64.7042H158.4V61.3042H155.8V64.7042H154.2V56.9042H155.8V59.9042H158.4V56.9042H160V64.7042ZM167.3 64.8042C165.2 64.8042 163.8 63.4042 163.8 60.7042C163.8 58.1042 165.3 56.7042 167.2 56.7042C168.2 56.7042 168.9 57.0042 169.5 57.5042L168.7 58.4042C168.3 58.0042 167.8 57.9042 167.3 57.9042C166.3 57.9042 165.5 58.7042 165.5 60.7042C165.5 62.6042 166.2 63.5042 167.3 63.5042C167.9 63.5042 168.4 63.2042 168.8 62.9042L169.6 63.9042C169.1 64.4042 168.3 64.8042 167.3 64.8042ZM175.1 64.7042H170.5V56.9042H175.1L174.9 58.1042H172.1V60.1042H174.5V61.3042H172.1V63.4042H175.1V64.7042ZM182.1 64.7042H180L177.5 58.6042C177.6 59.3042 177.7 60.3042 177.7 61.7042V64.7042H176.2V56.9042H178.3L180.8 63.0042C180.7 62.5042 180.6 61.4042 180.6 60.3042V56.9042H182.1V64.7042ZM188.6 58.2042H186.6V64.6042H185V58.2042H182.9V56.9042H188.7L188.6 58.2042ZM193.6 64.7042L191.9 61.7042H191.1V64.7042H189.5V56.9042H191.9C194 56.9042 195 57.6042 195 59.2042C195 60.2042 194.5 60.8042 193.5 61.3042L195.5 64.6042H193.6V64.7042ZM200.9 64.7042H196.3V56.9042H200.9L200.7 58.1042H197.9V60.1042H200.3V61.3042H197.9V63.4042H200.9V64.7042Z" fill="#F4F5FF"/>
<path d="M15.3 58.2041H14.7V63.5041H15.4C16.5 63.5041 17.4 63.0041 17.4 60.8041C17.4 58.6041 16.4 58.2041 15.3 58.2041Z" fill="#F4F5FF"/>
<path d="M69.0999 78.104C67.9999 78.104 67.3999 78.904 67.3999 80.904C67.3999 82.904 67.9999 83.704 69.0999 83.704C70.1999 83.704 70.7999 82.904 70.7999 80.904C70.7999 78.904 70.1999 78.104 69.0999 78.104Z" fill="#F4F5FF"/>
<path d="M101 81.8042H102.8L101.9 78.3042L101 81.8042Z" fill="#F4F5FF"/>
<path d="M38.2 78.2041H37.5V80.6041H38.4C39.3 80.6041 39.7 80.2041 39.7 79.4041C39.7 78.6041 39.2 78.2041 38.2 78.2041Z" fill="#F4F5FF"/>
<path d="M95.2 78.2041H94.5V80.6041H95.4C96.3 80.6041 96.7 80.2041 96.7 79.4041C96.6 78.6041 96.2 78.2041 95.2 78.2041Z" fill="#F4F5FF"/>
<path d="M137.3 78.2041H136.7V83.5041H137.4C138.5 83.5041 139.4 83.0041 139.4 80.8041C139.4 78.7041 138.5 78.2041 137.3 78.2041Z" fill="#F4F5FF"/>
<path d="M0 71.8042V89.9042H153V71.8042H0ZM12.5 82.2042C12.5 83.8042 11.5 84.9042 9.6 84.9042C7.7 84.9042 6.6 83.8042 6.6 82.2042V77.0042H8.2V82.1042C8.2 83.1042 8.6 83.7042 9.5 83.7042C10.4 83.7042 10.8 83.2042 10.8 82.1042V77.0042H12.4V82.2042H12.5ZM19.6 84.8042H17.5L15 78.7042C15.1 79.4042 15.2 80.4042 15.2 81.8042V84.8042H13.7V77.1042H15.8L18.3 83.2042C18.2 82.7042 18.1 81.6042 18.1 80.5042V77.1042H19.6V84.8042ZM22.6 84.8042H21V77.1042H22.6V84.8042ZM27.4 84.8042H25.4L23.1 77.1042H24.9L26.5 83.5042L28 77.1042H29.7L27.4 84.8042ZM34.8 84.8042H30.2V77.1042H34.8L34.6 78.2042H31.8V80.2042H34.2V81.4042H31.8V83.5042H34.8V84.8042ZM40 84.8042L38.3 81.8042H37.5V84.8042H35.9V77.1042H38.3C40.4 77.1042 41.4 77.8042 41.4 79.4042C41.4 80.4042 40.9 81.0042 39.9 81.5042L41.9 84.8042H40ZM44.6 84.9042C43.3 84.9042 42.4 84.4042 41.7 83.8042L42.5 82.9042C43.1 83.4042 43.7 83.7042 44.5 83.7042C45.3 83.7042 45.8 83.3042 45.8 82.6042C45.8 82.0042 45.5 81.7042 44.3 81.4042C42.6 80.9042 42 80.2042 42 79.0042C42 77.7042 43.1 76.8042 44.7 76.8042C45.8 76.8042 46.6 77.1042 47.3 77.8042L46.5 78.7042C46 78.3042 45.4 78.1042 44.8 78.1042C44.1 78.1042 43.7 78.4042 43.7 78.9042C43.7 79.4042 44 79.7042 45.3 80.0042C46.7 80.4042 47.6 81.0042 47.6 82.5042C47.6 83.9042 46.4 84.9042 44.6 84.9042ZM50.1 84.8042H48.5V77.1042H50.1V84.8042ZM60.5 81.9042V84.8042H58.9V81.9042L56.6 77.4042L56.5 78.3042H54.5V84.7042H52.9V78.3042H50.8V77.0042H56.4H56.6H58.1L59.6 80.5042L61.1 77.0042H62.8L60.5 81.9042ZM69.1 84.9042C67 84.9042 65.7 83.4042 65.7 80.9042C65.7 78.4042 67 76.9042 69.1 76.9042C71.2 76.9042 72.5 78.4042 72.5 80.9042C72.5 83.4042 71.2 84.9042 69.1 84.9042ZM77.8 78.2042H75.1V80.4042H77.4V81.6042H75.1V84.7042H73.5V77.0042H78L77.8 78.2042ZM83.4 84.9042C82.1 84.9042 81.2 84.4042 80.5 83.8042L81.3 82.9042C81.9 83.4042 82.5 83.7042 83.3 83.7042C84.1 83.7042 84.6 83.3042 84.6 82.6042C84.6 82.0042 84.3 81.7042 83.1 81.4042C81.4 80.9042 80.8 80.2042 80.8 79.0042C80.8 77.7042 81.9 76.8042 83.5 76.8042C84.6 76.8042 85.4 77.1042 86.1 77.8042L85.3 78.7042C84.8 78.3042 84.2 78.1042 83.6 78.1042C82.9 78.1042 82.5 78.4042 82.5 78.9042C82.5 79.4042 82.8 79.7042 84.1 80.0042C85.5 80.4042 86.4 81.0042 86.4 82.5042C86.4 83.9042 85.3 84.9042 83.4 84.9042ZM92 78.3042H90V84.7042H88.4V78.3042H86.3V77.0042H92.1L92 78.3042ZM103.5 84.8042L103.1 83.1042H100.7L100.3 84.8042H98.9H98.6H97L95.3 81.8042H94.5V84.8042H92.9V77.1042H95.3C97.4 77.1042 98.4 77.8042 98.4 79.4042C98.4 80.4042 97.9 81.0042 96.9 81.5042L98.7 84.5042L101 77.1042H103L105.4 84.8042H103.5ZM110.1 78.3042H108.1V84.7042H106.6V78.3042H104.5V77.0042H110.3L110.1 78.3042ZM116.8 84.8042H115.2V81.4042H112.6V84.8042H111V77.1042H112.6V80.1042H115.2V77.1042H116.8V84.8042ZM121.3 84.9042C119.2 84.9042 117.8 83.5042 117.8 80.8042C117.8 78.2042 119.3 76.8042 121.2 76.8042C122.2 76.8042 122.9 77.1042 123.5 77.6042L122.7 78.5042C122.3 78.1042 121.8 78.0042 121.3 78.0042C120.3 78.0042 119.5 78.8042 119.5 80.8042C119.5 82.7042 120.2 83.6042 121.3 83.6042C121.9 83.6042 122.4 83.3042 122.8 83.0042L123.6 83.9042C123.1 84.5042 122.3 84.9042 121.3 84.9042ZM128.8 84.8042H124.3V77.1042H125.9V83.5042H129L128.8 84.8042ZM132 81.9042V84.8042H130.4V81.9042L127.9 77.1042H129.7L131.2 80.6042L132.7 77.1042H134.4L132 81.9042ZM137.3 84.8042H135.1V77.1042H137.1C139.1 77.1042 141.1 77.7042 141.1 80.9042C141.1 84.0042 139.2 84.8042 137.3 84.8042ZM146.7 84.8042H142.1V77.1042H146.7L146.5 78.3042H143.7V80.3042H146.1V81.5042H143.7V83.6042H146.7V84.8042Z" fill="#F4F5FF"/>
</svg>
