<svg width="224" height="77" viewBox="0 0 224 77" fill="none" xmlns="http://www.w3.org/2000/svg">
<path d="M49.9 11.4906C31.9 11.4906 17.4 25.9906 17.4 43.9906C17.4 49.4906 18.7 54.6906 21.1 59.1906C19.9 59.1906 18.6 58.9906 17.4 58.5906C3.4 53.9906 1 39.9906 6.5 30.9906C8.8 27.1906 11.5 24.2906 12.2 23.4906C12.5 23.0906 12.5 22.4906 12.1 22.2906C12 22.2906 12 22.1906 11.9 22.0906L13.2 20.4906C13.3 20.5906 13.4 20.7906 13.5 20.8906L14.6 22.3906C14.9 22.7906 15.5 22.6906 15.7 22.1906L16.7 18.4906C16.7 18.2906 16.8 18.0906 16.9 17.9906L27 5.39057C27.3 5.09057 27.5 4.69057 27.6 4.29057L28.9 0.790569C29.1 0.290569 28.6 -0.209431 28.1 0.0905694L24.6 2.09057C24.3 2.29057 24.1 2.49057 23.9 2.79057L13.7 15.3906C13.6 15.5906 13.4 15.6906 13.2 15.7906L9.7 17.4906C9.2 17.6906 9.3 18.3906 9.7 18.5906L11.1 19.0906C11.2 19.0906 11.3 19.1906 11.4 19.1906L10.2 20.5906C10.2 20.5906 10.1 20.5906 10.1 20.4906C9.7 20.1906 9.1 20.1906 8.9 20.5906C7 22.8906 0 29.4906 0 39.7906C0.1 57.2906 16 60.7906 22.7 61.4906C28.5 70.3906 38.6 76.2906 50 76.2906C68 76.2906 82.5 61.7906 82.5 43.7906C82.5 25.7906 67.9 11.4906 49.9 11.4906ZM91.6 44.5906L90.2 43.9906C89.4 43.5906 89 43.1906 89 42.6906C89 41.9906 89.5 41.4906 90.2 41.4906C90.8 41.4906 91.3 41.7906 91.6 42.4906L91.7 42.6906L93 41.7906L92.9 41.5906C92.5 40.4906 91.6 39.9906 90.3 39.9906C88.6 39.9906 87.3 41.1906 87.3 42.6906C87.3 43.8906 88 44.8906 89.4 45.4906L90.6 45.9906C91.6 46.3906 91.9 46.9906 91.9 47.6906C91.9 48.6906 91.2 49.1906 90.2 49.1906C89.3 49.1906 88.8 48.5906 88.5 47.5906L88.4 47.3906L87 48.1906L87.1 48.3906C87.5 49.8906 88.6 50.8906 90.4 50.8906C92.4 50.8906 93.8 49.5906 93.8 47.5906C93.7 46.1906 93.1 45.1906 91.6 44.5906ZM99.4 49.2906C98.2 49.2906 97.5 48.3906 97.5 47.2906C97.5 46.0906 98.3 45.1906 99.5 45.1906C100.1 45.1906 100.6 45.3906 101 45.6906L101.4 45.9906V44.2906L101.3 44.1906C100.7 43.8906 100 43.6906 99.3 43.6906C97.3 43.6906 95.8 45.0906 95.8 47.2906C95.8 49.3906 97.1 50.7906 99.2 50.7906C100.1 50.7906 100.7 50.5906 101.4 50.2906L101.5 50.1906V48.3906L101.1 48.6906C100.6 49.1906 100 49.2906 99.4 49.2906ZM107.3 43.7906C106.3 43.7906 105.5 44.1906 104.8 44.8906C104.1 45.5906 103.7 46.3906 103.7 47.3906C103.7 48.3906 104.1 49.1906 104.8 49.8906C105.5 50.5906 106.3 50.9906 107.3 50.9906C108.3 50.9906 109.1 50.5906 109.8 49.8906C110.5 49.1906 110.9 48.3906 110.9 47.3906C110.9 46.3906 110.5 45.5906 109.8 44.8906C109.1 44.0906 108.3 43.7906 107.3 43.7906ZM107.3 49.2906C106.1 49.2906 105.3 48.3906 105.3 47.1906C105.3 45.9906 106.2 45.0906 107.3 45.0906C108.4 45.0906 109.2 45.9906 109.2 47.1906C109.2 48.4906 108.3 49.2906 107.3 49.2906ZM113.8 50.5906H115.4V45.2906H116.5V43.9906H115.4V41.4906H113.8V43.9906H112.7V45.2906H113.8V50.5906ZM121.7 43.9906H120.6V41.4906H119V43.9906H118V45.2906H119V50.5906H120.6V45.2906H121.7V43.9906ZM124.1 43.9906H125.6V50.5906H124.1V43.9906ZM124.9 42.1906C125.5 42.1906 125.9 41.6906 125.9 41.1906C125.9 40.5906 125.4 40.0906 124.9 40.0906C124.4 40.0906 123.9 40.5906 123.9 41.0906C123.9 41.7906 124.3 42.1906 124.9 42.1906ZM133.5 48.6906C133.5 47.4906 132.7 47.0906 131.6 46.6906L131.2 46.5906C130.3 46.2906 130.1 46.1906 130.1 45.8906C130.1 45.4906 130.4 45.1906 130.9 45.1906C131.5 45.1906 131.9 45.4906 132.1 45.9906L132.2 46.2906L133.4 45.4906L133.3 45.2906C132.9 44.3906 132.1 43.9906 130.9 43.9906C129.5 43.9906 128.5 44.8906 128.5 46.0906C128.5 47.3906 129.5 47.6906 130.9 48.1906L131.1 48.2906C131.8 48.4906 131.9 48.6906 131.9 48.9906C131.9 49.3906 131.5 49.6906 131 49.6906C130.4 49.6906 129.9 49.3906 129.7 48.7906L129.6 48.5906L128.4 49.4906L128.5 49.6906C129 50.6906 129.9 51.0906 131.1 51.0906C132.6 50.7906 133.5 49.8906 133.5 48.6906ZM139.8 43.7906C139 43.7906 138.4 44.0906 137.8 44.5906V39.7906H136.3V50.6906H137.8V47.1906C137.8 46.4906 137.8 46.0906 138.1 45.7906C138.4 45.3906 138.9 45.1906 139.4 45.1906C140.4 45.1906 140.7 45.6906 140.7 46.7906V50.5906H142.2V46.1906C142.4 44.5906 141.4 43.7906 139.8 43.7906ZM155.4 44.5906L154 43.9906C153.2 43.5906 152.8 43.1906 152.8 42.6906C152.8 41.9906 153.3 41.4906 154 41.4906C154.6 41.4906 155.1 41.7906 155.4 42.4906L155.5 42.6906L156.8 41.7906L156.7 41.5906C156.2 40.4906 155.3 39.9906 153.9 39.9906C152.2 39.9906 150.9 41.1906 150.9 42.6906C150.9 43.8906 151.6 44.8906 153 45.4906L154.2 45.9906C155.2 46.3906 155.5 46.9906 155.5 47.6906C155.5 48.6906 154.8 49.1906 153.8 49.1906C152.9 49.1906 152.4 48.5906 152.1 47.5906L152 47.2906L150.5 48.0906V48.2906C150.9 49.7906 152 50.7906 153.8 50.7906C155.8 50.7906 157.2 49.4906 157.2 47.4906C157.4 46.1906 156.7 45.1906 155.4 44.5906ZM163.5 43.7906C162.7 43.7906 162.1 44.0906 161.5 44.6906V43.9906H160.1V53.5906H161.6V49.9906C162.1 50.5906 162.8 50.8906 163.6 50.8906C165.5 50.8906 166.8 49.5906 166.8 47.2906C166.7 45.0906 165.5 43.7906 163.5 43.7906ZM165.1 47.3906C165.1 48.5906 164.4 49.2906 163.4 49.2906C162.2 49.2906 161.6 48.4906 161.6 47.2906C161.6 45.9906 162.3 45.2906 163.4 45.2906C164.5 45.1906 165.1 45.9906 165.1 47.3906ZM174.2 49.8906V50.5906H175.7V43.9906H174.2V44.5906C173.7 43.9906 173 43.6906 172.2 43.6906C170.3 43.6906 169.1 44.9906 169.1 47.2906C169.1 49.3906 170.3 50.8906 172.3 50.8906C173 50.7906 173.7 50.4906 174.2 49.8906ZM170.6 47.1906C170.6 45.9906 171.3 45.2906 172.3 45.2906C173.4 45.2906 174.1 46.0906 174.1 47.2906C174.1 48.4906 173.4 49.2906 172.4 49.2906C171.3 49.2906 170.6 48.5906 170.6 47.1906ZM184.2 50.1906V48.3906L183.8 48.6906C183.2 49.1906 182.6 49.3906 182.1 49.3906C180.9 49.3906 180.2 48.4906 180.2 47.3906C180.2 46.1906 181 45.2906 182.2 45.2906C182.8 45.2906 183.3 45.4906 183.7 45.7906L184.1 46.0906V44.3906L184 44.1906C183.4 43.8906 182.8 43.6906 182 43.6906C180 43.6906 178.5 45.0906 178.5 47.2906C178.5 49.3906 179.8 50.7906 181.9 50.7906C182.8 50.6906 183.4 50.4906 184.2 50.1906ZM192.9 48.8906L191.7 48.0906L191.6 48.2906C191.1 49.0906 190.5 49.4906 189.9 49.4906C188.8 49.4906 188.2 48.7906 188.1 47.6906H192.9V47.1906C192.9 45.0906 191.7 43.6906 189.7 43.6906C187.7 43.6906 186.4 45.0906 186.4 47.2906C186.4 49.3906 187.7 50.8906 189.8 50.8906C191.1 50.8906 192.2 50.2906 192.9 49.0906V48.8906ZM189.6 45.0906C190.5 45.0906 191 45.4906 191.2 46.2906H188C188.1 45.5906 188.7 45.0906 189.6 45.0906ZM89.4 57.5906H87.8V67.8906H93.2V66.2906H89.4V57.5906ZM99.9 65.5906C99.4 66.3906 98.8 66.7906 98.2 66.7906C97.1 66.7906 96.5 66.0906 96.4 64.9906H101.2V64.4906C101.2 62.3906 100 60.9906 98 60.9906C96.1 60.9906 94.7 62.3906 94.7 64.5906C94.7 66.6906 96 68.1906 98.1 68.1906C99.4 68.1906 100.5 67.5906 101.2 66.3906L101.3 66.1906L100.1 65.3906L99.9 65.5906ZM98 62.3906C98.9 62.3906 99.4 62.7906 99.6 63.5906H96.4C96.6 62.8906 97.2 62.3906 98 62.3906ZM108.3 61.7906C107.8 61.1906 107.1 60.8906 106.3 60.8906C104.4 60.8906 103.2 62.1906 103.2 64.4906C103.2 66.5906 104.4 68.0906 106.4 68.0906C107.2 68.0906 107.8 67.7906 108.4 67.1906V67.8906H109.9V61.2906H108.4L108.3 61.7906ZM108.3 64.5906C108.3 65.7906 107.6 66.5906 106.6 66.5906C105.4 66.5906 104.8 65.7906 104.8 64.4906C104.8 63.2906 105.5 62.5906 106.5 62.5906C107.7 62.4906 108.3 63.3906 108.3 64.5906ZM117.5 61.7906C117 61.1906 116.3 60.8906 115.5 60.8906C113.6 60.8906 112.3 62.1906 112.3 64.4906C112.3 66.5906 113.5 68.0906 115.5 68.0906C116.3 68.0906 116.9 67.7906 117.5 67.1906V67.8906H119V56.9906H117.5V61.7906ZM117.6 64.5906C117.6 65.7906 116.9 66.5906 115.8 66.5906C114.6 66.5906 114.1 65.7906 114.1 64.3906C114.1 63.1906 114.8 62.4906 115.8 62.4906C116.8 62.4906 117.6 63.3906 117.6 64.5906ZM126.7 65.5906C126.2 66.3906 125.6 66.7906 125 66.7906C123.9 66.7906 123.3 66.0906 123.2 64.9906H128V64.4906C128 62.3906 126.8 60.9906 124.8 60.9906C122.9 60.9906 121.5 62.3906 121.5 64.5906C121.5 66.6906 122.8 68.1906 124.9 68.1906C126.2 68.1906 127.3 67.5906 128 66.3906L128.1 66.1906L126.9 65.3906L126.7 65.5906ZM124.8 62.3906C125.7 62.3906 126.2 62.7906 126.4 63.5906H123.1C123.3 62.8906 124 62.3906 124.8 62.3906ZM133.7 61.0906C132.9 61.0906 132.4 61.3906 131.9 61.9906V61.2906H130.5V67.8906H132V64.5906C132 62.6906 132.8 62.4906 133.4 62.4906C133.6 62.4906 133.8 62.4906 134 62.5906L134.2 62.6906L134.7 61.2906L134.5 61.1906C134.2 61.0906 134 61.0906 133.7 61.0906ZM139.2 63.8906L138.8 63.7906C137.9 63.4906 137.7 63.3906 137.7 63.0906C137.7 62.6906 138 62.3906 138.5 62.3906C139.1 62.3906 139.5 62.6906 139.7 63.1906L139.8 63.4906L141 62.6906L140.9 62.4906C140.5 61.5906 139.7 61.1906 138.5 61.1906C137.1 61.1906 136.1 62.0906 136.1 63.2906C136.1 64.5906 137.1 64.8906 138.5 65.3906L138.7 65.4906C139.4 65.6906 139.5 65.8906 139.5 66.1906C139.5 66.5906 139.1 66.8906 138.6 66.8906C138 66.8906 137.5 66.5906 137.3 65.9906L137.2 65.7906L136 66.6906L136.1 66.8906C136.6 67.8906 137.5 68.2906 138.7 68.2906C140.1 68.2906 141.2 67.3906 141.2 66.0906C141.1 64.6906 140.4 64.1906 139.2 63.8906ZM147.1 61.0906C146.3 61.0906 145.7 61.3906 145.1 61.8906V57.0906H143.6V67.9906H145.1V64.5906C145.1 63.8906 145.1 63.4906 145.4 63.1906C145.7 62.7906 146.2 62.5906 146.7 62.5906C147.7 62.5906 148 63.0906 148 64.1906V67.9906H149.5V63.5906C149.6 61.8906 148.6 61.0906 147.1 61.0906ZM153.4 57.4906C152.8 57.4906 152.4 57.9906 152.4 58.4906C152.4 59.0906 152.9 59.4906 153.4 59.4906C153.9 59.4906 154.4 58.9906 154.4 58.4906C154.4 57.9906 153.9 57.4906 153.4 57.4906ZM152.7 61.2906H154.2V67.8906H152.7V61.2906ZM160.7 61.0906C159.9 61.0906 159.3 61.3906 158.7 61.9906V61.2906H157.3V70.8906H158.8V67.2906C159.3 67.8906 160 68.1906 160.8 68.1906C162.7 68.1906 164 66.8906 164 64.5906C163.9 62.3906 162.7 61.0906 160.7 61.0906ZM162.3 64.6906C162.3 65.8906 161.6 66.5906 160.6 66.5906C159.4 66.5906 158.8 65.7906 158.8 64.5906C158.8 63.2906 159.5 62.5906 160.6 62.5906C161.7 62.4906 162.3 63.2906 162.3 64.6906ZM177 57.2906C175.6 57.2906 174.2 57.7906 173.2 58.7906C172.2 59.7906 171.6 61.0906 171.6 62.6906C171.6 64.4906 172.5 66.0906 173.9 67.0906C174.8 67.6906 175.8 68.0906 176.9 68.0906C178.1 68.0906 179.3 67.6906 180.4 66.8906L180.5 66.7906V64.4906L180.1 64.9906C179.2 65.9906 178.3 66.3906 177.1 66.3906C175.9 66.3906 174.7 65.7906 174 64.7906C173.6 64.1906 173.3 63.4906 173.3 62.5906C173.3 61.4906 173.7 60.5906 174.4 59.8906C175.1 59.1906 176 58.6906 177 58.6906C178.2 58.6906 179.2 59.1906 180.1 60.0906L180.5 60.5906V58.2906L180.4 58.1906C179.2 57.6906 178.1 57.2906 177 57.2906ZM186.2 61.0906C185.2 61.0906 184.4 61.4906 183.7 62.1906C183 62.8906 182.6 63.6906 182.6 64.6906C182.6 65.6906 183 66.4906 183.7 67.1906C184.4 67.8906 185.2 68.2906 186.2 68.2906C187.2 68.2906 188 67.8906 188.7 67.1906C189.4 66.4906 189.8 65.6906 189.8 64.6906C189.8 63.6906 189.4 62.8906 188.7 62.1906C188 61.3906 187.2 61.0906 186.2 61.0906ZM186.2 66.6906C185 66.6906 184.2 65.7906 184.2 64.5906C184.2 63.3906 185.1 62.4906 186.2 62.4906C187.3 62.4906 188.1 63.3906 188.1 64.5906C188.2 65.7906 187.4 66.6906 186.2 66.6906ZM196.7 64.4906C196.7 66.0906 196.3 66.5906 195.3 66.5906C194.1 66.5906 193.9 66.0906 193.9 64.4906V61.1906H192.4V64.9906C192.4 66.8906 193.5 68.0906 195.4 68.0906C197.3 68.0906 198.5 66.9906 198.5 64.9906V61.1906H197L196.7 64.4906ZM204.7 61.0906C203.9 61.0906 203.3 61.3906 202.7 61.8906V61.3906H201.2V67.8906H202.7V64.4906C202.7 63.7906 202.7 63.3906 203 63.0906C203.3 62.6906 203.8 62.4906 204.3 62.4906C205.3 62.4906 205.6 62.9906 205.6 64.0906V67.8906H207.1V63.4906C207.3 61.8906 206.3 61.0906 204.7 61.0906ZM213.2 66.6906C212 66.6906 211.3 65.7906 211.3 64.6906C211.3 63.4906 212.1 62.5906 213.3 62.5906C213.9 62.5906 214.4 62.7906 214.8 63.0906L215.2 63.3906V61.6906L215.1 61.5906C214.5 61.2906 213.9 61.0906 213.1 61.0906C211.1 61.0906 209.6 62.4906 209.6 64.6906C209.6 66.7906 210.9 68.1906 213 68.1906C213.9 68.1906 214.5 67.9906 215.2 67.6906L215.3 67.5906V65.7906L214.9 66.0906C214.4 66.4906 213.8 66.6906 213.2 66.6906ZM217.8 61.2906H219.3V67.8906H217.8V61.2906ZM218.5 57.4906C217.9 57.4906 217.5 57.9906 217.5 58.4906C217.5 59.0906 218 59.4906 218.5 59.4906C219 59.4906 219.5 58.9906 219.5 58.4906C219.6 57.9906 219.1 57.4906 218.5 57.4906ZM222.5 56.9906H224V67.8906H222.5V56.9906Z" fill="#F4F5FF"/>
</svg>
