<svg width="180" height="90" viewBox="0 0 180 90" fill="none" xmlns="http://www.w3.org/2000/svg">
<path d="M43.3999 31.0998C44.3999 32.4998 44.2999 32.5998 43.1999 32.7998C42.7999 32.7998 42.3999 32.4998 42.1999 31.7998C41.9999 30.9998 41.7999 30.1998 41.4999 29.3998C41.1999 28.7998 41.5999 28.3998 41.9999 28.0998C42.3999 27.7998 42.7999 27.8998 43.0999 28.2998C43.2999 28.5998 43.4999 28.6998 43.8999 28.3998C45.0999 27.6998 45.9999 28.2998 46.0999 29.5998C46.0999 29.7998 46.0999 30.0998 46.2999 30.2998C46.5999 30.4998 46.6999 30.2998 46.8999 30.0998C47.0999 29.7998 47.4999 29.5998 47.7999 29.7998C47.5999 30.1998 48.2999 30.4998 47.7999 30.9998C47.3999 31.4998 47.0999 31.9998 46.6999 32.4998C46.3999 32.8998 46.1999 32.8998 45.7999 32.4998C45.1999 31.7998 44.5999 30.9998 43.3999 31.0998ZM35.0999 45.4998C34.9999 44.8998 35.4999 44.8998 35.7999 44.6998C36.9999 43.9998 38.2999 43.7998 39.5999 43.8998C39.7999 43.8998 39.9999 43.8998 40.0999 44.0998C40.0999 44.2998 40.0999 44.3998 39.7999 44.4998C38.6999 44.8998 37.9999 45.9998 37.0999 46.6998C35.9999 47.5998 34.8999 47.3998 34.3999 45.8998C34.5999 45.7998 35.0999 45.7998 35.0999 45.4998ZM45.3999 42.9998C45.1999 42.9998 44.3999 42.4998 44.5999 43.5998C44.5999 43.5998 44.3999 43.6998 44.2999 43.5998C43.9999 43.4998 43.9999 43.2998 43.9999 42.9998C44.1999 41.9998 45.6999 41.2998 46.5999 41.7998C46.7999 41.8998 47.2999 42.0998 47.1999 42.4998C47.0999 42.8998 46.7999 42.8998 46.3999 42.8998C46.1999 42.8998 45.8999 42.8998 45.3999 42.9998ZM49.6999 15.4998C48.8999 15.4998 48.3999 14.9998 47.6999 14.7998C47.3999 14.6998 46.8999 14.6998 46.6999 15.1998C46.5999 15.5998 46.2999 15.8998 46.1999 16.0998C45.7999 16.1998 46.1999 14.7998 45.2999 15.6998C44.4999 16.4998 43.1999 16.7998 43.8999 18.3998C43.8999 18.4998 43.7999 18.6998 43.7999 18.8998C43.3999 19.8998 42.3999 20.5998 42.2999 21.7998C42.2999 21.8998 42.1999 21.9998 42.1999 21.9998C40.6999 21.5998 41.7999 22.6998 41.5999 23.0998C41.2999 23.2998 41.0999 23.4998 41.2999 23.8998C40.7999 24.6998 41.6999 24.8998 42.0999 25.2998C42.4999 25.6998 42.9999 25.4998 43.2999 24.9998C43.3999 24.7998 43.6999 24.2998 43.8999 24.7998C44.1999 25.5998 44.8999 25.3998 45.3999 25.6998C45.7999 25.8998 46.3999 25.5998 46.6999 25.0998C46.7999 24.8998 46.9999 24.5998 46.5999 24.2998C45.6999 23.6998 45.7999 23.5998 46.5999 22.7998C47.0999 22.3998 47.9999 22.7998 48.0999 21.8998C48.1999 20.9998 47.8999 20.3998 46.6999 20.5998C47.2999 20.2998 47.7999 20.4998 48.2999 20.5998C48.3999 20.5998 48.4999 20.4998 48.4999 20.3998V20.2998C48.3999 19.8998 47.8999 19.4998 48.1999 19.0998C48.4999 18.6998 48.9999 19.0998 49.3999 19.1998C49.4999 19.1998 49.5999 19.1998 49.6999 19.0998C49.8999 18.0998 48.9999 17.0998 49.9999 16.0998C50.3999 15.8998 49.9999 15.4998 49.6999 15.4998Z" fill="#F4F5FF"/>
<path d="M41.5998 22.9999C41.5998 23.2999 41.3998 23.4999 41.2998 23.7999L40.8998 23.3999V23.2999L40.9998 23.1999C41.1998 23.1999 41.0998 22.2999 41.5998 22.9999ZM38.4998 26.8999C38.4998 26.7999 38.4998 26.7999 38.4998 26.8999C38.4998 26.7999 38.4998 26.7999 38.4998 26.8999ZM40.8998 22.2999C41.0998 21.5999 40.9998 21.0999 40.2998 20.9999C39.2998 20.8999 38.2998 20.4999 37.3998 20.2999C37.0998 20.1999 36.5998 20.2999 36.2998 20.8999C35.7998 21.7999 35.8998 22.8999 35.5998 23.7999C35.2998 24.6999 34.8998 25.5999 34.5998 26.5999C34.0998 25.9999 34.9998 25.3999 34.3998 24.9999C34.0998 25.2999 33.5998 25.5999 33.3998 25.8999C32.8998 26.6999 31.8998 27.8999 32.0998 28.4999C32.4998 29.5999 30.9998 30.4999 32.1998 31.3999C31.4998 32.3999 31.8998 33.5999 31.9998 34.5999C32.0998 36.0999 33.3998 36.6999 34.6998 35.7999C34.8998 35.6999 34.9998 35.7999 35.1998 35.8999C36.6998 36.6999 36.7998 36.6999 37.1998 35.1999C37.1998 34.9999 37.3998 34.7999 37.4998 34.6999C37.7998 34.2999 37.8998 33.9999 37.4998 33.5999C37.2998 33.3999 36.9998 32.8999 37.5998 32.7999C38.3998 32.5999 38.4998 32.2999 39.0998 31.0999C39.4998 30.1999 38.5998 30.2999 38.3998 29.8999C37.9998 29.7999 38.0998 29.2999 37.7998 29.1999C37.9998 29.1999 38.1998 29.1999 38.3998 29.0999C38.4998 28.8999 38.6998 28.7999 38.8998 28.5999C39.4998 27.7999 38.7998 27.2999 38.3998 26.6999C38.0998 26.3999 38.1998 25.9999 38.2998 25.3999C38.4998 25.9999 38.4998 26.2999 38.3998 26.6999C38.8998 26.4999 38.9998 27.0999 39.3998 27.1999C40.2998 27.4999 40.2998 27.4999 40.1998 26.4999V26.3999C40.8998 25.3999 40.3998 24.1999 40.7998 23.1999H40.8998V23.0999C40.8998 22.8999 40.7998 22.5999 40.8998 22.2999ZM35.0998 28.3999V27.5999C35.5998 27.8999 35.2998 28.1999 35.0998 28.3999Z" fill="#F4F5FF"/>
<path d="M16.0999 55.2998C16.0999 55.2998 16.1999 55.2998 16.1999 55.3998L16.0999 55.2998ZM22.3999 68.9998L22.2999 69.0998C22.3999 69.0998 22.3999 69.0998 22.3999 68.9998Z" fill="#F4F5FF"/>
<path d="M35.6999 39.0998C35.3999 38.6998 34.9999 38.8998 34.6999 39.1998C33.8999 39.8998 32.7999 40.0998 31.9999 40.8998C31.9999 41.0998 31.9999 41.3998 32.3999 41.4998C31.1999 42.0998 31.0999 40.7998 30.3999 40.4998C31.7999 40.4998 31.5999 39.2998 31.3999 38.6998C31.2999 38.2998 31.4999 37.9998 31.4999 37.6998V37.5998C31.0999 37.2998 30.6999 36.9998 30.7999 36.3998C30.9999 35.6998 30.2999 35.3998 29.8999 35.0998C29.4999 34.7998 29.1999 35.2998 28.9999 35.4998C28.8999 35.5998 28.6999 35.9998 28.4999 35.5998C28.0999 34.9998 27.7999 35.2998 27.4999 35.6998C27.2999 35.9998 27.0999 36.1998 26.7999 35.9998C26.7999 35.4998 27.5999 34.7998 26.4999 34.4998C26.1999 34.3998 26.3999 34.1998 26.4999 33.9998C27.0999 33.1998 27.1999 32.4998 26.5999 31.8998C26.9999 31.6998 27.6999 32.2998 27.7999 31.2998C27.8999 30.0998 27.8999 28.8998 28.7999 27.7998C29.2999 27.1998 29.1999 26.4998 29.0999 25.6998C29.0999 25.2998 28.7999 25.2998 28.6999 25.3998C28.1999 25.6998 27.4999 25.4998 27.1999 26.0998C26.6999 27.0998 26.1999 26.5998 25.5999 26.2998C25.2999 26.0998 24.9999 25.8998 24.7999 25.5998C24.5999 25.3998 24.3999 25.2998 24.1999 25.4998C24.0999 25.5998 24.0999 25.9998 24.0999 26.0998C23.8999 26.9998 23.6999 27.9998 23.1999 28.5998C22.6999 29.0998 21.9999 29.6998 21.1999 29.7998C20.9999 30.2998 20.9999 30.8998 21.2999 31.3998C20.8999 31.0998 20.0999 30.9998 20.5999 30.0998C20.7999 29.7998 20.3999 29.3998 20.0999 29.0998C19.0999 29.4998 18.1999 30.0998 18.0999 31.3998C18.0999 31.7998 17.5999 32.1998 17.3999 32.0998C15.9999 30.9998 16.0999 32.8998 15.3999 33.0998C15.2999 33.0998 14.9999 33.6998 15.2999 33.9998C15.4999 34.1998 15.7999 34.5998 16.1999 34.3998C16.7999 33.9998 17.5999 34.5998 18.0999 33.9998C18.1999 33.8998 19.5999 34.8998 19.5999 34.8998C19.1999 35.3998 19.6999 35.7998 19.6999 36.2998C20.6999 36.2998 20.6999 35.1998 21.2999 34.6998C20.8999 35.6998 21.5999 36.6998 21.1999 37.6998C20.8999 38.3998 21.1999 39.1998 21.8999 39.6998C22.2999 39.6998 22.0999 38.7998 22.8999 39.1998C22.4999 39.1998 22.2999 39.3998 22.2999 39.5998C22.3999 40.4998 22.0999 40.5998 21.1999 40.4998C20.4999 40.3998 19.9999 40.9998 19.5999 41.6998C19.7999 42.4998 19.8999 43.4998 20.8999 43.8998C21.1999 43.8998 21.4999 43.6998 21.7999 43.8998C21.9999 43.5998 22.1999 43.6998 22.4999 43.6998C23.2999 42.9998 23.1999 41.6998 24.0999 41.0998C24.5999 41.7998 23.2999 41.9998 23.6999 42.6998L24.5999 42.9998C24.9999 42.8998 25.4999 42.5998 25.8999 43.1998H24.5999C24.4999 43.2998 24.1999 43.0998 24.1999 43.4998C24.2999 44.2998 23.7999 43.9998 23.3999 43.8998C23.1999 43.9998 22.9999 44.4998 22.6999 43.9998C21.5999 43.7998 21.7999 44.9998 21.0999 45.3998C20.9999 44.9998 20.8999 44.6998 20.4999 44.5998C20.2999 44.1998 19.5999 44.0998 19.5999 43.4998C18.8999 43.4998 18.4999 43.7998 18.4999 44.4998C18.4999 44.8998 18.2999 44.7998 17.9999 44.8998C17.2999 44.9998 16.1999 44.3998 15.8999 45.3998C15.6999 46.2998 15.0999 45.6998 14.9999 45.5998C14.1999 44.3998 12.8999 44.9998 11.7999 44.7998C10.8999 44.5998 10.1999 45.5998 10.4999 46.4998C10.5999 46.6998 10.4999 46.8998 10.4999 46.9998C9.69993 48.5998 9.69993 49.0998 10.8999 50.0998C11.0999 50.2998 11.1999 50.4998 11.2999 50.7998C11.6999 51.8998 12.4999 52.0998 13.2999 51.2998C13.4999 51.0998 13.6999 51.0998 13.8999 51.1998C14.0999 51.2998 14.4999 51.1998 14.3999 51.5998C14.1999 52.1998 14.5999 52.5998 14.4999 53.0998C14.3999 54.1998 15.8999 54.3998 15.7999 55.3998H16.1999C16.5999 55.2998 16.8999 55.5998 17.0999 55.7998C17.2999 55.8998 16.9999 56.4998 17.4999 56.2998C17.7999 56.1998 17.7999 55.8998 17.7999 55.5998C17.7999 55.3998 17.7999 55.0998 17.8999 54.8998C18.1999 54.5998 18.2999 54.8998 18.2999 55.0998C18.9999 55.5998 19.7999 55.2998 19.8999 54.3998C19.8999 53.8998 19.8999 53.5998 20.3999 53.6998C20.3999 53.2998 20.5999 53.1998 20.8999 53.1998C21.4999 53.2998 20.6999 53.7998 21.1999 54.0998C21.7999 53.6998 21.5999 53.0998 21.5999 52.4998C21.1999 52.1998 21.2999 51.7998 21.3999 51.3998C21.7999 51.7998 21.5999 52.1998 21.5999 52.4998V52.3998V52.4998C22.0999 52.6998 21.5999 53.2998 21.8999 53.5998C22.1999 53.6998 22.1999 53.1998 22.4999 53.1998C22.6999 52.8998 22.8999 52.5998 23.3999 52.4998C23.4999 52.8998 23.2999 53.1998 22.9999 53.4998C22.5999 53.6998 22.8999 54.1998 22.4999 54.3998C22.2999 54.8998 21.5999 55.3998 22.3999 55.7998C23.1999 56.1998 22.4999 56.6998 22.6999 57.0998C22.7999 57.6998 22.5999 58.3998 22.2999 58.5998C21.6999 59.1998 20.1999 58.7998 20.6999 60.2998C19.4999 60.7998 19.8999 62.3998 18.6999 62.8998C18.3999 62.9998 18.3999 63.4998 18.6999 63.5998C19.3999 63.6998 20.0999 64.2998 20.8999 63.5998C21.1999 64.3998 20.6999 64.6998 20.0999 64.8998C19.8999 64.8998 19.4999 64.7998 19.6999 65.0998C20.2999 66.1998 18.9999 66.5998 18.8999 67.4998C18.7999 68.4998 18.2999 68.4998 18.8999 69.2998C18.0999 68.7998 17.9999 69.4998 17.6999 69.9998C17.3999 70.5998 17.3999 71.2998 16.5999 71.6998C16.0999 71.9998 16.4999 72.8998 16.3999 73.5998C16.9999 73.4998 17.3999 74.1998 17.9999 73.9998C18.2999 73.8998 18.0999 73.0998 18.5999 73.6998C18.7999 73.9998 18.9999 74.2998 18.6999 74.6998C18.3999 75.1998 18.3999 75.8998 19.0999 75.7998C19.6999 75.6998 19.4999 75.7998 19.5999 76.1998C19.5999 76.4998 19.4999 76.7998 19.9999 76.7998C20.3999 76.7998 20.4999 76.4998 20.5999 76.1998C20.7999 75.4998 20.3999 74.5998 20.8999 73.9998C21.2999 73.4998 20.8999 72.7998 21.1999 72.3998C21.8999 71.4998 22.1999 70.4998 22.3999 69.3998C22.3999 69.0998 22.4999 68.6998 22.1999 68.3998C22.0999 68.2998 21.7999 68.0998 22.1999 67.9998C22.3999 67.9998 22.5999 67.5998 22.8999 67.9998C23.2999 68.4998 23.2999 68.3998 23.7999 67.8998C23.7999 67.9998 23.7999 67.9998 23.8999 68.0998C24.0999 68.4998 23.1999 68.9998 23.9999 69.1998C24.7999 69.3998 24.1999 68.4998 24.4999 68.2998C24.6999 68.0998 24.4999 67.7998 24.5999 67.5998C23.7999 65.5998 23.7999 65.5998 25.7999 65.4998C25.9999 65.4998 26.2999 65.5998 26.3999 65.2998C26.3999 64.9998 26.2999 64.9998 26.0999 64.8998C25.7999 64.7998 25.6999 64.4998 25.6999 64.0998C25.5999 62.7998 25.5999 61.4998 26.5999 60.3998C26.6999 60.2998 27.9999 59.6998 27.9999 59.6998C28.2999 59.0998 28.7999 58.6998 29.3999 58.2998C29.3999 58.2998 29.2999 57.9998 29.1999 57.8998C28.3999 57.3998 28.7999 56.7998 29.0999 56.2998C29.3999 55.4998 29.1999 55.0998 28.3999 55.0998C28.1999 55.0998 28.0999 55.0998 28.0999 54.8998C27.9999 54.6998 28.1999 54.6998 28.3999 54.5998C28.5999 54.4998 28.7999 54.2998 28.8999 54.0998V53.7998V53.6998C28.7999 53.0998 28.2999 53.6998 27.9999 53.5998C28.3999 52.6998 28.2999 51.6998 28.1999 50.6998C28.6999 51.1998 28.7999 51.1998 28.5999 51.9998C28.5999 52.4998 28.8999 52.4998 29.0999 52.6998C29.6999 52.6998 29.8999 52.1998 30.1999 51.8998C30.4999 51.5998 30.6999 51.2998 31.1999 51.6998C31.3999 51.7998 31.7999 51.8998 31.9999 51.6998C32.1999 51.3998 32.0999 51.0998 31.9999 50.7998C31.7999 50.1998 31.2999 50.3998 30.8999 50.3998C30.7999 50.3998 30.5999 50.3998 30.4999 50.2998C30.4999 50.1998 30.4999 49.8998 30.5999 49.8998C31.2999 49.6998 31.5999 48.7998 32.4999 49.1998C32.7999 49.3998 33.2999 49.2998 33.1999 49.0998C32.9999 48.4998 33.7999 48.0998 33.3999 47.4998C33.2999 47.3998 33.0999 47.2998 32.9999 47.2998C32.2999 47.4998 31.7999 46.9998 31.2999 46.5998C31.1999 46.4998 31.0999 46.3998 30.8999 46.3998C30.5999 46.2998 30.1999 46.3998 30.3999 45.8998C30.4999 45.4998 30.8999 45.6998 31.1999 45.7998C31.8999 46.0998 32.5999 46.1998 33.2999 45.8998C34.7999 45.8998 34.0999 44.6998 34.4999 43.9998C34.7999 43.2998 34.0999 43.2998 33.7999 42.9998C33.5999 42.9998 33.2999 42.9998 33.0999 43.0998C32.7999 43.0998 32.9999 43.8998 32.4999 43.4998C32.1999 43.1998 32.6999 42.9998 32.8999 42.7998C33.0999 42.4998 33.3999 42.4998 33.7999 42.4998C34.4999 41.9998 35.1999 41.4998 35.7999 40.8998C35.7999 39.9998 35.9999 39.4998 35.6999 39.0998ZM24.0999 40.3998C23.8999 40.3998 23.7999 40.3998 23.7999 40.0998C23.7999 39.8998 23.9999 39.8998 24.0999 39.8998C24.1999 39.8998 24.2999 39.9998 24.3999 39.9998C24.3999 40.3998 24.2999 40.3998 24.0999 40.3998ZM15.2999 51.8998C16.1999 51.2998 16.1999 51.2998 16.6999 51.9998C16.1999 51.9998 15.7999 52.0998 15.2999 51.8998ZM22.3999 46.5998C21.8999 46.6998 22.0999 46.1998 22.1999 45.9998C22.1999 45.7998 21.6999 45.4998 22.2999 45.3998C22.5999 45.2998 22.7999 45.4998 22.6999 45.7998C22.4999 46.0998 22.7999 46.5998 22.3999 46.5998ZM21.5999 62.3998C21.5999 61.8998 21.7999 61.6998 22.1999 61.2998C22.0999 61.7998 22.1999 62.1998 21.5999 62.3998ZM22.7999 60.6998C22.7999 60.6998 22.6999 60.7998 22.6999 60.8998C22.5999 60.7998 22.5999 60.5998 22.4999 60.4998C22.4999 60.3998 22.5999 60.2998 22.6999 60.2998C22.8999 60.1998 22.9999 60.2998 22.7999 60.6998ZM23.1999 59.6998C22.9999 59.2998 23.0999 59.0998 23.4999 58.8998C23.5999 59.1998 23.2999 59.3998 23.1999 59.6998ZM24.8999 38.8998C24.7999 38.8998 24.5999 38.8998 24.6999 38.6998C24.7999 38.4998 24.7999 38.2998 24.9999 38.2998C25.0999 38.2998 25.1999 38.3998 25.2999 38.4998C25.0999 38.5998 24.9999 38.7998 24.8999 38.8998ZM27.3999 37.9998C26.7999 37.8998 26.1999 37.9998 25.2999 38.0998C25.5999 37.4998 26.3999 37.4998 26.1999 36.8998C25.8999 36.3998 26.4999 36.0998 26.5999 35.7998H26.6999V35.8998C26.9999 36.3998 26.4999 37.1998 27.3999 37.3998C27.4999 37.4998 27.7999 37.4998 27.7999 37.5998C27.8999 38.0998 27.4999 38.0998 27.3999 37.9998Z" fill="#F4F5FF"/>
<path d="M56.3999 28.0999L59.2999 27.7999C59.4999 28.7999 59.7999 29.4999 60.3999 29.9999C60.8999 30.4999 61.6999 30.6999 62.5999 30.6999C63.5999 30.6999 64.2999 30.4999 64.7999 30.0999C65.2999 29.6999 65.4999 29.1999 65.4999 28.6999C65.4999 28.3999 65.3999 27.9999 65.1999 27.7999C64.9999 27.5999 64.5999 27.2999 64.0999 27.1999C63.7999 27.0999 62.9999 26.8999 61.6999 26.4999C60.0999 26.0999 58.9999 25.5999 58.2999 24.9999C57.3999 24.1999 56.8999 23.1999 56.8999 21.9999C56.8999 21.1999 57.0999 20.4999 57.4999 19.8999C57.8999 19.1999 58.4999 18.6999 59.2999 18.3999C60.0999 18.0999 61.0999 17.8999 62.1999 17.8999C64.0999 17.8999 65.3999 18.2999 66.3999 19.0999C67.3999 19.9999 67.8999 20.9999 67.8999 22.3999L64.8999 22.4999C64.7999 21.6999 64.4999 21.1999 64.0999 20.8999C63.6999 20.5999 63.0999 20.3999 62.1999 20.3999C61.2999 20.3999 60.6999 20.5999 60.1999 20.8999C59.8999 21.0999 59.6999 21.3999 59.6999 21.7999C59.6999 22.0999 59.7999 22.4999 60.0999 22.6999C60.4999 22.9999 61.3999 23.3999 62.7999 23.6999C64.2999 23.9999 65.2999 24.3999 65.9999 24.7999C66.6999 25.1999 67.1999 25.6999 67.5999 26.2999C67.9999 26.8999 68.1999 27.6999 68.1999 28.5999C68.1999 29.3999 67.9999 30.1999 67.4999 30.9999C66.9999 31.7999 66.3999 32.2999 65.4999 32.5999C64.5999 32.9999 63.5999 33.0999 62.2999 33.0999C60.3999 33.0999 58.9999 32.6999 57.9999 31.7999C57.1999 30.9999 56.5999 29.7999 56.3999 28.0999ZM70.8999 32.9999V18.1999H73.8999V23.9999H79.6999V18.1999H82.6999V32.9999H79.6999V26.4999H73.8999V32.9999H70.8999ZM85.7999 32.9999V18.1999H96.7999V20.6999H88.7999V23.9999H96.1999V26.4999H88.7999V30.4999H97.0999V32.9999H85.7999ZM102.9 32.9999V20.6999H98.4999V18.1999H110.2V20.6999H105.8V32.9999H102.9ZM112.2 32.9999V18.2999H115.2V30.4999H122.6V32.9999H112.2ZM138.1 32.9999H134.9L133.6 29.5999H127.7L126.5 32.9999H123.3L129.1 18.1999H132.2L138.1 32.9999ZM132.6 27.0999L130.6 21.5999L128.6 27.0999H132.6ZM139.7 32.9999V18.1999H142.6L148.6 28.0999V18.1999H151.4V32.9999H148.4L142.4 23.3999V32.9999H139.7ZM154.5 18.1999H159.9C161.1 18.1999 162.1 18.2999 162.7 18.4999C163.6 18.7999 164.3 19.1999 164.9 19.8999C165.5 20.5999 166 21.3999 166.3 22.2999C166.6 23.1999 166.8 24.3999 166.8 25.7999C166.8 26.9999 166.7 28.0999 166.3 28.8999C165.9 29.9999 165.4 30.7999 164.7 31.4999C164.2 31.9999 163.5 32.3999 162.6 32.6999C161.9 32.8999 161.1 32.9999 160 32.9999H154.4L154.5 18.1999ZM157.5 20.6999V30.4999H159.7C160.5 30.4999 161.1 30.4999 161.5 30.3999C162 30.2999 162.4 30.0999 162.7 29.7999C163 29.4999 163.3 28.9999 163.5 28.3999C163.7 27.6999 163.8 26.7999 163.8 25.6999C163.8 24.5999 163.7 23.6999 163.5 23.0999C163.3 22.4999 163 21.9999 162.7 21.6999C162.3 21.3999 161.9 21.0999 161.3 20.9999C160.9 20.8999 160.1 20.8999 158.9 20.8999L157.5 20.6999ZM56.3999 46.9999L59.2999 46.6999C59.4999 47.6999 59.7999 48.3999 60.3999 48.8999C60.8999 49.3999 61.6999 49.5999 62.5999 49.5999C63.5999 49.5999 64.2999 49.3999 64.7999 48.9999C65.2999 48.5999 65.4999 48.0999 65.4999 47.5999C65.4999 47.2999 65.3999 46.8999 65.1999 46.6999C64.9999 46.4999 64.5999 46.1999 64.0999 46.0999C63.7999 45.9999 62.9999 45.7999 61.6999 45.3999C60.0999 44.9999 58.9999 44.4999 58.2999 43.8999C57.3999 43.0999 56.8999 42.0999 56.8999 40.8999C56.8999 40.0999 57.0999 39.3999 57.4999 38.7999C57.8999 38.0999 58.4999 37.5999 59.2999 37.2999C60.0999 36.9999 61.0999 36.7999 62.1999 36.7999C64.0999 36.7999 65.3999 37.1999 66.3999 37.9999C67.2999 38.7999 67.7999 39.8999 67.8999 41.1999L64.8999 41.2999C64.7999 40.4999 64.4999 39.9999 64.0999 39.6999C63.6999 39.3999 63.0999 39.1999 62.1999 39.1999C61.2999 39.1999 60.6999 39.3999 60.1999 39.6999C59.8999 39.8999 59.6999 40.1999 59.6999 40.5999C59.6999 40.8999 59.7999 41.2999 60.0999 41.4999C60.4999 41.7999 61.3999 42.1999 62.7999 42.4999C64.1999 42.7999 65.2999 43.1999 65.9999 43.5999C66.6999 43.9999 67.1999 44.4999 67.5999 45.0999C67.9999 45.6999 68.1999 46.4999 68.1999 47.3999C68.1999 48.1999 67.9999 48.9999 67.4999 49.7999C66.9999 50.5999 66.3999 51.0999 65.4999 51.3999C64.5999 51.7999 63.5999 51.8999 62.2999 51.8999C60.3999 51.8999 58.9999 51.4999 57.9999 50.5999C57.1999 49.8999 56.5999 48.6999 56.3999 46.9999ZM70.8999 51.7999V37.0999H75.6999C77.4999 37.0999 78.6999 37.1999 79.2999 37.2999C80.0999 37.4999 80.7999 37.9999 81.3999 38.7999C81.9999 39.5999 82.1999 40.4999 82.1999 41.6999C82.1999 42.5999 81.9999 43.3999 81.6999 43.9999C81.3999 44.5999 80.8999 45.0999 80.3999 45.4999C79.8999 45.8999 79.3999 46.0999 78.8999 46.1999C78.1999 46.2999 77.1999 46.3999 75.7999 46.3999H73.8999V51.9999L70.8999 51.7999ZM73.8999 39.4999V43.6999H75.4999C76.6999 43.6999 77.4999 43.5999 77.7999 43.4999C78.1999 43.3999 78.4999 43.0999 78.6999 42.7999C78.8999 42.4999 78.9999 42.0999 78.9999 41.6999C78.9999 41.1999 78.7999 40.6999 78.4999 40.3999C78.1999 40.0999 77.7999 39.7999 77.2999 39.6999C76.8999 39.5999 76.1999 39.5999 75.0999 39.5999L73.8999 39.4999ZM96.3999 51.7999H93.1999L91.8999 48.3999H85.9999L84.7999 51.7999H81.5999L87.3999 36.9999H90.4999L96.3999 51.7999ZM90.8999 45.9999L88.8999 40.4999L86.8999 45.9999H90.8999ZM107.5 46.3999L110.4 47.2999C110 48.8999 109.2 50.0999 108.2 50.8999C107.2 51.6999 105.9 52.0999 104.3 52.0999C102.3 52.0999 100.7 51.3999 99.4999 50.0999C98.1999 48.7999 97.5999 46.8999 97.5999 44.5999C97.5999 42.0999 98.1999 40.1999 99.4999 38.8999C100.8 37.4999 102.4 36.8999 104.5 36.8999C106.3 36.8999 107.8 37.3999 108.9 38.4999C109.6 39.0999 110.1 39.9999 110.4 41.1999L107.4 41.8999C107.2 41.0999 106.9 40.4999 106.3 40.0999C105.7 39.6999 105.1 39.3999 104.3 39.3999C103.2 39.3999 102.3 39.7999 101.6 40.5999C100.9 41.3999 100.6 42.6999 100.6 44.3999C100.6 46.2999 100.9 47.5999 101.6 48.3999C102.3 49.1999 103.1 49.5999 104.2 49.5999C105 49.5999 105.7 49.3999 106.3 48.7999C106.8 48.2999 107.2 47.4999 107.5 46.3999ZM112.9 51.7999V37.0999H123.9V39.5999H115.9V42.8999H123.3V45.3999H115.9V49.3999H124.1V51.8999L112.9 51.7999ZM66.5999 65.1999L69.4999 66.0999C69.0999 67.6999 68.2999 68.8999 67.2999 69.6999C66.2999 70.4999 64.9999 70.8999 63.3999 70.8999C61.3999 70.8999 59.7999 70.1999 58.5999 68.8999C57.2999 67.5999 56.6999 65.6999 56.6999 63.3999C56.6999 60.8999 57.2999 58.9999 58.5999 57.6999C59.8999 56.2999 61.4999 55.6999 63.5999 55.6999C65.3999 55.6999 66.8999 56.1999 67.9999 57.2999C68.6999 57.8999 69.1999 58.7999 69.4999 59.9999L66.4999 60.6999C66.2999 59.8999 65.9999 59.2999 65.3999 58.8999C64.7999 58.4999 64.1999 58.1999 63.3999 58.1999C62.2999 58.1999 61.3999 58.5999 60.6999 59.3999C59.9999 60.1999 59.6999 61.4999 59.6999 63.1999C59.6999 65.0999 59.9999 66.3999 60.6999 67.1999C61.3999 67.9999 62.1999 68.3999 63.2999 68.3999C64.0999 68.3999 64.7999 68.1999 65.3999 67.5999C65.8999 67.0999 66.2999 66.2999 66.5999 65.1999ZM71.9999 70.6999V55.8999H82.9999V58.3999H74.9999V61.6999H82.3999V64.1999H74.9999V68.1999H83.1999V70.6999H71.9999ZM85.7999 70.6999V55.8999H88.6999L94.6999 65.7999V55.8999H97.4999V70.6999H94.4999L88.4999 60.9999V70.5999L85.7999 70.6999ZM104 70.6999V58.3999H99.5999V55.8999H111.3V58.3999H106.9V70.6999H104ZM113.3 70.6999V55.8999H119.6C121.2 55.8999 122.3 55.9999 123 56.2999C123.7 56.5999 124.3 56.9999 124.7 57.6999C125.1 58.3999 125.4 59.1999 125.4 59.9999C125.4 61.0999 125.1 61.9999 124.4 62.6999C123.7 63.3999 122.8 63.8999 121.5 64.0999C122.2 64.4999 122.7 64.8999 123.1 65.2999C123.5 65.7999 124.1 66.5999 124.8 67.6999L126.6 70.5999H123L120.8 67.3999C120 66.2999 119.5 65.4999 119.2 65.1999C118.9 64.8999 118.6 64.6999 118.3 64.5999C118 64.4999 117.5 64.3999 116.8 64.3999H116.2V70.5999L113.3 70.6999ZM116.3 62.1999H118.5C119.9 62.1999 120.8 62.1999 121.2 61.9999C121.6 61.8999 121.8 61.6999 122 61.3999C122.2 61.0999 122.3 60.6999 122.3 60.2999C122.3 59.7999 122.2 59.3999 121.9 59.0999C121.6 58.7999 121.3 58.5999 120.8 58.4999H116.3V62.1999ZM128.2 70.6999V55.8999H139.2V58.3999H131.2V61.6999H138.6V64.1999H131.2V68.1999H139.4V70.6999H128.2Z" fill="#F4F5FF"/>
<path d="M176.4 3.4V86.6H3.4V3.4H176.4ZM179.8 0H0V90H179.8V0Z" fill="#F4F5FF"/>
</svg>
