<svg width="126" height="91" viewBox="0 0 126 91" fill="none" xmlns="http://www.w3.org/2000/svg">
<path d="M83.4 39.1C83.1 40.3 82.7 41.4 82.2 42.5C81.3 44.7 80.1 46.8 78.6 48.7C77.1 50.6 75.4 52.3 73.6 53.9C72 55.3 70.4 56.6 68.5 57.7C65.9 59.2 63.2 60.2 60.2 60.5C59.6 60.6 59.1 60.6 58.5 60.6V52.3C59.1 52.3 59.8 52.4 60.4 52.3C61.7 52.2 63.1 52.3 64.5 52.1C66.4 51.8 68.2 51.5 70 50.8C72.7 49.7 75.2 48.3 77.5 46.5C79.9 44.6 81.7 42.2 83.1 39.4C83.1 39.3 83.2 39.3 83.2 39.2C83.2 39.1 83.3 39.1 83.4 39.1ZM83.5 51.6C83.1 52.8 82.8 53.9 82.3 55C81.2 57.7 79.6 60.1 77.7 62.4C75.3 65.2 72.6 67.8 69.4 69.9C66.8 71.6 63.9 72.7 60.8 73.3C60 73.4 59.2 73.5 58.4 73.5V65.1C59 65.1 59.5 65.1 60.1 65.2C61.1 65.2 62.1 65.2 63.1 65.1C64.7 65 66.3 64.7 68 64.3C70.4 63.7 72.6 62.6 74.7 61.3C76.5 60.2 78.2 58.9 79.6 57.3C81.1 55.7 82.3 53.9 83.3 51.9C83.3 51.8 83.4 51.7 83.5 51.6ZM83.3 25.9C82.2 29.7 80.5 33.3 78 36.3C75.3 39.4 72.4 42.3 68.8 44.5C66.2 46.1 63.4 47.1 60.4 47.5C59.8 47.6 59.1 47.6 58.5 47.6V39.2H61.4C65.2 39.1 68.9 38.4 72.4 36.6C75 35.3 77.4 33.8 79.3 31.7C80.7 30.2 81.9 28.5 82.9 26.7C83.1 26.5 83.2 26.2 83.3 25.9ZM86.2 34.5C86.5 33.3 86.9 32.2 87.4 31.1C88.3 28.9 89.5 26.8 91 24.9C92.5 23 94.2 21.3 96 19.7C97.6 18.3 99.2 17 101.1 15.9C103.7 14.4 106.4 13.4 109.4 13.1C110 13 110.5 13 111.1 13V21.3C110.5 21.3 109.8 21.2 109.2 21.3C107.9 21.4 106.5 21.3 105.1 21.5C103.2 21.8 101.4 22.1 99.6 22.8C96.9 23.9 94.4 25.3 92.1 27.1C89.7 29 87.9 31.4 86.5 34.2C86.5 34.3 86.4 34.3 86.4 34.4L86.2 34.5ZM86.1 21.9C86.5 20.7 86.8 19.6 87.3 18.5C88.4 15.8 90 13.4 91.9 11.1C94.3 8.3 97 5.7 100.2 3.6C102.8 1.9 105.7 0.8 108.8 0.2C109.6 0.1 110.4 0 111.2 0V8.4C110.6 8.4 110.1 8.4 109.5 8.3C108.5 8.3 107.5 8.3 106.5 8.4C104.9 8.5 103.3 8.8 101.6 9.2C99.2 9.8 97 10.9 94.9 12.2C93.1 13.3 91.4 14.6 90 16.2C88.5 17.8 87.3 19.6 86.3 21.6C86.3 21.8 86.2 21.8 86.1 21.9ZM86.3 47.5C87.4 43.7 89.1 40.1 91.6 37.1C94.3 34 97.2 31.1 100.8 28.9C103.4 27.3 106.2 26.3 109.2 25.9C109.8 25.8 110.5 25.8 111.1 25.8V34.2H108.2C104.4 34.3 100.7 35 97.2 36.8C94.6 38.1 92.2 39.6 90.3 41.7C88.9 43.2 87.7 44.9 86.7 46.7C86.6 47 86.4 47.3 86.3 47.5ZM4.5 80.2H4.3C4 79.3 3.2 78.6 2.4 78.6C1.7 78.6 1.1 79.1 1.1 79.7C1.1 80 1.3 80.3 1.5 80.5C1.9 80.9 3.7 81.8 4.2 82.3C4.8 82.9 5.1 83.4 5.1 84.1C5.1 85.8 3.6 86.4 2.6 86.4C1.7 86.4 1.1 86.1 0.700001 86.1C0.500001 86.1 0.399999 86.2 0.299999 86.3H0.0999985V83.9H0.299999C0.499999 85.1 1.3 85.9 2.4 85.9C3.2 85.9 3.9 85.4 3.9 84.8C3.9 84.6 3.8 84.2 3.5 83.9C2.9 83.3 1.5 82.7 0.900002 82.1C0.200002 81.7 0 81.1 0 80.5C0 79.1 1 78.2 2.5 78.2C2.8 78.2 3.1 78.3 3.3 78.3C3.5 78.4 3.8 78.4 4 78.4C4.1 78.4 4.2 78.3 4.4 78.2H4.6C4.5 78.2 4.5 80.2 4.5 80.2ZM12.6 82.8H12.4C11.9 81.7 11.3 81.3 10.5 81.3C9.5 81.3 8.8 82.2 8.8 83.5C8.8 84.9 9.5 85.8 10.7 85.8C11.4 85.8 11.9 85.6 12.5 84.8H12.8C12.3 85.9 11.4 86.4 10.1 86.4C8.4 86.4 7.3 85.3 7.3 83.8C7.3 82.2 8.6 81 10.3 81C10.7 81 11 81 11.3 81.1C11.6 81.1 11.8 81.2 12 81.2C12.2 81.2 12.2 81.2 12.4 81H12.6V82.8ZM17.7 86.4C15.6 86.4 14.5 85 14.5 83.7C14.5 82.6 15.3 81 17.7 81C19.9 81 20.9 82.5 20.9 83.7C20.8 85 19.8 86.4 17.7 86.4ZM17.7 81.3C16.6 81.3 16.2 82.3 16.2 83.7C16.2 85.1 16.8 86 17.7 86C18.6 86 19.2 85.1 19.2 83.6C19.1 82.2 18.7 81.3 17.7 81.3ZM23.6 81.5H22.7V81.3C23.3 80.9 24.2 80.1 24.9 79.2H25.1V81.1H26.8V81.5H25.1V84.4C25.1 85.2 25.3 85.7 26 85.7C26.3 85.7 26.5 85.6 26.7 85.3L26.9 85.5C26.5 86.1 26 86.4 25.3 86.4C24.3 86.4 23.6 85.9 23.6 84.8V81.5ZM29.3 81.5H28.4V81.3C29 80.9 29.9 80.1 30.6 79.2H30.8V81.1H32.5V81.5H30.8V84.4C30.8 85.2 31 85.7 31.7 85.7C32 85.7 32.2 85.6 32.4 85.3L32.6 85.5C32.2 86.1 31.7 86.4 31 86.4C30 86.4 29.3 85.9 29.3 84.8V81.5ZM36.6 85.1C36.6 85.6 36.8 85.9 37.4 86V86.2H34.2V86C34.9 85.9 35 85.7 35 85V82.3C35 81.7 34.8 81.5 34.1 81.4V81.2L36.3 81H36.5L36.6 85.1ZM35.8 77.8C36.3 77.8 36.7 78.2 36.7 78.7C36.7 79.2 36.3 79.6 35.8 79.6C35.3 79.6 34.9 79.2 34.9 78.7C34.9 78.2 35.3 77.8 35.8 77.8ZM43 82.5H42.8C42.5 81.7 41.9 81.3 41.3 81.3C40.8 81.3 40.5 81.5 40.5 81.9C40.5 83 43.4 82.6 43.4 84.7C43.4 85.8 42.4 86.4 41.6 86.4C41.3 86.4 41 86.4 40.8 86.3C40.6 86.3 40.4 86.2 40.2 86.2C40 86.2 39.8 86.3 39.7 86.4H39.5V84.5H39.7C40.2 85.6 40.8 86.1 41.5 86.1C42 86.1 42.4 85.8 42.4 85.4C42.4 84.1 39.4 84.5 39.4 82.6C39.4 81.8 40 81.1 41.2 81.1C41.4 81.1 41.7 81.1 42 81.2C42.2 81.2 42.5 81.3 42.6 81.3C42.7 81.3 42.8 81.2 42.9 81.2H43V82.5ZM47.5 82.1C48.1 81.2 48.6 80.9 49.4 80.9C50.5 80.9 51.2 81.6 51.2 82.8V85.1C51.2 85.6 51.3 85.9 52 86V86.2H48.9V86C49.5 85.8 49.7 85.6 49.7 85V83C49.7 82.2 49.4 81.8 48.8 81.8C48.3 81.8 47.9 82.1 47.5 82.6V85.1C47.5 85.6 47.7 85.8 48.3 86V86.2H45.2V86C45.8 85.8 46 85.6 46 85V79C46 78.5 45.8 78.3 45.2 78.2V78L47.2 77.8H47.4L47.5 82.1ZM63.4 83.5H63.2C63.1 82.8 62.8 82.5 62.1 82.5H60.7V84.8C60.7 85.5 61 85.8 61.8 85.8H62.3C63.3 85.8 63.7 85.1 63.9 84.3H64.1L64 86.2H58V86C58.9 85.8 59 85.5 59 84.7V79.7C59 79 58.8 78.8 58 78.6V78.4H63.9V80.1H63.7C63.5 79.1 63.1 78.8 62.3 78.8H60.8V82H62.2C62.8 82 63.1 81.7 63.3 81H63.5L63.4 83.5ZM70.4 83C70.4 82.2 70.1 81.8 69.5 81.8C69 81.8 68.6 82.1 68.2 82.7V85.1C68.2 85.6 68.3 85.9 68.9 86.1V86.3H65.8V86.1C66.4 85.9 66.6 85.7 66.6 85.2V82.4C66.6 81.8 66.4 81.6 65.7 81.5V81.1L67.9 80.9H68.1V82.1C68.5 81.4 69.2 80.9 70 80.9C70.8 80.9 71.8 81.4 71.8 82.7V84.9C71.8 85.4 71.9 85.7 72.6 85.9V86.1H69.5V85.9C70.1 85.8 70.3 85.5 70.3 85L70.4 83ZM75.3 81.5H74.4V81.3C75 80.9 75.9 80.1 76.6 79.2H76.8V81.1H78.5V81.5H76.8V84.4C76.8 85.2 77 85.7 77.7 85.7C78 85.7 78.2 85.6 78.4 85.3L78.6 85.5C78.2 86.1 77.7 86.4 77 86.4C76 86.4 75.3 85.9 75.3 84.8V81.5ZM82 83.2C81.9 84.9 82.9 85.7 83.8 85.7C84.5 85.7 85.1 85.3 85.6 84.6H85.8C85.3 85.7 84.3 86.4 83.1 86.4C81.5 86.4 80.3 85.3 80.3 83.7C80.3 82.1 81.5 80.9 83.1 80.9C84.5 80.9 85.6 81.8 85.8 83.2H82ZM84.2 82.9C84.1 82 83.7 81.3 83.1 81.3C82.5 81.3 82.1 81.9 82 82.9H84.2ZM92.2 82.9C91.8 82.5 91.4 82.3 91.1 82.3C90.6 82.3 90.4 82.5 90 83V85.1C90 85.7 90.1 85.9 90.9 86V86.2H87.7V86C88.4 85.8 88.5 85.6 88.5 85.1V82.4C88.5 81.8 88.2 81.5 87.6 81.4V81.2L89.8 81H90V82.6C90.5 81.5 91.1 81 91.7 81C92 81 92.3 81.2 92.6 81.4L92.2 82.9ZM95 82.4C95 81.7 94.9 81.5 94.1 81.3V81.1L96.3 80.9H96.5V81.9C97.1 81.3 97.8 80.9 98.5 80.9C99.9 80.9 100.9 82 100.9 83.6C100.9 85.2 99.8 86.4 98.2 86.4C97.6 86.4 97.2 86.2 96.4 85.7V88.9C96.4 89.6 96.6 89.8 97.3 90V90.1H93.9V89.9C94.7 89.8 94.8 89.5 94.8 88.6L95 82.4ZM96.5 85.3C96.9 85.7 97.3 85.9 97.7 85.9C98.6 85.9 99.2 85.1 99.2 83.8C99.2 82.5 98.6 81.6 97.7 81.6C97.2 81.6 96.8 81.8 96.4 82.3L96.5 85.3ZM107.5 82.9C107.1 82.5 106.7 82.3 106.4 82.3C105.9 82.3 105.7 82.5 105.3 83V85.1C105.3 85.7 105.4 85.9 106.2 86V86.2H103V86C103.7 85.8 103.8 85.6 103.8 85.1V82.4C103.8 81.8 103.5 81.5 102.9 81.4V81.2L105.1 81H105.3V82.6C105.8 81.5 106.4 81 107 81C107.3 81 107.6 81.2 107.9 81.4L107.5 82.9ZM111.9 85.1C111.9 85.6 112.1 85.9 112.7 86V86.2H109.5V86C110.2 85.9 110.3 85.7 110.3 85V82.3C110.3 81.7 110.1 81.5 109.4 81.4V81.2L111.6 81H111.8L111.9 85.1ZM111.1 77.8C111.6 77.8 112 78.2 112 78.7C112 79.2 111.6 79.6 111.1 79.6C110.6 79.6 110.2 79.2 110.2 78.7C110.2 78.2 110.6 77.8 111.1 77.8ZM118.3 82.5H118.1C117.8 81.7 117.2 81.3 116.6 81.3C116.1 81.3 115.8 81.5 115.8 81.9C115.8 83 118.7 82.6 118.7 84.7C118.7 85.8 117.7 86.4 116.9 86.4C116.6 86.4 116.3 86.4 116.1 86.3C115.9 86.3 115.7 86.2 115.5 86.2C115.3 86.2 115.1 86.3 115 86.4H114.8V84.5H115C115.5 85.6 116.1 86.1 116.8 86.1C117.3 86.1 117.7 85.8 117.7 85.4C117.7 84.1 114.7 84.5 114.7 82.6C114.7 81.8 115.3 81.1 116.5 81.1C116.7 81.1 117 81.1 117.3 81.2C117.6 81.3 117.8 81.3 117.9 81.3C118 81.3 118.1 81.2 118.2 81.2H118.4L118.3 82.5ZM122.2 83.2C122.1 84.9 123.1 85.7 124 85.7C124.7 85.7 125.3 85.3 125.8 84.6H126C125.5 85.7 124.5 86.4 123.3 86.4C121.7 86.4 120.5 85.3 120.5 83.7C120.5 82.1 121.7 80.9 123.3 80.9C124.7 80.9 125.8 81.8 126 83.2H122.2ZM124.4 82.9C124.3 82 123.9 81.3 123.3 81.3C122.7 81.3 122.3 81.9 122.2 82.9H124.4Z" fill="#F4F5FF"/>
</svg>
