<svg width="89" height="90" viewBox="0 0 89 90" fill="none" xmlns="http://www.w3.org/2000/svg">
<path d="M4.93683 50.4064C4.73683 50.5064 4.63683 50.3064 4.73683 50.2064C9.63683 44.8064 44.9368 6.50636 50.2368 0.906355C50.7368 0.306355 51.5368 0.00635516 52.3368 0.00635516H88.2368C88.3368 0.00635516 88.4368 0.206355 88.2368 0.206355C83.0368 3.30636 12.9368 45.9064 4.93683 50.4064ZM36.2368 1.90636C30.3368 10.4064 6.43683 43.9064 1.23683 49.8064C0.936829 50.2064 0.336827 50.0064 0.336827 49.5064V1.30636C0.336827 0.606355 0.936824 0.00635516 1.53682 0.00635516H35.1368C36.2368 -0.0936448 36.8368 1.00636 36.2368 1.90636ZM50.0368 82.5064C52.0368 85.1064 53.2368 87.4064 53.9368 88.6064C54.1368 88.9064 53.9368 89.3064 53.5368 89.3064H50.5368C49.0368 89.3064 47.9368 86.5064 47.4368 85.6064C46.6368 84.2064 45.6368 83.7064 43.8368 83.6064H41.9368V87.8064C41.9368 89.1064 41.4368 89.3064 40.1368 89.3064C39.4368 89.3064 38.1368 89.5064 37.9368 88.8064C37.6368 88.1064 37.7368 87.3064 37.7368 86.5064V74.8064C37.7368 73.8064 38.1368 73.3064 39.2368 73.3064H48.6368C51.9368 73.3064 54.3368 76.2064 53.7368 79.1064C53.2368 81.2064 51.7368 81.9064 50.0368 82.5064ZM41.9368 80.3064C43.7368 80.3064 45.5368 80.4064 47.2368 80.3064C48.1368 80.2064 49.2368 79.9064 49.3368 78.6064C49.4368 77.4064 48.5368 76.8064 47.6368 76.8064C45.8368 76.6064 43.9368 76.8064 41.9368 76.8064V80.3064ZM39.6368 67.1064C39.4368 67.7064 39.4368 68.3064 39.2368 68.8064C38.5368 70.8064 37.9368 71.1063 35.8368 70.9063C35.0368 70.8063 34.6368 70.4064 34.8368 69.6064C35.7368 66.0064 36.5368 62.3064 37.6368 58.8064C38.3368 56.6064 40.3368 55.5064 42.5368 55.3064C45.2368 55.1064 48.0368 55.2064 50.7368 55.1064C51.7368 55.1064 51.7368 55.9064 51.7368 56.5064V69.4063C51.7368 70.5063 51.3368 70.9063 50.2368 70.9063H49.0368C48.0368 70.9063 47.5368 70.5063 47.5368 69.4063C47.5368 68.6063 47.4368 67.9064 47.4368 67.1064H39.6368ZM47.5368 58.1064H44.4368C43.2368 58.1064 42.2368 58.6064 41.7368 59.8064C41.4368 60.6064 41.1368 61.4064 40.9368 62.2064C40.6368 63.6064 40.8368 63.9064 42.2368 63.9064C43.7368 63.9064 45.1368 63.9064 46.6368 63.8064C46.9368 63.8064 47.5368 63.3064 47.5368 63.0064V58.1064ZM0.336827 81.3064V74.8064C0.336827 73.9064 0.636823 73.4063 1.63682 73.4063H10.9368C14.1368 73.4063 16.5368 75.7064 16.6368 79.0064C16.8368 82.9064 15.0368 85.8064 10.1368 85.8064H5.73683C4.93683 85.8064 4.63682 86.1063 4.63682 86.9063V87.9063C4.63682 88.8063 4.33683 89.3064 3.23683 89.3064C0.0368288 89.3064 0.336827 89.7064 0.336827 86.5064V81.3064ZM4.63682 82.3064C4.63682 82.3064 8.23682 82.5064 10.1368 82.3064C11.3368 82.2064 12.1368 81.3064 12.2368 80.0064C12.4368 78.4064 11.9368 77.4064 10.7368 77.1064C8.93683 76.8064 4.73683 77.1064 4.73683 77.1064L4.63682 82.3064ZM17.9368 63.0064V56.5064C17.9368 55.6064 18.2368 55.1064 19.2368 55.1064H28.5368C31.7368 55.1064 34.1368 57.4064 34.2368 60.7064C34.4368 64.6064 32.6368 67.5064 27.7368 67.5064H23.3368C22.5368 67.5064 22.2368 67.8064 22.2368 68.6064V69.6064C22.2368 70.5064 21.9368 71.0064 20.8368 71.0064C17.6368 71.0064 17.9368 71.4064 17.9368 68.2064V63.0064ZM22.2368 64.1064C22.2368 64.1064 25.8368 64.3064 27.7368 64.1064C28.9368 64.0064 29.7368 63.1064 29.8368 61.8064C30.0368 60.2064 29.5368 59.2064 28.3368 58.9064C26.5368 58.6064 22.3368 58.9064 22.3368 58.9064L22.2368 64.1064ZM73.8368 62.9064V56.6064C73.8368 55.6064 74.1368 55.1064 75.2368 55.1064H87.2368C88.0368 55.1064 88.6368 55.1064 88.6368 56.2064C88.5368 57.1064 88.8368 58.2064 87.2368 58.1064C84.5368 58.0064 81.8368 58.2064 79.2368 58.1064C77.7368 58.1064 78.0368 59.0064 78.0368 59.9064C78.0368 60.8064 78.1368 61.5064 79.3368 61.4064C81.6368 61.3064 83.8368 61.3064 86.1368 61.3064C87.3368 61.3064 87.2368 62.3064 87.3368 63.0064C87.4368 63.8064 87.1368 64.5064 86.1368 64.5064H79.2368C78.2368 64.5064 78.0368 64.8064 78.0368 65.7064V66.6064C77.9368 67.5064 78.3368 67.8064 79.2368 67.8064C81.8368 67.7064 84.4368 67.8064 87.0368 67.8064C88.2368 67.8064 88.6368 68.3063 88.6368 69.4063C88.6368 70.6063 88.1368 70.9063 87.1368 70.9063C83.3368 70.9063 79.5368 71.0063 75.7368 70.9063C74.1368 70.9063 73.9368 70.6064 73.9368 69.0064C73.9368 66.9064 73.9368 64.9064 73.8368 62.9064ZM7.33683 71.0064C5.23683 71.0064 3.13683 71.1064 1.33683 69.7064C0.236827 68.9064 -0.263177 67.4064 0.136823 66.2064C0.336823 65.6064 1.83682 65.4064 2.53682 65.8064C2.73682 65.9064 2.93682 66.0064 3.03682 66.2064C4.23682 68.8064 8.53683 67.9063 9.43683 67.9063C9.93683 67.9063 10.5368 67.8064 10.9368 67.6064C11.7368 67.2064 11.7368 66.3063 10.9368 65.9063C10.1368 65.5063 9.23683 65.2063 8.33683 64.9063C6.13683 64.2063 3.13682 63.8064 1.63682 62.9064C1.03682 62.5064 0.136824 61.6064 0.0368242 60.4064V58.4064C0.136824 57.6064 0.636826 55.8064 1.93683 55.5064C3.63683 55.0064 5.23682 55.0064 7.13682 55.0064C8.43682 55.0064 9.73682 55.0064 11.0368 55.2064C12.7368 55.5064 14.2368 56.2064 14.9368 57.9064C15.5368 59.4064 15.1368 60.1064 13.5368 60.1064C12.5368 60.1064 11.8368 59.9064 11.1368 59.0064C10.8368 58.5064 9.93682 58.1064 9.13682 58.1064C7.73682 57.9064 6.33683 58.0064 4.93683 58.1064C4.43683 58.1064 3.83683 58.6064 3.73683 59.1064C3.43683 59.8064 3.93682 60.1064 4.63682 60.3064C7.33682 61.0064 10.0368 61.7064 12.6368 62.6064C15.5368 63.6064 16.4368 66.5064 14.7368 69.0064C13.8368 70.2064 12.5368 70.7064 11.1368 70.8064C9.93682 70.9064 8.63683 70.9064 7.33683 71.0064ZM71.0368 65.1064C71.6368 65.2064 71.2368 69.3063 67.8368 70.4063C64.8368 71.4063 61.6368 71.2063 58.6368 70.4063C56.5368 69.8063 55.0368 67.4064 54.5368 66.0064C53.9368 64.1064 53.7368 60.7064 55.3368 58.2064C56.4368 56.4064 57.9368 55.4064 59.9368 55.2064C62.0368 55.0064 64.2368 55.0064 66.3368 55.2064C68.3368 55.3064 69.8368 56.3064 70.7368 58.0064C71.0368 58.6064 71.1368 59.5064 71.1368 60.3064C71.1368 60.6064 70.6368 61.0064 70.3368 61.0064C68.8368 61.1064 67.9368 61.0064 67.0368 59.6064C66.4368 58.6064 65.7368 58.1064 64.5368 58.1064H61.4368C59.7368 58.2064 58.5368 59.1064 58.4368 60.8064C58.3368 62.0064 58.2368 63.3064 58.4368 64.5064C58.7368 66.9064 59.6368 67.7063 62.1368 67.9063C63.6368 68.1063 65.2368 68.1064 66.6368 67.1064C66.8368 66.9064 67.1368 66.8064 67.2368 66.6064C68.4368 64.8064 69.0368 64.9064 71.0368 65.1064ZM84.8368 73.4063L81.5368 76.4063C81.3368 76.6063 81.3368 77.0064 81.5368 77.2064L82.4368 78.0064C82.7368 78.3064 83.2368 78.4064 83.6368 78.2064L84.7368 77.7064V88.4063C84.7368 89.0063 85.2368 89.5064 85.8368 89.5064H87.6368C88.2368 89.5064 88.7368 89.0063 88.7368 88.4063V74.1064C88.7368 73.7064 88.4368 73.4063 88.0368 73.4063H84.8368ZM28.5368 72.9063H25.0368C21.0368 72.9063 17.7368 76.1064 17.7368 80.2064V82.3064C17.7368 86.3064 20.9368 89.6064 25.0368 89.6064H28.5368C32.5368 89.6064 35.8368 86.4064 35.8368 82.3064V80.2064C35.7368 76.1064 32.5368 72.9063 28.5368 72.9063ZM31.4368 82.3064C31.4368 84.6064 29.6368 86.4063 27.3368 86.4063H26.2368C23.9368 86.4063 22.1368 84.6064 22.1368 82.3064V80.0064C22.1368 77.7064 23.9368 75.9063 26.2368 75.9063H27.3368C29.6368 75.9063 31.4368 77.7064 31.4368 80.0064V82.3064ZM70.7368 74.6064C70.7368 74.0064 70.2368 73.4063 69.5368 73.4063H55.9368C55.3368 73.4063 54.7368 73.9064 54.7368 74.6064V75.5064C54.7368 76.1064 55.2368 76.7064 55.9368 76.7064H60.3368C60.5368 76.7064 60.6368 76.9064 60.6368 77.0064V88.2064C60.6368 88.8064 61.1368 89.4063 61.8368 89.4063H63.8368C64.4368 89.4063 65.0368 88.9064 65.0368 88.2064V77.0064C65.0368 76.8064 65.2368 76.7064 65.3368 76.7064H69.7368C70.3368 76.7064 70.9368 76.2064 70.9368 75.5064L70.7368 74.6064Z" fill="#F4F5FF"/>
</svg>
