<svg width="90" height="90" viewBox="0 0 90 90" fill="none" xmlns="http://www.w3.org/2000/svg">
<path d="M71.6 34.5C69.3 32.2 66.4 30.9 63.3 30C62.4 29.7 61.6 29.3 60.6 29.3C61.1 29.7 61.7 30 62.3 30.3C64.1 31.2 65.8 32.3 67.2 33.9C69.1 36 69.1 38.6 67.1 40.4C65.5 41.9 62.5 43.1 60.5 43.8C60.5 43.8 60.7 43.5 61 42.8C61.4 41.7 61.7 40.5 61.8 39.3C62.3 33.8 60.6 29.2 56.4 25.6C55.5 24.8 54.6 23.9 53.8 23C52.5 21.6 51.6 19.9 51.6 17.9V5.2C51.6 4.6 51.7 4.1 52 3.6C52.9 1.9 52.3 0.8 50.4 0.4C49.6 0.3 48.8 0.3 48.1 0H44.5C43.8 0.3 43 0.3 42.3 0.4C40.7 0.7 40 2.1 40.8 3.5C41.1 4 41.2 4.5 41.2 5.1V17.7C41.2 19.2 40.8 20.5 40 21.7C38.6 23.7 36.7 25.2 35 26.9C33.8 28.2 32.9 29.6 32.2 31.2C30.9 34.5 30.5 37.9 31.5 41.3C31.9 42.6 32 42.7 32 42.7C30 42.5 25.2 40.4 22.8 38.9C22.5 38.7 25.9 43.2 32.8 45.2C32.8 45.2 33.3 45.6 34.2 46.9C39.4 53.8 50.2 54.6 57 48.6C58.7 47.1 59.5 46.2 59.5 46.2C62.2 45.7 68.6 43.8 70.9 42.2C73.9 40.2 74.1 37 71.6 34.5ZM32.6 41.8C31.9 39.8 32 37.8 32.2 35.7C32.7 37.5 33.9 38.8 34.8 40.3C35 40.6 35.2 40.9 35.5 41.2C36.2 41.9 36.3 42.5 35.8 43.3C35.7 43.5 35.5 43.6 35.3 43.6C34 43.7 33 43.1 32.6 41.8ZM39.2 49.8C39.1 50 38.9 49.9 38.7 49.8C37.2 48.8 35.9 47.7 34.9 46.3C34.8 46.2 34.8 46 34.8 45.9C34.8 45.8 34.9 45.7 35.3 45.8C36.8 45.9 38.9 48 39.2 49.5V49.8ZM46.4 51.9C44.3 51.8 42.9 51.5 42.9 51.5C44.4 50.6 46.6 48.9 47.7 47.5C47.9 47.3 48.1 47.2 48.3 47.2C51 47.2 53.2 47.4 56.1 46.9C58.1 46.6 58.4 46.2 58.4 46.2C55.4 49.7 50.5 52.1 46.4 51.9ZM58.8 43.6C58.7 44 58.3 44.1 57.9 44.2C54 45 50.2 45.1 46.3 45C45.7 45 45.1 44.6 44.6 44.2C42.8 42.6 40.7 41.8 38.6 40.8C38.2 40.6 37.7 40.6 37.3 40.6C35.8 40.6 34.7 39.3 35 37.8C35.1 37.2 34.9 37 34.4 36.8C33.7 36.6 33.4 36.2 33.6 35.5C33.7 34.8 34.1 34.3 34.9 34.3C35.6 34.2 35.8 34.7 35.9 35.3C35.9 35.5 35.9 35.8 36.2 35.8C36.5 35.8 36.6 35.5 36.6 35.3C36.7 33.9 37.7 33.2 38.7 32.5C39.4 32.1 40.1 31.5 40.6 30.9C41 30.5 41.4 30.2 42 30.1C42.9 30.1 42.9 29.5 42.6 28.9C42.4 28.5 42.3 28.2 42.1 27.9C41.9 27.6 41.9 27.3 42.1 27C42.5 26.6 42.6 26.1 42.6 25.6C42.6 25.3 42.7 24.9 43.1 24.9C43.6 24.9 43.6 25.3 43.7 25.6C43.8 26.1 43.9 26.6 44.1 27C44.4 27.5 44.7 27.7 45.2 27.2L46.6 25.8C47 25.4 46.9 24.9 46.7 24.4C46.5 23.9 46.2 23.6 45.7 23.6C44 23.6 42.3 23.3 40.6 23.8C40.3 23.9 40 24 39.8 23.7C39.6 23.4 39.9 23.2 40 23C41.5 21.2 42 19 42 16.8V4.9C42 4.3 41.9 3.8 41.5 3.3C40.8 2.3 41.1 1.5 42.3 1.3C44.9 0.8 47.4 0.8 50 1.3C51.1 1.5 51.4 2.1 50.9 3.2C50.6 3.7 50.6 4.2 50.6 4.7V18.4C50.6 19.6 51 20.7 51.6 21.8C51.9 22.3 52.3 22.8 52.8 23.6C51.6 22.9 51 24.3 49.9 24C49.6 23.9 49.6 24.5 49.8 24.8C50.3 25.7 51.1 26.3 51.9 26.9C52.9 27.6 52.9 28.6 51.8 29.1C51.8 29.2 51.8 29.4 51.9 29.5C52.5 30 53.1 30.4 51.9 31C51.5 31.2 52 32.4 52.7 32.7C52.9 32.8 53.2 32.8 53.6 32.9C53.3 33.5 53 34 52.8 34.6C51.9 36.4 51.8 38.2 52.3 40.1C52.8 42 54.2 42.6 55.9 41.5C55.9 41.5 56 41.5 56 41.4C56.6 41 57.2 40.3 58.1 40.8C58.7 41 59 43 58.8 43.6ZM5.9 76.1H8.4L14.3 89.8H10.9L9.7 86.9H4.4L3.3 89.8H0L5.9 76.1ZM7 80.1L5.3 84.4H8.7L7 80.1ZM20.8 83.1C20.4 82.6 19.8 82.3 19.1 82.3C18.8 82.3 18.6 82.4 18.4 82.5C18.2 82.6 18 82.8 18 83.1C18 83.3 18.1 83.5 18.4 83.6C18.7 83.7 18.9 83.8 19.3 83.9L20.5 84.2C20.9 84.3 21.3 84.5 21.7 84.7C22.1 84.9 22.4 85.2 22.6 85.5C22.8 85.9 23 86.3 23 86.9C23 87.5 22.9 88 22.6 88.4C22.3 88.8 22 89.1 21.6 89.3C21.2 89.5 20.7 89.7 20.2 89.8C19.7 89.9 19.2 89.9 18.7 89.9C18.1 89.9 17.4 89.8 16.7 89.6C16 89.4 15.5 89.1 15 88.6L16.8 86.7C17.1 87 17.4 87.3 17.7 87.5C18 87.7 18.4 87.8 18.9 87.8C19.2 87.8 19.5 87.8 19.8 87.7C20.1 87.6 20.2 87.4 20.2 87.2C20.2 86.9 20.1 86.8 19.8 86.7C19.6 86.6 19.3 86.5 18.9 86.4L17.7 86.1C17.3 86 16.9 85.8 16.5 85.7C16.1 85.5 15.8 85.2 15.6 84.9C15.4 84.5 15.2 84.1 15.2 83.5C15.2 83 15.3 82.5 15.5 82.1C15.7 81.7 16 81.4 16.4 81.1C16.8 80.8 17.2 80.7 17.7 80.5C18.2 80.4 18.7 80.3 19.1 80.3C19.7 80.3 20.3 80.4 21 80.6C21.6 80.8 22.2 81.1 22.6 81.6L20.8 83.1ZM30.9 82.7H28.3V86.5C28.3 86.7 28.4 86.9 28.5 87C28.6 87.1 28.7 87.3 28.9 87.4C29.1 87.5 29.3 87.5 29.7 87.5H30.3C30.6 87.5 30.7 87.4 30.9 87.3V89.7C30.6 89.8 30.3 89.9 29.9 89.9C29.5 89.9 29.2 90 28.9 90C28.4 90 28 90 27.5 89.9C27.1 89.8 26.7 89.6 26.4 89.4C26.1 89.2 25.9 88.9 25.7 88.5C25.5 88.1 25.4 87.7 25.4 87.2V82.7H23.5V80.4H25.4V77.6H28.3V80.4H30.9V82.7ZM32.6 80.4H35.5V81.9C35.8 81.3 36.2 80.9 36.6 80.6C37 80.3 37.6 80.2 38.2 80.2H38.7C38.9 80.2 39 80.2 39.2 80.3V82.9C39 82.8 38.8 82.8 38.6 82.8H38C37.5 82.8 37 82.9 36.7 83C36.4 83.1 36.1 83.4 35.9 83.6C35.7 83.9 35.6 84.2 35.6 84.6C35.6 85 35.5 85.4 35.5 85.9V89.8H32.6V80.4ZM39.8 85.1C39.8 84.3 39.9 83.7 40.2 83.1C40.5 82.5 40.8 82 41.3 81.6C41.8 81.2 42.3 80.8 43 80.6C43.6 80.4 44.3 80.2 45 80.2C45.7 80.2 46.4 80.3 47 80.6C47.6 80.8 48.2 81.2 48.7 81.6C49.2 82 49.5 82.5 49.8 83.1C50.1 83.7 50.2 84.4 50.2 85.1C50.2 85.8 50.1 86.5 49.8 87.1C49.5 87.7 49.2 88.2 48.7 88.6C48.2 89 47.7 89.4 47 89.6C46.4 89.9 45.7 90 45 90C44.3 90 43.6 89.9 43 89.6C42.4 89.3 41.8 89 41.3 88.6C40.8 88.2 40.5 87.7 40.2 87.1C40 86.5 39.8 85.8 39.8 85.1ZM42.8 85.1C42.8 85.8 43 86.4 43.4 86.8C43.8 87.2 44.4 87.4 45.1 87.4C45.8 87.4 46.4 87.2 46.8 86.8C47.2 86.4 47.4 85.8 47.4 85.1C47.4 84.4 47.2 83.8 46.8 83.4C46.4 83 45.8 82.8 45.1 82.8C44.4 82.8 43.8 83 43.4 83.4C42.9 83.8 42.8 84.4 42.8 85.1ZM58.5 82.7H55.9V86.5C55.9 86.7 56 86.9 56.1 87C56.2 87.1 56.3 87.3 56.5 87.4C56.7 87.5 56.9 87.5 57.3 87.5H57.9C58.2 87.5 58.3 87.4 58.5 87.3V89.7C58.2 89.8 57.9 89.9 57.5 89.9C57.1 89.9 56.8 90 56.5 90C56 90 55.6 90 55.1 89.9C54.7 89.8 54.3 89.6 54 89.4C53.7 89.2 53.5 88.9 53.3 88.5C53.1 88.1 53 87.7 53 87.2V82.7H51.1V80.4H53V77.6H55.9V80.4H58.5V82.7ZM69 88.1C68.5 88.7 68 89.1 67.2 89.5C66.5 89.8 65.8 90 65 90C64.3 90 63.6 89.9 63 89.6C62.4 89.4 61.8 89 61.3 88.6C60.8 88.2 60.5 87.7 60.2 87.1C59.9 86.5 59.8 85.8 59.8 85.1C59.8 84.4 59.9 83.7 60.2 83.1C60.5 82.5 60.8 82 61.3 81.6C61.8 81.2 62.3 80.8 63 80.6C63.6 80.4 64.3 80.2 65 80.2C65.7 80.2 66.3 80.3 66.8 80.6C67.3 80.8 67.8 81.2 68.2 81.6C68.6 82 68.9 82.5 69.1 83.1C69.3 83.7 69.4 84.4 69.4 85.1V86H62.7C62.8 86.5 63.1 87 63.5 87.3C63.9 87.6 64.4 87.8 64.9 87.8C65.4 87.8 65.8 87.7 66.1 87.5C66.4 87.3 66.7 87 67 86.7L69 88.1ZM66.5 84C66.5 83.5 66.4 83.1 66 82.7C65.7 82.3 65.2 82.2 64.7 82.2C64.4 82.2 64.1 82.2 63.8 82.3C63.5 82.4 63.3 82.5 63.2 82.7C63 82.9 62.9 83.1 62.8 83.3C62.7 83.5 62.7 83.7 62.6 84H66.5ZM77.7 83.4C77.6 83.2 77.4 83 77.1 82.9C76.8 82.8 76.6 82.7 76.3 82.7C75.6 82.7 75 82.9 74.6 83.3C74.2 83.7 74 84.3 74 85C74 85.7 74.2 86.3 74.6 86.7C75 87.1 75.6 87.3 76.3 87.3C76.6 87.3 76.9 87.2 77.1 87.1C77.3 87 77.5 86.8 77.7 86.6L79.6 88.6C79.1 89.1 78.6 89.4 78 89.6C77.4 89.8 76.8 89.9 76.3 89.9C75.6 89.9 74.9 89.8 74.3 89.5C73.7 89.3 73.1 88.9 72.6 88.5C72.1 88.1 71.8 87.6 71.5 87C71.2 86.4 71.1 85.7 71.1 85C71.1 84.2 71.2 83.6 71.5 83C71.8 82.4 72.1 81.9 72.6 81.5C73.1 81.1 73.6 80.7 74.3 80.5C74.9 80.3 75.6 80.1 76.3 80.1C76.8 80.1 77.4 80.2 78 80.4C78.6 80.6 79.2 80.9 79.6 81.4L77.7 83.4ZM83.7 75.2V81.7C83.8 81.5 83.9 81.3 84 81.2C84.1 81 84.3 80.9 84.6 80.7C84.8 80.6 85.1 80.4 85.4 80.3C85.7 80.2 86 80.2 86.4 80.2C87.1 80.2 87.7 80.3 88.2 80.5C88.7 80.7 89 81 89.2 81.4C89.4 81.8 89.6 82.3 89.7 82.8C89.8 83.3 89.8 83.9 89.8 84.6V89.8H86.9V85.2V84.4C86.9 84.1 86.8 83.8 86.7 83.6C86.6 83.3 86.4 83.2 86.3 83C86.1 82.9 85.8 82.8 85.4 82.8C85 82.8 84.7 82.9 84.5 83C84.3 83.1 84.1 83.3 84 83.5C83.9 83.7 83.8 84 83.7 84.3C83.7 84.6 83.6 84.9 83.6 85.2V89.9H80.7V75.2H83.7Z" fill="#F4F5FF"/>
<path d="M15.1002 72.7004H20.4002V74.0004H13.7002V63.9004H20.2002V65.1004H15.2002V68.1004H20.0002V69.3004H15.2002C15.1002 69.3004 15.1002 72.7004 15.1002 72.7004ZM27.2002 73.9004V73.3004V72.8004C27.0002 73.2004 26.7002 73.5004 26.3002 73.7004C25.9002 74.0004 25.4002 74.1004 25.0002 74.1004C24.6002 74.1004 24.2002 74.0004 23.9002 73.9004C23.6002 73.8004 23.3002 73.6004 23.1002 73.3004C22.9002 73.0004 22.7002 72.8004 22.6002 72.4004C22.5002 72.1004 22.5002 71.7004 22.5002 71.3004V67.1004H23.8002V70.8004C23.8002 71.1004 23.8002 71.3004 23.9002 71.6004C23.9002 71.9004 24.0002 72.1004 24.1002 72.3004C24.2002 72.5004 24.4002 72.6004 24.6002 72.8004C24.8002 72.9004 25.1002 73.0004 25.4002 73.0004C25.9002 73.0004 26.4002 72.8004 26.7002 72.4004C27.0002 72.0004 27.2002 71.5004 27.2002 70.8004V67.2004H28.5002V74.0004L27.2002 73.9004ZM30.9002 67.9004V67.1004H32.2002V68.2004C32.4002 67.8004 32.7002 67.5004 33.0002 67.2004C33.4002 66.9004 33.8002 66.8004 34.2002 66.8004C34.4002 66.8004 34.6002 66.8004 34.7002 66.9004L34.6002 68.1004C34.4002 68.1004 34.2002 68.0004 34.0002 68.0004C33.7002 68.0004 33.4002 68.1004 33.2002 68.2004C33.0002 68.3004 32.8002 68.5004 32.6002 68.7004C32.5002 68.9004 32.3002 69.1004 32.2002 69.4004C32.1002 69.7004 32.1002 69.9004 32.1002 70.2004V73.7004H31.0002V68.4004C31.0002 68.4004 31.0002 68.2004 30.9002 67.9004ZM42.9002 70.5004C42.9002 71.0004 42.8002 71.5004 42.6002 71.9004C42.4002 72.3004 42.2002 72.7004 41.8002 73.0004C41.5002 73.3004 41.1002 73.6004 40.6002 73.7004C40.1002 73.8004 39.7002 74.0004 39.2002 74.0004C38.7002 74.0004 38.2002 73.9004 37.8002 73.7004C37.4002 73.5004 37.0002 73.3004 36.6002 73.0004C36.3002 72.7004 36.0002 72.3004 35.8002 71.9004C35.6002 71.5004 35.5002 71.0004 35.5002 70.5004C35.5002 70.0004 35.6002 69.5004 35.8002 69.1004C36.0002 68.7004 36.2002 68.3004 36.6002 68.0004C36.9002 67.7004 37.3002 67.4004 37.8002 67.3004C38.3002 67.2004 38.7002 67.0004 39.2002 67.0004C39.7002 67.0004 40.2002 67.1004 40.6002 67.3004C41.0002 67.5004 41.4002 67.7004 41.8002 68.0004C42.1002 68.3004 42.4002 68.7004 42.6002 69.1004C42.8002 69.5004 42.9002 70.0004 42.9002 70.5004ZM41.5002 70.5004C41.5002 70.2004 41.5002 69.9004 41.4002 69.6004C41.3002 69.3004 41.1002 69.1004 41.0002 68.8004C40.8002 68.6004 40.6002 68.4004 40.3002 68.3004C40.0002 68.2004 39.7002 68.1004 39.3002 68.1004C38.9002 68.1004 38.6002 68.2004 38.3002 68.3004C38.0002 68.4004 37.8002 68.6004 37.6002 68.8004C37.4002 69.0004 37.3002 69.3004 37.2002 69.6004C37.1002 69.9004 37.1002 70.2004 37.1002 70.5004C37.1002 70.8004 37.1002 71.1004 37.2002 71.4004C37.3002 71.7004 37.5002 71.9004 37.6002 72.2004C37.8002 72.4004 38.0002 72.6004 38.3002 72.7004C38.6002 72.8004 38.9002 72.9004 39.3002 72.9004C39.7002 72.9004 40.0002 72.8004 40.3002 72.7004C40.6002 72.6004 40.8002 72.4004 41.0002 72.2004C41.2002 72.0004 41.3002 71.7004 41.4002 71.4004C41.4002 71.1004 41.5002 70.9004 41.5002 70.5004ZM46.3002 77.3004H45.0002V67.2004H46.3002V68.2004C46.5002 67.8004 46.8002 67.6004 47.3002 67.3004C47.7002 67.1004 48.2002 66.9004 48.8002 66.9004C49.3002 66.9004 49.8002 67.0004 50.2002 67.2004C50.6002 67.4004 51.0002 67.6004 51.3002 68.0004C51.6002 68.3004 51.8002 68.7004 52.0002 69.1004C52.2002 69.5004 52.3002 70.0004 52.3002 70.5004C52.3002 71.0004 52.2002 71.5004 52.0002 71.9004C51.8002 72.3004 51.6002 72.7004 51.3002 73.0004C51.0002 73.3004 50.7002 73.6004 50.2002 73.8004C49.8002 74.0004 49.3002 74.1004 48.8002 74.1004C48.3002 74.1004 47.9002 74.0004 47.4002 73.8004C47.0002 73.6004 46.6002 73.3004 46.4002 72.9004V77.3004H46.3002ZM50.8002 70.5004C50.8002 70.2004 50.8002 69.9004 50.7002 69.6004C50.6002 69.3004 50.5002 69.1004 50.3002 68.8004C50.1002 68.6004 49.9002 68.4004 49.6002 68.3004C49.3002 68.2004 49.0002 68.1004 48.6002 68.1004C48.3002 68.1004 48.0002 68.2004 47.7002 68.3004C47.4002 68.4004 47.2002 68.6004 47.0002 68.8004C46.8002 69.0004 46.6002 69.3004 46.5002 69.6004C46.4002 69.9004 46.3002 70.2004 46.3002 70.5004C46.3002 70.8004 46.4002 71.1004 46.5002 71.4004C46.6002 71.7004 46.8002 71.9004 47.0002 72.2004C47.2002 72.4004 47.4002 72.6004 47.7002 72.7004C48.0002 72.8004 48.3002 72.9004 48.6002 72.9004C49.0002 72.9004 49.3002 72.8004 49.6002 72.7004C49.9002 72.6004 50.1002 72.4004 50.3002 72.2004C50.5002 72.0004 50.6002 71.7004 50.7002 71.4004C50.7002 71.1004 50.8002 70.8004 50.8002 70.5004ZM60.5002 70.5004V70.9004H55.2002C55.2002 71.2004 55.3002 71.4004 55.4002 71.7004C55.5002 72.0004 55.7002 72.2004 55.9002 72.3004C56.1002 72.5004 56.3002 72.6004 56.6002 72.7004C56.9002 72.8004 57.1002 72.8004 57.4002 72.8004C57.9002 72.8004 58.2002 72.7004 58.6002 72.5004C58.9002 72.3004 59.2002 72.1004 59.4002 71.8004L60.3002 72.6004C59.9002 73.1004 59.5002 73.4004 59.0002 73.6004C58.5002 73.8004 58.0002 73.9004 57.4002 73.9004C56.9002 73.9004 56.4002 73.8004 56.0002 73.6004C55.6002 73.4004 55.2002 73.2004 54.9002 72.9004C54.6002 72.6004 54.3002 72.2004 54.2002 71.8004C54.0002 71.4004 53.9002 70.9004 53.9002 70.4004C53.9002 69.9004 54.0002 69.4004 54.2002 69.0004C54.4002 68.6004 54.6002 68.2004 54.9002 67.9004C55.2002 67.6004 55.6002 67.3004 56.0002 67.2004C56.4002 67.0004 56.9002 66.9004 57.4002 66.9004C57.9002 66.9004 58.3002 67.0004 58.7002 67.2004C59.1002 67.4004 59.5002 67.6004 59.7002 67.9004C60.0002 68.2004 60.2002 68.6004 60.3002 69.0004C60.5002 69.5004 60.5002 69.9004 60.5002 70.5004ZM59.2002 69.9004C59.2002 69.6004 59.1002 69.4004 59.1002 69.1004C59.0002 68.9004 58.9002 68.7004 58.7002 68.5004C58.5002 68.3004 58.3002 68.2004 58.1002 68.1004C57.9002 68.0004 57.6002 68.0004 57.3002 68.0004C57.0002 68.0004 56.8002 68.0004 56.5002 68.1004C56.2002 68.2004 56.0002 68.3004 55.9002 68.5004C55.7002 68.7004 55.6002 68.9004 55.4002 69.1004C55.3002 69.3004 55.2002 69.6004 55.2002 69.9004H59.2002ZM66.8002 69.5004C66.8002 69.0004 66.7002 68.6004 66.3002 68.4004C66.0002 68.1004 65.6002 68.0004 65.1002 68.0004C64.7002 68.0004 64.4002 68.1004 64.0002 68.2004C63.7002 68.3004 63.4002 68.5004 63.2002 68.8004L62.5002 67.9004C62.8002 67.6004 63.2002 67.3004 63.7002 67.2004C64.2002 67.0004 64.7002 66.9004 65.2002 66.9004C65.7002 66.9004 66.1002 67.0004 66.5002 67.1004C66.9002 67.2004 67.1002 67.4004 67.4002 67.7004C67.6002 67.9004 67.8002 68.2004 67.9002 68.5004C68.0002 68.8004 68.1002 69.2004 68.1002 69.5004V73.1004C68.1002 73.4004 68.1002 73.6004 68.2002 73.7004H67.0002C66.9002 73.4004 66.9002 73.1004 66.9002 72.7004C66.6002 73.1004 66.3002 73.3004 66.0002 73.5004C65.6002 73.7004 65.2002 73.8004 64.7002 73.8004C64.4002 73.8004 64.2002 73.8004 63.9002 73.7004C63.6002 73.6004 63.4002 73.5004 63.1002 73.3004L62.5002 72.7004C62.4002 72.4004 62.3002 72.1004 62.3002 71.7004C62.3002 71.2004 62.4002 70.8004 62.7002 70.5004C63.0002 70.2004 63.3002 70.0004 63.8002 69.8004C64.2002 69.7004 64.7002 69.5004 65.3002 69.5004C65.9002 69.4004 66.4002 69.4004 67.0002 69.4004L66.8002 69.5004ZM66.5002 70.7004H65.5002C65.1002 70.7004 64.8002 70.8004 64.5002 70.9004C64.2002 71.0004 64.0002 71.1004 63.8002 71.3004C63.6002 71.5004 63.5002 71.7004 63.5002 72.0004C63.5002 72.2004 63.5002 72.4004 63.6002 72.5004C63.7002 72.6004 63.8002 72.8004 63.9002 72.8004C64.0002 72.8004 64.2002 72.9004 64.3002 73.0004H64.8002C65.4002 73.0004 65.9002 72.8004 66.2002 72.4004C66.5002 72.0004 66.7002 71.6004 66.7002 71.0004V70.6004L66.5002 70.7004ZM71.8002 67.2004V68.3004C71.9002 68.1004 72.0002 67.9004 72.2002 67.8004C72.3002 67.7004 72.5002 67.5004 72.7002 67.4004L73.3002 67.1004C73.5002 67.0004 73.8002 67.0004 74.0002 67.0004C74.4002 67.0004 74.8002 67.1004 75.1002 67.2004C75.4002 67.3004 75.7002 67.5004 75.9002 67.8004C76.1002 68.1004 76.3002 68.3004 76.4002 68.7004C76.5002 69.0004 76.5002 69.4004 76.5002 69.8004V74.0004H75.2002V70.3004C75.2002 70.0004 75.2002 69.8004 75.1002 69.5004C75.1002 69.2004 75.0002 69.0004 74.9002 68.9004C74.8002 68.7004 74.6002 68.6004 74.4002 68.4004C74.2002 68.3004 73.9002 68.2004 73.6002 68.2004C73.1002 68.2004 72.6002 68.4004 72.3002 68.8004C72.0002 69.2004 71.8002 69.7004 71.8002 70.4004V74.0004H70.5002V68.7004V68.0004V67.2004H71.8002Z" fill="#F4F5FF"/>
<path d="M4.62109 42.9639L6.9545 40.6304L11.2679 44.9437L8.93452 47.2771L4.62109 42.9639Z" fill="#F4F5FF"/>
<path d="M17.8996 30.3002L15.0996 30.6002H14.9996L12.8996 32.7002L11.0996 34.5002L13.7996 37.2002L15.9996 39.4002H16.4996L18.7996 39.1002L19.2996 39.0002L20.9996 37.3002L22.9996 35.3002L20.0996 32.5002L17.8996 30.3002V30.2002V30.3002Z" fill="#F4F5FF"/>
<path d="M7.42188 40.2168L9.68458 37.954L13.998 42.2673L11.7353 44.5301L7.42188 40.2168Z" fill="#F4F5FF"/>
<path d="M10.2412 37.4238L11.4433 36.2217L15.7567 40.535L14.5546 41.7371L10.2412 37.4238Z" fill="#F4F5FF"/>
<path d="M18.3047 29.3711L20.9209 26.7548L25.2344 31.068L22.6181 33.6844L18.3047 29.3711Z" fill="#F4F5FF"/>
<path d="M21.3477 26.3369L24.0346 23.6499L28.348 27.9631L25.6611 30.6502L21.3477 26.3369Z" fill="#F4F5FF"/>
<path d="M24.5986 23.0713L27.6391 20.0307L31.9526 24.3439L28.9121 27.3846L24.5986 23.0713Z" fill="#F4F5FF"/>
</svg>
