<svg width="157" height="40" viewBox="0 0 157 40" fill="none" xmlns="http://www.w3.org/2000/svg">
<path d="M4.14567 14.7881L4.21476 14.798C4.62275 14.8178 4.92545 14.8277 5.12286 14.8277C6.30734 14.8277 7.16937 14.613 7.70897 14.1835C8.24856 13.7475 8.51836 13.0504 8.51836 12.0924C8.51836 11.2268 8.26501 10.5826 7.75832 10.1598C7.25163 9.7303 6.49159 9.51557 5.4782 9.51557C5.18208 9.51557 4.93532 9.51888 4.73791 9.52548C4.54049 9.53209 4.34308 9.542 4.14567 9.55521V14.7881ZM4.15554 8.37584C4.20818 8.38244 4.27399 8.38905 4.35295 8.39566C4.43192 8.39566 4.54707 8.39566 4.69842 8.39566C5.75129 8.39566 6.52449 8.18423 7.01802 7.76137C7.51814 7.33191 7.76819 6.66458 7.76819 5.7594C7.76819 4.96654 7.53788 4.37851 7.07725 3.99529C6.61662 3.61208 5.90922 3.42047 4.95506 3.42047C4.79713 3.42047 4.54707 3.43368 4.20489 3.46011H4.14567L4.15554 8.37584ZM0 2.33029H6.07044C7.55762 2.33029 8.67629 2.59788 9.42646 3.13306C10.1766 3.66163 10.5517 4.45449 10.5517 5.51163C10.5517 6.3111 10.3082 6.98173 9.82128 7.52351C9.33433 8.05869 8.61707 8.45182 7.66948 8.70289C8.82764 8.72271 9.72916 9.02003 10.374 9.59486C11.0189 10.1697 11.3414 10.9625 11.3414 11.9734C11.3414 13.2552 10.9038 14.2397 10.0286 14.9268C9.15337 15.6074 7.89322 15.9476 6.24811 15.9476H0V14.9566L1.19435 14.8475L1.52008 14.5304V3.70788L1.19435 3.42047L0 3.32136V2.33029Z" fill="white"/>
<path d="M15.4278 5.81887H16.3951V12.1122C16.3951 12.9183 16.5432 13.4997 16.8393 13.8565C17.142 14.2067 17.6355 14.3817 18.3199 14.3817C18.5502 14.3817 18.8036 14.3586 19.0799 14.3124C19.3629 14.2595 19.6886 14.1769 20.0571 14.0646V7.58298H18.7443V6.7703L21.6167 5.81887H22.5445V14.6493L22.8209 14.9566L23.8771 15.0359V15.9476H20.0571V14.8277C19.353 15.2902 18.7312 15.6239 18.1916 15.8287C17.6586 16.0269 17.1486 16.126 16.6616 16.126C15.7272 16.126 15.0297 15.8419 14.5691 15.2737C14.115 14.7055 13.888 13.8333 13.888 12.6573V7.58298H12.5752V6.7703L15.4278 5.81887Z" fill="white"/>
<path d="M32.2375 6.30449V9.01012H31.0234L30.826 7.48387L30.5792 7.25592C30.3555 7.15021 30.1318 7.07092 29.908 7.01807C29.6843 6.96521 29.4639 6.93878 29.2467 6.93878C28.7597 6.93878 28.3814 7.0478 28.1116 7.26583C27.8418 7.47726 27.7069 7.77459 27.7069 8.1578C27.7069 8.47494 27.8122 8.74914 28.0227 8.98039C28.2333 9.21164 28.7565 9.53209 29.5922 9.94173L29.6317 9.96155C31.5729 10.8998 32.5435 11.8545 32.5435 12.8258C32.5435 13.8631 32.175 14.6824 31.438 15.2836C30.7076 15.8783 29.7007 16.1756 28.4176 16.1756C27.9174 16.1756 27.3877 16.1326 26.8284 16.0467C26.2756 15.9609 25.6933 15.832 25.0813 15.6602V12.6573H26.2954L26.5323 14.4016L26.7396 14.6295C27.0028 14.7683 27.2759 14.874 27.5588 14.9467C27.8418 15.0193 28.1346 15.0557 28.4373 15.0557C28.9703 15.0557 29.3882 14.9268 29.6909 14.6692C30.0002 14.4049 30.1548 14.0448 30.1548 13.5889C30.1548 13.0141 29.5724 12.4624 28.4077 11.9338C28.0129 11.7554 27.7069 11.61 27.4897 11.4977C26.654 11.0815 26.0651 10.6718 25.7229 10.2688C25.3873 9.85914 25.2195 9.37682 25.2195 8.82182C25.2195 7.91664 25.5781 7.18655 26.2954 6.63155C27.0192 6.07655 27.9833 5.79905 29.1875 5.79905C29.7007 5.79905 30.2107 5.84199 30.7174 5.92789C31.2241 6.00717 31.7308 6.13271 32.2375 6.30449Z" fill="white"/>
<path d="M36.7879 5.87833H37.7651V14.6493L38.0612 14.9566L39.1963 15.0359V15.9476H33.8958V15.0359L34.9914 14.9566L35.2777 14.6493V7.64244H33.9451V6.82976L36.7879 5.87833Z" fill="white"/>
<path d="M40.0945 15.9476V15.0359L41.1309 14.9566L41.4172 14.6493V7.64244H40.0353V6.82976L42.9471 5.87833H43.9243V7.07753C44.6942 6.64807 45.3589 6.33423 45.9182 6.13601C46.4775 5.9378 46.9645 5.83869 47.3791 5.83869C48.3003 5.83869 48.988 6.11619 49.442 6.67119C49.8961 7.22619 50.1231 8.07191 50.1231 9.20834V14.6493L50.3896 14.9566L51.4556 15.0359V15.9476H46.5104V15.0359L47.3791 14.9566L47.6554 14.6493V9.79307C47.6554 9.03986 47.5107 8.48816 47.2211 8.13798C46.9316 7.78119 46.471 7.6028 45.8392 7.6028C45.5958 7.6028 45.3128 7.63253 44.9904 7.692C44.6745 7.75146 44.3192 7.83735 43.9243 7.94968V14.6493L44.2007 14.9566L45.0891 15.0359V15.9476H40.0945Z" fill="white"/>
<path d="M59.0067 9.69396V9.47593C59.0067 8.65003 58.8553 8.01905 58.5526 7.58298C58.2499 7.1403 57.8156 6.91896 57.2497 6.91896C56.6311 6.91896 56.1343 7.16673 55.7592 7.66226C55.3841 8.15119 55.1801 8.82843 55.1472 9.69396H59.0067ZM61.6619 13.4303V14.9367C60.9709 15.3332 60.2734 15.6305 59.5693 15.8287C58.8652 16.0269 58.1611 16.126 57.457 16.126C55.9501 16.126 54.7393 15.6602 53.8246 14.7286C52.9165 13.797 52.4624 12.5648 52.4624 11.0319C52.4624 9.49245 52.9264 8.23709 53.8542 7.26583C54.7886 6.28797 55.9895 5.79905 57.457 5.79905C58.7862 5.79905 59.8193 6.20208 60.5564 7.00816C61.2934 7.80762 61.6619 8.93414 61.6619 10.3877V10.7742H55.0485V10.8337C55.0485 11.99 55.3381 12.8984 55.9172 13.5592C56.4962 14.2199 57.2925 14.5502 58.3059 14.5502C58.8389 14.5502 59.3817 14.4577 59.9345 14.2727C60.4873 14.0877 61.063 13.8069 61.6619 13.4303Z" fill="white"/>
<path d="M70.2987 6.30449V9.01012H69.0846L68.8872 7.48387L68.6404 7.25592C68.4167 7.15021 68.1929 7.07092 67.9692 7.01807C67.7455 6.96521 67.525 6.93878 67.3079 6.93878C66.8209 6.93878 66.4425 7.0478 66.1727 7.26583C65.903 7.47726 65.7681 7.77459 65.7681 8.1578C65.7681 8.47494 65.8733 8.74914 66.0839 8.98039C66.2945 9.21164 66.8176 9.53209 67.6533 9.94173L67.6928 9.96155C69.634 10.8998 70.6047 11.8545 70.6047 12.8258C70.6047 13.8631 70.2362 14.6824 69.4992 15.2836C68.7687 15.8783 67.7619 16.1756 66.4787 16.1756C65.9786 16.1756 65.4489 16.1326 64.8896 16.0467C64.3368 15.9609 63.7544 15.832 63.1425 15.6602V12.6573H64.3566L64.5934 14.4016L64.8007 14.6295C65.0639 14.7683 65.337 14.874 65.62 14.9467C65.903 15.0193 66.1958 15.0557 66.4985 15.0557C67.0315 15.0557 67.4493 14.9268 67.7521 14.6692C68.0613 14.4049 68.216 14.0448 68.216 13.5889C68.216 13.0141 67.6336 12.4624 66.4689 11.9338C66.074 11.7554 65.7681 11.61 65.5509 11.4977C64.7152 11.0815 64.1262 10.6718 63.7841 10.2688C63.4485 9.85914 63.2807 9.37682 63.2807 8.82182C63.2807 7.91664 63.6393 7.18655 64.3566 6.63155C65.0804 6.07655 66.0444 5.79905 67.2486 5.79905C67.7619 5.79905 68.2719 5.84199 68.7786 5.92789C69.2853 6.00717 69.792 6.13271 70.2987 6.30449Z" fill="white"/>
<path d="M79.3402 6.30449V9.01012H78.1261L77.9287 7.48387L77.6819 7.25592C77.4582 7.15021 77.2344 7.07092 77.0107 7.01807C76.787 6.96521 76.5665 6.93878 76.3494 6.93878C75.8624 6.93878 75.484 7.0478 75.2142 7.26583C74.9445 7.47726 74.8096 7.77459 74.8096 8.1578C74.8096 8.47494 74.9148 8.74914 75.1254 8.98039C75.336 9.21164 75.8591 9.53209 76.6948 9.94173L76.7343 9.96155C78.6756 10.8998 79.6462 11.8545 79.6462 12.8258C79.6462 13.8631 79.2777 14.6824 78.5407 15.2836C77.8102 15.8783 76.8034 16.1756 75.5202 16.1756C75.0201 16.1756 74.4904 16.1326 73.9311 16.0467C73.3783 15.9609 72.7959 15.832 72.184 15.6602V12.6573H73.3981L73.6349 14.4016L73.8422 14.6295C74.1054 14.7683 74.3785 14.874 74.6615 14.9467C74.9445 15.0193 75.2373 15.0557 75.54 15.0557C76.073 15.0557 76.4909 14.9268 76.7936 14.6692C77.1028 14.4049 77.2575 14.0448 77.2575 13.5889C77.2575 13.0141 76.6751 12.4624 75.5104 11.9338C75.1155 11.7554 74.8096 11.61 74.5924 11.4977C73.7567 11.0815 73.1677 10.6718 72.8256 10.2688C72.49 9.85914 72.3222 9.37682 72.3222 8.82182C72.3222 7.91664 72.6808 7.18655 73.3981 6.63155C74.1219 6.07655 75.0859 5.79905 76.2902 5.79905C76.8034 5.79905 77.3134 5.84199 77.8201 5.92789C78.3268 6.00717 78.8335 6.13271 79.3402 6.30449Z" fill="white"/>
<path d="M88.8259 9.41646H93.8796V10.249L92.7642 10.3481L92.4286 10.6256V15.4818C91.6127 15.7197 90.8559 15.8981 90.1584 16.017C89.4675 16.1359 88.8291 16.1954 88.2435 16.1954C87.5723 16.1954 86.9406 16.126 86.3483 15.9873C85.7627 15.8485 85.2329 15.647 84.7592 15.3827C83.6734 14.7617 82.8179 13.8961 82.1928 12.7861C81.5742 11.6761 81.265 10.4571 81.265 9.12905C81.265 6.97512 81.9197 5.26387 83.2292 3.99529C84.5387 2.72011 86.3023 2.08252 88.5199 2.08252C89.1319 2.08252 89.7636 2.13207 90.415 2.23118C91.0665 2.33029 91.7311 2.47895 92.4089 2.67716V5.89815H91.2738L90.9678 4.05476L90.6815 3.68806C90.2999 3.50967 89.9182 3.37752 89.5365 3.29163C89.1615 3.20574 88.7765 3.16279 88.3817 3.16279C86.8221 3.16279 85.5916 3.68145 84.6901 4.71878C83.7951 5.7561 83.3477 7.17994 83.3477 8.9903C83.3477 10.8866 83.8116 12.3831 84.7394 13.4799C85.6738 14.57 86.9406 15.1151 88.5396 15.1151C88.8489 15.1151 89.1746 15.0953 89.5168 15.0557C89.8656 15.0094 90.2275 14.94 90.6026 14.8475V10.6256L90.2571 10.3481L88.8259 10.249V9.41646Z" fill="white"/>
<path d="M95.0345 15.9476V15.2142L96.1104 15.1151L96.4559 14.7881V7.44423H95.0345V6.80994L97.3837 6.08646H98.1536V7.98932C98.4826 7.65235 98.8248 7.322 99.1802 6.99824C99.5421 6.66789 99.9205 6.34414 100.315 6.02699C100.375 6.00717 100.437 5.99396 100.503 5.98735C100.575 5.98074 100.68 5.97744 100.819 5.97744C101.023 5.97744 101.223 6.00056 101.421 6.04681C101.618 6.08646 101.822 6.15253 102.033 6.24503V7.98932H101.391C101.26 7.83075 101.105 7.71182 100.927 7.63253C100.756 7.54664 100.565 7.50369 100.355 7.50369C100.032 7.50369 99.6901 7.62592 99.3282 7.87039C98.9729 8.10825 98.5813 8.48155 98.1536 8.9903V14.7881L98.4991 15.1151L99.9106 15.2142V15.9476H95.0345Z" fill="white"/>
<path d="M109.406 9.75343V9.43629C109.406 8.617 109.225 7.98932 108.863 7.55325C108.508 7.11717 107.988 6.89914 107.304 6.89914C106.632 6.89914 106.05 7.17003 105.557 7.71182C105.07 8.247 104.797 8.92753 104.737 9.75343H109.406ZM111.212 13.797V14.9169C110.614 15.3134 109.992 15.614 109.347 15.8188C108.702 16.0236 108.054 16.126 107.402 16.126C106.067 16.126 104.981 15.6668 104.145 14.7484C103.316 13.8234 102.901 12.6209 102.901 11.1409C102.901 9.62129 103.336 8.38244 104.204 7.42441C105.08 6.45976 106.201 5.97744 107.57 5.97744C108.689 5.97744 109.574 6.33753 110.225 7.05771C110.883 7.77128 111.212 8.74584 111.212 9.98138C111.212 10.1466 111.209 10.2721 111.203 10.358C111.203 10.4439 111.196 10.5265 111.183 10.6058H104.639V10.8337C104.639 12.1089 104.945 13.1198 105.557 13.8664C106.169 14.6064 106.994 14.9764 108.034 14.9764C108.514 14.9764 109.011 14.8806 109.525 14.689C110.044 14.4974 110.607 14.2 111.212 13.797Z" fill="white"/>
<path d="M119.336 9.75343V9.43629C119.336 8.617 119.155 7.98932 118.793 7.55325C118.438 7.11717 117.918 6.89914 117.234 6.89914C116.562 6.89914 115.98 7.17003 115.486 7.71182C114.999 8.247 114.726 8.92753 114.667 9.75343H119.336ZM121.142 13.797V14.9169C120.544 15.3134 119.922 15.614 119.277 15.8188C118.632 16.0236 117.984 16.126 117.332 16.126C115.996 16.126 114.911 15.6668 114.075 14.7484C113.246 13.8234 112.831 12.6209 112.831 11.1409C112.831 9.62129 113.266 8.38244 114.134 7.42441C115.009 6.45976 116.131 5.97744 117.5 5.97744C118.619 5.97744 119.504 6.33753 120.155 7.05771C120.813 7.77128 121.142 8.74584 121.142 9.98138C121.142 10.1466 121.139 10.2721 121.132 10.358C121.132 10.4439 121.126 10.5265 121.113 10.6058H114.568V10.8337C114.568 12.1089 114.874 13.1198 115.486 13.8664C116.098 14.6064 116.924 14.9764 117.964 14.9764C118.444 14.9764 118.941 14.8806 119.454 14.689C119.974 14.4974 120.537 14.2 121.142 13.797Z" fill="white"/>
<path d="M122.613 15.9476V15.2142L123.709 15.1151L124.054 14.7881V7.44423H122.613V6.80994L124.962 6.08646H125.732V7.19646C126.542 6.74717 127.193 6.43333 127.687 6.25494C128.18 6.06994 128.614 5.97744 128.989 5.97744C129.871 5.97744 130.546 6.24172 131.013 6.7703C131.48 7.29887 131.714 8.0653 131.714 9.06959V14.7881L132.059 15.1151L133.145 15.2142V15.9476H128.723V15.2142L129.69 15.1151L130.036 14.7881V9.41646C130.036 8.65664 129.878 8.11816 129.562 7.80101C129.253 7.48387 128.73 7.3253 127.993 7.3253C127.67 7.3253 127.321 7.38146 126.946 7.49378C126.571 7.5995 126.166 7.76467 125.732 7.98932V14.7881L126.078 15.1151L127.045 15.2142V15.9476H122.613Z" fill="white"/>
<path d="M0.0380725 39.1444V38.193L1.49329 38.0797L1.88811 37.7513V24.9749L1.49329 24.6464L0.0380725 24.5105V23.5817H5.67844V24.5105L4.35859 24.6464L3.96377 24.9749V38.0797H9.18674L9.51388 37.706L9.90871 34.9196H11.1045V39.1444H0.0380725Z" fill="white"/>
<path d="M19.7342 32.0653V31.7029C19.7342 30.7665 19.5274 30.0492 19.1138 29.5508C18.7077 29.0525 18.1136 28.8033 17.3314 28.8033C16.5643 28.8033 15.8988 29.1129 15.3347 29.7321C14.7782 30.3437 14.4661 31.1214 14.3984 32.0653H19.7342ZM21.7986 36.6866V37.9665C21.1142 38.4195 20.4035 38.7631 19.6665 38.9972C18.9295 39.2313 18.1888 39.3483 17.4442 39.3483C15.9176 39.3483 14.6767 38.8235 13.7216 37.7739C12.774 36.7168 12.3002 35.3425 12.3002 33.651C12.3002 31.9143 12.7966 30.4985 13.7893 29.4036C14.7895 28.3011 16.0717 27.7499 17.636 27.7499C18.9145 27.7499 19.926 28.1614 20.6705 28.9845C21.4226 29.8 21.7986 30.9138 21.7986 32.3258C21.7986 32.5146 21.7948 32.6581 21.7873 32.7562C21.7873 32.8544 21.7798 32.9488 21.7648 33.0394H14.2856V33.2999C14.2856 34.7573 14.6353 35.9126 15.3347 36.7658C16.0341 37.6116 16.978 38.0344 18.1662 38.0344C18.7152 38.0344 19.283 37.9249 19.8696 37.706C20.4637 37.487 21.1067 37.1472 21.7986 36.6866Z" fill="white"/>
<path d="M30.5073 37.015V32.9261C28.5746 33.4623 27.3036 33.9531 26.6944 34.3986C26.0928 34.8441 25.792 35.4293 25.792 36.1542C25.792 36.7356 25.9574 37.2 26.2883 37.5474C26.6267 37.8872 27.078 38.0571 27.642 38.0571C28.003 38.0571 28.4166 37.9702 28.8829 37.7966C29.3567 37.6229 29.8982 37.3624 30.5073 37.015ZM30.5073 37.7966C29.7628 38.31 29.0784 38.6914 28.4542 38.9405C27.8375 39.1822 27.2585 39.303 26.717 39.303C25.8221 39.303 25.1038 39.0312 24.5624 38.4875C24.0284 37.9438 23.7614 37.2265 23.7614 36.3354C23.7614 35.3463 24.1638 34.5685 24.9685 34.0022C25.7807 33.4358 27.627 32.8053 30.5073 32.1106V31.3744C30.5073 30.4003 30.3494 29.7245 30.0335 29.347C29.7177 28.9694 29.1687 28.7806 28.3865 28.7806C28.0932 28.7806 27.8037 28.8108 27.5179 28.8712C27.2321 28.9316 26.9351 29.0223 26.6267 29.1431V31.0912H25.0362C24.7579 31.0912 24.5661 31.0422 24.4608 30.944C24.3631 30.8383 24.3142 30.6495 24.3142 30.3777C24.3142 29.6226 24.7466 28.9958 25.6115 28.4975C26.4839 27.9991 27.6082 27.7499 28.9844 27.7499C30.1952 27.7499 31.0751 28.0142 31.6241 28.5428C32.1731 29.0713 32.4476 29.9208 32.4476 31.0912V37.8192L32.8424 38.193L34.0607 38.3063V39.1444H30.8119L30.5073 37.7966Z" fill="white"/>
<path d="M43.3448 37.083V29.1204C42.9236 28.9996 42.5439 28.909 42.2054 28.8486C41.8745 28.7806 41.5775 28.7466 41.3143 28.7466C40.1335 28.7466 39.1784 29.1846 38.449 30.0605C37.727 30.9364 37.366 32.0918 37.366 33.5265C37.366 34.863 37.6781 35.9239 38.3023 36.7092C38.934 37.4945 39.7763 37.8872 40.8292 37.8872C41.2353 37.8872 41.6452 37.823 42.0588 37.6946C42.4799 37.5587 42.9086 37.3548 43.3448 37.083ZM43.3448 23.627H41.5737V22.9021L44.3939 22.0753H45.2625V37.8192L45.6573 38.193L46.7628 38.3063V39.1444H43.3448V37.9438C42.7431 38.4271 42.1565 38.782 41.585 39.0085C41.0134 39.235 40.4156 39.3483 39.7914 39.3483C38.4978 39.3483 37.4299 38.8424 36.5876 37.8305C35.7529 36.8112 35.3355 35.5086 35.3355 33.9229C35.3355 32.0804 35.8845 30.5891 36.9825 29.4489C38.088 28.3011 39.5244 27.7273 41.2917 27.7273C41.6 27.7273 41.9272 27.7499 42.2731 27.7952C42.6191 27.8405 42.9763 27.9047 43.3448 27.9878V23.627Z" fill="white"/>
<path d="M55.8551 32.0653V31.7029C55.8551 30.7665 55.6483 30.0492 55.2347 29.5508C54.8286 29.0525 54.2344 28.8033 53.4523 28.8033C52.6852 28.8033 52.0197 29.1129 51.4556 29.7321C50.8991 30.3437 50.587 31.1214 50.5193 32.0653H55.8551ZM57.9195 36.6866V37.9665C57.2351 38.4195 56.5244 38.7631 55.7874 38.9972C55.0504 39.2313 54.3097 39.3483 53.5651 39.3483C52.0385 39.3483 50.7976 38.8235 49.8425 37.7739C48.8949 36.7168 48.4211 35.3425 48.4211 33.651C48.4211 31.9143 48.9175 30.4985 49.9102 29.4036C50.9104 28.3011 52.1926 27.7499 53.7569 27.7499C55.0354 27.7499 56.0469 28.1614 56.7914 28.9845C57.5435 29.8 57.9195 30.9138 57.9195 32.3258C57.9195 32.5146 57.9157 32.6581 57.9082 32.7562C57.9082 32.8544 57.9007 32.9488 57.8856 33.0394H50.4065V33.2999C50.4065 34.7573 50.7562 35.9126 51.4556 36.7658C52.155 37.6116 53.0989 38.0344 54.2871 38.0344C54.8361 38.0344 55.4039 37.9249 55.9905 37.706C56.5846 37.487 57.2276 37.1472 57.9195 36.6866Z" fill="white"/>
<path d="M59.6003 39.1444V38.3063L60.8299 38.193L61.2247 37.8192V29.4262H59.6003V28.7013L62.2851 27.8745H63.165V30.0492C63.541 29.6641 63.9321 29.2865 64.3382 28.9165C64.7518 28.539 65.1843 28.169 65.6355 27.8065C65.7032 27.7839 65.7746 27.7688 65.8498 27.7612C65.9326 27.7537 66.0529 27.7499 66.2108 27.7499C66.444 27.7499 66.6733 27.7763 66.8989 27.8292C67.1246 27.8745 67.3577 27.95 67.5984 28.0557V30.0492H66.8651C66.7147 29.868 66.538 29.7321 66.3349 29.6414C66.1394 29.5433 65.9213 29.4942 65.6806 29.4942C65.3121 29.4942 64.9211 29.6339 64.5074 29.9133C64.1013 30.1851 63.6539 30.6118 63.165 31.1932V37.8192L63.5598 38.193L65.173 38.3063V39.1444H59.6003Z" fill="white"/>
<path d="M75.6866 28.2596V30.8874H74.5473L74.3668 29.245C74.0584 29.0789 73.7651 28.9543 73.4869 28.8712C73.2086 28.7882 72.9304 28.7466 72.6521 28.7466C72.0505 28.7466 71.5804 28.8939 71.242 29.1884C70.9036 29.4829 70.7344 29.8944 70.7344 30.423C70.7344 30.8534 70.8698 31.2196 71.1405 31.5217C71.4112 31.8237 71.9302 32.1597 72.6972 32.5297C72.8176 32.5901 73.0018 32.677 73.25 32.7902C74.1224 33.1904 74.7541 33.5529 75.1452 33.8776C75.4309 34.1041 75.649 34.391 75.7994 34.7384C75.9499 35.0782 76.0251 35.4557 76.0251 35.871C76.0251 36.9584 75.6415 37.8117 74.8744 38.4309C74.1149 39.0425 73.0582 39.3483 71.7045 39.3483C71.148 39.3483 70.6141 39.3068 70.1027 39.2237C69.5988 39.1482 69.1325 39.0274 68.7039 38.8613V35.8484H69.8094L70.0914 37.8192C70.4148 38.008 70.7382 38.1477 71.0615 38.2383C71.3924 38.3289 71.7233 38.3742 72.0542 38.3742C72.7085 38.3742 73.2312 38.2043 73.6223 37.8645C74.0208 37.5172 74.2201 37.0641 74.2201 36.5053C74.2201 36.0372 74.0848 35.6521 73.814 35.35C73.5433 35.0404 72.8965 34.6516 71.8737 34.1834C70.7156 33.6624 69.9259 33.1716 69.5048 32.7109C69.0912 32.2503 68.8844 31.6802 68.8844 31.0006C68.8844 29.9661 69.2416 29.1657 69.956 28.5994C70.6705 28.0331 71.6782 27.7499 72.9793 27.7499C73.4982 27.7499 73.9795 27.7952 74.4232 27.8858C74.8744 27.9689 75.2956 28.0935 75.6866 28.2596Z" fill="white"/>
<path d="M90.3403 25.8244L88.0616 32.2579H92.7205L90.3403 25.8244ZM89.9793 23.3892H91.5022L97.041 37.9098L98.4286 38.193V39.1444H93.183V38.193L94.6157 38.0797L94.7849 37.7513L93.1154 33.3226H87.6668L86.0198 37.7513L86.2567 38.0797L87.757 38.193V39.1444H83.2334V38.193L84.5646 37.9098L89.9793 23.3892Z" fill="white"/>
<path d="M97.1087 27.9878H102.117V28.8486L100.899 28.9392L100.617 29.313L102.727 36.8451L105.817 27.9878H107.228L109.957 36.8451L112.304 29.313L112.123 28.9392L110.882 28.8486V27.9878H114.966V28.8486L113.669 29.0298L110.364 39.1444H108.931L106.145 30.355L103.02 39.1444H101.587L98.5188 28.9845L97.1087 28.8486V27.9878Z" fill="white"/>
<path d="M122.693 37.015V32.9261C120.761 33.4623 119.49 33.9531 118.881 34.3986C118.279 34.8441 117.978 35.4293 117.978 36.1542C117.978 36.7356 118.144 37.2 118.474 37.5474C118.813 37.8872 119.264 38.0571 119.828 38.0571C120.189 38.0571 120.603 37.9702 121.069 37.7966C121.543 37.6229 122.084 37.3624 122.693 37.015ZM122.693 37.7966C121.949 38.31 121.265 38.6914 120.64 38.9405C120.024 39.1822 119.445 39.303 118.903 39.303C118.008 39.303 117.29 39.0312 116.748 38.4875C116.215 37.9438 115.948 37.2265 115.948 36.3354C115.948 35.3463 116.35 34.5685 117.155 34.0022C117.967 33.4358 119.813 32.8053 122.693 32.1106V31.3744C122.693 30.4003 122.535 29.7245 122.22 29.347C121.904 28.9694 121.355 28.7806 120.573 28.7806C120.279 28.7806 119.99 28.8108 119.704 28.8712C119.418 28.9316 119.121 29.0223 118.813 29.1431V31.0912H117.222C116.944 31.0912 116.752 31.0422 116.647 30.944C116.549 30.8383 116.5 30.6495 116.5 30.3777C116.5 29.6226 116.933 28.9958 117.798 28.4975C118.67 27.9991 119.794 27.7499 121.171 27.7499C122.381 27.7499 123.261 28.0142 123.81 28.5428C124.359 29.0713 124.634 29.9208 124.634 31.0912V37.8192L125.029 38.193L126.247 38.3063V39.1444H122.998L122.693 37.7966Z" fill="white"/>
<path d="M127.375 39.1444V38.3063L128.605 38.193L128.999 37.8192V29.4262H127.375V28.7013L130.06 27.8745H130.94V30.0492C131.316 29.6641 131.707 29.2865 132.113 28.9165C132.526 28.539 132.959 28.169 133.41 27.8065C133.478 27.7839 133.549 27.7688 133.624 27.7612C133.707 27.7537 133.827 27.7499 133.985 27.7499C134.219 27.7499 134.448 27.7763 134.674 27.8292C134.899 27.8745 135.132 27.95 135.373 28.0557V30.0492H134.64C134.489 29.868 134.313 29.7321 134.11 29.6414C133.914 29.5433 133.696 29.4942 133.455 29.4942C133.087 29.4942 132.696 29.6339 132.282 29.9133C131.876 30.1851 131.428 30.6118 130.94 31.1932V37.8192L131.334 38.193L132.948 38.3063V39.1444H127.375Z" fill="white"/>
<path d="M144.352 37.083V29.1204C143.931 28.9996 143.551 28.909 143.213 28.8486C142.882 28.7806 142.585 28.7466 142.322 28.7466C141.141 28.7466 140.186 29.1846 139.457 30.0605C138.735 30.9364 138.374 32.0918 138.374 33.5265C138.374 34.863 138.686 35.9239 139.31 36.7092C139.942 37.4945 140.784 37.8872 141.837 37.8872C142.243 37.8872 142.653 37.823 143.066 37.6946C143.488 37.5587 143.916 37.3548 144.352 37.083ZM144.352 23.627H142.581V22.9021L145.402 22.0753H146.27V37.8192L146.665 38.193L147.77 38.3063V39.1444H144.352V37.9438C143.751 38.4271 143.164 38.782 142.593 39.0085C142.021 39.235 141.423 39.3483 140.799 39.3483C139.505 39.3483 138.438 38.8424 137.595 37.8305C136.76 36.8112 136.343 35.5086 136.343 33.9229C136.343 32.0804 136.892 30.5891 137.99 29.4489C139.096 28.3011 140.532 27.7273 142.299 27.7273C142.608 27.7273 142.935 27.7499 143.281 27.7952C143.627 27.8405 143.984 27.9047 144.352 27.9878V23.627Z" fill="white"/>
<path d="M156.524 28.2596V30.8874H155.385L155.204 29.245C154.896 29.0789 154.603 28.9543 154.325 28.8712C154.046 28.7882 153.768 28.7466 153.49 28.7466C152.888 28.7466 152.418 28.8939 152.08 29.1884C151.741 29.4829 151.572 29.8944 151.572 30.423C151.572 30.8534 151.707 31.2196 151.978 31.5217C152.249 31.8237 152.768 32.1597 153.535 32.5297C153.655 32.5901 153.84 32.677 154.088 32.7902C154.96 33.1904 155.592 33.5529 155.983 33.8776C156.269 34.1041 156.487 34.391 156.637 34.7384C156.788 35.0782 156.863 35.4557 156.863 35.871C156.863 36.9584 156.479 37.8117 155.712 38.4309C154.953 39.0425 153.896 39.3483 152.542 39.3483C151.986 39.3483 151.452 39.3068 150.94 39.2237C150.436 39.1482 149.97 39.0274 149.542 38.8613V35.8484H150.647L150.929 37.8192C151.252 38.008 151.576 38.1477 151.899 38.2383C152.23 38.3289 152.561 38.3742 152.892 38.3742C153.546 38.3742 154.069 38.2043 154.46 37.8645C154.859 37.5172 155.058 37.0641 155.058 36.5053C155.058 36.0372 154.922 35.6521 154.652 35.35C154.381 35.0404 153.734 34.6516 152.711 34.1834C151.553 33.6624 150.764 33.1716 150.342 32.7109C149.929 32.2503 149.722 31.6802 149.722 31.0006C149.722 29.9661 150.079 29.1657 150.794 28.5994C151.508 28.0331 152.516 27.7499 153.817 27.7499C154.336 27.7499 154.817 27.7952 155.261 27.8858C155.712 27.9689 156.133 28.0935 156.524 28.2596Z" fill="white"/>
<ellipse cx="36.2372" cy="2.17452" rx="2.1659" ry="2.1747" fill="white"/>
</svg>
