<svg width="160" height="36" viewBox="0 0 160 36" fill="none" xmlns="http://www.w3.org/2000/svg">
<path d="M4.64744 2.7498H0V0H12.656V2.7498H8.00853V14.5823H4.64744V2.7498Z" fill="white"/>
<path d="M27.7843 0V14.5823H24.4232V8.60353H17.8255V14.5823H14.4644V0H17.8255V5.74957H24.4232V0H27.7843Z" fill="white"/>
<path d="M42.4656 11.8741V14.5823H31.2204V0H42.1959V2.70813H34.5608V5.87456H41.3037V8.49937H34.5608V11.8741H42.4656Z" fill="white"/>
<path d="M6.41098 35.664C5.26295 35.664 4.1495 35.5112 3.07063 35.2057C2.00559 34.8863 1.14803 34.4766 0.49794 33.9766L1.63905 31.4352C2.26148 31.8935 3.00147 32.2615 3.85904 32.5392C4.7166 32.817 5.57416 32.9559 6.43172 32.9559C7.38611 32.9559 8.09152 32.817 8.54797 32.5392C9.00441 32.2476 9.23264 31.8657 9.23264 31.3935C9.23264 31.0463 9.09432 30.7616 8.81769 30.5394C8.55488 30.3033 8.20909 30.1158 7.78031 29.9769C7.36536 29.8381 6.79826 29.6853 6.07902 29.5186C4.97248 29.2548 4.06651 28.9909 3.36109 28.727C2.65568 28.4632 2.04709 28.0396 1.53531 27.4563C1.03737 26.873 0.788405 26.0953 0.788405 25.1231C0.788405 24.276 1.01663 23.5121 1.47307 22.8316C1.92952 22.1372 2.61418 21.5887 3.52707 21.1859C4.4538 20.7832 5.58108 20.5818 6.90892 20.5818C7.83564 20.5818 8.74161 20.6929 9.62684 20.9151C10.5121 21.1373 11.2866 21.4567 11.9506 21.8734L10.9132 24.4357C9.57151 23.6719 8.22984 23.2899 6.88817 23.2899C5.94762 23.2899 5.24912 23.4427 4.79267 23.7482C4.35006 24.0538 4.12875 24.4565 4.12875 24.9565C4.12875 25.4564 4.38464 25.8314 4.89641 26.0814C5.42201 26.3175 6.21733 26.5536 7.28237 26.7897C8.38891 27.0535 9.29488 27.3174 10.0003 27.5813C10.7057 27.8452 11.3074 28.2618 11.8053 28.8312C12.3171 29.4006 12.573 30.1714 12.573 31.1435C12.573 31.9768 12.3378 32.7406 11.8676 33.435C11.4111 34.1155 10.7195 34.6572 9.79282 35.0599C8.8661 35.4626 7.73882 35.664 6.41098 35.664Z" fill="white"/>
<path d="M21.82 35.664C20.3401 35.664 18.9984 35.3446 17.795 34.7058C16.6055 34.053 15.665 33.1573 14.9734 32.0185C14.2956 30.8658 13.9567 29.5672 13.9567 28.1229C13.9567 26.6786 14.2956 25.387 14.9734 24.2482C15.665 23.0955 16.6055 22.1997 17.795 21.5609C18.9984 20.9082 20.347 20.5818 21.8408 20.5818C23.0995 20.5818 24.2337 20.804 25.2434 21.2484C26.2669 21.6928 27.1245 22.3317 27.8161 23.1649L25.6583 25.1648C24.6763 24.026 23.4591 23.4566 22.0068 23.4566C21.1077 23.4566 20.3055 23.658 19.6001 24.0607C18.8946 24.4496 18.3414 24.9981 17.9403 25.7064C17.553 26.4147 17.3593 27.2202 17.3593 28.1229C17.3593 29.0256 17.553 29.8311 17.9403 30.5394C18.3414 31.2477 18.8946 31.8032 19.6001 32.2059C20.3055 32.5948 21.1077 32.7892 22.0068 32.7892C23.4591 32.7892 24.6763 32.2129 25.6583 31.0602L27.8161 33.06C27.1245 33.9072 26.2669 34.553 25.2434 34.9974C24.2198 35.4418 23.0787 35.664 21.82 35.664Z" fill="white"/>
<path d="M36.8153 35.664C35.3076 35.664 33.9452 35.3377 32.728 34.6849C31.5247 34.0322 30.5772 33.1364 29.8856 31.9976C29.2079 30.8449 28.869 29.5534 28.869 28.1229C28.869 26.6925 29.2079 25.4078 29.8856 24.269C30.5772 23.1163 31.5247 22.2136 32.728 21.5609C33.9452 20.9082 35.3076 20.5818 36.8153 20.5818C38.323 20.5818 39.6785 20.9082 40.8818 21.5609C42.0852 22.2136 43.0326 23.1163 43.7242 24.269C44.4158 25.4078 44.7616 26.6925 44.7616 28.1229C44.7616 29.5534 44.4158 30.8449 43.7242 31.9976C43.0326 33.1364 42.0852 34.0322 40.8818 34.6849C39.6785 35.3377 38.323 35.664 36.8153 35.664ZM36.8153 32.7892C37.6729 32.7892 38.4474 32.5948 39.139 32.2059C39.8306 31.8032 40.37 31.2477 40.7573 30.5394C41.1584 29.8311 41.359 29.0256 41.359 28.1229C41.359 27.2202 41.1584 26.4147 40.7573 25.7064C40.37 24.9981 39.8306 24.4496 39.139 24.0607C38.4474 23.658 37.6729 23.4566 36.8153 23.4566C35.9577 23.4566 35.1832 23.658 34.4916 24.0607C33.8 24.4496 33.2536 24.9981 32.8525 25.7064C32.4652 26.4147 32.2716 27.2202 32.2716 28.1229C32.2716 29.0256 32.4652 29.8311 32.8525 30.5394C33.2536 31.2477 33.8 31.8032 34.4916 32.2059C35.1832 32.5948 35.9577 32.7892 36.8153 32.7892Z" fill="white"/>
<path d="M50.0934 23.5816H45.4459V20.8318H58.1019V23.5816H53.4545V35.414H50.0934V23.5816Z" fill="white"/>
<path d="M63.1213 23.5816H58.4739V20.8318H71.1299V23.5816H66.4824V35.414H63.1213V23.5816Z" fill="white"/>
<path d="M72.9383 20.8318H76.2994V35.414H72.9383V20.8318Z" fill="white"/>
<path d="M84.518 35.664C83.37 35.664 82.2565 35.5112 81.1777 35.2057C80.1126 34.8863 79.2551 34.4766 78.605 33.9766L79.7461 31.4352C80.3685 31.8935 81.1085 32.2615 81.9661 32.5392C82.8236 32.817 83.6812 32.9559 84.5388 32.9559C85.4931 32.9559 86.1986 32.817 86.655 32.5392C87.1115 32.2476 87.3397 31.8657 87.3397 31.3935C87.3397 31.0463 87.2014 30.7616 86.9247 30.5394C86.6619 30.3033 86.3161 30.1158 85.8873 29.9769C85.4724 29.8381 84.9053 29.6853 84.1861 29.5186C83.0795 29.2548 82.1735 28.9909 81.4681 28.727C80.7627 28.4632 80.1541 28.0396 79.6423 27.4563C79.1444 26.873 78.8954 26.0953 78.8954 25.1231C78.8954 24.276 79.1237 23.5121 79.5801 22.8316C80.0366 22.1372 80.7212 21.5887 81.6341 21.1859C82.5608 20.7832 83.6881 20.5818 85.016 20.5818C85.9427 20.5818 86.8486 20.6929 87.7339 20.9151C88.6191 21.1373 89.3937 21.4567 90.0576 21.8734L89.0202 24.4357C87.6786 23.6719 86.3369 23.2899 84.9952 23.2899C84.0547 23.2899 83.3561 23.4427 82.8997 23.7482C82.4571 24.0538 82.2358 24.4565 82.2358 24.9565C82.2358 25.4564 82.4917 25.8314 83.0034 26.0814C83.529 26.3175 84.3244 26.5536 85.3894 26.7897C86.4959 27.0535 87.4019 27.3174 88.1073 27.5813C88.8127 27.8452 89.4144 28.2618 89.9124 28.8312C90.4241 29.4006 90.68 30.1714 90.68 31.1435C90.68 31.9768 90.4449 32.7406 89.9746 33.435C89.5182 34.1155 88.8266 34.6572 87.8999 35.0599C86.9731 35.4626 85.8458 35.664 84.518 35.664Z" fill="white"/>
<path d="M106.297 20.8318V35.414H102.935V29.4353H96.3378V35.414H92.9767V20.8318H96.3378V26.5814H102.935V20.8318H106.297Z" fill="white"/>
<path d="M120.38 35.664C119.232 35.664 118.119 35.5112 117.04 35.2057C115.975 34.8863 115.117 34.4766 114.467 33.9766L115.608 31.4352C116.231 31.8935 116.971 32.2615 117.828 32.5392C118.686 32.817 119.544 32.9559 120.401 32.9559C121.356 32.9559 122.061 32.817 122.517 32.5392C122.974 32.2476 123.202 31.8657 123.202 31.3935C123.202 31.0463 123.064 30.7616 122.787 30.5394C122.524 30.3033 122.179 30.1158 121.75 29.9769C121.335 29.8381 120.768 29.6853 120.048 29.5186C118.942 29.2548 118.036 28.9909 117.331 28.727C116.625 28.4632 116.016 28.0396 115.505 27.4563C115.007 26.873 114.758 26.0953 114.758 25.1231C114.758 24.276 114.986 23.5121 115.442 22.8316C115.899 22.1372 116.584 21.5887 117.496 21.1859C118.423 20.7832 119.55 20.5818 120.878 20.5818C121.805 20.5818 122.711 20.6929 123.596 20.9151C124.481 21.1373 125.256 21.4567 125.92 21.8734L124.883 24.4357C123.541 23.6719 122.199 23.2899 120.858 23.2899C119.917 23.2899 119.219 23.4427 118.762 23.7482C118.319 24.0538 118.098 24.4565 118.098 24.9565C118.098 25.4564 118.354 25.8314 118.866 26.0814C119.391 26.3175 120.187 26.5536 121.252 26.7897C122.358 27.0535 123.264 27.3174 123.97 27.5813C124.675 27.8452 125.277 28.2618 125.775 28.8312C126.287 29.4006 126.542 30.1714 126.542 31.1435C126.542 31.9768 126.307 32.7406 125.837 33.435C125.381 34.1155 124.689 34.6572 123.762 35.0599C122.836 35.4626 121.708 35.664 120.38 35.664Z" fill="white"/>
<path d="M142.055 35.414L142.034 26.6647L137.76 33.8725H136.246L131.993 26.8522V35.414H128.839V20.8318H131.619L137.055 29.8936L142.408 20.8318H145.167L145.209 35.414H142.055Z" fill="white"/>
<path d="M159.9 32.7059V35.414H148.655V20.8318H159.63V23.5399H151.995V26.7064H158.738V29.3312H151.995V32.7059H159.9Z" fill="white"/>
</svg>
