<svg width="98" height="49" viewBox="0 0 98 49" fill="none" xmlns="http://www.w3.org/2000/svg">
<path d="M62.5215 0.581421V7.55642H65.9949V20.3439H62.5215V26.7377H85.6774V15.1127H81.0462V20.3439H72.9417V16.8564H77.5728V10.4627H72.9417V7.55642H80.4673V12.2064H85.6774V0.581421H62.5215Z" fill="white"/>
<path d="M42.8381 0.581421H32.418V11.0439L45.1537 26.7377H55.5739V16.8564L42.8381 0.581421Z" fill="white"/>
<path d="M55.5747 0.581421H45.7334L55.5747 13.9502V0.581421Z" fill="white"/>
<path d="M32.4185 26.7377L42.2598 26.7377L32.4185 13.9502L32.4185 26.7377Z" fill="white"/>
<path fill-rule="evenodd" clip-rule="evenodd" d="M13.3147 26.7375C20.6681 26.7375 26.6293 20.7521 26.6293 13.3688C26.6293 5.98539 20.6681 0 13.3147 0C5.96118 0 0 5.98539 0 13.3688C0 20.7521 5.96118 26.7375 13.3147 26.7375ZM20.2686 11.33L22.7976 11.745C23.0047 11.779 23.1566 11.9585 23.1562 12.1691V14.532C23.1562 14.7403 23.0073 14.9191 22.8023 14.9551L20.2699 15.4015C20.1231 15.911 19.9215 16.4017 19.6678 16.8657L21.1646 18.9523C21.2875 19.1233 21.2682 19.3583 21.1201 19.5074L19.4564 21.179C19.3092 21.3264 19.0781 21.3475 18.9078 21.2267L16.8089 19.7484C16.3458 20.007 15.8542 20.2133 15.3411 20.3649L14.8939 22.8954C14.858 23.1003 14.6804 23.2498 14.4728 23.2498H12.1193C11.91 23.2498 11.7316 23.0982 11.6978 22.8915L11.2801 20.3735C10.7679 20.2249 10.2737 20.0199 9.80597 19.7617L7.72201 21.2272C7.55212 21.347 7.32062 21.3264 7.17384 21.179L5.5101 19.5074C5.36246 19.3583 5.34321 19.1242 5.46474 18.9536L6.9372 16.8859C6.67746 16.4141 6.4712 15.9162 6.32186 15.3994L3.82667 14.9551C3.62255 14.9186 3.47363 14.7403 3.47363 14.532V12.1691C3.47363 11.9594 3.62512 11.7798 3.83137 11.7455L6.32657 11.3283C6.47676 10.8102 6.68302 10.3122 6.94191 9.84181L5.48742 7.75257C5.36803 7.58201 5.38857 7.35001 5.53534 7.20265L7.19866 5.53272C7.34715 5.3845 7.57951 5.36474 7.75025 5.48718L9.8171 6.96937C10.2814 6.71418 10.7743 6.51097 11.2879 6.36275L11.6969 3.84776C11.7307 3.63982 11.9096 3.4873 12.1193 3.4873H14.4728C14.6808 3.4873 14.8584 3.63767 14.8943 3.84303L15.3355 6.37177C15.846 6.52085 16.3381 6.72621 16.8041 6.98484L18.8766 5.48933C19.0469 5.36603 19.2805 5.38536 19.429 5.53401L21.0932 7.20394C21.24 7.35173 21.2605 7.58416 21.1411 7.75472L19.6648 9.86716C19.9181 10.3307 20.1205 10.8205 20.2686 11.33ZM10.3195 13.3686C10.3195 15.0295 11.6606 16.3759 13.3149 16.3759C14.9692 16.3759 16.3103 15.0295 16.3103 13.3686C16.3103 11.7076 14.9692 10.3612 13.3149 10.3612C11.6606 10.3612 10.3195 11.7076 10.3195 13.3686Z" fill="white"/>
<path d="M5.80661 31.1547C7.46149 31.1547 8.75822 31.5515 9.6968 32.3451C10.6354 33.1387 11.1047 34.2299 11.1047 35.6187C11.1047 37.0075 10.6354 38.0987 9.6968 38.8923C8.75822 39.6735 7.46149 40.0641 5.80661 40.0641H2.32396V44.1747H0.953125V31.1547H5.80661ZM5.76956 38.8551C7.05394 38.8551 8.03575 38.5761 8.71499 38.0181C9.39423 37.4477 9.73385 36.6479 9.73385 35.6187C9.73385 34.5647 9.39423 33.7587 8.71499 33.2007C8.03575 32.6303 7.05394 32.3451 5.76956 32.3451H2.32396V38.8551H5.76956Z" fill="white"/>
<path d="M16.477 31.1547H17.8478V42.9843H25.1095V44.1747H16.477V31.1547Z" fill="white"/>
<path d="M37.9624 40.6965H30.7377L29.1817 44.1747H27.7552L33.6832 31.1547H35.0355L40.9634 44.1747H39.5185L37.9624 40.6965ZM37.4622 39.5805L34.3501 32.5869L31.2379 39.5805H37.4622Z" fill="white"/>
<path d="M56.3537 31.1547V44.1747H55.2237L46.8875 33.6099V44.1747H45.5167V31.1547H46.6467L55.0014 41.7195V31.1547H56.3537Z" fill="white"/>
<path d="M72.1641 42.9843V44.1747H62.9944V31.1547H71.8863V32.3451H64.3652V36.9765H71.0712V38.1483H64.3652V42.9843H72.1641Z" fill="white"/>
<path d="M80.314 32.3451H75.7569V31.1547H86.2419V32.3451H81.6848V44.1747H80.314V32.3451Z" fill="white"/>
<path d="M93.2142 40.6874C93.9718 40.6874 94.6568 40.8641 95.269 41.2176C95.8889 41.5711 96.3749 42.059 96.7269 42.6814C97.0789 43.2961 97.255 43.98 97.255 44.7331C97.255 45.4861 97.0751 46.1777 96.7154 46.8078C96.3557 47.4302 95.8659 47.922 95.246 48.2831C94.6261 48.6443 93.9412 48.8249 93.1912 48.8249C92.4412 48.8249 91.7563 48.6443 91.1364 48.2831C90.5241 47.922 90.0381 47.4302 89.6785 46.8078C89.3264 46.1854 89.1504 45.5015 89.1504 44.7561C89.1504 44.0108 89.3264 43.3269 89.6785 42.7045C90.0381 42.082 90.5279 41.5903 91.1478 41.2291C91.7677 40.868 92.4565 40.6874 93.2142 40.6874ZM93.1912 48.3984C93.8647 48.3984 94.4769 48.237 95.0279 47.9143C95.5789 47.5839 96.0152 47.1421 96.3366 46.5888C96.658 46.0279 96.8187 45.4093 96.8187 44.7331C96.8187 44.0569 96.6619 43.446 96.3481 42.9004C96.0343 42.3472 95.6019 41.913 95.0509 41.5979C94.5075 41.2752 93.8953 41.1138 93.2142 41.1138C92.533 41.1138 91.9131 41.2752 91.3545 41.5979C90.8034 41.9207 90.3672 42.3625 90.0458 42.9235C89.732 43.4767 89.5751 44.0876 89.5751 44.7561C89.5751 45.4246 89.732 46.0394 90.0458 46.6003C90.3672 47.1536 90.8034 47.5916 91.3545 47.9143C91.9055 48.237 92.5177 48.3984 93.1912 48.3984ZM95.246 43.9723C95.246 44.3258 95.1542 44.6293 94.9705 44.8829C94.7945 45.1288 94.542 45.3094 94.2129 45.4246L95.292 47.0844H94.6721L93.6733 45.5284C93.6121 45.5361 93.5241 45.5399 93.4093 45.5399H92.2154V47.0844H91.6185V42.4278H93.4093C93.9756 42.4278 94.4233 42.5661 94.7524 42.8428C95.0815 43.1194 95.246 43.4959 95.246 43.9723ZM93.3749 45.0328C93.7805 45.0328 94.0943 44.9405 94.3162 44.7561C94.5458 44.5717 94.6606 44.3104 94.6606 43.9723C94.6606 43.6419 94.5458 43.3884 94.3162 43.2116C94.0943 43.0272 93.7805 42.935 93.3749 42.935H92.204V45.0328H93.3749Z" fill="white"/>
</svg>
