<svg width="62" height="63" viewBox="0 0 62 63" fill="none" xmlns="http://www.w3.org/2000/svg">
<path d="M28.7372 13.1883C28.1784 14.6222 28.97 19.9161 29.4357 22.3839C26.9568 20.7799 26.5413 16.5014 26.714 14.0328C26.7524 13.4842 27.0217 12.9707 27.4985 12.7002C28.2999 12.2457 29.1628 12.0963 28.7372 13.1883Z" fill="white"/>
<path d="M30.2875 25.3787C30.4788 20.2248 32.1327 17.6962 35.5833 17.283C40.2257 16.7269 44.8129 20.9535 46.9411 27.7478C50.3441 38.6122 43.2309 46.638 36.3372 39.7122C35.1269 38.4962 34.6234 37.7655 34.7562 37.4178C34.8703 37.1195 35.1347 37.1851 35.6078 37.6292C38.2048 40.0665 39.2022 40.6475 41.0572 40.8037C45.8045 41.2033 47.6007 32.2455 44.1549 25.3541C42.4272 21.8987 39.6094 19.4328 37.0781 19.1611C33.4458 18.7715 31.7678 20.8545 31.3867 26.2264C31.2737 27.8201 31.1132 28.2443 30.6859 28.0797C30.2952 27.9292 30.2135 27.3751 30.2875 25.3787Z" fill="white"/>
<path d="M14.0801 29.6283C14.7791 25.3935 17.6946 22.1899 21.6175 21.3458C24.4366 20.7392 27.4176 21.8225 28.371 23.7999C28.9628 25.0276 28.6071 25.3245 27.5895 24.4518C22.2361 19.8595 14.8986 25.4458 15.7206 33.4882C16.4332 40.46 20.9069 45.5288 26.3317 45.5106C30.9111 45.4953 32.9483 42.6308 32.0449 37.4769C31.577 34.807 31.1925 34.2855 29.7796 34.4027C28.5515 34.5047 28.2205 33.5779 29.3028 33.0674C31.4308 32.0635 32.702 33.3763 33.4829 37.3841C34.6858 43.5588 31.7066 47.3449 25.7813 47.1722C18.3155 46.9546 12.6277 38.4267 14.0801 29.6283Z" fill="white"/>
<path fill-rule="evenodd" clip-rule="evenodd" d="M52.2627 31.1915C52.2627 43.0702 42.6721 52.6998 30.8414 52.6998C19.0107 52.6998 9.42003 43.0702 9.42003 31.1915C9.42003 19.3127 19.0107 9.6831 30.8414 9.6831C42.6721 9.6831 52.2627 19.3127 52.2627 31.1915ZM61.7316 31.1915C61.7316 48.321 47.9016 62.2072 30.8414 62.2072C13.7812 62.2072 -0.0488281 48.321 -0.0488281 31.1915C-0.0488281 14.062 13.7812 0.175781 30.8414 0.175781C47.9016 0.175781 61.7316 14.062 61.7316 31.1915ZM21.7642 3.09626C21.7627 3.08402 21.7615 3.07174 21.76 3.05748C21.7513 2.97494 22.4547 2.72261 22.4794 2.7994C22.4846 2.81576 22.8072 3.70193 23.1962 4.76873C23.5852 5.83552 23.9135 6.74292 23.9255 6.78517C23.9378 6.82754 23.8131 6.93724 23.6487 7.02909C23.3796 7.17942 23.1682 7.09202 21.5405 6.1581L19.7315 5.11998L20.0473 6.00314C20.221 6.48889 20.4599 7.13055 20.5783 7.429C20.7892 7.96153 20.7866 7.9753 20.4374 8.15684C20.282 8.23773 20.1889 8.30358 20.1098 8.28973C19.9569 8.26296 19.8561 7.93848 19.4576 6.84949C18.2386 3.51759 18.3378 3.38473 20.9316 4.87665L22.6723 5.87782L22.237 4.57499C21.8113 3.30094 21.7769 3.19993 21.7642 3.09626ZM26.6091 6.34428C26.5541 6.33035 26.8383 5.33593 27.2408 4.13464C28.178 1.33629 28.6175 1.06638 29.4138 2.80068C29.6106 3.22952 30.0634 4.13361 30.4196 4.8097C30.894 5.70957 31.0547 5.99281 30.9784 6.09025C30.937 6.14297 30.8263 6.1413 30.6583 6.15347C30.303 6.1792 30.1067 6.0108 29.8106 5.42663C29.6798 5.16866 29.564 5.13575 28.9316 5.17729C28.531 5.20356 28.0882 5.22718 27.9475 5.22986C27.7535 5.23348 27.6518 5.36975 27.5277 5.79297C27.3679 6.33713 27.1339 6.47772 26.6091 6.34428ZM14.4888 6.67826C14.4084 6.50045 14.5673 6.35701 15.4411 5.81826C16.642 5.07791 16.8213 5.02498 16.9674 5.36825C17.0598 5.5851 16.9676 5.6814 16.2367 6.1317C15.7603 6.42517 15.5405 6.54839 15.5138 6.70459C15.49 6.84385 15.6199 7.00933 15.8584 7.34505L16.0251 7.57966L16.8073 7.1367C17.6291 6.67115 17.7225 6.65895 17.8148 7.00491C17.8869 7.27499 17.8376 7.32455 17.0526 7.77228C16.6978 7.97457 16.3958 8.16068 16.3814 8.18569C16.3606 8.22196 16.8512 9.18556 16.9256 9.25448C16.9364 9.26446 17.2932 9.06683 17.7184 8.81527C18.7018 8.23364 18.741 8.22569 18.9073 8.57077C19.0215 8.80774 18.9941 8.88514 18.7508 9.01238C18.363 9.21515 16.8323 10.1075 16.6735 10.2231C16.5998 10.2769 16.4256 10.0949 16.2449 9.77579C16.0776 9.48002 15.6357 8.71 15.263 8.06481C14.8903 7.41963 14.5418 6.79566 14.4888 6.67826ZM28.1134 4.53883C29.4045 4.61536 29.4053 4.61466 28.973 3.75491C28.7352 3.28185 28.6213 3.04985 28.5262 3.05731C28.4346 3.06449 28.3604 3.29366 28.2098 3.74338C28.0294 4.28245 27.9991 4.53199 28.1134 4.53883ZM31.9885 5.26474C32.0593 4.77229 32.1913 3.8122 32.2818 3.13114C32.3723 2.45007 32.4563 1.89014 32.4686 1.88683C32.7331 1.81567 34.5478 2.19137 34.8165 2.37287C35.9565 3.14305 35.1622 4.75039 33.7157 4.60031C33.3648 4.56387 33.1832 4.53648 33.074 4.61277C32.9459 4.70234 32.9178 4.93487 32.8329 5.46356L32.6926 6.33615L32.2918 6.30652C32.1036 6.29257 31.9922 6.29669 31.9356 6.24303C31.8464 6.15859 31.8927 5.93104 31.9885 5.26474ZM10.6257 9.37695L11.6357 8.50225C12.6712 7.6055 12.9184 7.44541 12.97 7.63856C12.9862 7.69938 13.0478 7.81592 13.1069 7.89764C13.1797 7.99811 12.9815 8.2483 12.4947 8.6705L11.7748 9.29467L12.0147 9.67934C12.343 10.2053 12.4903 10.1878 13.2702 9.52892C13.8326 9.0536 13.9655 8.98508 14.0628 9.11947C14.3066 9.45644 14.2399 9.59477 13.5706 10.1397C13.0565 10.5583 12.9134 10.7416 13.0056 10.8637C13.0736 10.9535 13.2226 11.1616 13.3369 11.3261C13.5955 11.6981 13.6114 11.6934 14.4735 10.9825C15.1741 10.4048 15.4955 10.3577 15.6174 10.8145C15.6545 10.9535 13.5054 12.6811 13.3867 12.6079C13.3239 12.5691 12.677 11.8263 11.9492 10.9572L10.6257 9.37695ZM34.2854 3.76529C34.6255 3.39854 34.3767 2.80906 33.8517 2.73797C33.2146 2.65168 33.1612 2.67833 33.1253 3.09784C33.1082 3.29767 33.0823 3.55602 33.0677 3.67176C33.0321 3.95629 34.0367 4.03342 34.2854 3.76529ZM36.4056 5.15199C36.5761 4.60912 36.8057 3.83191 36.9156 3.42477C37.0253 3.01767 37.161 2.69073 37.217 2.69826C37.9927 2.80258 39.2206 3.28886 39.4793 3.59424C40.3859 4.66428 39.3483 5.91592 37.8774 5.52697C37.1925 5.34591 37.1699 5.36652 36.9336 6.38887C36.7812 7.04852 36.6909 7.12978 36.2662 6.98924C36.1507 6.95103 36.0677 6.92719 36.0208 6.87246C35.9028 6.73477 36.0128 6.40155 36.4056 5.15199ZM37.9245 4.84468C38.9511 5.13175 39.3461 4.13191 38.3658 3.72764C38.0637 3.60298 37.9269 3.53602 37.8409 3.57661C37.7571 3.61619 37.7215 3.75806 37.6279 4.04845C37.4263 4.67389 37.4394 4.70879 37.9245 4.84468ZM7.53124 12.6673C7.75408 12.378 8.0749 12.0103 8.24426 11.85C9.08136 11.0581 10.2845 11.4688 10.3689 12.5751C10.3936 12.9008 10.4406 12.9766 10.5918 12.9359C10.7716 12.8875 12.6688 13.2547 12.6923 13.3425C12.6982 13.3648 12.5741 13.5398 12.4163 13.7315L12.1298 14.0802L11.3872 13.8882C10.6612 13.7006 9.96245 13.7708 9.69965 14.0579C9.60658 14.1596 9.74622 14.3402 10.2394 14.7555C10.7213 15.1613 10.9028 15.3121 10.8988 15.4579C10.8963 15.5471 10.8244 15.6344 10.7093 15.7771L10.4762 16.0665L9.74663 15.4552C9.34549 15.1191 8.59168 14.4725 8.07169 14.0186L7.12612 13.193L7.53124 12.6673ZM9.37442 13.3824C9.71329 12.9702 9.62149 12.3794 9.20351 12.2813C8.87059 12.2032 8.81195 12.2273 8.47194 12.5822C8.13159 12.9375 8.1436 12.9867 8.67082 13.3954L9.09404 13.7234L9.37442 13.3824ZM39.7411 8.17328L40.6978 6.18843C41.6538 4.20472 41.6545 4.20373 41.9903 4.33314C42.4739 4.51944 42.4693 4.54361 41.6092 6.31515L40.8267 7.9269L41.7797 8.3903C42.6796 8.82783 42.7249 8.86873 42.5937 9.12572C42.528 9.25436 42.4877 9.33794 42.422 9.3706C42.3013 9.43064 42.095 9.31859 41.4879 8.99805C41.0352 8.75904 40.4571 8.4757 40.203 8.3685L39.7411 8.17328ZM4.80298 18.2248C4.54686 17.2651 4.74853 16.537 5.52367 15.6225C5.85779 15.2283 5.97524 15.0841 6.10194 15.0755C6.17851 15.0702 6.25847 15.1145 6.39167 15.1831C6.7626 15.3741 6.76287 15.4576 6.39351 15.7422C5.06961 16.7622 5.23518 18.6888 6.66968 18.9528C7.81279 19.1631 9.10727 17.639 8.22168 17.1255C7.99316 16.993 7.95901 17.0066 7.77638 17.3026L7.57846 17.6232L7.28889 17.4353C7.00342 17.2503 7.0048 17.238 7.3916 16.5653L7.78389 15.883L8.5921 16.3583L9.40035 16.8337L9.33088 17.355C8.96466 20.1035 5.48279 20.7722 4.80298 18.2248ZM43.2833 9.94479C43.2683 9.88849 43.7857 9.08676 44.4331 8.16291C45.2111 7.05308 45.4726 6.5912 45.7803 6.55792C46.0284 6.53111 46.3066 6.78269 46.9095 7.19785C48.0038 7.95145 48.018 7.96732 47.8523 8.25521C47.6868 8.54307 47.6777 8.54277 47.2377 8.23066C46.9921 8.05648 46.6154 7.79766 46.4007 7.65551L46.0103 7.39716L45.6907 7.85525L45.3711 8.3133L46.1219 8.85758C46.7137 9.28682 46.853 9.44492 46.7796 9.60521C46.6248 9.94344 46.4238 9.90827 45.7273 9.42103C45.3042 9.12511 45.123 8.98964 44.9793 9.02176C44.8586 9.04873 44.7643 9.1939 44.5753 9.46151L44.2535 9.9171L45.0872 10.4839C45.8988 11.0354 46.1111 11.4922 45.562 11.5041C45.3848 11.508 43.3241 10.0977 43.2833 9.94479ZM55.0378 23.3744C55.1426 22.7136 55.4138 22.1498 55.7362 21.9223C55.9894 21.7438 56.0511 21.7343 56.5348 21.7998C57.6612 21.9522 58.3261 24.2324 57.3229 24.5023C57.1393 24.5517 57.0383 24.5864 56.9925 24.5505C56.9323 24.5033 56.9676 24.3341 57.0366 23.9157C57.1577 23.1825 57.1096 22.9858 56.7436 22.719C56.3391 22.4238 56.0192 22.7474 55.9022 23.5705C55.6328 25.4648 54.0162 25.8944 53.4262 24.2285C53.1479 23.4429 53.1978 22.9336 53.5731 22.7239C53.9652 22.505 53.9932 22.5437 53.9363 23.2277C53.8089 24.7576 54.7978 24.8893 55.0378 23.3744ZM2.8114 39.4261L2.44179 38.0411L2.07217 36.6561L4.1713 36.0913L6.27043 35.5266L6.64005 36.9116L7.00966 38.2966L6.70979 38.3773C6.41486 38.4567 6.40561 38.4419 6.15279 37.4945L5.89566 36.531L5.35589 36.6762C4.8419 36.8145 4.82053 36.838 4.90803 37.1659C5.16941 38.1453 5.15428 38.6667 4.86205 38.7453C4.58916 38.8188 4.56948 38.7878 4.33746 37.9183L4.09641 37.0151L3.49666 37.1764L2.89691 37.3378L3.15403 38.3013C3.40686 39.2487 3.40621 39.2661 3.11128 39.3455L2.8114 39.4261ZM54.3044 29.2712C54.1556 27.8182 54.3431 27.106 55.0173 26.5618C56.6801 25.2192 58.4214 26.2287 58.6873 28.6895L58.8122 29.8459L58.055 30.0188C57.4083 30.1663 54.5647 30.4717 54.4553 30.4051C54.4349 30.3928 54.367 29.8825 54.3044 29.2712ZM4.8491 40.4377C5.65052 40.0626 6.51161 39.6581 6.76265 39.5389C7.71546 39.0867 7.78032 39.6477 6.9789 41.4091C6.74208 41.9296 6.25598 42.9793 6.10179 43.303L5.9332 43.657L6.21469 43.5038C6.75372 43.2107 8.63336 42.36 8.67775 42.3891C8.94231 42.5627 9.07162 43.1635 8.85691 43.2212C8.60802 43.2882 5.60407 44.7 5.2838 44.9006C5.15066 44.984 5.06439 44.9209 4.95116 44.6573C4.77751 44.2535 4.8356 44.0798 5.85296 41.9629L6.50523 40.6055L5.94074 40.8466C5.63018 40.9794 5.02828 41.2621 4.60336 41.4752C3.96927 41.7932 3.74457 41.9122 3.6353 41.8446C3.56943 41.8039 3.54552 41.6953 3.49916 41.5215L3.39201 41.12L4.8491 40.4377ZM58.0105 28.8182C57.9445 27.791 57.5997 27.1832 56.9883 27.0167C55.6085 26.6407 54.5824 27.7156 54.9623 29.1392C54.9945 29.2598 55.0135 29.3422 55.0636 29.3948C55.1739 29.5108 55.4349 29.4833 56.3188 29.4047C57.5563 29.2948 57.9035 29.2663 57.9906 29.1009C58.0259 29.0339 58.0186 28.9445 58.0105 28.8182ZM7.15136 48.0911C7.06258 48.0396 7.46086 47.1962 8.20619 45.8575L9.4036 43.7065L9.65152 43.9767C9.74708 44.0809 9.81568 44.1509 9.84438 44.2346C9.91384 44.4372 9.7498 44.7198 9.16926 45.7592L8.45655 47.0353L9.45973 46.8477C10.0115 46.7446 10.6872 46.6002 10.9612 46.5268C11.3951 46.4107 12.1068 46.8555 11.9028 47.1151C11.8178 47.2232 7.26676 48.158 7.15136 48.0911ZM54.1937 33.7774C54.3062 32.7129 54.3235 32.6555 54.6409 32.2838C55.0898 31.7582 56.2164 31.8663 56.4692 32.4592C56.5527 32.6549 56.6293 32.6891 56.7612 32.5896C56.991 32.4161 58.732 31.5959 58.7942 31.6318C59.1272 31.8249 58.5801 32.6219 57.9026 32.9308C56.4938 33.573 56.2519 34.2048 57.4054 34.2292C58.517 34.2527 58.7351 34.4472 58.4322 35.1446C58.4232 35.1654 57.7681 35.1198 56.9763 35.0434C56.1846 34.967 55.2717 34.887 54.9478 34.8657C54.1059 34.81 54.0874 34.7832 54.1937 33.7774ZM56.0689 33.974C56.2047 33.7379 56.0092 33.0183 55.772 32.8807C55.3708 32.6482 54.7359 33.1083 54.8529 33.5468C54.8692 33.6077 54.8734 33.7434 54.8625 33.8483C54.8426 34.0381 55.9648 34.155 56.0689 33.974ZM10.0093 50.1373C10.9136 49.2649 11.5729 48.6198 12.0733 48.1178L12.5296 47.66L12.8084 47.8729C13.2082 48.1781 13.1879 48.2166 12.0173 49.3804C10.1622 51.2246 10.0621 51.3094 9.90361 51.1709C9.401 50.7315 9.40188 50.7234 10.0093 50.1373ZM53.2894 38.2112C53.2515 38.1605 53.2721 37.9617 53.3351 37.7695C53.3678 37.6698 53.3809 37.5971 53.4174 37.5391C53.535 37.3524 53.8961 37.319 55.943 37.0295C58.2125 36.7085 58.3169 36.7217 58.0689 37.2983C57.9488 37.5777 57.8648 37.6222 57.3891 37.6586C56.887 37.6968 56.8382 37.7276 56.7391 38.0679C56.6801 38.2703 56.5591 38.6719 56.4704 38.9605C56.3687 39.2914 56.317 39.4457 56.3578 39.5695C56.3967 39.6875 56.5197 39.7778 56.7637 39.9669C57.1634 40.2766 57.1721 40.2975 57.0784 40.7271L56.9822 41.1686L56.646 40.9302C56.1928 40.6091 53.376 38.3273 53.2894 38.2112ZM55.946 38.4884C56.0441 38.1487 56.0802 37.8592 56.0265 37.8452C55.9728 37.8311 55.5768 37.8743 55.1464 37.941L54.3637 38.0623L54.8645 38.4914C55.6828 39.1924 55.7434 39.1923 55.946 38.4884ZM12.3206 51.3781C12.8599 50.6715 13.4525 49.8969 13.6376 49.6567C13.836 49.3995 13.933 49.2576 14.052 49.2358C14.1975 49.2091 14.3759 49.3623 14.8129 49.7044C16.2201 50.8062 16.1989 52.2998 14.7748 52.392C14.4506 52.4129 14.4135 52.4555 14.4392 52.7755C14.4681 53.1325 14.2918 54.6099 14.2015 54.7667C14.1757 54.8117 13.9892 54.7113 13.7872 54.5438L13.4197 54.2391L13.5834 53.2821C13.8521 51.7116 13.4043 51.3264 12.5922 52.4295L12.0973 53.1017L11.7188 52.8823L11.3402 52.6629L12.3206 51.3781ZM52.5503 40.5018L52.7514 40.1257C52.8619 39.9188 52.9736 39.7619 52.9998 39.7769C53.1036 39.8371 55.9472 43.4284 55.9757 43.5352C56.0159 43.6858 55.3215 43.6911 54.2648 43.5481C53.5925 43.4571 52.8867 43.3851 52.6964 43.3882L52.3506 43.3938L52.6649 43.7941C54.0087 45.5062 54.4489 46.1372 54.3829 46.2574C54.3128 46.3849 53.3151 46.2993 50.9672 45.9641C50.4894 45.896 49.9964 45.8337 49.8717 45.8258C49.6002 45.8085 49.6033 45.4757 49.8776 45.2175C50.0145 45.0885 50.2509 45.0614 50.7362 45.1191C50.9981 45.1503 51.3808 45.1957 51.7146 45.2353L52.086 45.2794C52.457 45.3235 52.6699 45.3616 52.7145 45.292C52.7738 45.1995 52.5365 44.9169 51.9786 44.2056C50.6196 42.4728 50.9149 42.228 53.8059 42.6915C54.4375 42.7927 54.4319 42.7759 53.4381 41.5748L52.5503 40.5018ZM14.041 51.4854C14.8823 51.9385 15.4204 51.0804 14.6838 50.46C14.3723 50.1977 14.3476 50.2047 13.9453 50.6704C13.5663 51.1091 13.5813 51.2378 14.041 51.4854ZM17.0131 56.4369C15.7192 55.5122 15.6023 53.9356 16.7514 52.9071C18.5787 51.2716 21.5092 53.3228 20.5783 55.5856C20.0243 56.9329 18.2872 57.3477 17.0131 56.4369ZM19.0402 56.0185C20.2161 55.3752 20.2113 53.8786 19.0317 53.2955C17.4569 52.5169 16.0461 54.5229 17.3207 55.7284C17.7334 56.1184 18.5926 56.2635 19.0402 56.0185ZM47.9424 47.9161C47.7704 47.5369 47.7808 47.4667 48.0439 47.2234C48.1228 47.1504 48.1803 47.0928 48.249 47.0565C48.4912 46.9287 48.8731 47.0656 50.8249 47.7259C52.3008 48.2252 52.7341 48.3653 52.7455 48.5341C52.7506 48.6095 52.6716 48.6906 52.5636 48.8119C52.329 49.0758 52.2902 49.0801 51.759 48.9016L51.2008 48.7142L50.553 49.4447C50.1235 49.9291 49.9393 50.2329 50.0058 50.3467C50.4597 51.1214 50.4734 51.2376 50.1465 51.5368C49.8974 51.7647 49.8097 51.797 49.7449 51.6849C49.6505 51.5211 48.2318 48.5553 47.9424 47.9161ZM21.5429 58.3465C21.3825 58.2083 21.5117 57.7337 22.0158 55.6607C22.5782 53.348 22.7196 53.3811 24.1184 56.1545C24.8771 57.6588 24.8982 57.692 24.984 57.5245C25.0225 57.449 25.1572 56.9529 25.2831 56.422C25.6575 54.8431 25.6649 54.828 26.0399 54.8911C26.4462 54.9593 26.4954 55.1332 26.2962 55.7971C26.2098 56.0851 26.054 56.7213 25.9499 57.2107C25.3588 59.9913 25.1128 60.0161 23.8763 57.4188C23.4332 56.4881 23.0315 55.6874 22.9835 55.6396C22.9358 55.592 22.7744 56.0711 22.625 56.7042C22.3079 58.048 22.236 58.3813 22.0698 58.438C22.0084 58.4589 21.934 58.4421 21.8295 58.4245C21.6982 58.4025 21.6014 58.3968 21.5429 58.3465ZM50.4459 48.4957C50.4242 48.4232 50.2839 48.3863 50.0166 48.3036C49.7661 48.2261 49.3818 48.0867 49.1625 47.9935C48.7109 47.8018 48.7096 47.8362 49.1398 48.6707C49.5576 49.4813 49.6124 49.4993 50.0869 48.9837C50.3465 48.7016 50.4701 48.5766 50.4459 48.4957ZM42.362 51.8975C42.7713 51.6425 43.4754 51.1918 43.9268 50.896C44.6186 50.4424 44.8086 50.3098 44.9156 50.3587C44.9638 50.3807 44.9952 50.4395 45.0481 50.5225C45.2519 50.8423 45.1753 50.9622 44.5499 51.3029C44.3052 51.4363 44.147 51.5119 44.0961 51.6328C44.0062 51.8462 44.2508 52.2005 44.944 53.2624C45.4224 53.9955 45.833 54.6669 45.8564 54.7546C45.9054 54.9379 45.3608 55.2816 45.1991 55.1694C45.0646 55.076 43.4838 52.6143 43.4324 52.4181C43.3665 52.1671 43.1771 52.1957 42.6228 52.54C42.0034 52.925 41.7724 52.9399 41.6818 52.6005C41.6308 52.4093 41.7681 52.2674 42.362 51.8975ZM27.5492 59.3819C27.5082 59.2297 27.5294 56.607 27.5814 55.3842C27.6074 54.774 28.3054 55.1184 29.1184 56.1426L29.7562 56.9459L30.4721 56.1032C31.0817 55.3856 31.2458 55.2579 31.5782 55.2426C31.7656 55.2341 31.8745 55.2282 31.935 55.2795C32.02 55.3514 32.0096 55.5358 31.9871 55.983C31.9712 56.3017 31.9534 57.2514 31.9478 58.0933L31.9375 59.6241L31.5597 59.6486C31.3747 59.6606 31.2577 59.6765 31.1856 59.627C31.0535 59.5362 31.0724 59.2256 31.1 58.2675C31.1514 56.4826 31.1484 56.4779 30.4848 57.2733C30.1131 57.7189 29.9333 57.9359 29.758 57.9323C29.5915 57.9289 29.4291 57.7266 29.1101 57.3322C28.7813 56.9254 28.6065 56.7059 28.5123 56.7363C28.4034 56.7714 28.4022 57.1406 28.3949 57.9406C28.3885 58.6346 28.3822 59.3004 28.3806 59.4202C28.3769 59.711 27.6287 59.6764 27.5492 59.3819ZM40.5886 54.4987C40.2225 53.5671 40.1139 53.1805 40.1925 53.0904C40.5021 52.7367 40.8108 52.8208 41.0232 53.3168C42.7856 57.4352 42.6675 57.7684 39.9874 56.2388C39.0499 55.7038 38.2684 55.2949 38.251 55.3301C38.2334 55.3655 38.4566 55.9957 38.7469 56.7307C39.0372 57.4657 39.2653 58.0784 39.2539 58.0925C39.2424 58.1065 39.0741 58.1949 38.8798 58.2892L38.5264 58.4602L37.8348 56.6848C37.4546 55.7081 37.0748 54.7679 36.9911 54.5952C36.8494 54.3031 36.8667 54.2739 37.2389 54.1765C37.304 54.1594 37.3584 54.1449 37.4137 54.1379C37.71 54.1002 38.0337 54.2778 40.1664 55.4391C40.6507 55.7028 40.9082 55.8543 40.9857 55.7898C41.0767 55.7139 40.9191 55.3398 40.5886 54.4987ZM33.6564 57.9891C33.4953 57.2095 33.3074 56.2328 33.239 55.8188L33.1146 55.066L33.7416 54.9454C35.4022 54.6259 35.783 54.546 35.9135 54.6911C35.9574 54.7399 35.973 54.8142 35.9995 54.9133C36.0756 55.1986 36.0487 55.2723 35.8695 55.2694C35.7452 55.2673 35.2881 55.3429 34.8537 55.4372L34.0638 55.6087L34.1599 56.114C34.268 56.6818 34.4693 56.7259 35.5836 56.4261C36.0829 56.2918 36.1129 56.3019 36.2018 56.6348L36.2952 56.9848L35.3179 57.1769L34.3407 57.369L34.5026 57.9758L34.6646 58.5827L35.647 58.4099C36.5775 58.2462 36.6334 58.2523 36.7063 58.5255C36.7946 58.8561 36.7076 58.8908 34.9762 59.2145L33.9492 59.4065L33.6564 57.9891Z" fill="white"/>
</svg>
