<svg width="48" height="60" viewBox="0 0 48 60" fill="none" xmlns="http://www.w3.org/2000/svg">
<path d="M12.6453 37.8738C9.88614 37.8738 7.77309 37.0848 6.30618 35.5067C4.8742 33.9286 4.1582 31.7018 4.1582 28.8262V9.04764C4.1582 6.17203 4.8742 3.94519 6.30618 2.36711C7.77309 0.789038 9.88614 0 12.6453 0C15.4045 0 17.5001 0.789038 18.9321 2.36711C20.399 3.94519 21.1325 6.17203 21.1325 9.04764V12.9402H15.6839V8.67942C15.6839 6.39998 14.7235 5.26025 12.8025 5.26025C10.8815 5.26025 9.92107 6.39998 9.92107 8.67942V29.247C9.92107 31.4914 10.8815 32.6136 12.8025 32.6136C14.7235 32.6136 15.6839 31.4914 15.6839 29.247V23.6185H21.1325V28.8262C21.1325 31.7018 20.399 33.9286 18.9321 35.5067C17.5001 37.0848 15.4045 37.8738 12.6453 37.8738Z" fill="white"/>
<path d="M23.0611 0.526025H28.8763L32.6484 29.0892H32.7531L36.5252 0.526025H41.8166L36.2633 37.3478H28.6144L23.0611 0.526025Z" fill="white"/>
<path d="M0 48.5861H2.48061L3.58662 56.5341H3.61822L4.72422 48.5861H7.20483V59.6911H5.56162V51.2831H5.53002L4.26602 59.6911H2.81241L1.54841 51.2831H1.51681V59.6911H0V48.5861Z" fill="white"/>
<path d="M9.8448 48.5861H12.199L14.0002 59.6911H12.2622L11.9462 57.486V57.5177H9.9712L9.6552 59.6911H8.04359L9.8448 48.5861ZM11.7408 56.0106L10.9666 50.5216H10.935L10.1766 56.0106H11.7408Z" fill="white"/>
<path d="M17.2774 59.8498C16.4347 59.8498 15.7922 59.6118 15.3498 59.1359C14.9074 58.6494 14.6862 57.9566 14.6862 57.0576V51.2196C14.6862 50.3206 14.9074 49.6332 15.3498 49.1572C15.7922 48.6707 16.4347 48.4275 17.2774 48.4275C18.12 48.4275 18.7626 48.6707 19.205 49.1572C19.6474 49.6332 19.8686 50.3206 19.8686 51.2196V52.1715H18.2254V51.1085C18.2254 50.3788 17.9252 50.0139 17.3248 50.0139C16.7244 50.0139 16.4242 50.3788 16.4242 51.1085V57.1846C16.4242 57.9037 16.7244 58.2633 17.3248 58.2633C17.9252 58.2633 18.2254 57.9037 18.2254 57.1846V55.0112H17.3564V53.4247H19.8686V57.0576C19.8686 57.9566 19.6474 58.6494 19.205 59.1359C18.7626 59.6118 18.12 59.8498 17.2774 59.8498Z" fill="white"/>
<path d="M22.3275 48.5861H24.6817L26.4829 59.6911H24.7449L24.4289 57.486V57.5177H22.4539L22.1379 59.6911H20.5263L22.3275 48.5861ZM24.2235 56.0106L23.4493 50.5216H23.4177L22.6593 56.0106H24.2235Z" fill="white"/>
<path d="M27.0402 58.1364L30.2634 50.1726H27.1982V48.5861H32.1278V50.1408L28.9046 58.1047H32.1278V59.6911H27.0402V58.1364Z" fill="white"/>
<path d="M33.1123 48.5861H34.8503V59.6911H33.1123V48.5861Z" fill="white"/>
<path d="M36.1519 48.5861H38.3323L40.0229 55.2333H40.0545V48.5861H41.6029V59.6911H39.8175L37.7319 51.5845H37.7003V59.6911H36.1519V48.5861Z" fill="white"/>
<path d="M42.8947 48.5861H47.6347V50.1726H44.6327V53.1074H47.0185V54.6939H44.6327V58.1047H47.6347V59.6911H42.8947V48.5861Z" fill="white"/>
<path d="M0 45.0881L47.4002 45.0881" stroke="white"/>
</svg>
