<svg width="43" height="63" viewBox="0 0 43 63" fill="none" xmlns="http://www.w3.org/2000/svg">
<path fill-rule="evenodd" clip-rule="evenodd" d="M24.5134 0.16959C24.4661 0.258022 22.1723 5.12445 19.4159 10.9839C15.3032 19.7267 14.3819 21.6337 14.2784 21.6174C14.2091 21.6063 14.0398 21.5788 13.9025 21.5559C13.3638 21.4668 12.8156 21.985 12.8716 22.5307C12.8868 22.6792 12.8363 22.7754 12.6664 22.9218C12.4147 23.1387 12.3467 23.6587 12.5356 23.923C12.6056 24.0211 12.6118 24.1049 12.5598 24.2459C12.4669 24.4978 12.5527 24.8249 12.7236 24.8707C12.8967 24.9171 12.9066 24.8707 12.5851 25.5252L12.3101 26.0853L11.7936 26.0513C9.71479 25.9148 8.37654 29.2151 10.3838 29.5277L10.68 29.5738L7.16027 37.1007C5.2243 41.2405 3.64043 44.6607 3.64043 44.7015C3.64043 44.7449 3.77548 44.7664 3.96894 44.7537L4.29761 44.7319L7.824 37.2017C11.0467 30.3202 11.3627 29.6756 11.4941 29.7185C11.5732 29.7443 11.8301 29.8061 12.0651 29.8558C12.4127 29.9293 12.5755 30.0171 12.9382 30.3266C14.0596 31.2836 15.7981 32.1625 16.9601 32.3596C17.2197 32.4037 17.2705 32.4455 17.4022 32.7241C17.4841 32.8972 17.6901 33.1972 17.8602 33.3909L18.1694 33.7429L18.5784 33.7049C19.1029 33.6563 19.5709 33.8111 20.0909 34.2055L20.481 34.5014L19.8612 34.661C18.0754 35.1209 16.6553 35.9979 15.9744 37.0619C15.5102 37.787 17.1475 40.1751 18.9892 41.4599C19.6526 41.9226 19.6226 41.8586 19.3676 42.2704C18.8275 43.1423 18.0962 43.3289 17.3186 42.7932C16.6752 42.3501 15.9117 43.1571 15.7043 44.4994L15.6628 44.7675H18.1419H20.6208L20.7873 44.3822C21.0133 43.8589 21.2789 42.8281 21.4431 41.836C21.6865 40.3668 21.7289 40.5612 21.085 40.1936C19.6857 39.3948 19.8219 38.8723 21.5209 38.5212L21.9747 38.4273L22.0599 38.8552C22.1914 39.515 22.4136 40.1589 22.785 40.9556L23.1245 41.6839L23.4579 41.7421C24.5067 41.9254 26.939 41.7675 28.6336 41.4062C29.3105 41.2617 29.3133 41.2629 29.3838 41.7401C29.518 42.6483 28.8848 43.1309 27.8936 42.876L27.4246 42.7554L27.269 42.9403C27.0555 43.1947 26.8993 43.7753 26.8993 44.3159V44.7675H28.7189H30.5385L30.6375 44.5248C30.7849 44.1638 30.8804 42.9072 30.8805 41.3286V39.9273L30.6091 39.8019C30.4599 39.7331 30.269 39.5815 30.1849 39.4652C29.8051 38.9392 29.4152 38.8678 28.7698 39.2058C27.5434 39.8483 26.7201 39.3619 26.9606 38.137C27.0615 37.6223 27.0339 37.6347 27.544 37.8718C28.4214 38.2799 29.1762 38.1958 29.7396 37.6272C30.851 36.5055 30.8643 35.02 29.7846 32.5411C28.6973 30.0443 28.7241 28.3599 29.8555 28.0691C30.3043 27.9539 30.9377 28.3151 30.7685 28.5897C30.6444 28.7912 30.5534 28.7687 30.2593 28.4647C29.938 28.1326 29.892 28.1401 29.6796 28.5598C29.3783 29.1552 29.5571 30.1991 30.0725 30.8556C30.2066 31.0266 30.2903 30.9604 30.1878 30.7644C30.1463 30.685 30.1129 30.5133 30.1139 30.3829C30.1154 30.1639 30.1285 30.1779 30.2847 30.5668C30.4675 31.0221 30.7475 31.3725 31.0126 31.4778C31.2556 31.5744 31.2716 31.5044 31.0638 31.2517C30.7514 30.8715 30.8022 30.5218 31.2717 29.82C32.0135 28.7113 32.0485 28.2215 31.4372 27.5089C31.0635 27.0731 30.7386 26.9419 29.9376 26.9029C29.4812 26.8808 29.2997 26.8508 29.4138 26.8165C29.7288 26.7216 30.2801 26.7519 30.6561 26.8849C31.17 27.0666 31.0833 26.9135 30.4983 26.6067C29.5485 26.1081 28.5169 26.3059 27.753 27.1329C26.7849 28.1807 27.02 29.749 28.5104 32.1837C29.8898 34.4373 29.9053 36.5078 28.5456 36.8921C27.347 37.2308 25.8012 34.1281 25.6656 31.1111L25.6255 30.2173L25.9306 30.5106C26.248 30.8158 26.5447 31.0396 26.6317 31.0396C26.6596 31.0396 26.6217 30.8595 26.5476 30.6392C26.0813 29.2518 26.1044 27.5643 26.6033 26.5688L26.7345 26.307L26.7107 26.7606C26.6903 27.1466 26.7 27.1941 26.7756 27.0781C27.6053 25.8044 28.1676 25.4385 29.3076 25.4307L29.865 25.4268L29.9593 24.9621C30.1353 24.0961 30.1675 24.02 30.1707 24.4616C30.1724 24.678 30.1491 25.0077 30.1192 25.1945C30.0459 25.6501 30.1393 25.6239 30.3164 25.1393C30.7251 24.021 30.6646 22.3832 30.1578 20.8509C30.1318 20.7723 30.175 20.8447 30.2538 21.0118C30.4629 21.4556 30.5577 21.4036 30.5142 20.8688C30.4719 20.3463 30.2282 19.7438 29.8983 19.3456L29.6646 19.0634L29.8885 19.2733C30.154 19.5226 30.2009 19.3825 29.9613 19.0552C29.1925 18.0051 28.189 17.3569 27.0997 17.207C26.8576 17.1737 26.7785 17.1327 26.7853 17.0446C26.8057 16.7843 26.0664 16.6456 25.5177 16.8067C25.3455 16.8571 25.1996 16.8422 24.9244 16.7454C24.041 16.4349 22.7787 16.3118 22.7773 16.536C22.7755 16.826 22.6768 16.89 21.9674 17.0616C20.9362 17.3111 20.4981 17.4972 20.3539 17.7469C20.2237 17.9727 20.2456 17.9641 18.9717 18.2839C17.9972 18.5283 17.7721 18.7958 18.1314 19.282C18.1905 19.3624 18.2348 19.5805 18.2362 19.7991C18.2398 20.4379 18.6825 21.158 18.9304 20.9283C19.069 20.7999 19.0889 20.7996 19.459 20.9187C19.7146 21.001 20.0135 21.0356 20.3505 21.0217C20.8917 20.9996 20.9571 21.0586 20.6955 21.332C20.4582 21.5802 19.1788 21.7149 19.0635 21.5039C18.9774 21.3465 18.8857 21.3568 18.832 21.5301C18.8004 21.6319 18.7263 21.6731 18.575 21.6731C18.3082 21.6731 18.3335 21.9593 18.6606 22.6384C19.0136 23.3713 18.9764 23.351 19.5857 23.1416C20.337 22.8835 21.3971 22.7706 21.9476 22.8902L22.3761 22.9833L22.1406 23.113C21.7422 23.3323 20.8973 23.5828 20.0194 23.7418C18.4395 24.028 17.5069 24.4695 17.0859 25.1304C16.9706 25.3115 16.8448 25.4602 16.8065 25.4609C16.683 25.4637 15.9052 25.0516 15.6932 24.8713L15.488 24.6968L15.6409 24.2202C15.9303 23.3175 15.8295 22.6843 15.3387 22.3236C15.1692 22.1989 15.0147 22.0708 14.9954 22.0387C14.9761 22.0066 17.2646 17.077 20.0812 11.084C22.8976 5.09082 25.1876 0.14717 25.1701 0.0981275C25.1114 -0.0662819 24.6101 -0.0116345 24.5134 0.16959ZM25.2187 1.66204C25.0999 1.90274 25.0287 2.12304 25.0605 2.15138C25.0923 2.17987 25.3685 2.37697 25.6745 2.58949C26.6863 3.29259 28.0384 4.73226 28.7414 5.85526C28.9955 6.26099 29.0842 6.33775 29.678 6.66532C30.4774 7.10655 30.4822 7.10281 30.0717 6.36095C29.0203 4.46043 27.4381 2.58124 26.0474 1.58155C25.4333 1.14001 25.4781 1.13565 25.2187 1.66204ZM27.6676 1.39457C27.6676 1.41325 27.9286 1.69629 28.2477 2.0234C29.2244 3.02511 30.3303 4.64804 31.0579 6.14749C31.2485 6.54015 31.4202 6.86305 31.4393 6.86476C31.4833 6.86881 32.8363 3.90165 32.8363 3.80139C32.8363 3.61378 31.0547 2.52286 30.0389 2.08832C29.1703 1.71685 27.6676 1.27717 27.6676 1.39457ZM24.2269 3.76247C23.93 4.372 23.6955 4.87067 23.706 4.87067C24.083 4.87067 26.9537 5.50091 27.6547 5.73756C28.2194 5.92812 28.2374 5.89683 27.855 5.38819C27.3511 4.71778 25.0398 2.65426 24.7928 2.65426C24.7785 2.65426 24.5239 3.15294 24.2269 3.76247ZM33.1884 4.63605C33.0664 4.90275 32.6186 5.88422 32.1934 6.81712C31.6789 7.94634 31.3937 8.49609 31.3405 8.46168C31.2965 8.43319 30.978 8.21304 30.6329 7.9725C28.6623 6.59884 26.4003 5.78972 23.8585 5.54917L23.3672 5.50278L22.9038 6.50729L22.4406 7.51197L22.6968 7.55058C25.5793 7.98573 28.2964 9.13286 30.1421 10.6937L30.3466 10.8665L29.2844 13.1375C28.3242 15.1905 28.234 15.4156 28.3466 15.4799C28.4926 15.5634 29.6307 16.3507 29.9686 16.6018C30.097 16.6973 30.2133 16.743 30.2272 16.7036C30.3026 16.4872 32.1548 12.4762 32.2016 12.4277C32.2323 12.396 32.5843 12.6085 32.9835 12.9003C35.3099 14.5996 37.0001 15.3034 39.0527 15.4273L39.7161 15.4673L40.1538 14.3409C40.3945 13.7214 40.5767 13.1995 40.5587 13.181C40.5408 13.1626 40.2495 13.1196 39.9116 13.0855C37.8021 12.8729 36.3879 12.2663 34.0433 10.5686C33.4129 10.1122 33.2714 9.97842 33.3198 9.88485C33.38 9.7687 34.6056 7.08242 35.043 6.10795L35.2739 5.59355L34.4218 4.9342C33.9531 4.57159 33.5338 4.24698 33.49 4.21303C33.4355 4.17069 33.3399 4.30505 33.1884 4.63605ZM9.01548 4.85277C9.09304 4.96097 9.17715 5.15761 9.20255 5.28979L9.24863 5.53018L9.01137 5.47864C8.88088 5.45046 8.70339 5.36079 8.617 5.27952L8.45974 5.13177V5.72137V6.31112L8.64377 6.16291C8.94901 5.91707 9.23403 5.95895 9.15586 6.23795C9.06597 6.55852 8.897 6.79735 8.66384 6.93311C8.31814 7.13442 8.42278 7.1587 9.62977 7.1573L10.7997 7.1559L10.5006 6.89932C9.8573 6.34724 9.86095 5.63947 10.5044 6.15761C10.7606 6.3639 10.7647 6.35705 10.7647 5.7265V5.15247L10.5726 5.29649C10.2964 5.50387 9.88696 5.58016 9.94977 5.41248C9.97548 5.34397 9.99646 5.2448 9.99646 5.19202C9.99646 5.13924 10.0778 4.99709 10.1773 4.87612L10.3581 4.65613H9.61639H8.87464L9.01548 4.85277ZM35.5689 6.45545C35.4586 6.70455 35.1602 7.37044 34.9056 7.93513C34.651 8.49983 34.4428 8.97857 34.4428 8.99881C34.4428 9.21569 38.488 8.88173 39.6331 8.57035C40.0954 8.44455 40.0766 8.40252 39.4367 8.13411C38.5672 7.76917 37.6792 7.27672 36.7379 6.63761C36.2631 6.31517 35.8509 6.04038 35.822 6.02699C35.7929 6.0136 35.6792 6.20634 35.5689 6.45545ZM4.84179 6.60102C4.58278 6.86601 4.92909 7.37916 5.2348 7.1833C5.37928 7.09082 5.42552 6.75671 5.31312 6.61815C5.21183 6.49297 4.95632 6.48363 4.84179 6.60102ZM13.808 6.62749C13.5984 6.84203 13.7489 7.23017 14.0416 7.23017C14.1911 7.23017 14.3968 7.01251 14.3968 6.85433C14.3968 6.69973 14.2068 6.51523 14.0476 6.51523C13.9762 6.51523 13.8684 6.56568 13.808 6.62749ZM5.76499 6.755C5.64879 7.06467 5.76118 7.26598 6.05016 7.26598H6.32955V6.97997C6.32955 6.66906 5.86628 6.48456 5.76499 6.755ZM12.8042 6.74394C12.5954 6.95786 12.759 7.30163 13.0696 7.30163C13.2892 7.30163 13.419 7.18221 13.419 6.97997C13.419 6.77757 13.2892 6.65816 13.0696 6.65816C12.9698 6.65816 12.8503 6.69677 12.8042 6.74394ZM3.93381 6.95849C3.70902 7.18844 3.88255 7.53532 4.20651 7.50356C4.41974 7.4827 4.4459 7.45592 4.46628 7.23764C4.49715 6.90602 4.15845 6.72838 3.93381 6.95849ZM6.68955 7.00348C6.53578 7.17739 6.54369 7.32311 6.71571 7.48239C6.92316 7.67451 7.22886 7.55431 7.26095 7.26816C7.30035 6.91614 6.92179 6.74067 6.68955 7.00348ZM11.9557 6.97561C11.8433 7.11418 11.8895 7.44829 12.034 7.54077C12.3397 7.73678 12.686 7.22363 12.427 6.95849C12.3125 6.84125 12.0571 6.85044 11.9557 6.97561ZM14.6901 6.95849C14.4757 7.17801 14.646 7.51617 14.9711 7.51617C15.2203 7.51617 15.3615 7.25788 15.2397 7.02465C15.1508 6.8548 14.8293 6.81603 14.6901 6.95849ZM7.59753 7.28948C7.35206 7.56708 7.51723 7.90353 7.87799 7.86103C8.14795 7.82911 8.26156 7.51197 8.07753 7.30381C7.91829 7.12367 7.74856 7.11869 7.59753 7.28948ZM11.0965 7.23593C10.9562 7.31969 10.9324 7.65925 11.0581 7.78785C11.2711 8.00597 11.6028 7.83331 11.6028 7.50434C11.6028 7.22254 11.3467 7.08662 11.0965 7.23593ZM3.16544 7.60196C2.95647 7.81587 3.12012 8.15964 3.43084 8.15964C3.65046 8.15964 3.78005 8.04023 3.78005 7.83798C3.78005 7.63559 3.65046 7.51617 3.43084 7.51617C3.33092 7.51617 3.21153 7.55478 3.16544 7.60196ZM15.448 7.61908C15.2571 7.85449 15.3858 8.12399 15.6889 8.12399C15.9555 8.12399 15.9694 8.11278 15.991 7.88111C16.0228 7.54046 15.6555 7.36328 15.448 7.61908ZM4.99023 7.6605C3.86278 7.8959 3.50628 8.8042 3.92164 10.3832C3.98902 10.6396 4.20225 10.6798 4.46081 10.4849C4.47039 10.4779 4.42765 10.2982 4.36605 10.0858C3.79084 8.10328 5.08818 7.60756 7.77882 8.78194L8.5297 9.10951V9.69818C8.5297 10.1828 8.55905 10.3418 8.69593 10.5995C9.01974 11.2087 8.99799 11.4425 8.64377 11.1575L8.45974 11.0092V11.7777V12.5461L8.62141 12.3907C8.85107 12.1698 8.97548 12.1871 8.91647 12.4318C8.69031 13.3709 7.67571 13.6904 7.25183 12.9559C6.91449 12.3711 7.3116 11.6968 7.737 12.1322C7.96164 12.3622 7.99008 12.3306 8.02689 11.8097C8.06476 11.2745 7.87038 11.0197 7.42445 11.0197C7.15829 11.0197 7.15008 11.0122 7.11358 10.7331C7.02597 10.0642 6.58126 9.5744 6.29898 9.83581C6.10263 10.0177 5.99206 10.4791 6.04559 10.8928C6.0894 11.2313 6.08818 11.2342 5.89001 11.2342C5.46415 11.2342 5.23191 11.881 5.46765 12.4106C5.56864 12.6375 5.62263 12.6395 5.72027 12.4201C5.87084 12.0821 6.30095 12.1266 6.43753 12.4944C6.87464 13.6712 5.36483 14.1403 4.78658 13.0074C4.63297 12.7064 4.7154 12.6649 5.11936 12.8392C5.22172 12.8835 5.2135 12.8 5.05335 12.1693C4.86902 11.4428 4.80423 11.3297 4.72301 11.5917C4.69852 11.6705 4.61792 11.7681 4.54369 11.8087C4.38598 11.8951 4.34415 11.3455 4.48042 10.9786C4.57837 10.7151 4.56301 10.7119 4.0716 10.895C3.544 11.0913 3.50583 10.8151 4.39982 13.2719L5.15434 15.3454H9.57107H13.9876L14.7507 13.2394C15.1705 12.0812 15.4903 11.1101 15.4617 11.0816C15.3771 10.9976 14.6611 10.7253 14.6241 10.7631C14.6054 10.7823 14.6252 10.9009 14.6681 11.0267C14.8679 11.6135 14.7239 12.0183 14.4451 11.6537L14.2728 11.4282L14.1654 11.8139C13.8819 12.8321 13.8622 13.0254 14.0626 12.8202C14.1081 12.7737 14.2182 12.7357 14.3073 12.7357H14.4695L14.3352 13.0038C13.8971 13.8782 12.8342 13.8995 12.6313 13.0377C12.4809 12.3993 13.1621 11.8785 13.4392 12.4201C13.5732 12.6818 13.7128 12.4889 13.7536 11.9857C13.7905 11.5283 13.5819 11.2342 13.22 11.2342C13.0158 11.2342 13.015 11.2327 13.079 10.9412C13.1899 10.4358 12.9484 9.73274 12.6638 9.73274C12.3908 9.73274 12.0219 10.3585 12.0222 10.8207C12.0222 11.0522 12.0178 11.0555 11.6985 11.0555C11.1934 11.0555 10.954 11.5353 11.1478 12.16L11.2006 12.3304L11.3145 12.1832C11.6094 11.8016 12.022 11.9954 12.022 12.5157C12.022 13.5705 10.5714 13.6306 10.2663 12.5884C10.1613 12.2297 10.2228 12.1681 10.4862 12.3675L10.6949 12.5254V11.7673V11.0092L10.5108 11.1575C10.1498 11.4483 10.1184 11.1106 10.4568 10.5742C10.6006 10.3465 10.6251 10.2202 10.6251 9.70627V9.10468L11.2711 8.81666C13.9682 7.61426 15.2716 8.04303 14.7809 9.97141C14.6447 10.5068 14.6424 10.4931 14.8842 10.5794C15.1292 10.6669 15.1215 10.6762 15.2635 10.115C15.8679 7.7276 14.0748 6.93934 11.1393 8.30194C10.8842 8.42027 10.6599 8.51711 10.6407 8.51711C10.6216 8.51711 10.6261 8.34024 10.6509 8.12399L10.6961 7.73071H9.5551H8.41411L8.48529 8.08631C8.57913 8.55494 8.57852 8.55525 7.89624 8.26053C6.71966 7.7522 5.62947 7.52707 4.99023 7.6605ZM21.3951 9.66813C21.0092 10.4699 20.7015 11.134 20.7113 11.1439C20.7209 11.1539 21.0879 10.9971 21.5266 10.7956C23.0615 10.0908 24.8766 9.56864 26.1379 9.469C26.7204 9.42307 26.8133 9.365 26.4977 9.24418C24.6907 8.55245 23.8266 8.32125 22.8042 8.2557L22.0967 8.21055L21.3951 9.66813ZM2.8421 8.41497C2.6167 8.64571 2.74856 9.01765 3.05563 9.01765C3.39252 9.01765 3.52818 8.68821 3.29107 8.44564C3.12301 8.27345 2.98932 8.26442 2.8421 8.41497ZM15.8336 8.41497C15.7034 8.5484 15.6901 8.81152 15.8077 8.93187C15.9931 9.12165 16.4223 8.95335 16.4223 8.69086C16.4223 8.40532 16.0249 8.21911 15.8336 8.41497ZM40.3447 8.95506C39.0282 9.39271 37.0089 9.66019 35.019 9.66081C33.9355 9.66128 33.9336 9.66361 34.6259 10.1586L35.1586 10.5391L36.0404 10.4908C38.3654 10.3634 40.5487 9.88983 42.0081 9.19607C42.4942 8.96503 42.5005 8.97608 41.8071 8.84032C41.1084 8.70347 41.1003 8.70409 40.3447 8.95506ZM2.77609 9.34071C2.53001 9.59246 2.77107 10.0066 3.11267 9.91879C3.31236 9.86757 3.4243 9.56584 3.31191 9.38197C3.21533 9.22394 2.91282 9.20059 2.77609 9.34071ZM15.8775 9.31798C15.6126 9.58919 15.9163 10.0432 16.2565 9.88454C16.5604 9.74286 16.4442 9.23219 16.1079 9.23219C16.0273 9.23219 15.9236 9.27081 15.8775 9.31798ZM3.0164 10.2957C2.90963 10.4998 2.92392 10.6233 3.06963 10.7583C3.34294 11.0116 3.72164 10.7496 3.59951 10.3919C3.51267 10.1377 3.13183 10.0749 3.0164 10.2957ZM15.5981 10.2475C15.3332 10.5187 15.6369 10.9728 15.9771 10.814C16.281 10.6723 16.1648 10.1617 15.8286 10.1617C15.7479 10.1617 15.6442 10.2003 15.5981 10.2475ZM41.4623 10.2725C40.6436 10.66 38.7364 11.147 37.3939 11.3116C36.5627 11.4134 36.5412 11.4388 37.0795 11.6826C38.0349 12.1156 39.3479 12.4316 40.3354 12.4662L40.8848 12.4854L41.3657 11.3443C41.9429 9.97453 41.9362 10.0482 41.4623 10.2725ZM27.7026 10.3524C24.8483 10.5943 22.1 11.6023 20.0959 13.1421C19.3574 13.7094 19.3563 13.729 20.0717 13.6188C20.3887 13.5699 20.8155 13.5282 21.02 13.526C21.3419 13.5227 21.5539 13.4404 22.5916 12.9168C24.7057 11.8497 27.3905 11.0991 29.1169 11.0925C29.5952 11.0907 29.5803 11.0349 28.9955 10.6368C28.4894 10.2923 28.4675 10.2875 27.7026 10.3524ZM27.947 11.8425C26.5154 12.0437 25.0865 12.4832 23.8393 13.1061C22.9971 13.5269 22.9957 13.5168 23.9166 13.6758C24.8235 13.8322 25.9435 14.2079 26.9233 14.6842C27.3458 14.8895 27.702 15.0251 27.7149 14.9854C27.7279 14.9459 28.0682 14.2271 28.4714 13.3884C28.8745 12.5495 29.2042 11.8343 29.2042 11.7989C29.2042 11.7134 28.7564 11.7289 27.947 11.8425ZM31.4743 15.4917C31.0901 16.3376 30.768 17.069 30.7586 17.117C30.7221 17.3023 33.1747 18.9991 34.2504 19.5332C34.8398 19.8257 35.957 20.2184 36.0191 20.1548C36.0381 20.1354 35.805 19.7813 35.5011 19.3681C34.5212 18.0357 33.4127 16.2408 32.6637 14.7734C32.443 14.3409 32.2421 13.9794 32.2176 13.9703C32.1929 13.9611 31.8585 14.6457 31.4743 15.4917ZM33.4649 14.1419C33.4649 14.815 35.9405 18.2917 37.2297 19.4293C37.8599 19.9853 37.878 19.9864 38.0679 19.4785L38.22 19.0715L37.9902 18.8961C37.2101 18.3002 35.8319 16.6459 35.0869 15.4109C34.7332 14.8246 33.4649 13.8322 33.4649 14.1419ZM35.4206 15.2064C35.4206 15.6029 38.0609 18.5271 38.4191 18.5271C38.4693 18.5271 39.406 16.2741 39.403 16.1606C39.4024 16.1369 39.1105 16.0982 38.7545 16.0742C38.0197 16.0248 36.7557 15.7116 35.9794 15.3865C35.401 15.1444 35.4206 15.1506 35.4206 15.2064ZM24.4547 17.3971C24.885 17.5302 24.9669 17.6491 24.8091 17.912C24.6211 18.2254 24.5697 18.5967 24.6644 18.9571C24.7499 19.2817 24.8705 19.2454 24.8726 18.8944C24.8775 18.1257 25.933 17.5878 26.7945 17.9148C26.9009 17.9551 26.8876 17.9236 26.7382 17.7827L26.5423 17.5976L26.9129 17.5992C27.8822 17.6034 28.1519 18.0678 27.5371 18.6744C26.8386 19.3638 25.4999 19.4796 25.1356 18.8824C24.9457 18.571 24.8752 18.9548 25.0104 19.5638L25.074 19.8498L24.9091 19.6407C24.8185 19.5257 24.69 19.3085 24.6238 19.1581C24.4033 18.6576 24.2708 19.0388 24.4839 19.5607C24.5943 19.8315 24.5279 19.9106 24.2518 19.8366C24.1714 19.8151 24.1055 19.8273 24.1055 19.8637C24.1055 19.9666 24.5298 20.3862 24.6339 20.3862C24.8716 20.3862 24.3974 21.4742 23.9327 21.9949L23.6775 22.2809L23.7171 21.9806C23.7561 21.6845 23.6558 20.7236 23.5712 20.5833C23.5472 20.5436 23.427 20.7332 23.3043 21.0046C22.8106 22.0957 22.5353 22.2626 21.137 22.3185C20.227 22.3547 20.0319 22.3845 19.6527 22.5447L19.2162 22.729V22.5604C19.2162 22.3513 19.4106 22.2428 20.159 22.0342C21.1123 21.7684 21.1692 21.7427 21.2778 21.5277C21.3373 21.4102 21.3814 21.1304 21.3814 20.8723L21.3815 20.4218H20.4909C19.7043 20.4218 19.5665 20.4033 19.3101 20.263C18.7574 19.9605 18.56 19.509 18.9193 19.3698C19.025 19.3289 19.1586 19.1948 19.2162 19.0722C19.4187 18.6406 20.1831 18.5498 21.0374 18.8559C22.0392 19.2149 22.5858 19.1109 22.8949 18.5026C23.0264 18.2437 23.0132 18.2344 22.6371 18.321C22.1257 18.4387 21.0322 18.1861 21.0322 17.9504C21.0322 17.5322 23.5669 17.1224 24.4547 17.3971ZM29.1928 20.262C29.4647 20.9303 29.6255 21.8565 29.6162 22.7013L29.6091 23.3533L29.4859 22.5575C29.2679 21.1505 28.8955 20.1617 28.3971 19.6672C28.086 19.3586 28.0437 19.4175 28.298 19.805C28.7669 20.5198 28.9312 21.4567 28.8205 22.7849C28.7694 23.398 28.6629 23.4813 28.6504 22.9179C28.6412 22.5006 28.3666 21.5652 28.0754 20.9587C27.7721 20.3272 27.6459 20.2797 27.8355 20.8684C28.107 21.7111 28.1344 22.897 27.9035 23.8044C27.7317 24.4798 27.7018 24.4072 27.7269 23.3748C27.7501 22.4187 27.6971 21.5475 27.6206 21.626C27.6012 21.6459 27.5283 21.9623 27.4588 22.3291C27.072 24.3681 26.185 25.7773 24.7645 26.6093C24.3019 26.8802 24.1951 26.8542 24.5977 26.5685C25.393 26.0044 25.9856 25.0247 26.045 24.1763C26.0869 23.5757 26.0214 23.5483 25.7615 24.0574C25.3835 24.7978 24.5309 25.5262 23.4506 26.0317C22.5192 26.4673 22.3622 26.493 23.0333 26.1C23.5679 25.7869 24.3154 25.0512 24.5531 24.604C24.7892 24.16 24.7484 24.0725 24.4614 24.4071C23.7437 25.2439 21.3432 25.7476 20.0358 25.3356C19.5817 25.1925 19.3023 25.153 18.7087 25.1477C17.8857 25.1402 17.8641 25.1039 18.5047 24.8056C18.8555 24.6423 18.9879 24.6337 20.0194 24.7072C20.9294 24.7722 21.5452 24.6652 22.2538 24.3189C22.7355 24.0837 22.8637 23.9255 22.4819 24.0376C22.0106 24.176 22.0649 24.0916 22.6387 23.7946C23.3453 23.4289 23.7221 23.19 24.264 22.7651L24.667 22.4491L24.4917 22.855C24.153 23.6389 23.7446 24.0935 23.0228 24.4899L22.6736 24.6817L22.953 24.6409C24.5148 24.4124 25.4649 23.1539 25.5715 21.1726L25.6196 20.2789L25.6308 21.1433C25.6436 22.1214 25.4921 22.9001 25.185 23.4366C24.9514 23.8446 25.0681 23.8309 25.4363 23.4071C26.0263 22.7281 26.1659 22.289 26.1659 21.114C26.1659 20.2454 26.1787 20.1221 26.2501 20.3015C26.5726 21.1102 26.7756 22.6011 26.6342 23.1211C26.5444 23.4513 26.6442 23.4723 26.8036 23.1567C27.1219 22.5269 27.2044 21.2744 26.9999 20.1718C26.94 19.8486 26.9056 19.5694 26.9233 19.5512C26.9913 19.4816 27.5163 19.8175 27.7309 20.0677C28.0824 20.4774 28.0798 20.0971 27.7269 19.4654C27.535 19.122 27.6051 19.1116 28.1574 19.4016C28.7104 19.6921 28.73 19.6803 28.4288 19.2383C28.2162 18.926 28.2191 18.9275 28.5942 19.3245C28.8656 19.6119 29.0387 19.883 29.1928 20.262ZM15.0082 22.6333C15.4535 23.048 15.4679 23.2816 15.0962 24.0667L14.8938 24.4939L15.0346 24.7272C15.2147 25.0256 15.8033 25.5529 16.191 25.7636C16.5575 25.9626 16.5597 25.9106 16.163 26.4212L15.8348 26.8436L15.527 26.4927C15.0766 25.9792 14.5394 25.1189 14.4459 24.7608C14.4012 24.5892 14.3089 24.4186 14.2409 24.3812C13.9604 24.2276 14.2684 23.6658 14.8457 23.2788C15.0643 23.1321 15.0311 23.0621 14.7139 23.0012C14.2468 22.9115 13.7866 22.2501 14.0229 22.0082C14.0959 21.9334 14.5997 22.2531 15.0082 22.6333ZM13.6161 23.0599C13.7285 23.1899 13.7267 23.1919 13.5726 23.1091C13.3343 22.9811 13.2433 22.7309 13.3594 22.5223C13.4517 22.3561 13.4544 22.3588 13.4765 22.6384C13.4889 22.7957 13.5517 22.9853 13.6161 23.0599ZM13.391 23.638L13.6634 23.7342L13.4596 23.7869C13.2532 23.8403 12.9981 23.6445 13.0009 23.4348C13.0016 23.3837 13.0237 23.3884 13.0603 23.4475C13.0923 23.4992 13.2412 23.5849 13.391 23.638ZM13.1744 24.3901C13.3092 24.4494 13.3087 24.4517 13.1612 24.4566C13.0769 24.4594 12.9887 24.4295 12.965 24.3901C12.9139 24.3056 12.9822 24.3056 13.1744 24.3901ZM14.1898 25.4963C14.4763 26.0675 15.0416 27.0048 15.3951 27.495C15.4608 27.5863 14.4605 28.6802 14.3114 28.6802C14.0019 28.6802 12.8602 27.0002 12.8602 26.5449C12.8602 26.3602 13.7061 24.6555 13.767 24.7178C13.8032 24.7549 13.9934 25.1052 14.1898 25.4963ZM19.1593 25.9272C19.5555 26.0255 20.0997 26.1083 20.3686 26.1113L20.8576 26.1165L20.4734 26.2643C19.8917 26.488 18.7184 26.4865 18.0812 26.2612C17.4495 26.0378 17.4512 26.0334 18.2733 25.7813C18.4012 25.7421 18.4351 25.7477 19.1593 25.9272ZM12.1921 26.7051C12.2714 26.7586 12.4544 27.042 12.5987 27.3345C13.7448 29.6568 15.5627 30.1099 18.7098 28.8572C19.6652 28.4768 19.7339 28.4191 19.1895 28.4539C18.7154 28.4841 17.4763 28.3588 16.7067 28.2028L16.1181 28.0835L16.5149 27.7054C16.7332 27.4975 17.0485 27.2453 17.2155 27.1452L17.519 26.963L18.2104 27.115C18.6504 27.2118 19.283 27.2816 19.9496 27.307C21.3008 27.3583 20.9341 27.4532 19.1114 27.5238L17.8541 27.5724L18.1566 27.7374C19.1195 28.2626 21.1172 28.3924 23.1625 28.0628C23.3701 28.0294 23.3698 28.0301 23.1276 28.1449C22.6447 28.3739 21.6422 28.5685 20.159 28.7211C19.6835 28.7701 19.6758 28.7739 19.8798 28.8629C20.4182 29.098 23.01 29.1897 23.7561 29.0001C24.1321 28.9045 23.5225 29.3194 22.9412 29.5545C22.6275 29.6816 22.3858 29.8102 22.4041 29.8405C22.4587 29.9308 23.2211 29.9029 23.5609 29.7983L23.8766 29.701L23.843 30.006C23.7555 30.8007 24.0444 31.673 24.918 33.2522C26.5896 36.2743 26.6839 38.085 25.2558 39.7446C25.0761 39.9534 24.9758 40.12 25.0296 40.12C25.1697 40.12 25.9199 39.6462 26.1695 39.4002L26.3826 39.1901L26.6225 39.4435C27.0976 39.9453 27.9152 40.0233 28.8066 39.6515L29.2392 39.4712L29.3615 39.6247C30.078 40.5253 25.0935 41.5573 23.6165 40.8144C22.9259 40.467 22.4412 38.7512 22.5143 36.9132C22.5674 35.5802 22.6546 35.4745 23.7561 35.4077L24.4897 35.3632L24.0736 35.2329C23.5516 35.0694 23.0357 34.8036 22.6935 34.5221C22.2865 34.1872 22.3771 34.1763 22.9612 34.4896C23.5852 34.8243 24.0153 34.9518 24.7341 35.0151C25.3295 35.0675 25.3368 34.9736 24.7476 34.8415C24.344 34.7508 23.4556 34.347 23.2323 34.1525L23.0927 34.0309L23.2323 34.0823C23.7294 34.2649 24.3269 34.3996 24.6278 34.397L24.9785 34.394L24.3133 34.0526C23.0158 33.3868 21.8847 32.4566 21.161 31.4603C20.7428 30.8847 20.8203 30.9137 20.4314 31.1876C18.9863 32.2053 16.763 31.852 13.9963 30.165C13.2138 29.6878 13.1969 29.6247 13.8497 29.6146C14.4613 29.6053 14.4439 29.5343 13.7581 29.2403L13.1089 28.962L12.7679 29.1122C12.2 29.3622 11.2622 28.9931 11.4676 28.6003C11.556 28.431 11.5277 28.0217 11.4252 27.9875C11.3851 27.9739 11.3127 28.0751 11.2643 28.2123C11.0266 28.8852 9.99646 29.1983 9.99646 28.5975C9.99646 28.4309 10.4374 27.9651 10.5951 27.9651C10.65 27.9651 10.6949 27.933 10.6949 27.8936C10.6949 27.8013 10.4759 27.8022 10.2357 27.8956C10.0067 27.9848 9.96148 27.9512 10.0591 27.7642C10.1469 27.5964 10.4807 27.4647 10.8187 27.4647C11.1177 27.4647 11.0217 27.2853 10.673 27.1928L10.4593 27.1362L10.7194 27.0097C10.9375 26.9037 11.0196 26.8969 11.2261 26.9666C11.544 27.074 11.5917 27.0177 11.3727 26.7936C11.2232 26.6404 11.2146 26.6093 11.313 26.5794C11.4997 26.5229 12.036 26.5995 12.1921 26.7051ZM21.7905 35.493C21.9919 36.0345 21.7683 36.3109 20.9429 36.5407C20.627 36.6286 20.0053 36.8748 19.5612 37.0876C18.6418 37.5282 18.4539 37.552 17.4526 37.3557C16.7168 37.2114 16.7203 37.2287 17.3397 36.8088C18.2666 36.1804 19.6304 35.6218 20.9438 35.3327C21.6804 35.1704 21.6699 35.1684 21.7905 35.493ZM29.5561 42.9036C29.4611 43.0854 29.1761 43.2886 28.7102 43.5067L28.3312 43.6844L28.6804 43.6534L29.0296 43.6224L28.8074 43.7284C28.6853 43.7868 28.4573 43.959 28.3011 44.1111L28.0168 44.388V44.163C28.0168 44.0394 28.0541 43.9 28.0996 43.8536C28.145 43.8071 28.163 43.7495 28.1397 43.7255C28.062 43.6459 27.8276 43.7677 27.5749 44.019L27.325 44.2674L27.4158 43.9589C27.5838 43.387 27.6036 43.371 28.1075 43.3974C28.6167 43.4242 29.142 43.2405 29.4191 42.9385C29.6107 42.7297 29.6526 42.7189 29.5561 42.9036ZM18.4016 43.4849C18.3609 43.5267 18.1425 43.6202 17.9163 43.6929L17.5049 43.825L17.8541 43.836C18.166 43.846 18.1847 43.8552 18.0289 43.9217C17.8625 43.9925 17.8608 43.9989 17.9939 44.0551C18.0775 44.0904 18.0933 44.116 18.0333 44.1191C17.9782 44.1219 17.8603 44.194 17.7714 44.2796L17.6097 44.435V44.2796C17.6097 44.0853 17.5391 44.0836 17.3047 44.2723L17.1207 44.4205V44.2416C17.1207 44.1432 17.1755 44.0068 17.2424 43.9383C17.4241 43.7523 16.9119 43.8485 16.6311 44.0531C16.3817 44.2349 16.3638 44.143 16.5739 43.76L16.7256 43.4839L17.3248 43.5222C17.6544 43.5432 18.0184 43.5292 18.1335 43.4909C18.4181 43.3965 18.4897 43.395 18.4016 43.4849ZM29.0646 43.8782C28.9301 43.9364 28.7496 44.0719 28.6634 44.1792C28.5099 44.37 28.5064 44.3708 28.5061 44.2123C28.5058 44.0213 28.8684 43.7658 29.1344 43.7697C29.2907 43.7719 29.2834 43.7832 29.0646 43.8782ZM0.00833834 45.7328V46.0546H19.9844H39.9607V45.7328V45.411H19.9844H0.00833834V45.7328ZM24.4466 48.0079C22.6069 48.7118 23.17 51.4526 25.1531 51.4479C27.5082 51.4425 27.6162 48.0324 25.2643 47.9347C24.9066 47.92 24.6065 47.9469 24.4466 48.0079ZM32.0132 48.0034C30.7021 48.4334 30.5567 50.5205 31.7885 51.2298C32.4459 51.6083 33.347 51.525 33.8678 51.0375L34.0261 50.8893L33.7662 50.617C33.4656 50.3019 33.4419 50.2964 33.2045 50.4876C32.667 50.9204 31.8579 50.4175 31.8586 49.6509C31.8594 48.9042 32.7561 48.4163 33.2637 48.8865C33.3967 49.0098 33.41 49.0043 33.6948 48.7101L33.9887 48.4065L33.7966 48.2348C33.4548 47.9298 32.5828 47.8166 32.0132 48.0034ZM38.1636 48.054C37.236 48.485 37.4021 49.5707 38.4585 49.9819C38.9812 50.1854 39.1335 50.3397 39.0103 50.5412C38.8883 50.7404 38.4936 50.7369 38.2015 50.534L37.9496 50.359L37.6979 50.6229C37.3155 51.0238 37.4948 51.2637 38.2923 51.4186C39.9473 51.7398 40.6659 49.8812 39.0938 49.3456C38.5081 49.1462 38.3557 48.9846 38.558 48.7773C38.7444 48.5866 38.9837 48.5882 39.2243 48.7819L39.4145 48.9352L39.705 48.6361L39.9955 48.337L39.8209 48.1975C39.437 47.8907 38.6597 47.8234 38.1636 48.054ZM0.726513 49.5371C0.374878 50.3942 0.065372 51.1532 0.0389081 51.2239C-0.00489413 51.3411 0.0331292 51.3506 0.470999 51.3311L0.951303 51.3098L1.05396 51.0059L1.15647 50.702H1.75541H2.35434L2.46233 51.0059L2.57031 51.3098L3.06704 51.3307L3.56377 51.3517L3.27769 50.6515C3.12043 50.2664 2.81472 49.5169 2.59845 48.9861L2.20529 48.0208L1.78552 48L1.36575 47.979L0.726513 49.5371ZM4.05944 49.6652V51.3456H4.4786H4.89761V50.702C4.89761 49.8592 4.99465 49.8591 5.4348 50.7014L5.77077 51.3441L6.27951 51.3448C6.86902 51.3456 6.86856 51.4281 6.28544 50.4737C5.97852 49.9715 5.96103 49.9201 6.08407 49.8801C6.58202 49.7183 6.76316 48.7795 6.37776 48.3573C6.11343 48.0675 5.77685 47.986 4.84529 47.9855L4.05944 47.985V49.6652ZM7.41213 49.6624V51.3456H7.84088H8.26977L8.22536 50.2552L8.1808 49.1649L8.38932 49.7369C8.50415 50.0514 8.68012 50.5421 8.78034 50.8272L8.96285 51.3456L9.28757 51.3451L9.61228 51.3447L9.96148 50.3403L10.3107 49.3361L10.3302 50.3408L10.3495 51.3456H10.7667H11.1838V49.6624V47.9794L10.5784 48.0001L9.97289 48.0208L9.64346 49.0218C9.45745 49.5876 9.29593 49.9762 9.27236 49.9156C9.24939 49.8566 9.09228 49.4062 8.92316 48.9145L8.61593 48.0208L8.01396 48.0001L7.41213 47.9794V49.6624ZM12.0918 49.6652V51.3456H13.2792H14.4666V50.988V50.6305H13.6984H12.93V50.3089V49.9871H13.5936H14.2571V49.6296V49.272H13.5936H12.93V48.9861V48.7001H13.6284H14.327V48.3425V47.985H13.2094H12.0918V49.6652ZM15.2349 49.6571V51.3456H16.0824C17.6327 51.3456 18.3025 50.8367 18.3066 49.6556C18.3107 48.5156 17.7034 48.0383 16.1955 47.9958L15.2349 47.9688V49.6571ZM20.5432 49.6652V51.3456H20.9624H21.3814V50.702V50.0585H22.01H22.6387V49.7011V49.3436H22.01H21.3814V49.0576V48.7716H22.08H22.7784V48.3783V47.985H21.6608H20.5432V49.6652ZM27.7374 49.6582V51.3456H28.1566H28.5756V50.702C28.5756 50.226 28.599 50.0585 28.6652 50.0585C28.7146 50.0585 28.9082 50.3481 29.0956 50.702L29.4364 51.3456H29.9531C30.2372 51.3456 30.4552 51.3215 30.4375 51.2919C30.4197 51.2625 30.2314 50.9502 30.0191 50.5981L29.6331 49.9579L29.8296 49.8356C30.4217 49.467 30.4085 48.5287 29.8059 48.1558C29.629 48.0464 29.4158 48.0165 28.6629 47.9961L27.7374 47.971V49.6582ZM34.5825 49.6652V51.3456H35.735H36.8874V50.988V50.6305H36.154H35.4206V50.3089V49.9871H36.0842H36.7478V49.6296V49.272H36.0842H35.4206V48.9861V48.7001H36.119H36.8176V48.3425V47.985H35.7H34.5825V49.6652ZM5.55662 48.7697C5.96012 48.9268 5.73487 49.337 5.21183 49.3975L4.89761 49.4336V49.0668V48.7001H5.13761C5.26947 48.7001 5.45807 48.7314 5.55662 48.7697ZM25.5812 48.8121C25.9919 49.0294 26.1461 49.6098 25.9254 50.1074C25.5857 50.8736 24.5254 50.7872 24.312 49.9758C24.0839 49.1085 24.8369 48.418 25.5812 48.8121ZM29.2585 48.8113C29.5853 49.0457 29.4013 49.3384 28.89 49.3975L28.5756 49.4336V49.0668V48.7001H28.8395C28.9846 48.7001 29.1732 48.7501 29.2585 48.8113ZM16.9834 48.8799C17.8853 49.3574 17.3533 50.6305 16.2517 50.6305H16.0731V49.7011V48.7716H16.4258C16.6197 48.7716 16.8707 48.8203 16.9834 48.8799ZM1.94735 49.558L2.09807 49.9871H1.76195H1.42598L1.57275 49.558C1.65351 49.3221 1.73685 49.129 1.75799 49.129C1.77913 49.129 1.86431 49.3221 1.94735 49.558ZM0.00833834 53.3833V53.562H19.9844H39.9607V53.3833V53.2046H19.9844H0.00833834V53.3833ZM1.82431 55.3153C-0.419038 55.9492 -0.657669 59.2564 1.46674 60.2728C2.35769 60.6989 3.65868 60.4998 4.32134 59.8357C4.69016 59.4661 4.69791 59.5107 4.20255 59.153C3.73244 58.8136 3.67389 58.7984 3.57411 58.9891C3.28073 59.5502 2.16301 59.5508 1.62963 58.9902C0.366208 57.6621 2.2094 55.3408 3.51495 56.6156C3.72909 56.8247 3.76697 56.8113 4.2929 56.3405L4.56118 56.1003L4.41244 55.9067C3.98963 55.3568 2.71145 55.0646 1.82431 55.3153ZM6.83556 55.2796C3.99404 56.0142 4.43358 60.2918 7.36985 60.4792C9.12179 60.5912 10.3023 59.3808 10.1899 57.588C10.0876 55.9569 8.48422 54.8535 6.83556 55.2796ZM10.5117 55.5103C10.5346 55.5989 10.9581 56.7169 11.4532 57.995L12.3533 60.3187L12.8381 60.3396L13.323 60.3603L14.2789 57.9307C15.4164 55.0398 15.3752 55.3391 14.6333 55.3646L14.0316 55.3853L13.4526 57.0297C12.9505 58.4559 12.8647 58.6505 12.8074 58.4956C12.7709 58.3972 12.5086 57.6494 12.2244 56.8337L11.7076 55.3508L11.0889 55.3501C10.4815 55.3495 10.471 55.3525 10.5117 55.5103ZM15.7937 57.8521V60.3545H17.5399H19.286V59.854V59.3536H18.0987H16.9113V58.8172V58.281H17.9939H19.0765V57.7805V57.2801H17.9939H16.9113V56.8153V56.3504H18.0637H19.2162V55.8501V55.3495H17.5049H15.7937V57.8521ZM20.2638 57.8521V60.3545H20.8226H21.3814V58.7319V57.1093L22.3461 58.714L23.3107 60.3187L23.9875 60.3392L24.6643 60.3596V57.8546V55.3495H24.1067H23.5493L23.5306 56.9172L23.5117 58.4848L22.5688 56.9184L21.626 55.3518L20.9449 55.3508L20.2638 55.3495V57.8521ZM27.2895 55.4109C27.2135 55.537 25.2231 60.2443 25.2231 60.2983C25.2231 60.3293 25.5017 60.3545 25.8424 60.3545H26.4617L26.6625 59.8163L26.8632 59.2781L27.7624 59.298L28.6614 59.3178L28.855 59.8183L29.0485 60.3187L29.6936 60.3394C30.2883 60.3586 30.3353 60.3501 30.2938 60.2321C30.269 60.1618 29.8016 59.0349 29.255 57.7278L28.2614 55.3514L27.794 55.3504C27.537 55.35 27.3099 55.3771 27.2895 55.4109ZM30.8805 57.8521V60.3545H31.438H31.9955L32.0142 58.742L32.0331 57.1294L32.9987 58.742L33.9643 60.3545H34.6226H35.2808V57.8521V55.3495H34.7234H34.166L34.1473 56.903L34.1285 58.4563L33.1904 56.903L32.2523 55.3495H31.5665H30.8805V57.8521ZM35.9794 55.8501V56.3504H36.6778H37.3764V58.3525V60.3545H37.9351H38.4939V58.3525V56.3504H39.2273H39.9607V55.8501V55.3495H37.97H35.9794V55.8501ZM8.17639 56.4199C9.63358 57.1809 9.02034 59.567 7.40848 59.4085C6.01487 59.2714 5.65867 57.1253 6.91662 56.4454C7.30491 56.2355 7.80407 56.2254 8.17639 56.4199ZM28.2012 58.2592C28.1856 58.2749 27.9685 58.2784 27.7183 58.2665L27.2637 58.2452L27.4547 57.7448C27.5598 57.4696 27.6695 57.18 27.6985 57.1013C27.7402 56.9885 27.8016 57.0923 27.9902 57.5944C28.1218 57.9443 28.2167 58.2433 28.2012 58.2592ZM0.00833834 62.6782V63H19.9844H39.9607V62.6782V62.3565H19.9844H0.00833834V62.6782Z" fill="white"/>
</svg>
