<svg width="95" height="43" viewBox="0 0 95 43" fill="none" xmlns="http://www.w3.org/2000/svg">
<g clip-path="url(#clip0)">
<path d="M1.21191 41.2247H94.1178M1.21191 29.1156H94.1178H1.21191Z" stroke="white" stroke-width="1.51"/>
<path d="M0.980274 42.525C1.17415 42.525 1.36368 42.4646 1.52489 42.3513C1.68609 42.238 1.81173 42.077 1.88593 41.8886C1.96012 41.7002 1.97954 41.4929 1.94171 41.2929C1.90389 41.093 1.81053 40.9092 1.67343 40.7651C1.53634 40.6209 1.36167 40.5227 1.17152 40.4829C0.981362 40.4431 0.784261 40.4636 0.605139 40.5416C0.426018 40.6196 0.27292 40.7518 0.165206 40.9213C0.0574921 41.0908 0 41.2902 0 41.4941C0 41.7675 0.103279 42.0297 0.287116 42.2231C0.470953 42.4164 0.720289 42.525 0.980274 42.525Z" fill="white"/>
<path d="M1.08496 41.0382L23.0118 1.16699" stroke="white" stroke-width="1.51"/>
<path d="M23.2335 2.06442C23.4278 2.06442 23.6178 2.00381 23.7794 1.89027C23.941 1.77672 24.0669 1.61533 24.1413 1.42651C24.2156 1.23769 24.2351 1.02992 24.1972 0.829468C24.1593 0.629017 24.0657 0.444891 23.9283 0.300374C23.7909 0.155857 23.6158 0.0574394 23.4252 0.0175672C23.2346 -0.0223049 23.0371 -0.00184108 22.8575 0.076371C22.678 0.154583 22.5245 0.28703 22.4166 0.456965C22.3086 0.626899 22.251 0.826687 22.251 1.03106C22.2507 1.16686 22.2759 1.30137 22.3252 1.42688C22.3744 1.5524 22.4468 1.66644 22.5381 1.76246C22.6294 1.85848 22.7378 1.93458 22.8572 1.9864C22.9765 2.03822 23.1044 2.06473 23.2335 2.06442Z" fill="white"/>
<path d="M12.0477 22.1349C12.2422 22.1353 12.4325 22.0751 12.5944 21.9617C12.7563 21.8483 12.8826 21.687 12.9572 21.498C13.0319 21.3091 13.0515 21.1012 13.0137 20.9005C12.9759 20.6998 12.8822 20.5155 12.7447 20.3708C12.6071 20.2261 12.4319 20.1277 12.2411 20.0879C12.0502 20.0481 11.8525 20.0688 11.6729 20.1473C11.4932 20.2258 11.3398 20.3586 11.232 20.5289C11.1242 20.6992 11.0669 20.8993 11.0674 21.1039C11.068 21.3771 11.1715 21.639 11.3552 21.8322C11.5389 22.0254 11.7879 22.1342 12.0477 22.1349Z" fill="white"/>
<path d="M38.2898 26.3638C38.4843 26.3643 38.6745 26.3041 38.8363 26.1908C38.9982 26.0776 39.1245 25.9164 39.1992 25.7276C39.2739 25.5388 39.2937 25.3309 39.2561 25.1303C39.2184 24.9297 39.125 24.7454 38.9877 24.6006C38.8504 24.4559 38.6753 24.3572 38.4846 24.3172C38.294 24.2771 38.0963 24.2974 37.9166 24.3756C37.737 24.4537 37.5834 24.5861 37.4753 24.7561C37.3673 24.9261 37.3096 25.126 37.3096 25.3305C37.3096 25.6041 37.4128 25.8666 37.5965 26.0603C37.7803 26.254 38.0297 26.3632 38.2898 26.3638Z" fill="white"/>
<path d="M23.2199 1.06204L38.2462 25.2778M38.2462 25.3924L12.0557 20.975L38.2462 25.3924Z" stroke="white" stroke-width="1.51"/>
<path d="M59.6541 7.96371C59.8481 7.96417 60.038 7.9042 60.1996 7.79136C60.3613 7.67852 60.4876 7.51785 60.5626 7.32963C60.6375 7.14141 60.6578 6.93405 60.6209 6.73371C60.584 6.53337 60.4915 6.34901 60.3551 6.20388C60.2187 6.05875 60.0444 5.95935 59.8544 5.91822C59.6643 5.87708 59.467 5.89605 59.2871 5.97273C59.1073 6.0494 58.9531 6.18036 58.844 6.34909C58.7348 6.51781 58.6756 6.71675 58.6738 6.92081C58.6735 7.0564 58.6987 7.19072 58.7478 7.31608C58.7969 7.44143 58.8691 7.55537 58.9601 7.65136C59.0512 7.74734 59.1594 7.8235 59.2784 7.87546C59.3975 7.92742 59.5252 7.95416 59.6541 7.95416" fill="white"/>
<path d="M38.3232 25.2876L59.6215 6.97366" stroke="white" stroke-width="1.51"/>
<path d="M73.1622 3.1026C73.3567 3.1026 73.5467 3.04193 73.7083 2.92828C73.87 2.81463 73.9959 2.6531 74.0702 2.46414C74.1445 2.27518 74.1638 2.06728 74.1257 1.86677C74.0876 1.66625 73.9938 1.48213 73.8562 1.33771C73.7186 1.19329 73.5433 1.09506 73.3525 1.05545C73.1618 1.01585 72.9642 1.03666 72.7847 1.11524C72.6052 1.19381 72.4519 1.32663 72.3442 1.49688C72.2365 1.66713 72.1792 1.86715 72.1797 2.07163C72.1794 2.20731 72.2046 2.34171 72.2539 2.46709C72.3032 2.59247 72.3756 2.70635 72.4669 2.80218C72.5583 2.89801 72.6667 2.97389 72.786 3.02545C72.9054 3.07701 73.0332 3.10323 73.1622 3.1026Z" fill="white"/>
<path d="M71.3149 18.5384C71.5098 18.5407 71.701 18.4821 71.8641 18.3699C72.0272 18.2577 72.1549 18.097 72.231 17.9083C72.307 17.7195 72.328 17.5113 72.2912 17.31C72.2543 17.1087 72.1615 16.9234 72.0243 16.7778C71.8871 16.6322 71.7118 16.5328 71.5208 16.4922C71.3297 16.4516 71.1315 16.4717 70.9514 16.5499C70.7712 16.6281 70.6173 16.7609 70.5091 16.9314C70.4009 17.1019 70.3433 17.3024 70.3438 17.5074C70.3438 17.643 70.3692 17.7773 70.4186 17.9025C70.468 18.0277 70.5404 18.1415 70.6317 18.2373C70.7229 18.333 70.8313 18.4089 70.9505 18.4606C71.0697 18.5123 71.1974 18.5387 71.3263 18.5384" fill="white"/>
<path d="M59.7989 6.95419L71.3172 17.4548M59.665 6.78952L73.1098 2.11676L59.665 6.78952Z" stroke="white" stroke-width="1.51"/>
<path d="M92.6155 25.1728C92.9126 25.1728 93.203 25.0801 93.45 24.9065C93.6971 24.7329 93.8896 24.4862 94.0033 24.1975C94.117 23.9088 94.1467 23.5912 94.0888 23.2847C94.0308 22.9782 93.8878 22.6967 93.6777 22.4758C93.4676 22.2548 93.1999 22.1044 92.9085 22.0434C92.6171 21.9825 92.3151 22.0137 92.0406 22.1333C91.7661 22.2529 91.5315 22.4554 91.3664 22.7152C91.2014 22.975 91.1133 23.2805 91.1133 23.5929C91.1133 24.0119 91.2715 24.4138 91.5533 24.7101C91.835 25.0063 92.2171 25.1728 92.6155 25.1728Z" fill="white"/>
<path d="M71.478 38.8214H72.5899V37.5255H71.478V38.8214ZM60.9401 33.3158C60.9401 32.0796 61.5006 31.8361 64.3937 31.8361C65.8778 31.8361 66.6357 31.9531 66.9783 32.2299C67.2188 32.4256 67.3187 32.7072 67.33 33.3158H68.1878C68.1537 32.2418 67.9881 31.8361 67.4503 31.4901C66.9125 31.144 66.0752 31.0247 64.3824 31.0247C62.8757 31.0247 61.909 31.1178 61.2805 31.3135C60.4136 31.5808 60.0165 32.2394 60.0165 33.3945C60.0165 34.1582 60.1935 34.5878 60.6337 34.898C61.074 35.2082 61.6549 35.3156 62.9869 35.3276C66.2635 35.3491 66.3066 35.3491 66.79 35.4875C67.2733 35.6259 67.4707 35.929 67.4707 36.5757C67.4707 37.8596 66.9533 38.0911 64.0829 38.0911C62.7645 38.0911 61.9499 38.0219 61.521 37.8716C61.049 37.7093 60.8947 37.3943 60.8947 36.6211V36.4134H60.0143V36.9456C60.0143 37.7785 60.3773 38.3775 61.0377 38.6162C61.6322 38.8238 62.4672 38.9049 64.2485 38.9049C65.9413 38.9049 66.7763 38.8238 67.3164 38.6162C68.0425 38.3274 68.3829 37.6902 68.3829 36.6258C68.3829 35.6712 68.1401 35.1462 67.5479 34.8455C67.0191 34.5806 66.5131 34.5329 64.1827 34.5209C62.1042 34.5209 61.7729 34.4875 61.3894 34.3014C61.0808 34.151 60.9355 33.8503 60.9355 33.3181L60.9401 33.3158ZM57.1688 37.7069C57.5 37.1413 57.6521 36.2273 57.6521 34.9672C57.6521 33.7071 57.5 32.8027 57.1688 32.2371C56.7285 31.428 55.9162 31.1154 54.2983 31.1154H48.5914V38.8286H54.2983C55.9162 38.8286 56.7285 38.5159 57.1688 37.7069ZM56.7399 35.0126C56.7399 36.1461 56.6196 36.8621 56.3655 37.3012C56.0705 37.8 55.3988 38.053 54.3641 38.053H49.4672V31.8815H54.2937C55.4283 31.8815 56.0433 32.1034 56.336 32.5759C56.5992 33.0055 56.7308 33.8153 56.7308 35.0054L56.7399 35.0126ZM45.9433 33.4661C45.9433 32.6356 45.789 32.0342 45.4894 31.6977C45.1059 31.2586 44.5818 31.1082 43.479 31.1082H37.4407V38.8214H38.3212V35.719H43.3564C44.634 35.719 44.9448 36.0316 44.9289 37.3633V38.831H45.8094V36.8311C45.8094 35.9409 45.5235 35.5352 44.7769 35.3848C45.6846 35.1653 45.9523 34.7262 45.9523 33.4757L45.9433 33.4661ZM45.0447 33.4303C45.0447 34.6784 44.6589 34.9911 43.1522 34.9911H38.3212V31.8886H43.0864C44.6362 31.8886 45.0333 32.2013 45.0333 33.4279L45.0447 33.4303ZM34.8403 38.8286H35.8069L31.4956 31.1154H30.2521L25.9407 38.8286H26.9187L27.8853 37.0936H33.8782L34.8403 38.8286ZM33.4538 36.3657H28.2938L30.8761 31.7621L33.4538 36.3657ZM22.6912 38.8214L26.154 31.1082H25.2304L22.1784 37.9766L19.0878 31.1082H18.0554L14.9761 37.9766L11.9196 31.1082H10.9506L14.4156 38.8214H15.4935L18.5614 32.0103L21.6179 38.8214H22.6912ZM3.19922 37.0864H9.24651L10.2109 38.8214H11.1776L6.86617 31.1082H6.61883L6.25577 31.7765L8.82899 36.3585H3.60994L3.19922 37.0864Z" fill="white"/>
<path d="M18.9131 24.9294H15.9633C15.7768 24.178 15.5104 23.4511 15.169 22.7625C13.7576 24.5261 12.1987 25.2373 9.78662 25.2373C4.56756 25.2373 1.10938 21.092 1.10938 14.9061C1.10938 11.8419 1.96031 9.09025 3.48972 7.10946C5.1757 4.97354 7.41308 3.98553 10.5014 3.98553C13.7667 3.98553 16.1107 5.19072 17.6197 7.63688C18.2369 8.59148 18.5274 9.42914 18.9131 11.1928L13.0905 11.7798C12.7365 9.52221 11.9128 8.56284 10.4129 8.56284C8.38428 8.56284 7.44258 10.472 7.44258 14.658C7.44258 16.7628 7.64907 17.906 8.20502 18.8964C8.45403 19.351 8.81548 19.7262 9.25098 19.9821C9.68647 20.238 10.1797 20.365 10.6784 20.3497C12.2668 20.3497 13.2652 19.3594 13.3242 17.7532H10.0884V13.3883H18.9131V24.9294Z" fill="white"/>
<path d="M27.3958 17.2569C27.3958 20.4118 27.9267 21.5884 29.2769 21.5884C30.0734 21.5884 30.6021 21.2471 30.8358 20.567C31.1258 19.4483 31.2648 18.2922 31.2488 17.1328C31.2488 14.133 30.7201 13.0185 29.3381 13.0185C27.9562 13.0185 27.3958 14.2547 27.3958 17.2569ZM37.3392 17.2879C37.3392 21.9273 33.9559 25.2373 29.2179 25.2373C24.6319 25.2373 21.3076 21.8962 21.3076 17.2879C21.3076 12.6152 24.6592 9.24542 29.3381 9.24542C34.1034 9.24542 37.3392 12.4934 37.3392 17.2879Z" fill="white"/>
<path d="M42.3446 24.9295H42.1381C41.4436 24.9295 40.7776 24.6393 40.2865 24.1228C39.7954 23.6064 39.5195 22.9059 39.5195 22.1755C39.5195 21.445 39.7954 20.7445 40.2865 20.2281C40.7776 19.7116 41.4436 19.4214 42.1381 19.4214H42.3446C43.0391 19.4214 43.7052 19.7116 44.1963 20.2281C44.6873 20.7445 44.9632 21.445 44.9632 22.1755C44.9632 22.9059 44.6873 23.6064 44.1963 24.1228C43.7052 24.6393 43.0391 24.9295 42.3446 24.9295ZM42.3446 15.0613H42.1381C41.4436 15.0613 40.7776 14.7712 40.2865 14.2547C39.7954 13.7382 39.5195 13.0377 39.5195 12.3073C39.5186 11.945 39.5857 11.5861 39.7169 11.2512C39.8481 10.9162 40.0408 10.6118 40.2841 10.3553C40.5273 10.0988 40.8163 9.89528 41.1345 9.75643C41.4526 9.61758 41.7937 9.54611 42.1381 9.54611H42.3446C43.0387 9.54611 43.7044 9.83594 44.1955 10.3519C44.6865 10.8679 44.9626 11.5677 44.9632 12.2977C44.9632 13.0282 44.6873 13.7286 44.1963 14.2451C43.7052 14.7616 43.0391 15.0518 42.3446 15.0518" fill="white"/>
<path d="M62.1887 22.0752C61.8109 22.5194 61.3466 22.8729 60.8275 23.1117C60.3083 23.3505 59.7464 23.4691 59.1798 23.4594C57.6322 23.4594 56.1414 22.5382 55.4992 21.154C55.0613 20.1994 54.916 19.4023 54.916 17.6196H65.3995C65.3723 15.529 65.1386 14.2785 64.5532 12.9492C63.5366 10.7393 61.5443 9.44345 59.1208 9.44345C55.1793 9.44345 52.4336 12.732 52.4336 17.4979C52.4336 22.2637 55.0908 25.3948 59.0346 25.3948C61.955 25.3948 64.2037 23.7243 65.1386 20.9392L63.0646 20.4786C62.8651 21.0613 62.5685 21.6019 62.1887 22.0752ZM56.0484 12.8251C56.4147 12.3309 56.8846 11.9322 57.4215 11.6603C57.9583 11.3883 58.5476 11.2504 59.1435 11.2572C59.7287 11.2335 60.3098 11.3681 60.8315 11.648C61.3531 11.928 61.7977 12.3439 62.1229 12.8561C62.7061 13.7463 62.9103 14.4551 62.9398 15.8679H55.0318C55.1793 14.436 55.413 13.6866 56.0552 12.8251" fill="white"/>
<path d="M73.8388 11.3813C74.3698 11.3732 74.8947 11.5003 75.3688 11.7517C75.843 12.0031 76.2523 12.3714 76.5618 12.8251C76.9408 13.4098 77.145 13.9635 77.3197 15.1305L79.3347 14.7319C78.7402 11.2882 76.816 9.44345 73.8683 9.44345C70.1333 9.44345 67.6826 12.6414 67.6826 17.4358C67.6826 22.2303 70.0743 25.3948 73.7503 25.3948C75.3569 25.3948 76.6117 24.8722 77.6329 23.7672C78.5655 22.784 78.9739 21.8914 79.3256 20.049L77.3106 19.6791C76.8455 22.1683 75.6178 23.4594 73.8093 23.4594C71.4176 23.4594 70.0153 21.185 70.0153 17.3738C70.0153 13.6866 71.4744 11.3813 73.8388 11.3813Z" fill="white"/>
<path d="M91.0115 13.0615C91.2384 13.6748 91.3043 14.2285 91.3043 15.7988V21.6028C91.6292 21.3653 92.0077 21.2217 92.402 21.1865C92.7963 21.1513 93.1924 21.2258 93.5507 21.4023V15.7988C93.5507 13.2763 93.4055 12.5078 92.6748 11.4005C91.8579 10.107 90.4874 9.4006 88.9103 9.4006C86.9248 9.4006 85.67 10.3242 84.5013 12.6295V4.47964H82.2549V25.0035H84.5013V16.8131C84.5013 15.0304 84.8531 13.8299 85.6995 12.8157C86.0445 12.3831 86.4715 12.0311 86.9533 11.7821C87.4351 11.533 87.9609 11.3925 88.4973 11.3695C89.028 11.3581 89.5499 11.5129 89.9968 11.8142C90.4436 12.1155 90.7952 12.5496 91.007 13.0615" fill="white"/>
<path d="M55.1974 4.47964H41.6143V6.72534H47.1918V24.994H49.6176V6.72534H55.1974V4.47964Z" fill="white"/>
<path d="M38.1602 25.3183L71.3148 17.5168" stroke="white" stroke-width="1.51"/>
<path d="M73.1621 2.11447L92.6155 23.5858" stroke="white" stroke-width="1.51"/>
<path d="M23.0635 0.968964L59.7829 6.96862" stroke="white" stroke-width="1.51"/>
<path d="M73.1102 2.11676L71.4492 17.2567" stroke="white" stroke-width="1.51"/>
<path d="M79.8889 30.8825V38.7474H78.6719V33.1889H77.1084V32.2217C77.6701 32.2217 78.0852 32.1402 78.3535 31.9773C78.6282 31.8143 78.7936 31.6407 78.8497 31.4565C78.9121 31.2652 78.9434 31.0739 78.9434 30.8825H79.8889Z" fill="white"/>
<path d="M89.5725 34.0179C89.5787 34.1312 89.5818 34.2942 89.5818 34.5068C89.5818 36.2073 89.1512 37.3799 88.2899 38.0247C87.4348 38.6624 86.4019 38.9812 85.191 38.9812C84.0489 38.9812 83.1283 38.7758 82.4292 38.3648C81.7302 37.9468 81.3807 37.3303 81.3807 36.5155L82.6071 36.558C82.6071 37.0398 82.8537 37.3941 83.3467 37.6208C83.846 37.8405 84.4546 37.9468 85.1723 37.9397C85.6903 37.9539 86.1772 37.8795 86.6328 37.7165C87.0884 37.5464 87.466 37.2666 87.7656 36.8769C88.0714 36.4801 88.243 35.9628 88.2805 35.3251C87.9247 35.6156 87.4972 35.8282 86.9979 35.9628C86.4986 36.0975 86.0679 36.1754 85.7059 36.1967C85.3439 36.2179 84.9601 36.2285 84.5544 36.2285C83.8616 36.2285 83.2625 36.1187 82.7569 35.8991C82.2514 35.6723 81.8675 35.3606 81.6054 34.9638C81.3432 34.5599 81.2091 34.0958 81.2028 33.5715V33.5609V33.5502C81.2028 32.9125 81.3807 32.3811 81.7365 31.956C82.0922 31.5309 82.5697 31.2191 83.1688 31.0207C83.768 30.8152 84.4421 30.7125 85.191 30.7125C86.5267 30.7125 87.5565 30.9782 88.2805 31.5096C89.0107 32.0339 89.4414 32.87 89.5725 34.0179ZM85.4906 35.2401C86.1272 35.2401 86.7264 35.1515 87.2881 34.9744C87.8561 34.7902 88.1432 34.3934 88.1494 33.784C88.1494 33.203 87.9622 32.7815 87.5877 32.5193C87.2132 32.25 86.8387 32.0906 86.4643 32.041C86.096 31.9914 85.6654 31.9631 85.1723 31.956C84.4233 31.9631 83.7867 32.0906 83.2625 32.3386C82.7382 32.5866 82.476 32.9692 82.476 33.4865C82.476 34.0037 82.604 34.3899 82.8599 34.6449C83.122 34.8929 83.4622 35.0559 83.8804 35.1338C84.2985 35.2047 84.8353 35.2401 85.4906 35.2401Z" fill="white"/>
</g>
<defs>
<clipPath id="clip0">
<rect width="94.1176" height="42.525" fill="white"/>
</clipPath>
</defs>
</svg>
