<svg width="160" height="25" viewBox="0 0 160 25" fill="none" xmlns="http://www.w3.org/2000/svg">
<path d="M76.9363 0.106396C75.515 0.308086 74.2229 0.986498 73.3184 2.01328C71.9894 3.51679 71.9156 3.86517 71.8417 10.0075L71.7864 15.4532L70.2358 16.48C69.3867 17.03 68.6484 17.4334 68.6115 17.3601C68.5561 17.2867 68.1869 16.1866 67.7624 14.9031L67.0056 12.5745L67.8177 11.7494C68.8145 10.7776 69.036 10.0626 69.036 7.88063C69.036 5.8454 68.8145 5.03864 68.0577 4.17687C67.0056 2.98506 66.2303 2.76504 62.7231 2.6917L59.6221 2.61835V11.5294V20.4404H61.0988H62.5755L62.6124 16.81L62.6678 13.1979H63.4984H64.3106L65.1043 15.7649C65.898 18.3502 66.1934 19.7987 65.898 19.6153C65.8057 19.5603 65.2889 19.7987 64.772 20.1654C63.6461 20.9355 63.7014 20.9538 65.1043 20.3487C66.0457 19.927 66.1934 19.9087 66.378 20.1654C66.5256 20.3671 66.9502 20.4404 68.0762 20.4404H69.5713L69.3129 19.6887C69.1652 19.267 69.036 18.8636 69.036 18.7719C69.036 18.6436 71.4541 17.3234 71.6756 17.3234C71.7125 17.3234 71.8048 18.0385 71.8602 18.9186C71.9894 21.1188 72.3955 22.1456 73.5584 23.3008C74.9428 24.6759 76.1241 25.0793 78.6345 24.9876C80.2035 24.9326 80.7388 24.8409 81.4772 24.4926C82.6585 23.9058 83.563 22.9891 84.1537 21.7422L84.6336 20.7155L84.7259 14.4264L84.8182 8.15567L88.3807 5.86373C90.3558 4.59859 92.0171 3.60847 92.0909 3.64514C92.1648 3.70015 92.2017 7.49559 92.2017 12.0795V20.4404H96.5026H100.785V19.1569V17.8735H98.0162H95.2474V15.2148V12.5745L97.2224 12.5195L99.1975 12.4645V11.2727L99.216 10.0809L97.2409 10.0259L95.2474 9.97088V7.6056V5.22199H97.8316H100.416V3.93851V2.65503L96.8717 2.61835C92.7001 2.60002 92.4786 2.60002 92.1094 2.93006C91.7956 3.20509 85.1874 6.50547 84.9289 6.50547C84.8551 6.50547 84.7259 5.99208 84.689 5.35034C84.3752 1.64658 81.2003 -0.51701 76.9363 0.106396ZM79.6867 3.93851C80.425 4.37856 80.5727 4.87362 80.5727 7.01887V8.72407L78.653 9.71418C75.7181 11.236 76.0134 11.456 76.0872 7.78896L76.1426 4.63526L76.7517 4.10353C77.4901 3.44345 78.7637 3.37011 79.6867 3.93851ZM90.725 4.10353C90.6142 4.19521 88.0485 5.86373 85.0028 7.82563C81.9386 9.78752 79.1514 11.6027 78.7637 11.8411L78.0992 12.2995L78.4684 12.9046C78.6714 13.2529 78.7822 13.583 78.6899 13.6746C78.5053 13.858 67.1901 19.2486 66.6179 19.432C65.8242 19.6887 66.4702 19.212 70.3097 16.6817C72.4509 15.2698 74.2044 14.0597 74.2044 13.968C74.2044 13.8947 74.0199 13.583 73.7984 13.2896C73.5584 12.9412 73.4661 12.6662 73.5768 12.5745C73.743 12.4095 90.6511 3.95684 90.8173 3.93851C90.8542 3.93851 90.8173 4.01185 90.725 4.10353ZM65.4735 5.66204C65.9349 6.06542 65.9903 6.23044 66.0457 7.55059C66.1565 10.0259 65.4735 10.851 63.4061 10.686L62.6678 10.631L62.6124 7.9173L62.557 5.22199H63.7568C64.7536 5.22199 65.0489 5.29533 65.4735 5.66204ZM80.665 15.3432C80.665 19.1203 80.6096 19.707 80.3143 20.3671C80.0374 20.9538 79.8159 21.1922 79.2806 21.3572C78.3207 21.6689 77.1948 21.4855 76.6225 20.9171C76.1611 20.4404 76.1426 20.3487 76.0872 17.8185L76.0319 15.1781L77.5086 14.5181C78.3392 14.133 79.0037 13.748 79.0037 13.638C79.0037 13.528 78.856 13.1979 78.6899 12.8862C78.3946 12.4095 78.3946 12.3362 78.6345 12.1895C78.7822 12.0978 79.2068 11.8228 79.5575 11.5661C79.9082 11.3094 80.3143 11.1077 80.4435 11.0893C80.6096 11.0893 80.665 12.0611 80.665 15.3432Z" fill="white"/>
<path d="M141.117 2.74621C140.065 3.11292 139.086 4.23138 138.717 5.47819C138.459 6.33996 138.422 7.34841 138.477 12.0423C138.533 17.2496 138.551 17.6529 138.92 18.423C139.622 19.8899 141.062 20.8066 142.667 20.8066C143.461 20.8066 144.679 20.2749 145.159 19.7248C145.639 19.2115 145.805 19.2298 146.027 19.8899C146.211 20.3666 146.322 20.4399 146.95 20.4399H147.67V15.9477V11.4372L145.233 11.4922L142.778 11.5472V12.6474V13.7475L143.756 13.8025L144.753 13.8575L144.679 15.581C144.624 17.0845 144.569 17.3596 144.199 17.7263C143.627 18.313 142.409 18.2947 141.929 17.7079C141.597 17.3046 141.578 16.9012 141.578 11.6389C141.578 6.21161 141.597 5.99159 141.966 5.51486C142.409 4.9648 143.277 4.87312 143.923 5.31317C144.31 5.58821 144.716 6.81668 144.716 7.77013V8.33853H146.211H147.725L147.577 7.01837C147.522 6.28495 147.337 5.40485 147.19 5.03814C146.821 4.17637 145.898 3.24127 144.993 2.81955C144.089 2.39783 142.187 2.3795 141.117 2.74621Z" fill="white"/>
<path d="M0 11.5477V20.4404H1.29211H2.58422V15.0315C2.58422 12.0611 2.63959 9.62251 2.73189 9.62251C2.80572 9.62251 3.72866 12.0611 4.7808 15.0315L6.70051 20.4404H8.04799H9.41394L9.37702 11.5844L9.32164 2.74671L7.99262 2.6917L6.64513 2.6367V7.73395C6.64513 10.5943 6.5713 12.7395 6.479 12.6295C6.40517 12.5378 5.55607 10.3559 4.61468 7.78896C3.67328 5.222 2.8611 3.00341 2.82418 2.87506C2.75035 2.72837 2.28888 2.65503 1.36594 2.65503H0V11.5477Z" fill="white"/>
<path d="M12.1826 11.5477V20.4404H16.5204H20.8767L20.8213 19.1936L20.7659 17.9651L17.9971 17.8735L15.2283 17.7818V15.2148V12.6479L17.2218 12.5929L19.1969 12.5378V11.2727V10.0076L17.2218 9.95255L15.2283 9.89754V7.60561V5.31367L17.8679 5.25867L20.5075 5.20366L20.4521 3.97519L20.3967 2.74671L16.2989 2.6917L12.1826 2.65503V11.5477Z" fill="white"/>
<path d="M21.8183 3.93851L21.7998 5.20366L23.3134 5.25867L24.827 5.31367L24.8824 12.8679L24.9193 20.4404H26.396H27.8727V12.8312V5.222H29.3494H30.8261V3.93851V2.65503H26.3222H21.8367L21.8183 3.93851Z" fill="white"/>
<path d="M38.2098 3.93851V5.222H40.591C41.92 5.222 43.0276 5.277 43.0829 5.36868C43.1568 5.47869 40.5541 11.1627 38.3575 15.6732C37.6745 17.0484 37.5822 17.4151 37.5084 18.8269L37.4346 20.4404H41.8831H46.3501L46.2947 19.1936L46.2394 17.9651L43.4336 17.8735L40.6279 17.7818L43.4706 11.6394L46.3317 5.49703V4.06686V2.65503H42.2707H38.2098V3.93851Z" fill="white"/>
<path d="M48.7314 11.5477V20.4404H52.9769H57.2224V19.1569V17.8918L54.509 17.8368L51.7771 17.7818V15.2148V12.6479L53.7707 12.5929L55.7458 12.5378V11.2727V10.0076L53.7707 9.95255L51.7771 9.89754V7.60561V5.31367L54.4167 5.25867L57.0563 5.20366L57.0009 3.97519L56.9456 2.74671L52.8477 2.6917L48.7314 2.65503V11.5477Z" fill="white"/>
<path d="M103 11.5477V20.4404H104.384H105.769V14.9948C105.769 11.6211 105.843 9.62251 105.935 9.71418C106.027 9.8242 106.895 12.1161 107.855 14.8481C108.833 17.5618 109.664 19.9454 109.737 20.1104C109.848 20.3854 110.107 20.4404 111.14 20.4404H112.414V11.5477V2.65503H111.122H109.83V7.49559C109.83 10.1726 109.756 12.3912 109.682 12.4462C109.59 12.5012 108.925 10.9243 108.187 8.92576C107.449 6.94553 106.636 4.7086 106.359 3.97519L105.861 2.65503H104.44H103V11.5477Z" fill="white"/>
<path d="M115.367 11.5477V20.4404H119.613H123.858V19.1569V17.8735H121.089H118.302L118.357 15.2515L118.413 12.6479L120.406 12.5929L122.381 12.5378V11.2727V9.98922H120.351H118.302L118.357 7.64228L118.413 5.31367L120.96 5.25867L123.489 5.20366V3.93851V2.65503H119.428H115.367V11.5477Z" fill="white"/>
<path d="M126.258 11.5294V20.4404H127.735H129.211L129.248 16.81L129.303 13.1979H130.134H130.946L131.998 16.7733L133.032 20.3488L134.546 20.4038C135.358 20.4404 136.041 20.3854 136.041 20.3121C136.041 20.2387 135.524 18.5885 134.915 16.6817C133.438 12.1161 133.494 12.5195 134.25 11.9511C136.096 10.5576 136.189 5.57037 134.417 3.88351C133.438 2.9484 132.7 2.76505 129.359 2.6917L126.258 2.61836V11.5294ZM131.925 5.51536C132.718 6.01042 132.995 8.4307 132.386 9.62251C131.98 10.4293 131.408 10.7226 130.19 10.7226H129.211V8.00899C129.211 6.50548 129.267 5.24033 129.322 5.16699C129.507 4.98364 131.5 5.25867 131.925 5.51536Z" fill="white"/>
<path d="M149.608 2.96673C149.682 3.15009 150.512 5.47869 151.472 8.13733L153.207 12.9962V16.7183V20.4404H154.776H156.345V16.6817V12.9412L158.173 7.84397L160 2.74671L158.505 2.6917C157.656 2.65503 156.973 2.71004 156.917 2.82005C156.862 2.93006 156.401 4.41524 155.884 6.13877C155.016 9.05411 154.776 9.58584 154.592 9.01744C154.555 8.90742 154.075 7.42225 153.539 5.71705L152.58 2.65503H151.029C149.626 2.65503 149.497 2.6917 149.608 2.96673Z" fill="white"/>
</svg>
