<svg width="25" height="24" viewBox="0 0 25 24" fill="none" xmlns="http://www.w3.org/2000/svg">
<path d="M0.753201 3.10459C-1.77345 6.14148 2.60941 10.6776 5.74903 13.0442C6.11352 13.319 6.61807 13.2923 6.96464 12.9953L9.03069 11.2245C9.48215 10.8376 9.49826 10.1445 9.06528 9.73702L2.00795 3.09498C1.64529 2.75367 1.07171 2.72175 0.753201 3.10459Z" fill="black"/>
<path d="M13.4518 12.542C13.4263 12.5285 13.4011 12.5145 13.376 12.5C11.376 11.3453 12.5932 12.0469 13.4518 12.542Z" fill="black"/>
<rect x="12.6997" y="9.8204" width="2" height="16.2616" transform="rotate(46.6416 12.6997 9.8204)" fill="black"/>
<rect x="10.5591" y="12.9207" width="2" height="13.1991" transform="rotate(-40.3171 10.5591 12.9207)" fill="black"/>
<path d="M20.8899 4.21389C21.8705 5.5989 21.3741 8.10416 19.0749 9.73218C16.7754 11.3602 14.2469 10.9963 13.2663 9.61124C12.2859 8.2261 12.7827 5.72032 15.0821 4.09238C17.3814 2.46476 19.9093 2.82903 20.8899 4.21389Z" stroke="black" stroke-width="2"/>
</svg>
